<?xml version="1.0" encoding="utf-8"?>
<!-- Generator: Adobe Illustrator 20.1.0, SVG Export Plug-In . SVG Version: 6.00 Build 0)  -->
<svg version="1.1" id="Layer_1" xmlns="http://www.w3.org/2000/svg" xmlns:xlink="http://www.w3.org/1999/xlink" x="0px" y="0px"
	 viewBox="0 0 256.2 235.5" style="enable-background:new 0 0 256.2 235.5;" xml:space="preserve">
<style type="text/css">
	.st0{clip-path:url(#SVGID_2_);}
	.st1{fill:none;stroke:#000000;stroke-linecap:round;stroke-linejoin:round;stroke-miterlimit:10;}
	.st2{fill:none;stroke:#000000;stroke-width:2;stroke-linecap:round;stroke-linejoin:round;stroke-miterlimit:10;}
	.st3{fill:#FFFFFF;stroke:#000000;stroke-width:2;stroke-miterlimit:10;}
	.st4{fill:none;stroke:#000000;stroke-width:2;stroke-miterlimit:10;}
	.st5{fill:none;stroke:#000000;stroke-miterlimit:10;}
	.st6{fill:#FFD16C;}
	.st7{fill:#C7C8C9;}
	.st8{fill:#FFFFFF;}
	.st9{fill:none;}
</style>
<g>
	<path d="M138.5,0h-20.8C52.8,0,0,52.8,0,117.7s52.8,117.7,117.7,117.7h20.8c64.9,0,117.7-52.8,117.7-117.7S203.4,0,138.5,0z"/>
	<g>
		<path class="st6" d="M138.5,0h-20.8C52.8,0,0,52.8,0,117.7s52.8,117.7,117.7,117.7h20.8c64.9,0,117.7-52.8,117.7-117.7
			S203.4,0,138.5,0z M33.3,190.2h12.5c2.1,2.7,4.3,5.3,6.6,7.7H40.6C38.1,195.5,35.6,192.9,33.3,190.2z M6.4,117.7
			c0-1.3,0.1-2.6,0.1-3.9h14.4c0,1.3-0.1,2.6-0.1,3.9s0.1,2.6,0.1,3.9H6.5C6.4,120.3,6.4,119,6.4,117.7z M40.6,37.5h11.8
			c-2.3,2.5-4.5,5.1-6.6,7.7H33.3C35.6,42.5,38.1,40,40.6,37.5z M181.7,220.4l-4-9.8c11.5-4.9,22-11.9,30.9-20.5l7.5,7.5
			C206.2,207.2,194.6,215,181.7,220.4z M138.5,212.2c-52.1,0-94.4-42.4-94.4-94.4s42.4-94.4,94.4-94.4c52.1,0,94.4,42.4,94.4,94.4
			S190.6,212.2,138.5,212.2z M96.5,220.9l4.1-9.7c11.2,4.6,23.5,7.2,36.3,7.4v10.6C122.6,228.9,109,226,96.5,220.9z M136.9,6.4V17
			c-12.2,0.2-23.9,2.6-34.7,6.7l-4-9.8C110.3,9.2,123.3,6.6,136.9,6.4z M99.3,24.9c-11.5,4.9-22,11.9-30.9,20.5l-7.5-7.5
			c9.9-9.6,21.5-17.4,34.4-22.8L99.3,24.9z M66.2,47.7C58,56.1,51.2,66,46.4,76.9l-9.7-4.1c5.4-12.2,12.9-23.2,22-32.6L66.2,47.7z
			 M45.1,79.8c-4.6,11.2-7.2,23.5-7.4,36.3H27.2c0.2-14.3,3.1-27.9,8.2-40.5L45.1,79.8z M37.7,119.3c0.2,12.2,2.6,23.9,6.7,34.7
			l-9.8,4c-4.7-12-7.3-25-7.5-38.6H37.7z M45.6,157c4.9,11.5,11.9,22,20.5,30.9l-7.5,7.5c-9.6-9.9-17.4-21.5-22.8-34.4L45.6,157z
			 M60.9,197.6l7.5-7.5c8.5,8.2,18.3,14.9,29.3,19.8l-4.1,9.7C81.4,214.2,70.3,206.7,60.9,197.6z M210.8,47.7l7.5-7.5
			c9.6,9.9,17.4,21.5,22.8,34.4l-9.8,4C226.5,67,219.4,56.5,210.8,47.7z M208.6,45.4c-8.5-8.2-18.3-14.9-29.3-19.8l4.1-9.7
			c12.2,5.4,23.2,12.9,32.6,22L208.6,45.4z M176.4,24.4c-11.2-4.6-23.5-7.2-36.3-7.4V6.4c14.3,0.2,27.9,3.1,40.5,8.2L176.4,24.4z
			 M140.1,229.1v-10.6c12.2-0.2,23.9-2.6,34.7-6.7l4,9.8C166.7,226.2,153.7,228.9,140.1,229.1z M210.8,187.8
			c8.2-8.5,14.9-18.3,19.8-29.3l9.7,4.1c-5.4,12.2-12.9,23.2-22,32.6L210.8,187.8z M231.9,155.6c4.6-11.2,7.2-23.5,7.4-36.3h10.6
			c-0.2,14.3-3.1,27.9-8.2,40.5L231.9,155.6z M239.3,116.1c-0.2-12.2-2.6-23.9-6.7-34.7l9.8-4c4.7,12,7.3,25,7.5,38.6H239.3z
			 M85.8,12.5h-4.4c3.8-1.3,7.6-2.4,11.6-3.3C90.5,10.2,88.1,11.3,85.8,12.5z M79.9,15.7c-4.1,2.4-8,4.9-11.8,7.7h-9.5
			c4.6-2.9,9.5-5.5,14.6-7.7H79.9z M64.1,26.6c-3,2.4-5.8,5-8.6,7.7H44.1c3.1-2.8,6.4-5.3,9.8-7.7H64.1z M43.4,48.4
			c-1.8,2.5-3.6,5.1-5.2,7.7H25c1.8-2.7,3.7-5.2,5.7-7.7H43.4z M36.3,59.3c-1.4,2.5-2.8,5.1-4.1,7.7H18.6c1.4-2.6,2.8-5.2,4.3-7.7
			H36.3z M30.8,70.2c-1.1,2.5-2.2,5.1-3.1,7.7h-14c1-2.6,2.1-5.2,3.3-7.7H30.8z M26.6,81.1c-0.8,2.5-1.6,5.1-2.3,7.7H10.2
			c0.7-2.6,1.5-5.2,2.4-7.7H26.6z M23.6,92.1c-0.6,2.5-1.1,5.1-1.5,7.7H7.8c0.4-2.6,1-5.2,1.6-7.7H23.6z M21.7,103
			c-0.3,2.6-0.6,5.1-0.7,7.7H6.6c0.2-2.6,0.4-5.2,0.8-7.7H21.7z M21,124.8c0.2,2.6,0.4,5.2,0.7,7.7H7.4c-0.3-2.6-0.6-5.1-0.8-7.7H21
			z M22.1,135.7c0.4,2.6,0.9,5.2,1.5,7.7H9.4c-0.6-2.5-1.1-5.1-1.6-7.7H22.1z M24.4,146.6c0.7,2.6,1.4,5.2,2.3,7.7h-14
			c-0.9-2.5-1.7-5.1-2.4-7.7H24.4z M27.7,157.5c0.9,2.6,2,5.2,3.1,7.7H17c-1.2-2.5-2.3-5.1-3.3-7.7H27.7z M32.2,168.4
			c1.3,2.6,2.6,5.2,4.1,7.7H23c-1.6-2.5-3-5.1-4.3-7.7H32.2z M38.2,179.3c1.6,2.6,3.4,5.2,5.2,7.7H30.7c-2-2.5-3.9-5.1-5.7-7.7H38.2
			z M55.5,201.2c2.7,2.7,5.6,5.3,8.6,7.7H53.9c-3.4-2.4-6.7-5-9.8-7.7H55.5z M68.1,212.1c3.8,2.8,7.7,5.4,11.8,7.7h-6.7
			c-5.1-2.2-9.9-4.8-14.6-7.7H68.1z M85.8,223c2.3,1.2,4.7,2.3,7.1,3.3c-3.9-0.9-7.8-2-11.6-3.3H85.8z"/>
		<path class="st6" d="M138.5,29.1c-48.9,0-88.7,39.8-88.7,88.7s39.8,88.7,88.7,88.7c48.9,0,88.7-39.8,88.7-88.7
			S187.4,29.1,138.5,29.1z M138.5,200c-45.4,0-82.3-36.9-82.3-82.3s36.9-82.3,82.3-82.3s82.3,36.9,82.3,82.3S183.9,200,138.5,200z"
			/>
		<path class="st6" d="M83.5,82.8c0.2-0.3,0.1-0.8-0.2-1l-4.5-2.9c-0.3-0.2-0.8-0.1-1,0.2c-0.2,0.3-0.1,0.8,0.2,1l4.5,2.9
			C82.9,83.3,83.3,83.2,83.5,82.8z"/>
		<path class="st6" d="M82.2,74.1c0.3,0.2,0.7,0.2,1-0.1l0.9-1.1l3.6,3c0.3,0.3,0.8,0.2,1-0.1c0.3-0.3,0.2-0.8-0.1-1l-3.6-3l0.9-1.1
			c0.2-0.3,0.2-0.7-0.1-1s-0.7-0.2-1,0.1l-2.8,3.3C81.8,73.4,81.9,73.9,82.2,74.1z"/>
		<path class="st6" d="M93.5,66.9c1-0.5,1.3-0.5,1.6-0.3l0,0c0.3,0.3,0.1,0.7-0.3,1.1c-0.5,0.4-1.1,0.6-1.7,0.7
			c-0.1,0-0.3,0.1-0.4,0.2c-0.3,0.3-0.3,0.7-0.1,1c0.2,0.2,0.4,0.3,0.6,0.2c0.9-0.1,1.8-0.5,2.4-1.1c1.1-1,1.4-2.2,0.5-3.2l0,0
			c-0.8-0.9-1.7-0.7-2.9-0.1c-1.1,0.5-1.4,0.6-1.7,0.3l0,0c-0.2-0.2-0.2-0.6,0.3-1c0.3-0.3,0.8-0.5,1.4-0.6c0.1,0,0.2-0.1,0.3-0.2
			c0.3-0.3,0.3-0.7,0.1-1c-0.2-0.2-0.4-0.3-0.6-0.2c-0.7,0.1-1.4,0.4-2,1c-1,0.9-1.2,2.2-0.4,3.1l0,0C91.4,67.8,92.3,67.5,93.5,66.9
			z"/>
		<path class="st6" d="M109.6,59.4c0.4-0.2,0.5-0.6,0.3-1l-2.1-4.2l1.3-0.6c0.3-0.2,0.5-0.6,0.3-0.9c-0.2-0.3-0.6-0.5-0.9-0.3
			l-3.8,1.9c-0.3,0.2-0.5,0.6-0.3,0.9c0.2,0.3,0.6,0.5,0.9,0.3l1.3-0.6l2.1,4.2C108.8,59.4,109.2,59.6,109.6,59.4z"/>
		<path class="st6" d="M118.8,49.3l0.6,1.9l-2.6,0.8l-0.6-1.9c-0.1-0.4-0.5-0.6-0.9-0.5c-0.4,0.1-0.6,0.5-0.5,0.9l1.6,5.1
			c0.1,0.4,0.5,0.6,0.9,0.5c0.4-0.1,0.6-0.5,0.5-0.9l-0.6-1.9l2.6-0.8l0.6,1.9c0.1,0.4,0.5,0.6,0.9,0.5c0.4-0.1,0.6-0.5,0.5-0.9
			l-1.6-5.1c-0.1-0.4-0.5-0.6-0.9-0.5C118.9,48.5,118.7,48.9,118.8,49.3z"/>
		<path class="st6" d="M128.1,53.4l3.7-0.5c0.4,0,0.6-0.4,0.6-0.7c0-0.4-0.4-0.6-0.7-0.6l-3,0.4l-0.2-1.4l2.5-0.3
			c0.4,0,0.6-0.4,0.6-0.7c0-0.4-0.4-0.6-0.7-0.6l-2.5,0.3l-0.2-1.3l3-0.4c0.4,0,0.6-0.4,0.6-0.7c0-0.4-0.4-0.6-0.7-0.6l-3.7,0.5
			c-0.4,0.1-0.7,0.4-0.6,0.8l0.7,5.2C127.4,53.1,127.7,53.4,128.1,53.4z"/>
		<path class="st6" d="M146.2,52.3c-0.1,0.4,0.2,0.8,0.6,0.8c0.4,0.1,0.8-0.2,0.8-0.6l0.6-4.6l1.4,0.2c0.4,0,0.7-0.2,0.8-0.6
			c0-0.4-0.2-0.7-0.6-0.8l-4.3-0.5c-0.4,0-0.7,0.2-0.8,0.6c0,0.4,0.2,0.7,0.6,0.8l1.4,0.2L146.2,52.3z"/>
		<path class="st6" d="M155.3,54.8c0.4,0.1,0.8-0.1,0.9-0.5l1.4-5.1c0.1-0.4-0.1-0.8-0.5-0.9c-0.4-0.1-0.8,0.1-0.9,0.5l-1.4,5.1
			C154.6,54.3,154.9,54.7,155.3,54.8z"/>
		<path class="st6" d="M169.3,52.7c-0.3-0.1-0.5-0.1-0.8,0.1l-2.8,1.9l-0.5-3.4c0-0.3-0.2-0.5-0.5-0.6l-0.1-0.1
			c-0.4-0.2-0.8,0-1,0.4l-2.1,4.9c-0.2,0.4,0,0.8,0.4,0.9c0.4,0.2,0.8,0,0.9-0.4l1.3-3l0.4,2.3c0,0.3,0.2,0.5,0.4,0.6
			c0.2,0.1,0.5,0,0.7-0.1l2-1.3l-1.3,3.1c-0.2,0.4,0,0.8,0.4,1c0.4,0.2,0.8,0,1-0.4l2.1-4.9c0.2-0.4,0-0.8-0.4-1L169.3,52.7z"/>
		<path class="st6" d="M176.6,56.8c-0.3-0.2-0.8-0.1-1,0.2l-2.9,4.3c-0.2,0.3-0.1,0.8,0.2,1l3.1,2.1c0.3,0.2,0.7,0.1,0.9-0.2
			c0.2-0.3,0.1-0.7-0.2-0.9l-2.5-1.7l0.8-1.2l2.1,1.4c0.3,0.2,0.7,0.1,0.9-0.2c0.2-0.3,0.1-0.7-0.2-0.9l-2.1-1.4l0.7-1.1l2.5,1.6
			c0.3,0.2,0.7,0.1,0.9-0.2s0.1-0.7-0.2-0.9L176.6,56.8z"/>
		<path class="st6" d="M193.5,72.5c0.3-0.2,0.3-0.7,0.1-1l-2.9-3.2c-0.2-0.3-0.7-0.3-1-0.1c-0.3,0.2-0.3,0.7-0.1,1l0.9,1.1l-3.5,3.1
			c-0.3,0.3-0.3,0.7-0.1,1c0.3,0.3,0.7,0.3,1,0.1l3.5-3.1l0.9,1.1C192.8,72.7,193.2,72.7,193.5,72.5z"/>
		<path class="st6" d="M194.5,78.2L194.5,78.2c-1.6,1-2.1,3.1-1,4.8c1.1,1.7,3.2,2.2,4.8,1.2l0,0c1.6-1,2.1-3.1,1-4.8
			C198.3,77.6,196.1,77.1,194.5,78.2z M197.5,82.9L197.5,82.9c-1,0.6-2.2,0.4-2.8-0.6c-0.6-1-0.3-2.2,0.7-2.8l0,0
			c1-0.6,2.2-0.4,2.8,0.6C198.8,81,198.5,82.2,197.5,82.9z"/>
		<path class="st6" d="M111.6,187.9c1,0.4,1.8,0.3,2.5,0.1c0.2-0.1,0.3-0.2,0.4-0.4c0.1-0.3,0-0.7-0.4-0.9c-0.2-0.1-0.3-0.1-0.5,0
			c-0.5,0.2-1,0.2-1.5,0c-1.1-0.4-1.5-1.6-1-2.7l0,0c0.4-1.1,1.5-1.6,2.6-1.2c0.5,0.2,0.8,0.5,1.1,0.9c0.1,0.1,0.2,0.2,0.4,0.3
			c0.4,0.1,0.8,0,0.9-0.4c0.1-0.2,0-0.5-0.1-0.6c-0.4-0.6-0.9-1.1-1.8-1.4c-1.9-0.7-3.8,0.2-4.5,2l0,0
			C109,185.3,109.8,187.2,111.6,187.9z"/>
		<path class="st6" d="M121.6,190.2l0.3-1.4l1.1,0.3l1,2.1c0.1,0.3,0.3,0.5,0.6,0.5c0.3,0.1,0.7-0.1,0.8-0.5c0-0.2,0-0.4-0.1-0.6
			l-0.7-1.4c0.9-0.2,1.5-0.7,1.7-1.7l0,0c0.1-0.6,0-1.2-0.2-1.6c-0.3-0.5-0.9-0.9-1.8-1.1l-2.3-0.5c-0.4-0.1-0.8,0.2-0.9,0.6
			l-1.1,5.1c-0.1,0.4,0.2,0.8,0.6,0.9C121.1,190.8,121.5,190.6,121.6,190.2z M122.6,185.6l1.4,0.3c0.7,0.2,1.1,0.6,0.9,1.2l0,0
			c-0.1,0.6-0.6,0.8-1.3,0.7l-1.5-0.3L122.6,185.6z"/>
		<path class="st6" d="M133.8,192.7c0.4,0,0.8-0.3,0.8-0.7l0.1-1.9l2.3-2.8c0.1-0.1,0.2-0.3,0.2-0.5c0-0.4-0.2-0.7-0.7-0.8
			c-0.3,0-0.5,0.1-0.7,0.4l-1.8,2.2l-1.5-2.4c-0.2-0.3-0.4-0.5-0.7-0.5c-0.4,0-0.8,0.3-0.8,0.7c0,0.2,0.1,0.4,0.1,0.5l2,3.1
			l-0.1,1.9C133.1,192.3,133.4,192.6,133.8,192.7z"/>
		<path class="st6" d="M147.5,187.9L147.5,187.9c-0.1-1.4-1.2-2.2-2.8-2.1l-2,0.2c-0.4,0-0.7,0.4-0.7,0.8l0.5,5.3
			c0,0.4,0.4,0.7,0.8,0.7c0.4,0,0.7-0.4,0.7-0.8l-0.1-1.3l1.1-0.1C146.5,190.3,147.6,189.4,147.5,187.9z M144.9,189.2l-1.2,0.1
			l-0.2-2l1.1-0.1c0.7-0.1,1.2,0.2,1.3,0.9l0,0C146.1,188.6,145.7,189.1,144.9,189.2z"/>
		<path class="st6" d="M156.4,183.7l-4.2,1c-0.4,0.1-0.6,0.5-0.5,0.8c0.1,0.4,0.5,0.6,0.8,0.5l1.4-0.3l1.1,4.5
			c0.1,0.4,0.5,0.6,0.9,0.5c0.4-0.1,0.6-0.5,0.5-0.9l-1.1-4.5l1.4-0.3c0.4-0.1,0.6-0.5,0.5-0.8C157.2,183.9,156.8,183.7,156.4,183.7
			z"/>
		<path class="st6" d="M169,182.7c-0.7-1.8-2.7-2.6-4.6-1.8c-1.9,0.8-2.7,2.8-2,4.6l0,0c0.7,1.8,2.7,2.6,4.6,1.8
			C168.9,186.5,169.7,184.5,169,182.7L169,182.7z M166.5,186c-1.1,0.5-2.2-0.1-2.7-1.2l0,0c-0.4-1.1,0-2.2,1.1-2.7
			c1.1-0.5,2.2,0.1,2.7,1.2l0,0C168,184.4,167.6,185.6,166.5,186z"/>
		<path class="st6" d="M167.8,107.9c0-1.8-1.4-3.2-3.2-3.2h-26.1c-5.5,0-9.9-4.4-9.9-9.9s4.4-9.9,9.9-9.9c5.5,0,9.9,4.4,9.9,9.9
			c0,1.8,1.4,3.2,3.2,3.2s3.2-1.4,3.2-3.2c0-9-7.3-16.3-16.3-16.3c-9,0-16.3,7.3-16.3,16.3s7.3,16.3,16.3,16.3h26.1
			C166.3,111.1,167.8,109.7,167.8,107.9z"/>
		<path class="st6" d="M109.2,127.6c0,1.8,1.4,3.2,3.2,3.2h26.1c5.5,0,9.9,4.4,9.9,9.9c0,5.5-4.4,9.9-9.9,9.9
			c-5.5,0-9.9-4.4-9.9-9.9c0-1.8-1.4-3.2-3.2-3.2c-1.8,0-3.2,1.4-3.2,3.2c0,9,7.3,16.3,16.3,16.3c9,0,16.3-7.3,16.3-16.3
			c0-9-7.3-16.3-16.3-16.3h-26.1C110.7,124.4,109.2,125.8,109.2,127.6z"/>
		<path class="st6" d="M138.5,166.7c14.4,0,26.1-11.7,26.1-26.1c0-7.9-3.5-14.9-9.1-19.7h9.1c1.8,0,3.2-1.4,3.2-3.2
			c0-1.8-1.4-3.2-3.2-3.2h-26.1c-10.9,0-19.7-8.8-19.7-19.7s8.8-19.7,19.7-19.7c10.9,0,19.7,8.8,19.7,19.7c0,1.8,1.4,3.2,3.2,3.2
			c1.8,0,3.2-1.4,3.2-3.2c0-14.4-11.7-26.1-26.1-26.1c-14.4,0-26.1,11.7-26.1,26.1c0,7.9,3.5,14.9,9.1,19.7h-9.1
			c-1.8,0-3.2,1.4-3.2,3.2c0,1.8,1.4,3.2,3.2,3.2h26.1c10.9,0,19.7,8.8,19.7,19.7c0,10.9-8.8,19.7-19.7,19.7
			c-10.9,0-19.7-8.8-19.7-19.7c0-1.8-1.4-3.2-3.2-3.2c-1.8,0-3.2,1.4-3.2,3.2C112.4,155,124.1,166.7,138.5,166.7z"/>
		<path class="st6" d="M74.1,121.1c0.4,0,0.7-0.3,0.7-0.7v-4.7h1.4c0.4,0,0.7-0.3,0.7-0.7s-0.3-0.7-0.7-0.7h-4.3
			c-0.4,0-0.7,0.3-0.7,0.7s0.3,0.7,0.7,0.7h1.4v4.7C73.3,120.8,73.7,121.1,74.1,121.1z"/>
		<path class="st6" d="M83.8,116.6L83.8,116.6c0-0.7-0.2-1.2-0.6-1.5c-0.4-0.4-1.1-0.7-2-0.7h-2.3c-0.4,0-0.7,0.3-0.7,0.7v5.3
			c0,0.4,0.3,0.7,0.7,0.7c0.4,0,0.7-0.3,0.7-0.7v-1.5h1.2l1.4,1.8c0.2,0.2,0.4,0.4,0.7,0.4c0.4,0,0.7-0.3,0.7-0.7
			c0-0.2-0.1-0.4-0.2-0.6l-1-1.2C83.2,118.3,83.8,117.6,83.8,116.6z M82.3,116.7c0,0.6-0.4,0.9-1.1,0.9h-1.5v-1.9h1.5
			C81.8,115.7,82.3,116,82.3,116.7L82.3,116.7z"/>
		<path class="st6" d="M86,114.4c-0.4,0-0.7,0.3-0.7,0.7v5.2c0,0.4,0.3,0.7,0.7,0.7h1.9c2.1,0,3.6-1.5,3.6-3.3v0
			c0-1.9-1.5-3.3-3.6-3.3H86z M89.9,117.7L89.9,117.7c0,1.2-0.8,2-2,2h-1.1v-4h1.1C89.1,115.7,89.9,116.5,89.9,117.7z"/>
		<path class="st6" d="M190.5,114.4h-0.2c-0.3,0-0.5,0.1-0.7,0.4l-1.8,2.9l-1.8-2.9c-0.1-0.2-0.4-0.4-0.7-0.4h-0.2
			c-0.4,0-0.7,0.3-0.7,0.7v5.3c0,0.4,0.3,0.7,0.7,0.7c0.4,0,0.7-0.3,0.7-0.7v-3.3l1.3,2c0.2,0.2,0.3,0.4,0.6,0.4
			c0.3,0,0.5-0.1,0.6-0.4l1.3-2v3.3c0,0.4,0.3,0.7,0.7,0.7c0.4,0,0.7-0.3,0.7-0.7v-5.3C191.3,114.7,191,114.4,190.5,114.4z"/>
		<path class="st6" d="M196.1,114.4h-2.3c-0.4,0-0.7,0.3-0.7,0.7v5.3c0,0.4,0.3,0.7,0.7,0.7c0.4,0,0.7-0.3,0.7-0.7v-1.5h1.2l1.4,1.8
			c0.2,0.2,0.4,0.4,0.7,0.4c0.4,0,0.7-0.3,0.7-0.7c0-0.2-0.1-0.4-0.2-0.6l-1-1.2c0.8-0.3,1.3-1,1.3-2v0c0-0.6-0.2-1.2-0.6-1.5
			C197.6,114.6,197,114.4,196.1,114.4z M197.2,116.7c0,0.6-0.4,0.9-1.1,0.9h-1.5v-1.9h1.5C196.7,115.7,197.2,116,197.2,116.7
			L197.2,116.7z"/>
		<path class="st6" d="M205.5,119.9l-2.1-2.6l1.9-1.8c0.2-0.2,0.3-0.3,0.3-0.6c0-0.4-0.3-0.7-0.7-0.7c-0.3,0-0.4,0.1-0.6,0.3
			l-2.7,2.7v-2.2c0-0.4-0.3-0.7-0.7-0.7c-0.4,0-0.7,0.3-0.7,0.7v5.3c0,0.4,0.3,0.7,0.7,0.7c0.4,0,0.7-0.3,0.7-0.7v-1.3l0.8-0.8
			l1.9,2.5c0.2,0.2,0.3,0.4,0.6,0.4c0.4,0,0.7-0.3,0.7-0.7C205.7,120.2,205.7,120.1,205.5,119.9z"/>
	</g>
</g>
</svg>
