<svg xmlns="http://www.w3.org/2000/svg" xmlns:xlink="http://www.w3.org/1999/xlink" version="1.1" style="enable-background:new 0 0 500 500;" xml:space="preserve" width="500" height="500"><rect id="backgroundrect" width="100%" height="100%" x="0" y="0" fill="none" stroke="none"/>
<style type="text/css">
	.st0{fill:#E6E7E8;}
	.st1{fill:#FFFFFF;}
	.st2{fill:#FFD16C;}
	.st3{fill:#FFD16D;}
	.st4{fill:#C7C8CA;}
	.st5{fill:#C7C8C9;}
	.st6{fill:#FFFFFF;stroke:#000000;stroke-width:2;stroke-linecap:round;stroke-linejoin:round;stroke-miterlimit:10;}
</style>


<g class="currentLayer" style=""><title>Layer 1</title><g id="svg_262">
	<g id="svg_263">
		<g id="svg_264">
			<g id="svg_265">
				<g id="svg_266">
					
						<ellipse transform="matrix(0.1736,-0.9848,0.9848,0.1736,46.3896,480.7408) " class="st1" cx="309.70001220703125" cy="212.6999969482422" rx="18.200000762939453" ry="15.5" id="svg_267"/>
				</g>
			</g>
		</g>
		<g id="svg_268">
			<g id="svg_269">
				<g id="svg_270">
					<path d="M308.8,231.9c-0.8,0-1.7-0.1-2.5-0.2c-4.4-0.8-8.1-3.5-10.6-7.6c-2.4-4.1-3.3-9.1-2.4-14.1s3.4-9.5,7.1-12.5       c3.7-3.1,8.2-4.3,12.5-3.6c4.4,0.8,8.1,3.5,10.6,7.6c2.4,4.1,3.3,9.1,2.4,14.1C324.3,225.1,316.9,231.9,308.8,231.9z        M310.5,195.6c-3.1,0-6.1,1.1-8.8,3.3c-3.3,2.7-5.6,6.7-6.4,11.3l0,0c-0.8,4.6-0.1,9.1,2.1,12.8c2.1,3.6,5.4,6,9.2,6.7       c7.9,1.4,15.6-5.1,17.3-14.4c0.8-4.6,0.1-9.1-2.1-12.8c-2.1-3.6-5.4-6-9.2-6.7C311.9,195.7,311.2,195.6,310.5,195.6z        M294.4,210L294.4,210L294.4,210z" id="svg_271"/>
				</g>
			</g>
		</g>
	</g>
	<g id="svg_272">
		<g id="svg_273">
			<g id="svg_274">
				<g id="svg_275">
					<path d="M334.7,336.5H202.8c-0.6,0-1-0.4-1-1s0.4-1,1-1h131.9c0.6,0,1,0.4,1,1S335.2,336.5,334.7,336.5z" id="svg_276"/>
				</g>
			</g>
		</g>
	</g>
	<g id="svg_277">
		<g id="svg_278">
			<g id="svg_279">
				<g id="svg_280">
					<path class="st1" d="M292,276.6c0,16.6,0.9,28.9,1.1,35.6c0.2,3.7,2.6,28,4.2,31.2c1.6,3.2,5.8,2.5,6.5-1.9       c0.7-4.4-2.1-28.8-2.1-28.8l7.9-26.3L292,276.6z" id="svg_281"/>
				</g>
			</g>
		</g>
		<g id="svg_282">
			<g id="svg_283">
				<g id="svg_284">
					<path d="M300.2,346.4c-1.6,0-3-0.9-3.8-2.5c-1.7-3.5-4.2-28-4.3-31.6c-0.1-1.5-0.2-3.3-0.3-5.3c-0.4-6.9-0.9-17.4-0.9-30.3       c0-0.4,0.2-0.7,0.5-0.9c0.3-0.2,0.7-0.2,1,0l17.8,9.7c0.4,0.2,0.6,0.7,0.5,1.2l-7.9,26.1c0.3,2.5,2.7,24.6,2.1,28.9       c-0.5,3.1-2.4,4.5-4,4.7C300.6,346.3,300.4,346.4,300.2,346.4z M293,278.3c0,12.1,0.5,21.9,0.9,28.5c0.1,2,0.2,3.8,0.3,5.3       c0.2,4.3,2.7,27.9,4.1,30.7c0.5,1,1.4,1.5,2.3,1.4c0.9-0.1,2-1,2.4-3c0.5-3.4-1.1-20.2-2.1-28.6c0-0.1,0-0.3,0-0.4l7.7-25.5       L293,278.3z" id="svg_285"/>
				</g>
			</g>
		</g>
	</g>
	<g id="svg_286">
		<g id="svg_287">
			<g id="svg_288">
				<g id="svg_289">
					<path class="st0" d="M296,284.3c0,0,0.1,19.9,0.8,27.9c0.7,8,3.5,33.2,3.5,33.2s-2.3,0.3-3-2c-0.7-2.2-4.3-32.4-4.3-32.4       l-0.2-30L296,284.3z" id="svg_290"/>
				</g>
			</g>
		</g>
	</g>
	<g id="svg_291">
		<g id="svg_292">
			<g id="svg_293">
				<g id="svg_294">
					<path d="M300.2,346.4c-1.6,0-3-0.9-3.8-2.5c-1.7-3.5-4.2-28-4.3-31.6c-0.1-1.5-0.2-3.3-0.3-5.3c-0.4-6.9-0.9-17.4-0.9-30.3       c0-0.4,0.2-0.7,0.5-0.9c0.3-0.2,0.7-0.2,1,0l17.8,9.7c0.4,0.2,0.6,0.7,0.5,1.2l-7.9,26.1c0.3,2.5,2.7,24.6,2.1,28.9       c-0.5,3.1-2.4,4.5-4,4.7C300.6,346.3,300.4,346.4,300.2,346.4z M293,278.3c0,12.1,0.5,21.9,0.9,28.5c0.1,2,0.2,3.8,0.3,5.3       c0.2,4.3,2.7,27.9,4.1,30.7c0.5,1,1.4,1.5,2.3,1.4c0.9-0.1,2-1,2.4-3c0.5-3.4-1.1-20.2-2.1-28.6c0-0.1,0-0.3,0-0.4l7.7-25.5       L293,278.3z" id="svg_295"/>
				</g>
			</g>
		</g>
	</g>
	<g id="svg_296">
		<g id="svg_297">
			<g id="svg_298">
				<g id="svg_299">
					<path class="st1" d="M299.8,278.7c0.9,18.8,1.5,28.8,2,34.9c0.6,6.6,4.8,29.2,6.5,32.6c1.7,3.3,6.1,2.6,6.8-2       s-0.3-22.6-0.3-30.2c0-11.7,4.1-15,3.2-33.5C317.8,274.8,299.8,278.7,299.8,278.7z" id="svg_300"/>
				</g>
			</g>
		</g>
		<g id="svg_301">
			<g id="svg_302">
				<g id="svg_303">
					<path d="M311.3,349.2c-1.6,0-3.1-1-3.9-2.6c-1.8-3.6-6-26.6-6.6-32.9c-0.6-5.9-1.1-15.5-2-34.9c0-0.5,0.3-0.9,0.8-1       c1.4-0.3,14.1-2.9,18.1,0.2c0.8,0.6,1.3,1.5,1.3,2.5c0.5,10.9-0.7,16.7-1.7,21.8c-0.7,3.6-1.5,7-1.5,11.8       c0,2.6,0.1,6.3,0.2,10.4c0.2,7.9,0.5,16.8,0,20c-0.5,3.2-2.5,4.6-4.2,4.9C311.7,349.2,311.5,349.2,311.3,349.2z M300.8,279.5       c0.9,18.8,1.4,28.2,2,33.9c0.6,6.5,4.8,29.1,6.4,32.2c0.5,1.1,1.5,1.6,2.5,1.5c1-0.2,2.2-1.1,2.5-3.2c0.5-3,0.2-11.8,0-19.6       c-0.1-4-0.2-7.8-0.2-10.4c0-5,0.7-8.5,1.5-12.2c1-5,2.2-10.6,1.7-21.3c0-0.4-0.2-0.7-0.6-1C313.9,277.5,305,278.7,300.8,279.5z       " id="svg_304"/>
				</g>
			</g>
		</g>
	</g>
	<g id="svg_305">
		<g id="svg_306">
			<g id="svg_307">
				<g id="svg_308">
					<path class="st0" d="M307.3,287.2c0,0,0.1,19.9,0.8,27.9c0.7,8,3.5,33.2,3.5,33.2s-2.3,0.3-3-2s-6.9-32.7-6.9-32.7l-1.6-27.3       L307.3,287.2z" id="svg_309"/>
				</g>
			</g>
		</g>
	</g>
	<g id="svg_310">
		<g id="svg_311">
			<g id="svg_312">
				<g id="svg_313">
					<g id="svg_314">
						<rect x="165.3000030517578" y="170.6999969482422" class="st2" width="71" height="102.5999984741211" id="svg_315"/>
					</g>
				</g>
			</g>
		</g>
		<g id="svg_316">
			<g id="svg_317">
				<g id="svg_318">
					<g id="svg_319">
						<rect x="168.60000610351562" y="173.89999389648438" class="st1" width="64.5" height="96.4000015258789" id="svg_320"/>
					</g>
				</g>
			</g>
			<g id="svg_321">
				<g id="svg_322">
					<g id="svg_323">
						<path d="M234.1,271.2h-66.5v-98.4h66.5V271.2z M169.6,269.2h62.5v-94.4h-62.5V269.2z" id="svg_324"/>
					</g>
				</g>
			</g>
		</g>
		<g id="svg_325">
			<g id="svg_326">
				<g id="svg_327">
					<g id="svg_328">
						<rect x="191.3000030517578" y="193.1999969482422" class="st2" width="32" height="5.900000095367432" id="svg_329"/>
					</g>
				</g>
			</g>
		</g>
		<g id="svg_330">
			<g id="svg_331">
				<g id="svg_332">
					<g id="svg_333">
						<circle class="st2" cx="181.10000610351562" cy="196.10000610351562" r="2.9000000953674316" id="svg_334"/>
					</g>
				</g>
			</g>
		</g>
		<g id="svg_335">
			<g id="svg_336">
				<g id="svg_337">
					<g id="svg_338">
						<rect x="191.3000030517578" y="209.8000030517578" class="st2" width="32" height="5.900000095367432" id="svg_339"/>
					</g>
				</g>
			</g>
		</g>
		<g id="svg_340">
			<g id="svg_341">
				<g id="svg_342">
					<g id="svg_343">
						<circle class="st2" cx="181.10000610351562" cy="212.6999969482422" r="2.9000000953674316" id="svg_344"/>
					</g>
				</g>
			</g>
		</g>
		<g id="svg_345">
			<g id="svg_346">
				<g id="svg_347">
					<g id="svg_348">
						<rect x="191.3000030517578" y="226.39999389648438" class="st2" width="32" height="5.900000095367432" id="svg_349"/>
					</g>
				</g>
			</g>
		</g>
		<g id="svg_350">
			<g id="svg_351">
				<g id="svg_352">
					<g id="svg_353">
						<circle class="st2" cx="181.10000610351562" cy="229.3000030517578" r="2.9000000953674316" id="svg_354"/>
					</g>
				</g>
			</g>
		</g>
		<g id="svg_355">
			<g id="svg_356">
				<g id="svg_357">
					<g id="svg_358">
						<rect x="191.3000030517578" y="243" class="st2" width="32" height="5.900000095367432" id="svg_359"/>
					</g>
				</g>
			</g>
		</g>
		<g id="svg_360">
			<g id="svg_361">
				<g id="svg_362">
					<g id="svg_363">
						<circle class="st2" cx="181.10000610351562" cy="246" r="2.9000000953674316" id="svg_364"/>
					</g>
				</g>
			</g>
		</g>
		<g id="svg_365">
			<g id="svg_366">
				<g id="svg_367">
					<g id="svg_368">
						<circle class="st1" cx="200.8000030517578" cy="169" r="17.200000762939453" id="svg_369"/>
					</g>
				</g>
			</g>
			<g id="svg_370">
				<g id="svg_371">
					<g id="svg_372">
						<path d="M200.8,187.1c-10,0-18.2-8.1-18.2-18.2s8.1-18.2,18.2-18.2c10,0,18.2,8.1,18.2,18.2S210.8,187.1,200.8,187.1z         M200.8,152.8c-8.9,0-16.2,7.2-16.2,16.2s7.2,16.2,16.2,16.2S217,177.9,217,169S209.7,152.8,200.8,152.8z" id="svg_373"/>
					</g>
				</g>
			</g>
		</g>
		<g id="svg_374">
			<g id="svg_375">
				<g id="svg_376">
					<g id="svg_377">
						<polygon class="st2" points="197.8,169.4 194.6,166.2 190.5,170.4 197.8,177.7 211.2,164.3 207,160.2       " id="svg_378"/>
					</g>
				</g>
			</g>
		</g>
	</g>
	<g id="svg_379">
		<g id="svg_380">
			<g id="svg_381">
				<g id="svg_382">
					<circle class="st2" cx="267.79998779296875" cy="206.5" r="18.200000762939453" id="svg_383"/>
				</g>
			</g>
		</g>
	</g>
	<g id="svg_384">
		<g id="svg_385">
			<g id="svg_386">
				<g id="svg_387">
					<path class="st0" d="M299.4,210c1.4-8,7-13.9,13.6-15.2c-0.1,0-0.1,0-0.2,0c-8.4-1.5-16.7,5.3-18.4,15.2       c-1.7,9.9,3.7,19.1,12.1,20.6c1.6,0.3,3.3,0.3,4.8,0C303,229,297.7,219.9,299.4,210z" id="svg_388"/>
				</g>
			</g>
		</g>
	</g>
	<g id="svg_389">
		<g id="svg_390">
			<g id="svg_391">
				<g id="svg_392">
					<path class="st1" d="M294.3,246c0,0-21.7-10.8-22.7-13.8c-0.9-3-3.2-15-3.8-21.5s6-6.7,6.6-2.4c0.5,3,2.7,16.8,5.2,19.3       c2.5,2.5,17.1,7,17.1,7s6.7,2.2,4.7,7.4C300.1,245.3,294.3,246,294.3,246z" id="svg_393"/>
				</g>
			</g>
		</g>
		<g id="svg_394">
			<g id="svg_395">
				<g id="svg_396">
					<path d="M294.3,247c-0.2,0-0.3,0-0.4-0.1c-5.2-2.6-22.2-11.3-23.2-14.4c-1-3.1-3.2-15.3-3.8-21.7c-0.4-4,1.7-6.1,3.9-6.4       c2-0.2,4.2,1,4.7,3.7c1.2,8.1,3.2,17.1,4.9,18.7c1.7,1.7,10.9,5,16.7,6.8c0.2,0.1,3.9,1.3,5.2,4.2c0.7,1.4,0.7,2.9,0.1,4.5       c-1.5,3.9-7.7,4.6-7.9,4.7C294.4,247,294.3,247,294.3,247z M271.3,206.3c-0.1,0-0.2,0-0.3,0c-1.2,0.1-2.5,1.3-2.2,4.2       c0.6,6.2,2.8,18.3,3.8,21.3c0.7,1.7,11.6,7.9,21.9,13.1c1.6-0.3,5.2-1.2,6-3.4c0.4-1.1,0.4-2,0-2.9c-1-2.1-4-3.1-4-3.1       c-1.5-0.5-14.9-4.7-17.5-7.3c-2.6-2.6-4.7-14.7-5.4-19.9C273.2,207,272.2,206.3,271.3,206.3z" id="svg_397"/>
				</g>
			</g>
		</g>
	</g>
	<g id="svg_398">
		<g id="svg_399">
			<g id="svg_400">
				<g id="svg_401">
					<path class="st1" d="M316.7,252.2l0.1,0.7C316.8,252.5,316.7,252.2,316.7,252.2z" id="svg_402"/>
				</g>
			</g>
		</g>
		<g id="svg_403">
			<g id="svg_404">
				<g id="svg_405">
					<path d="M316.8,254c-0.5,0-0.9-0.4-1-0.9l-0.1-0.7c-0.1-0.5,0.3-1,0.9-1.1c0.5-0.1,1,0.3,1.1,0.9c0,0,0,0.3,0.1,0.8       c0.1,0.5-0.3,1-0.9,1.1C316.9,254,316.9,254,316.8,254z" id="svg_406"/>
				</g>
			</g>
		</g>
	</g>
	<g id="svg_407">
		<g id="svg_408">
			<g id="svg_409">
				<g id="svg_410">
					<path d="M311.3,349.2c-1.6,0-3.1-1-3.9-2.6c-1.8-3.6-6-26.6-6.6-32.9c-0.6-5.9-1.1-15.5-2-34.9c0-0.5,0.3-0.9,0.8-1       c1.4-0.3,14.1-2.9,18.1,0.2c0.8,0.6,1.3,1.5,1.3,2.5c0.5,10.9-0.7,16.7-1.7,21.8c-0.7,3.6-1.5,7-1.5,11.8       c0,2.6,0.1,6.3,0.2,10.4c0.2,7.9,0.5,16.8,0,20c-0.5,3.2-2.5,4.6-4.2,4.9C311.7,349.2,311.5,349.2,311.3,349.2z M300.8,279.5       c0.9,18.8,1.4,28.2,2,33.9c0.6,6.5,4.8,29.1,6.4,32.2c0.5,1.1,1.5,1.6,2.5,1.5c1-0.2,2.2-1.1,2.5-3.2c0.5-3,0.2-11.8,0-19.6       c-0.1-4-0.2-7.8-0.2-10.4c0-5,0.7-8.5,1.5-12.2c1-5,2.2-10.6,1.7-21.3c0-0.4-0.2-0.7-0.6-1C313.9,277.5,305,278.7,300.8,279.5z       " id="svg_411"/>
				</g>
			</g>
		</g>
	</g>
	<g id="svg_412">
		<g id="svg_413">
			<g id="svg_414">
				<g id="svg_415">
					<circle class="st2" cx="277.29998779296875" cy="178.5" r="2.5999999046325684" id="svg_416"/>
				</g>
			</g>
		</g>
	</g>
	<g id="svg_417">
		<g id="svg_418">
			<g id="svg_419">
				<g id="svg_420">
					<circle class="st2" cx="251.6999969482422" cy="182.39999389648438" r="2.5999999046325684" id="svg_421"/>
				</g>
			</g>
		</g>
	</g>
	<g id="svg_422">
		<g id="svg_423">
			<g id="svg_424">
				<g id="svg_425">
					<circle class="st2" cx="275" cy="254.89999389648438" r="2.299999952316284" id="svg_426"/>
				</g>
			</g>
		</g>
	</g>
	<g id="svg_427">
		<g id="svg_428">
			<g id="svg_429">
				<g id="svg_430">
					<path d="M307.1,225.3c-1.7,0-2.9-0.3-2.9-0.3c-0.2-0.1-0.3-0.3-0.3-0.5c0.1-0.2,0.3-0.3,0.5-0.3c0.4,0.1,10.4,2.5,14.9-8       c0.1-0.2,0.3-0.3,0.5-0.2c0.2,0.1,0.3,0.3,0.2,0.5C316.8,224.1,310.7,225.3,307.1,225.3z" id="svg_431"/>
				</g>
			</g>
		</g>
	</g>
	<g id="svg_432">
		<g id="svg_433">
			<g id="svg_434">
				<g id="svg_435">
					<path d="M309.6,217.8C309.5,217.8,309.5,217.8,309.6,217.8c-0.3-0.1-0.4-0.3-0.4-0.5c0.2-0.9-0.4-1.8-1.2-1.9       c-0.9-0.2-1.8,0.4-1.9,1.2c0,0.2-0.2,0.3-0.4,0.3c-0.2,0-0.3-0.2-0.3-0.4c0.3-1.3,1.6-2.1,2.8-1.8c1.3,0.3,2.1,1.6,1.8,2.8       C309.9,217.7,309.7,217.8,309.6,217.8z" id="svg_436"/>
				</g>
			</g>
		</g>
	</g>
	<g id="svg_437">
		<g id="svg_438">
			<g id="svg_439">
				<g id="svg_440">
					<path d="M303.4,216C303.3,216,303.3,216,303.4,216c-0.3-0.1-0.4-0.3-0.4-0.5c0.1-0.4,0-0.9-0.2-1.2s-0.6-0.6-1-0.7       c-0.4-0.1-0.9,0-1.2,0.2s-0.6,0.6-0.7,1c0,0.2-0.2,0.3-0.4,0.3c-0.2,0-0.3-0.2-0.3-0.4c0.1-0.6,0.5-1.2,1-1.5       c0.5-0.3,1.2-0.5,1.8-0.3c0.6,0.1,1.2,0.5,1.5,1s0.5,1.2,0.3,1.8C303.7,215.9,303.5,216,303.4,216z" id="svg_441"/>
				</g>
			</g>
		</g>
	</g>
	<g id="svg_442">
		<g id="svg_443">
			<g id="svg_444">
				<g id="svg_445">
					<path class="st1" d="M240.1,256.9c1.5,2.7,8.7,12.7,12.9,17.6c4.2,4.9,9,0.3,6.3-3.1c-1.8-2.4-11.6-15.4-12.2-21.8" id="svg_446"/>
				</g>
			</g>
		</g>
		<g id="svg_447">
			<g id="svg_448">
				<g id="svg_449">
					<path d="M257,277.6c-1.5,0-3.1-0.7-4.6-2.5c-4.2-4.9-11.5-14.9-13-17.8c-0.3-0.5-0.1-1.1,0.4-1.4c0.5-0.3,1.1-0.1,1.4,0.4       c1.5,2.7,8.8,12.7,12.8,17.4c1.9,2.2,3.6,2.1,4.5,1.3c0.8-0.7,1.1-2,0.2-3.1c-2-2.5-11.7-15.5-12.4-22.3       c-0.1-0.5,0.4-1,0.9-1.1s1,0.4,1.1,0.9c0.5,5.1,7.8,15.8,12,21.3c1.7,2.2,1,4.7-0.5,5.9C258.9,277.3,258,277.6,257,277.6z" id="svg_450"/>
				</g>
			</g>
		</g>
	</g>
	<g id="svg_451">
		<g id="svg_452">
			<g id="svg_453">
				<g id="svg_454">
					<path class="st1" d="M249.2,297.7c0.1,10.5-1.7,45-2.3,48.3c-0.7,3.3-8,3-7.7-2c0.7-9.5,0.3-30.4,0.3-35.7       c0-5.3-3.6-11.4-3.6-11.4" id="svg_455"/>
				</g>
			</g>
		</g>
		<g id="svg_456">
			<g id="svg_457">
				<g id="svg_458">
					<path d="M243.4,349.2c-0.3,0-0.6,0-0.9-0.1c-2.4-0.3-4.6-2.1-4.4-5.2c0.5-7.5,0.4-22.6,0.3-30.8c0-2.1,0-3.8,0-4.9       c0-5-3.4-10.8-3.4-10.9c-0.3-0.5-0.1-1.1,0.4-1.4c0.5-0.3,1.1-0.1,1.4,0.4c0.2,0.3,3.7,6.4,3.7,11.9c0,1.1,0,2.8,0,4.9       c0.1,8.1,0.2,23.3-0.3,30.9c-0.2,2.5,2,3,2.7,3.1c1.3,0.2,2.8-0.3,3-1.3c0.7-3.3,2.4-37.9,2.3-48.1c0-0.6,0.4-1,1-1       c0.5,0,1,0.4,1,1c0.1,10.3-1.7,45.1-2.3,48.5C247.5,348,245.6,349.2,243.4,349.2z" id="svg_459"/>
				</g>
			</g>
		</g>
	</g>
	<g id="svg_460">
		<g id="svg_461">
			<g id="svg_462">
				<g id="svg_463">
					<path class="st1" d="M235.8,296.9c-1.1,20.6-2.7,45.8-3.4,49.1c-0.7,3.3-8,3-7.7-2c0.7-9.5,0.2-37.4,0.2-42.7" id="svg_464"/>
				</g>
			</g>
		</g>
		<g id="svg_465">
			<g id="svg_466">
				<g id="svg_467">
					<path d="M229,349.2c-0.3,0-0.6,0-0.9-0.1c-2.4-0.3-4.6-2.1-4.4-5.2c0.5-7.5,0.3-26.5,0.2-36.8c0-2.7,0-4.7,0-5.8       c0-0.6,0.4-1,1-1s1,0.4,1,1c0,1.1,0,3.1,0,5.8c0.1,10.3,0.3,29.4-0.2,37c-0.2,2.5,2,3,2.7,3.1c1.3,0.2,2.8-0.3,3-1.3       c0.7-3.2,2.3-28.5,3.4-49c0-0.6,0.5-1,1.1-0.9c0.6,0,1,0.5,0.9,1.1c-1.1,20.6-2.7,45.8-3.4,49.3       C233.1,348,231.2,349.2,229,349.2z" id="svg_468"/>
				</g>
			</g>
		</g>
	</g>
	<g id="svg_469">
		<g id="svg_470">
			<g id="svg_471">
				<g id="svg_472">
					<path class="st1" d="M243.9,264c0-6.1,3.8-13.6,4.2-15.5c1.3-7.4-1.6-14.9-8.1-16.5c-2.1-0.5-3.7-1.3-3.7-2.8c0,0,0,0,0,0       c-1.1,0.6-2.4,1-3.7,1.2c-2.2,0.4-4.4,0.2-6.4-0.4c0,0,0,0,0,0s0.2,2.7-1.2,5.1c-5.2,9.1,1.8,21.4,1.3,29.4       c-0.5,8-4.1,6.6-4.1,13.9c0,7.3,2.7,8.1,2.7,22.9c0,0,14.5,3.7,24.4-3.9C249.3,276,243.9,268.3,243.9,264z" id="svg_473"/>
				</g>
			</g>
		</g>
		<g id="svg_474">
			<g id="svg_475">
				<g id="svg_476">
					<path d="M233.3,303.2c-4.7,0-8.3-0.9-8.6-0.9c-0.4-0.1-0.8-0.5-0.8-1c0-8.6-0.9-12.4-1.7-15.5c-0.6-2.3-1-4.3-1-7.4       c0-3.9,1-5.6,2-7.2c0.9-1.5,1.8-3,2.1-6.7c0.2-2.7-0.6-6.1-1.5-9.7c-1.5-6.5-3.3-14,0.3-20.1c1.2-2.2,1.1-4.5,1.1-4.5       c0-0.4,0.2-0.8,0.6-1c0.2-0.1,0.5-0.1,0.7-0.1c2,0.6,4,0.7,5.9,0.4c1.1-0.2,2.3-0.6,3.4-1.2c0.3-0.2,0.8-0.1,1.1,0.1       c0.3,0.2,0.4,0.5,0.4,0.8c0,1,1.8,1.6,2.9,1.9c6.6,1.6,10.4,9.1,8.9,17.6c-0.1,0.7-0.5,1.7-1.1,3.1c-1.2,3.2-3.1,8.1-3.1,12.2       c0,1.2,0.5,2.8,1.2,5c1.6,5.1,4.2,13.5,4.2,28.5c0,0.3-0.1,0.6-0.4,0.8C244.7,302.3,238.3,303.2,233.3,303.2z M225.9,300.5       c3,0.6,14.3,2.3,22.4-3.6c-0.1-14.3-2.6-22.5-4.1-27.4c-0.7-2.4-1.3-4.1-1.3-5.6c0-4.5,1.9-9.6,3.2-12.9c0.5-1.2,0.9-2.3,1-2.7       c1.1-6.3-1.1-13.8-7.4-15.3c-2.2-0.5-3.5-1.3-4.1-2.4c-0.9,0.4-1.9,0.7-2.9,0.8c-1.9,0.3-3.7,0.3-5.6-0.1       c-0.1,1.1-0.4,2.8-1.3,4.3c-3.1,5.5-1.6,12.2,0,18.7c0.9,3.7,1.7,7.3,1.5,10.3c-0.3,4.2-1.4,6.1-2.3,7.7       c-0.9,1.5-1.7,2.8-1.7,6.2c0,2.9,0.4,4.7,1,6.9C224.9,288.4,225.9,292.3,225.9,300.5z M249.3,297.5L249.3,297.5L249.3,297.5z" id="svg_477"/>
				</g>
			</g>
		</g>
	</g>
	<g id="svg_478">
		<g id="svg_479">
			<g id="svg_480">
				<g id="svg_481">
					<g id="svg_482">
						
							<rect x="323.70001220703125" y="174.1999969482422" transform="matrix(0.7071,-0.7071,0.7071,0.7071,-28.3831,281.8985) " class="st2" width="4.800000190734863" height="2" id="svg_483"/>
					</g>
				</g>
			</g>
		</g>
		<g id="svg_484">
			<g id="svg_485">
				<g id="svg_486">
					<g id="svg_487">
						
							<rect x="317.1000061035156" y="180.8000030517578" transform="matrix(0.7071,-0.7071,0.7071,0.7071,-34.958,279.1751) " class="st2" width="4.800000190734863" height="2" id="svg_488"/>
					</g>
				</g>
			</g>
		</g>
		<g id="svg_489">
			<g id="svg_490">
				<g id="svg_491">
					<g id="svg_492">
						
							<rect x="325.1000061035156" y="179.39999389648438" transform="matrix(0.7071,-0.7072,0.7072,0.7071,-33.025,283.8501) " class="st2" width="2" height="4.800000190734863" id="svg_493"/>
					</g>
				</g>
			</g>
		</g>
		<g id="svg_494">
			<g id="svg_495">
				<g id="svg_496">
					<g id="svg_497">
						
							<rect x="318.5" y="172.8000030517578" transform="matrix(0.7072,-0.7071,0.7071,0.7072,-30.3162,277.2242) " class="st2" width="2" height="4.800000190734863" id="svg_498"/>
					</g>
				</g>
			</g>
		</g>
	</g>
	<g id="svg_499">
		<g id="svg_500">
			<g id="svg_501">
				<g id="svg_502">
					<path class="st1" d="M316.7,252.2c0,0,5.1,0,8.8-2c0,0-0.6-7.3-1.8-10.1c-2.3-5.8-10.4-4.3-11.3-9.7c0,0,0,0,0,0       c-1.9,0.5-3.9,0.6-5.9,0.3c-1.5-0.3-2.9-0.8-4.2-1.5c0,0,0,0,0,0c-1.7,5.8-13.7,2.6-13.7,2.6l-3.8,9.2l5.5,2.9       c0,0-1.9,7.4-0.7,12.7s1.8,19.9,3.2,24.4c1.5,4.6,14.6,6.2,19.2,4.9c0.7-0.2,1.3-0.6,1.9-1.1c-2.2,0.2-4.5-2-2.9-6       c2.3-5.6,4.5-10.9,5.7-14.2c1-2.7,0.4-9.3,0.1-11.5L316.7,252.2z" id="svg_503"/>
				</g>
			</g>
		</g>
		<g id="svg_504">
			<g id="svg_505">
				<g id="svg_506">
					<path d="M307.9,287.3c-6,0-14.6-1.8-16-6c-0.8-2.6-1.4-8.2-1.9-13.6c-0.4-4.4-0.8-8.6-1.4-10.9c-1-4.5,0-10.3,0.5-12.4       l-4.8-2.5c-0.5-0.2-0.7-0.8-0.5-1.3l3.8-9.2c0.2-0.5,0.7-0.7,1.2-0.6c0.1,0,11.1,2.8,12.5-1.9c0.1-0.3,0.3-0.5,0.6-0.6       c0.3-0.1,0.6-0.1,0.9,0c1.2,0.7,2.5,1.2,3.9,1.4c1.8,0.3,3.6,0.2,5.5-0.3c0.3-0.1,0.7,0,1,0.3c0.1,0.1,0.2,0.3,0.3,0.5       c0.4,2.1,2,2.9,4.6,4c2.5,1,5.4,2.2,6.7,5.5c1.2,2.9,1.8,10.1,1.8,10.4c0,0.4-0.2,0.8-0.5,1c-2.8,1.6-6.4,2-8.1,2.1       c0.3,2.8,0.8,8.9-0.2,11.7c-0.8,2.2-2,5.1-3.4,8.6c-0.7,1.8-1.5,3.7-2.3,5.6c-0.6,1.6-0.6,3,0,3.9c0.4,0.6,1.1,0.9,1.8,0.8       c0.4,0,0.8,0.2,1,0.6c0.2,0.4,0.1,0.9-0.2,1.2c-0.7,0.7-1.5,1.1-2.3,1.3C311.2,287.1,309.7,287.3,307.9,287.3z M286.1,240.5       l4.7,2.5c0.4,0.2,0.6,0.7,0.5,1.1c0,0.1-1.8,7.2-0.7,12.2c0.6,2.4,1,6.7,1.4,11.2c0.5,5.3,1,10.8,1.8,13.2       c1.1,3.5,12.5,5.4,17.5,4.3c-0.3-0.2-0.6-0.5-0.9-0.9c-0.6-0.9-1.5-2.7-0.3-5.8c0.8-1.9,1.6-3.9,2.3-5.7       c1.4-3.4,2.6-6.4,3.4-8.5c0.8-2,0.5-7.1,0-11.1l-0.1-0.7c0-0.3,0.1-0.6,0.2-0.8c0.2-0.2,0.5-0.3,0.7-0.3c0,0,4.4,0,7.7-1.6       c-0.2-1.8-0.8-7-1.6-9.2c-1-2.5-3.2-3.4-5.6-4.4c-2.3-1-4.7-1.9-5.6-4.5c-1.8,0.4-3.6,0.4-5.4,0.1c-1.2-0.2-2.4-0.6-3.5-1.1       c-2.5,4.5-10.9,3-13.6,2.4L286.1,240.5z" id="svg_507"/>
				</g>
			</g>
		</g>
	</g>
	<g id="svg_508">
		<g id="svg_509">
			<g id="svg_510">
				<g id="svg_511">
					<path class="st0" d="M297.9,284.7c0,0-4.1-1-5.1-3.8s-5.6-29.2-2.6-37.1c-2-1.3-3.8-1.9-5.5-2.9c0.9-3,2.7-6.6,3.8-9.2       c3.7,1.3,9.2,0.4,10.7,0.3c-0.4,1.4,0.2,2.7,0.5,3.1c-1.4,1.4-5.9,6.1-5.1,17C295.4,263.7,297.9,284.7,297.9,284.7z" id="svg_512"/>
				</g>
			</g>
		</g>
	</g>
	<g id="svg_513">
		<g id="svg_514">
			<g id="svg_515">
				<g id="svg_516">
					<path class="st0" d="M305.1,230.3c0,0-2.1,4.7-5.4,4.9l-0.5-2.8l3-3L305.1,230.3z" id="svg_517"/>
				</g>
			</g>
		</g>
	</g>
	<g id="svg_518">
		<g id="svg_519">
			<g id="svg_520">
				<g id="svg_521">
					<path d="M305.1,238.9c-0.8,0-1.7-0.1-2.6-0.3c-4-0.9-4.6-4.8-4.3-6.7c0.1-0.5,0.6-0.9,1.1-0.8c0.5,0.1,0.9,0.6,0.8,1.1       c-0.1,0.4-0.4,3.7,2.8,4.4c6.2,1.4,10.2-4,10.3-4c0.3-0.4,1-0.5,1.4-0.2c0.4,0.3,0.5,1,0.2,1.4       C314.7,234,311.1,238.9,305.1,238.9z" id="svg_522"/>
				</g>
			</g>
		</g>
	</g>
	<g id="svg_523">
		<g id="svg_524">
			<g id="svg_525">
				<g id="svg_526">
					<path d="M307.9,287.3c-6,0-14.6-1.8-16-6c-0.8-2.6-1.4-8.2-1.9-13.6c-0.4-4.4-0.8-8.6-1.4-10.9c-1-4.5,0-10.3,0.5-12.4       l-4.8-2.5c-0.5-0.2-0.7-0.8-0.5-1.3l3.8-9.2c0.2-0.5,0.7-0.7,1.2-0.6c0.1,0,11.1,2.8,12.5-1.9c0.1-0.3,0.3-0.5,0.6-0.6       c0.3-0.1,0.6-0.1,0.9,0c1.2,0.7,2.5,1.2,3.9,1.4c1.8,0.3,3.6,0.2,5.5-0.3c0.3-0.1,0.7,0,1,0.3c0.1,0.1,0.2,0.3,0.3,0.5       c0.4,2.1,2,2.9,4.6,4c2.5,1,5.4,2.2,6.7,5.5c1.2,2.9,1.8,10.1,1.8,10.4c0,0.4-0.2,0.8-0.5,1c-2.8,1.6-6.4,2-8.1,2.1       c0.3,2.8,0.8,8.9-0.2,11.7c-0.8,2.2-2,5.1-3.4,8.6c-0.7,1.8-1.5,3.7-2.3,5.6c-0.6,1.6-0.6,3,0,3.9c0.4,0.6,1.1,0.9,1.8,0.8       c0.4,0,0.8,0.2,1,0.6c0.2,0.4,0.1,0.9-0.2,1.2c-0.7,0.7-1.5,1.1-2.3,1.3C311.2,287.1,309.7,287.3,307.9,287.3z M286.1,240.5       l4.7,2.5c0.4,0.2,0.6,0.7,0.5,1.1c0,0.1-1.8,7.2-0.7,12.2c0.6,2.4,1,6.7,1.4,11.2c0.5,5.3,1,10.8,1.8,13.2       c1.1,3.5,12.5,5.4,17.5,4.3c-0.3-0.2-0.6-0.5-0.9-0.9c-0.6-0.9-1.5-2.7-0.3-5.8c0.8-1.9,1.6-3.9,2.3-5.7       c1.4-3.4,2.6-6.4,3.4-8.5c0.8-2,0.5-7.1,0-11.1l-0.1-0.7c0-0.3,0.1-0.6,0.2-0.8c0.2-0.2,0.5-0.3,0.7-0.3c0,0,4.4,0,7.7-1.6       c-0.2-1.8-0.8-7-1.6-9.2c-1-2.5-3.2-3.4-5.6-4.4c-2.3-1-4.7-1.9-5.6-4.5c-1.8,0.4-3.6,0.4-5.4,0.1c-1.2-0.2-2.4-0.6-3.5-1.1       c-2.5,4.5-10.9,3-13.6,2.4L286.1,240.5z" id="svg_527"/>
				</g>
			</g>
		</g>
	</g>
	<g id="svg_528">
		<g id="svg_529">
			<g id="svg_530">
				<g id="svg_531">
					<path class="st0" d="M315.9,249c0,0-0.5,6.6-1.6,10.6c-0.4,1.6-0.6,3.2-0.5,4.8c0.2,3.7,0.3,6.5-1,9.7l4.3-11.7l-0.4-10.2       L315.9,249z" id="svg_532"/>
				</g>
			</g>
		</g>
	</g>
	<g id="svg_533">
		<g id="svg_534">
			<g id="svg_535">
				<g id="svg_536">
					<line class="st1" x1="316.70001220703125" y1="252.1999969482422" x2="315.79998779296875" y2="248.3000030517578" id="svg_537"/>
				</g>
			</g>
		</g>
		<g id="svg_538">
			<g id="svg_539">
				<g id="svg_540">
					<path d="M316.7,253.2c-0.4,0-0.9-0.3-1-0.8l-1-3.9c-0.1-0.5,0.2-1.1,0.7-1.2c0.5-0.1,1.1,0.2,1.2,0.7l1,3.9       c0.1,0.5-0.2,1.1-0.7,1.2C316.9,253.2,316.8,253.2,316.7,253.2z" id="svg_541"/>
				</g>
			</g>
		</g>
	</g>
	<g id="svg_542">
		<g id="svg_543">
			<g id="svg_544">
				<g id="svg_545">
					<path class="st1" d="M325.5,250.2c-3.6,2-8.8,2-8.8,2s0,0.3,0.1,0.7c0.3,2.2,0.9,8.8-0.1,11.5c-1.2,3.3-3.5,8.6-5.7,14.2       c-1.6,4,0.7,6.3,2.9,6c0.9-0.1,1.8-0.6,2.4-1.5c2.3-3.3,8.9-15.2,9.8-18.2C327.2,260.6,325.5,250.2,325.5,250.2z" id="svg_546"/>
				</g>
			</g>
		</g>
		<g id="svg_547">
			<g id="svg_548">
				<g id="svg_549">
					<path d="M313.5,285.8c-1.3,0-2.4-0.6-3.2-1.6c-0.6-0.9-1.5-2.7-0.3-5.8c0.8-1.9,1.6-3.9,2.3-5.7c1.4-3.4,2.6-6.4,3.4-8.5       c0.8-2,0.5-7.1,0-11.1c-0.1-0.4-0.1-0.7-0.1-0.7c0-0.3,0-0.6,0.2-0.8c0.2-0.2,0.5-0.3,0.8-0.3c0,0,4.9,0,8.3-1.9       c0.3-0.2,0.6-0.2,0.9,0c0.3,0.1,0.5,0.4,0.6,0.7c0.1,0.4,1.7,10.7,0.5,15.2c-0.9,3.3-7.7,15.4-9.9,18.5       c-0.8,1.1-1.9,1.8-3.1,1.9C313.8,285.7,313.7,285.8,313.5,285.8z M317.9,253.2c0.3,2.8,0.8,8.9-0.2,11.7       c-0.8,2.2-2,5.1-3.4,8.6c-0.7,1.8-1.5,3.7-2.3,5.6c-0.6,1.6-0.6,3,0,3.9c0.4,0.6,1.1,0.9,1.8,0.8c0.5-0.1,1.1-0.3,1.7-1.1       c2.2-3.3,8.8-15.1,9.6-17.9c0.9-3.2,0-10.1-0.4-13C322.2,252.7,319.4,253.1,317.9,253.2z" id="svg_550"/>
				</g>
			</g>
		</g>
	</g>
	<g id="svg_551">
		<g id="svg_552">
			<g id="svg_553">
				<g id="svg_554">
					<path d="M308.8,231.9c-0.8,0-1.7-0.1-2.5-0.2c-4.4-0.8-8.1-3.5-10.6-7.6c-2.4-4.1-3.3-9.1-2.4-14.1s3.4-9.5,7.1-12.5       c3.7-3.1,8.2-4.3,12.5-3.6c4.4,0.8,8.1,3.5,10.6,7.6c2.4,4.1,3.3,9.1,2.4,14.1C324.3,225.1,316.9,231.9,308.8,231.9z        M310.5,195.6c-3.1,0-6.1,1.1-8.8,3.3c-3.3,2.7-5.6,6.7-6.4,11.3l0,0c-0.8,4.6-0.1,9.1,2.1,12.8c2.1,3.6,5.4,6,9.2,6.7       c7.9,1.4,15.6-5.1,17.3-14.4c0.8-4.6,0.1-9.1-2.1-12.8c-2.1-3.6-5.4-6-9.2-6.7C311.9,195.7,311.2,195.6,310.5,195.6z        M294.4,210L294.4,210L294.4,210z" id="svg_555"/>
				</g>
			</g>
		</g>
	</g>
	<g id="svg_556">
		<g id="svg_557">
			<g id="svg_558">
				<g id="svg_559">
					<path class="st0" d="M269.9,205.7c0,0,3,19.5,5.1,23.8s11.8,6.6,11.8,6.6l-2,4.9l-13.2-8.8l-3.8-21.5       C267.8,210.7,266.9,207.2,269.9,205.7z" id="svg_560"/>
				</g>
			</g>
		</g>
	</g>
	<g id="svg_561">
		<g id="svg_562">
			<g id="svg_563">
				<g id="svg_564">
					<path d="M284.8,242c-0.2,0-0.3,0-0.5-0.1c-12.9-7-13.4-8.7-13.6-9.4c-1-3.1-3.2-15.3-3.8-21.7c-0.4-4,1.7-6.1,3.9-6.4       c2-0.2,4.2,1,4.7,3.7c1.2,8.1,3.2,17.1,4.9,18.7c0.4,0.4,0.4,1,0,1.4c-0.4,0.4-1,0.4-1.4,0c-2.6-2.6-4.7-14.7-5.4-19.9       c-0.2-1.5-1.4-2.1-2.4-2c-1.2,0.1-2.5,1.3-2.2,4.2c0.6,6.2,2.8,18.3,3.8,21.3c0.1,0.3,1.2,1.9,11.7,7.7l3.3-8.2       c0.2-0.5,0.8-0.8,1.3-0.5c0.5,0.2,0.8,0.8,0.5,1.3l-3.8,9.2c-0.1,0.3-0.3,0.5-0.6,0.6C285,242,284.9,242,284.8,242z" id="svg_565"/>
				</g>
			</g>
		</g>
	</g>
	<g id="svg_566">
		<g id="svg_567">
			<g id="svg_568">
				<g id="svg_569">
					<polygon class="st0" points="230.3,230.9 230.3,234.2 225.4,234.2 226.1,230      " id="svg_570"/>
				</g>
			</g>
		</g>
	</g>
	<g id="svg_571">
		<g id="svg_572">
			<g id="svg_573">
				<g id="svg_574">
					<polygon class="st0" points="231.6,302.2 228.6,348.2 225.1,346 225.1,327.3 225.1,302.2      " id="svg_575"/>
				</g>
			</g>
		</g>
	</g>
	<g id="svg_576">
		<g id="svg_577">
			<g id="svg_578">
				<g id="svg_579">
					<polygon class="st0" points="244.4,300.3 242.7,348.2 239.3,346 239.3,327.3 239.3,302.2      " id="svg_580"/>
				</g>
			</g>
		</g>
	</g>
	<g id="svg_581">
		<g id="svg_582">
			<g id="svg_583">
				<g id="svg_584">
					<path class="st0" d="M229.5,234.2c0,0-1.5,6.8-1.7,9.2c-0.5,5,1.7,20.1,1.7,20.1c0,0.5,0,1,0,1.5c0,1.9-0.1,3.9-0.3,5.8       c-0.3,2.5-0.7,5.9-0.6,7.7c0.3,5.6,3,23.7,3,23.7l-6.7-0.9l0-6.8l-2.7-16.1l3.6-10.5l-0.2-9.8l-2.9-15.6l2.6-8.4H229.5z" id="svg_585"/>
				</g>
			</g>
		</g>
	</g>
	<g id="svg_586">
		<g id="svg_587">
			<g id="svg_588">
				<g id="svg_589">
					<path d="M233.3,303.2c-4.7,0-8.3-0.9-8.6-0.9c-0.4-0.1-0.8-0.5-0.8-1c0-8.6-0.9-12.4-1.7-15.5c-0.6-2.3-1-4.3-1-7.4       c0-3.9,1-5.6,2-7.2c0.9-1.5,1.8-3,2.1-6.7c0.2-2.7-0.6-6.1-1.5-9.7c-1.5-6.5-3.3-14,0.3-20.1c1.2-2.2,1.1-4.5,1.1-4.5       c0-0.4,0.2-0.8,0.6-1c0.2-0.1,0.5-0.1,0.7-0.1c2,0.6,4,0.7,5.9,0.4c1.1-0.2,2.3-0.6,3.4-1.2c0.3-0.2,0.8-0.1,1.1,0.1       c0.3,0.2,0.4,0.5,0.4,0.8c0,1,1.8,1.6,2.9,1.9c6.6,1.6,10.4,9.1,8.9,17.6c-0.1,0.7-0.5,1.7-1.1,3.1c-1.2,3.2-3.1,8.1-3.1,12.2       c0,1.2,0.5,2.8,1.2,5c1.6,5.1,4.2,13.5,4.2,28.5c0,0.3-0.1,0.6-0.4,0.8C244.7,302.3,238.3,303.2,233.3,303.2z M225.9,300.5       c3,0.6,14.3,2.3,22.4-3.6c-0.1-14.3-2.6-22.5-4.1-27.4c-0.7-2.4-1.3-4.1-1.3-5.6c0-4.5,1.9-9.6,3.2-12.9c0.5-1.2,0.9-2.3,1-2.7       c1.1-6.3-1.1-13.8-7.4-15.3c-2.2-0.5-3.5-1.3-4.1-2.4c-0.9,0.4-1.9,0.7-2.9,0.8c-1.9,0.3-3.7,0.3-5.6-0.1       c-0.1,1.1-0.4,2.8-1.3,4.3c-3.1,5.5-1.6,12.2,0,18.7c0.9,3.7,1.7,7.3,1.5,10.3c-0.3,4.2-1.4,6.1-2.3,7.7       c-0.9,1.5-1.7,2.8-1.7,6.2c0,2.9,0.4,4.7,1,6.9C224.9,288.4,225.9,292.3,225.9,300.5z M249.3,297.5L249.3,297.5L249.3,297.5z" id="svg_590"/>
				</g>
			</g>
		</g>
	</g>
	<g id="svg_591">
		<g id="svg_592">
			<g id="svg_593">
				<g id="svg_594">
					<path d="M243,246.2c-0.5,0-0.9-0.4-1-0.9c0-0.1-1.3-9.6-5.4-13.6c-0.4-0.4-0.4-1,0-1.4s1-0.4,1.4,0c4.5,4.5,5.9,14.4,6,14.8       c0.1,0.5-0.3,1.1-0.9,1.1C243.1,246.2,243,246.2,243,246.2z" id="svg_595"/>
				</g>
			</g>
		</g>
	</g>
	<g id="svg_596">
		<g id="svg_597">
			<g id="svg_598">
				<g id="svg_599">
					<path class="st1" d="M235.6,248c0,0,23.1-8.3,24.1-11.3c0.9-3,3.2-15,3.8-21.5s-6-6.7-6.6-2.4c-0.5,3-2.7,16.8-5.2,19.3       c-2.5,2.5-17.1,7-17.1,7s-6.7,2.2-4.7,7.4C231.2,249.8,235.6,248,235.6,248z" id="svg_600"/>
				</g>
			</g>
		</g>
		<g id="svg_601">
			<g id="svg_602">
				<g id="svg_603">
					<path d="M233.1,249.5c-0.7,0-1.3-0.1-2-0.4c-1-0.4-1.7-1.2-2.2-2.3c-0.6-1.6-0.6-3.1,0.1-4.5c1.4-2.9,5.1-4.1,5.2-4.2       c5.8-1.8,15-5.1,16.7-6.8c1.5-1.5,3.4-8.8,4.9-18.7c0.4-2.7,2.7-3.9,4.7-3.7c2.2,0.3,4.3,2.4,3.9,6.4       c-0.6,6.4-2.8,18.6-3.8,21.7c-1,3.1-17.6,9.4-24.7,11.9C235.8,249,234.5,249.5,233.1,249.5z M260,210.9c-1,0-2,0.7-2.2,2       c-0.8,5.1-2.9,17.3-5.4,19.9c-2.6,2.6-16,6.8-17.6,7.3c0,0-3,1-4,3.1c-0.4,0.9-0.4,1.8,0,2.9c0.2,0.6,0.6,1,1.1,1.2       c1.1,0.5,2.8,0,3.3-0.2c0,0,0,0,0,0c10.7-3.9,22.7-9,23.4-10.7c0.9-3,3.1-15.1,3.7-21.3c0.3-2.9-1-4.1-2.2-4.2       C260.2,210.9,260.1,210.9,260,210.9z" id="svg_604"/>
				</g>
			</g>
		</g>
	</g>
	<g id="svg_605">
		<g id="svg_606">
			<g id="svg_607">
				<g id="svg_608">
					<path d="M237.8,239c-0.3,0-0.5-0.1-0.7-0.3c-0.2-0.2-4.8-4.9-11.7-3c-0.5,0.1-1.1-0.2-1.2-0.7c-0.1-0.5,0.2-1.1,0.7-1.2       c8.1-2.3,13.5,3.3,13.7,3.6c0.4,0.4,0.4,1,0,1.4C238.3,238.9,238,239,237.8,239z" id="svg_609"/>
				</g>
			</g>
		</g>
	</g>
	<g id="svg_610">
		<g id="svg_611">
			<g id="svg_612">
				<g id="svg_613">
					
						<ellipse transform="matrix(0.9848,-0.1736,0.1736,0.9848,-33.4569,43.0354) " class="st1" cx="229.1999969482422" cy="212.6999969482422" rx="15.5" ry="18.200000762939453" id="svg_614"/>
				</g>
			</g>
		</g>
		<g id="svg_615">
			<g id="svg_616">
				<g id="svg_617">
					<path d="M230.1,231.9c-8.1,0-15.4-6.8-17.1-16.3c-0.9-5,0-10,2.4-14.1c2.4-4.2,6.2-6.9,10.6-7.6c4.4-0.8,8.8,0.5,12.5,3.6       c3.7,3,6.2,7.5,7.1,12.5l0,0c0.9,5,0,10-2.4,14.1c-2.4,4.2-6.2,6.9-10.6,7.6C231.7,231.8,230.9,231.9,230.1,231.9z        M228.4,195.6c-0.7,0-1.4,0.1-2.2,0.2c-3.8,0.7-7.1,3-9.2,6.7c-2.2,3.7-2.9,8.2-2.1,12.8c1.6,9.3,9.4,15.8,17.3,14.4       c3.8-0.7,7.1-3,9.2-6.7c2.2-3.7,2.9-8.2,2.1-12.8l0,0c-0.8-4.6-3.1-8.6-6.4-11.3C234.5,196.7,231.5,195.6,228.4,195.6z" id="svg_618"/>
				</g>
			</g>
		</g>
	</g>
	<g id="svg_619">
		<g id="svg_620">
			<g id="svg_621">
				<g id="svg_622">
					<g id="svg_623">
						<path d="M212.8,215.6c-2.3-10.6,4-20.6,13.1-22.2c5.4-1,11.3,0.9,14.7,5.5c2.8,3.8,0.9,9.7-10.4,8.2c-6.9-0.9-9.6,14.6-0.4,17        C229.7,224.2,215.4,227.6,212.8,215.6z" id="svg_624"/>
					</g>
				</g>
			</g>
			<g id="svg_625">
				<g id="svg_626">
					<g id="svg_627">
						<path d="M225.3,225.7c-2.5,0-5.7-0.4-8.3-2.1c-2.7-1.7-4.4-4.3-5.1-7.7l0,0c-1.2-5.6-0.2-11.4,2.9-16c2.7-4,6.6-6.6,11-7.4        c6.1-1.1,12.2,1.3,15.6,5.9c1.5,2.1,1.8,4.6,0.6,6.6c-1,1.7-3.8,4.3-11.9,3.3c-2.6-0.3-4.4,2.4-5,5.3c-0.8,3.9,0.5,8.6,5,9.8        c0.4,0.1,0.7,0.5,0.7,1s-0.3,0.9-0.8,1C229.8,225.2,227.9,225.7,225.3,225.7z M228.6,194.2c-0.9,0-1.7,0.1-2.6,0.2        c-3.9,0.7-7.3,3-9.7,6.5c-2.8,4.1-3.7,9.4-2.6,14.5l0,0c0.6,2.9,2.1,5.1,4.3,6.4c2.7,1.7,6,1.9,8.4,1.8        c-3.1-2.4-4-6.7-3.3-10.5c0.9-4.5,3.8-7.3,7.2-6.9c5.1,0.7,8.7-0.2,10-2.3c0.7-1.2,0.5-2.9-0.5-4.4        C237.2,196.2,233,194.2,228.6,194.2z" id="svg_628"/>
					</g>
				</g>
			</g>
		</g>
		<g id="svg_629">
			<g id="svg_630">
				<g id="svg_631">
					<g id="svg_632">
						<g id="svg_633">
							<g id="svg_634">
								<path d="M231.5,218.7c-0.2,0-0.4-0.2-0.4-0.3c0-0.6,0.2-1.2,0.6-1.7c0.4-0.5,1-0.8,1.6-0.8c0.6,0,1.2,0.2,1.7,0.6          c0.5,0.4,0.8,1,0.8,1.6c0,0.2-0.1,0.4-0.3,0.4c-0.2,0-0.4-0.1-0.4-0.3c-0.1-0.9-0.8-1.6-1.7-1.5c-0.4,0-0.8,0.2-1.1,0.6          c-0.3,0.3-0.4,0.8-0.4,1.2C231.9,218.5,231.8,218.6,231.5,218.7C231.5,218.7,231.5,218.7,231.5,218.7z" id="svg_635"/>
							</g>
						</g>
					</g>
				</g>
				<g id="svg_636">
					<g id="svg_637">
						<g id="svg_638">
							<g id="svg_639">
								<path d="M237.9,217.8c-0.2,0-0.4-0.2-0.4-0.3c0-0.6,0.2-1.2,0.6-1.7c0.4-0.5,1-0.8,1.6-0.8c0.6,0,1.2,0.2,1.7,0.6          c0.5,0.4,0.8,1,0.8,1.6c0,0.2-0.1,0.4-0.3,0.4c-0.2,0-0.4-0.1-0.4-0.3c0-0.4-0.2-0.8-0.6-1.1c-0.3-0.3-0.7-0.4-1.2-0.4          c-0.4,0-0.8,0.2-1.1,0.6c-0.3,0.3-0.4,0.8-0.4,1.2C238.3,217.6,238.2,217.8,237.9,217.8          C237.9,217.8,237.9,217.8,237.9,217.8z" id="svg_640"/>
							</g>
						</g>
					</g>
				</g>
			</g>
			<g id="svg_641">
				<g id="svg_642">
					<g id="svg_643">
						<g id="svg_644">
							<path d="M238.7,222.5c0.1,0.8-0.6,1.6-1.4,1.6c-0.8,0.1-1.6-0.6-1.6-1.4" id="svg_645"/>
						</g>
					</g>
				</g>
			</g>
		</g>
	</g>
	<g id="svg_646">
		<g id="svg_647">
			<g id="svg_648">
				<g id="svg_649">
					<path d="M229,349.2c-0.3,0-0.6,0-0.9-0.1c-2.4-0.3-4.6-2.1-4.4-5.2c0.5-7.5,0.3-26.5,0.2-36.8c0-2.7,0-4.7,0-5.8       c0-0.6,0.4-1,1-1s1,0.4,1,1c0,1.1,0,3.1,0,5.8c0.1,10.3,0.3,29.4-0.2,37c-0.2,2.5,2,3,2.7,3.1c1.3,0.2,2.8-0.3,3-1.3       c0.6-3.1,2-22.3,3.1-43.7c0-0.6,0.5-1,1.1-0.9c0.6,0,1,0.5,0.9,1.1c-1,18.8-2.4,40.4-3.1,44C233.1,348,231.2,349.2,229,349.2z" id="svg_650"/>
				</g>
			</g>
		</g>
	</g>
	<g id="svg_651">
		<g id="svg_652">
			<g id="svg_653">
				<g id="svg_654">
					<path d="M243.4,349.2c-0.3,0-0.6,0-0.9-0.1c-2.4-0.3-4.6-2.1-4.4-5.2c0.5-7.5,0.4-22.6,0.3-30.8c0-2.1,0-3.8,0-4.9       c0-1.7-0.4-3.8-1.2-6.1c-0.2-0.5,0.1-1.1,0.6-1.3c0.5-0.2,1.1,0.1,1.3,0.6c0.9,2.5,1.4,4.8,1.4,6.7c0,1.1,0,2.8,0,4.9       c0.1,8.1,0.2,23.3-0.3,30.9c-0.2,2.5,2,3,2.7,3.1c1.3,0.2,2.8-0.3,3-1.3c0.7-3.3,2.4-37.9,2.3-48.1c0-0.6,0.4-1,1-1       c0.5,0,1,0.4,1,1c0.1,10.3-1.7,45.1-2.3,48.5C247.5,348,245.6,349.2,243.4,349.2z" id="svg_655"/>
				</g>
			</g>
		</g>
	</g>
</g></g></svg>