<svg width="500" height="280" xmlns="http://www.w3.org/2000/svg">

 <style type="text/css">.st0{fill:#E6E7E8;}
	.st1{fill:#FFFFFF;}
	.st2{fill:#FFD16C;}
	.st3{fill:#FFD16D;}
	.st4{fill:#C7C8CA;}
	.st5{fill:#C7C8C9;}
	.st6{fill:#FFFFFF;stroke:#000000;stroke-width:2;stroke-linecap:round;stroke-linejoin:round;stroke-miterlimit:10;}</style>
 <g class="currentLayer">
  <title>Layer 1</title>
  <g id="svg_262">
   <g id="svg_263">
    <g id="svg_264">
     <g id="svg_265">
      <g id="svg_266">
       <ellipse id="svg_267" ry="15.5" rx="18.200001" cy="102.649998" cx="290.700012" class="st1"/>
      </g>
     </g>
    </g>
    <g id="svg_268">
     <g id="svg_269">
      <g id="svg_270">
       <path id="svg_271" d="m289.8,121.850001c-0.8,0 -1.7,-0.1 -2.5,-0.2c-4.4,-0.8 -8.1,-3.5 -10.6,-7.6c-2.4,-4.1 -3.3,-9.1 -2.4,-14.1s3.4,-9.5 7.1,-12.5c3.7,-3.1 8.2,-4.3 12.5,-3.6c4.4,0.8 8.1,3.5 10.6,7.6c2.4,4.1 3.3,9.1 2.4,14.1c-1.6,9.5 -9,16.3 -17.1,16.3zm1.7,-36.3c-3.1,0 -6.1,1.1 -8.8,3.3c-3.3,2.7 -5.6,6.7 -6.4,11.3l0,0c-0.8,4.6 -0.1,9.1 2.1,12.8c2.1,3.6 5.4,6 9.2,6.7c7.9,1.4 15.6,-5.1 17.3,-14.4c0.8,-4.6 0.1,-9.1 -2.1,-12.8c-2.1,-3.6 -5.4,-6 -9.2,-6.7c-0.7,-0.1 -1.4,-0.2 -2.1,-0.2zm-16.1,14.4l0,0l0,0z"/>
      </g>
     </g>
    </g>
   </g>
   <g id="svg_272">
    <g id="svg_273">
     <g id="svg_274">
      <g id="svg_275">
       <path id="svg_276" d="m315.7,226.450001l-131.9,0c-0.6,0 -1,-0.4 -1,-1s0.4,-1 1,-1l131.9,0c0.6,0 1,0.4 1,1s-0.5,1 -1,1z"/>
      </g>
     </g>
    </g>
   </g>
   <g id="svg_277">
    <g id="svg_278">
     <g id="svg_279">
      <g id="svg_280">
       <path id="svg_281" d="m273,166.550001c0,16.6 0.9,28.9 1.1,35.6c0.2,3.7 2.6,28 4.2,31.2c1.6,3.2 5.8,2.5 6.5,-1.9c0.7,-4.4 -2.1,-28.8 -2.1,-28.8l7.9,-26.3l-17.6,-9.8z" class="st1"/>
      </g>
     </g>
    </g>
    <g id="svg_282">
     <g id="svg_283">
      <g id="svg_284">
       <path id="svg_285" d="m283.345828,235.99982c-1.6,0 -3,-0.9 -3.8,-2.5c-1.7,-3.5 -4.2,-28 -4.3,-31.6c-0.1,-1.5 -0.2,-3.3 -0.3,-5.3c-0.4,-6.9 -0.9,-17.4 -0.9,-30.3c0,-0.4 0.2,-0.7 0.5,-0.9c0.3,-0.2 0.7,-0.2 1,0l17.8,9.7c0.4,0.2 0.6,0.7 0.5,1.2l-7.9,26.1c0.3,2.5 2.7,24.6 2.1,28.9c-0.5,3.1 -2.4,4.5 -4,4.7c-0.3,-0.1 -0.5,0 -0.7,0zm-7.2,-68.1c0,12.1 0.5,21.9 0.9,28.5c0.1,2 0.2,3.8 0.3,5.3c0.2,4.3 2.7,27.9 4.1,30.7c0.5,1 1.4,1.5 2.3,1.4c0.9,-0.1 2,-1 2.4,-3c0.5,-3.4 -1.1,-20.2 -2.1,-28.6c0,-0.1 0,-0.3 0,-0.4l7.7,-25.5l-15.6,-8.4z"/>
      </g>
     </g>
    </g>
   </g>
   <g id="svg_286">
    <g id="svg_287">
     <g id="svg_288">
      <g id="svg_289">
       <path id="svg_290" d="m277,174.250001c0,0 0.1,19.9 0.8,27.9c0.7,8 3.5,33.2 3.5,33.2s-2.3,0.3 -3,-2c-0.7,-2.2 -4.3,-32.4 -4.3,-32.4l-0.2,-30l3.2,3.3z" class="st0"/>
      </g>
     </g>
    </g>
   </g>
   <g id="svg_291">
    <g id="svg_292">
     <g id="svg_293">
      <g id="svg_294">
       <path id="svg_295" d="m281.2,236.350001c-1.6,0 -3,-0.9 -3.8,-2.5c-1.7,-3.5 -4.2,-28 -4.3,-31.6c-0.1,-1.5 -0.2,-3.3 -0.3,-5.3c-0.4,-6.9 -0.9,-17.4 -0.9,-30.3c0,-0.4 0.2,-0.7 0.5,-0.9c0.3,-0.2 0.7,-0.2 1,0l17.8,9.7c0.4,0.2 0.6,0.7 0.5,1.2l-7.9,26.1c0.3,2.5 2.7,24.6 2.1,28.9c-0.5,3.1 -2.4,4.5 -4,4.7c-0.3,-0.1 -0.5,0 -0.7,0zm-7.2,-68.1c0,12.1 0.5,21.9 0.9,28.5c0.1,2 0.2,3.8 0.3,5.3c0.2,4.3 2.7,27.9 4.1,30.7c0.5,1 1.4,1.5 2.3,1.4c0.9,-0.1 2,-1 2.4,-3c0.5,-3.4 -1.1,-20.2 -2.1,-28.6c0,-0.1 0,-0.3 0,-0.4l7.7,-25.5l-15.6,-8.4z"/>
      </g>
     </g>
    </g>
   </g>
   <g id="svg_296">
    <g id="svg_297">
     <g id="svg_298">
      <g id="svg_299">
       <path id="svg_300" d="m280.8,168.650001c0.9,18.8 1.5,28.8 2,34.9c0.6,6.6 4.8,29.2 6.5,32.6c1.7,3.3 6.1,2.6 6.8,-2s-0.3,-22.6 -0.3,-30.2c0,-11.7 4.1,-15 3.2,-33.5c-0.2,-5.7 -18.2,-1.8 -18.2,-1.8z" class="st1"/>
      </g>
     </g>
    </g>
    <g id="svg_301">
     <g id="svg_302">
      <g id="svg_303">
       <path id="svg_304" d="m292.3,239.150001c-1.6,0 -3.1,-1 -3.9,-2.6c-1.8,-3.6 -6,-26.6 -6.6,-32.9c-0.6,-5.9 -1.1,-15.5 -2,-34.9c0,-0.5 0.3,-0.9 0.8,-1c1.4,-0.3 14.1,-2.9 18.1,0.2c0.8,0.6 1.3,1.5 1.3,2.5c0.5,10.9 -0.7,16.7 -1.7,21.8c-0.7,3.6 -1.5,7 -1.5,11.8c0,2.6 0.1,6.3 0.2,10.4c0.2,7.9 0.5,16.8 0,20c-0.5,3.2 -2.5,4.6 -4.2,4.9c-0.1,-0.2 -0.3,-0.2 -0.5,-0.2zm-10.5,-69.7c0.9,18.8 1.4,28.2 2,33.9c0.6,6.5 4.8,29.1 6.4,32.2c0.5,1.1 1.5,1.6 2.5,1.5c1,-0.2 2.2,-1.1 2.5,-3.2c0.5,-3 0.2,-11.8 0,-19.6c-0.1,-4 -0.2,-7.8 -0.2,-10.4c0,-5 0.7,-8.5 1.5,-12.2c1,-5 2.2,-10.6 1.7,-21.3c0,-0.4 -0.2,-0.7 -0.6,-1c-2.7,-1.9 -11.6,-0.7 -15.8,0.1z"/>
      </g>
     </g>
    </g>
   </g>
   <g id="svg_305">
    <g id="svg_306">
     <g id="svg_307">
      <g id="svg_308">
       <path id="svg_309" d="m288.3,177.150001c0,0 0.1,19.9 0.8,27.9c0.7,8 3.5,33.2 3.5,33.2s-2.3,0.3 -3,-2s-6.9,-32.7 -6.9,-32.7l-1.6,-27.3l7.2,0.9z" class="st0"/>
      </g>
     </g>
    </g>
   </g>
   <g id="svg_310">
    <g id="svg_311">
     <g id="svg_312">
      <g id="svg_313">
       <g id="svg_314">
        <rect id="svg_315" height="102.599998" width="71" class="st2" y="60.649998" x="146.300003"/>
       </g>
      </g>
     </g>
    </g>
    <g id="svg_316">
     <g id="svg_317">
      <g id="svg_318">
       <g id="svg_319">
        <rect id="svg_320" height="96.400002" width="64.5" class="st1" y="63.849995" x="149.600006"/>
       </g>
      </g>
     </g>
     <g id="svg_321">
      <g id="svg_322">
       <g id="svg_323">
        <path id="svg_324" d="m215.1,161.150001l-66.5,0l0,-98.4l66.5,0l0,98.4zm-64.5,-2l62.5,0l0,-94.4l-62.5,0l0,94.4z"/>
       </g>
      </g>
     </g>
    </g>
    <g id="svg_325">
     <g id="svg_326">
      <g id="svg_327">
       <g id="svg_328">
        <rect id="svg_329" height="5.9" width="32" class="st2" y="83.149998" x="172.300003"/>
       </g>
      </g>
     </g>
    </g>
    <g id="svg_330">
     <g id="svg_331">
      <g id="svg_332">
       <g id="svg_333">
        <circle id="svg_334" r="2.9" cy="86.050007" cx="162.100006" class="st2"/>
       </g>
      </g>
     </g>
    </g>
    <g id="svg_335">
     <g id="svg_336">
      <g id="svg_337">
       <g id="svg_338">
        <rect id="svg_339" height="5.9" width="32" class="st2" y="99.750004" x="172.300003"/>
       </g>
      </g>
     </g>
    </g>
    <g id="svg_340">
     <g id="svg_341">
      <g id="svg_342">
       <g id="svg_343">
        <circle id="svg_344" r="2.9" cy="102.649998" cx="162.100006" class="st2"/>
       </g>
      </g>
     </g>
    </g>
    <g id="svg_345">
     <g id="svg_346">
      <g id="svg_347">
       <g id="svg_348">
        <rect id="svg_349" height="5.9" width="32" class="st2" y="116.349995" x="172.300003"/>
       </g>
      </g>
     </g>
    </g>
    <g id="svg_350">
     <g id="svg_351">
      <g id="svg_352">
       <g id="svg_353">
        <circle id="svg_354" r="2.9" cy="119.250004" cx="162.100006" class="st2"/>
       </g>
      </g>
     </g>
    </g>
    <g id="svg_355">
     <g id="svg_356">
      <g id="svg_357">
       <g id="svg_358">
        <rect id="svg_359" height="5.9" width="32" class="st2" y="132.950001" x="172.300003"/>
       </g>
      </g>
     </g>
    </g>
    <g id="svg_360">
     <g id="svg_361">
      <g id="svg_362">
       <g id="svg_363">
        <circle id="svg_364" r="2.9" cy="135.950001" cx="162.100006" class="st2"/>
       </g>
      </g>
     </g>
    </g>
    <g id="svg_365">
     <g id="svg_366">
      <g id="svg_367">
       <g id="svg_368">
        <circle id="svg_369" r="17.200001" cy="58.950001" cx="181.800003" class="st1"/>
       </g>
      </g>
     </g>
     <g id="svg_370">
      <g id="svg_371">
       <g id="svg_372">
        <path id="svg_373" d="m181.8,77.050001c-10,0 -18.2,-8.1 -18.2,-18.2s8.1,-18.2 18.2,-18.2c10,0 18.2,8.1 18.2,18.2s-8.2,18.2 -18.2,18.2zm0,-34.3c-8.9,0 -16.2,7.2 -16.2,16.2s7.2,16.2 16.2,16.2s16.2,-7.3 16.2,-16.2s-7.3,-16.2 -16.2,-16.2z"/>
       </g>
      </g>
     </g>
    </g>
    <g id="svg_374">
     <g id="svg_375">
      <g id="svg_376">
       <g id="svg_377">
        <polygon id="svg_378" points="178.8000030517578,59.34999465942383 175.60000610351562,56.14999771118164 171.5,60.34999465942383 178.8000030517578,67.64999771118164 192.1999969482422,54.250003814697266 188,50.14999771118164 " class="st2"/>
       </g>
      </g>
     </g>
    </g>
   </g>
   <g id="svg_379">
    <g id="svg_380">
     <g id="svg_381">
      <g id="svg_382">
       <circle id="svg_383" r="18.200001" cy="96.450001" cx="248.799988" class="st2"/>
      </g>
     </g>
    </g>
   </g>
   <g id="svg_384">
    <g id="svg_385">
     <g id="svg_386">
      <g id="svg_387">
       <path id="svg_388" d="m280.4,99.950001c1.4,-8 7,-13.9 13.6,-15.2c-0.1,0 -0.1,0 -0.2,0c-8.4,-1.5 -16.7,5.3 -18.4,15.2c-1.7,9.9 3.7,19.1 12.1,20.6c1.6,0.3 3.3,0.3 4.8,0c-8.3,-1.6 -13.6,-10.7 -11.9,-20.6z" class="st0"/>
      </g>
     </g>
    </g>
   </g>
   <g id="svg_389">
    <g id="svg_390">
     <g id="svg_391">
      <g id="svg_392">
       <path id="svg_393" d="m275.3,135.950001c0,0 -21.7,-10.8 -22.7,-13.8c-0.9,-3 -3.2,-15 -3.8,-21.5s6,-6.7 6.6,-2.4c0.5,3 2.7,16.8 5.2,19.3c2.5,2.5 17.1,7 17.1,7s6.7,2.2 4.7,7.4c-1.3,3.3 -7.1,4 -7.1,4z" class="st1"/>
      </g>
     </g>
    </g>
    <g id="svg_394">
     <g id="svg_395">
      <g id="svg_396">
       <path id="svg_397" d="m275.3,136.950001c-0.2,0 -0.3,0 -0.4,-0.1c-5.2,-2.6 -22.2,-11.3 -23.2,-14.4c-1,-3.1 -3.2,-15.3 -3.8,-21.7c-0.4,-4 1.7,-6.1 3.9,-6.4c2,-0.2 4.2,1 4.7,3.7c1.2,8.1 3.2,17.1 4.9,18.7c1.7,1.7 10.9,5 16.7,6.8c0.2,0.1 3.9,1.3 5.2,4.2c0.7,1.4 0.7,2.9 0.1,4.5c-1.5,3.9 -7.7,4.6 -7.9,4.7c-0.1,0 -0.2,0 -0.2,0zm-23,-40.7c-0.1,0 -0.2,0 -0.3,0c-1.2,0.1 -2.5,1.3 -2.2,4.2c0.6,6.2 2.8,18.3 3.8,21.3c0.7,1.7 11.6,7.9 21.9,13.1c1.6,-0.3 5.2,-1.2 6,-3.4c0.4,-1.1 0.4,-2 0,-2.9c-1,-2.1 -4,-3.1 -4,-3.1c-1.5,-0.5 -14.9,-4.7 -17.5,-7.3c-2.6,-2.6 -4.7,-14.7 -5.4,-19.9c-0.4,-1.3 -1.4,-2 -2.3,-2z"/>
      </g>
     </g>
    </g>
   </g>
   <g id="svg_398">
    <g id="svg_399">
     <g id="svg_400">
      <g id="svg_401">
       <path id="svg_402" d="m297.7,142.150001l0.1,0.7c0,-0.4 -0.1,-0.7 -0.1,-0.7z" class="st1"/>
      </g>
     </g>
    </g>
    <g id="svg_403">
     <g id="svg_404">
      <g id="svg_405">
       <path id="svg_406" d="m297.8,143.950001c-0.5,0 -0.9,-0.4 -1,-0.9l-0.1,-0.7c-0.1,-0.5 0.3,-1 0.9,-1.1c0.5,-0.1 1,0.3 1.1,0.9c0,0 0,0.3 0.1,0.8c0.1,0.5 -0.3,1 -0.9,1.1c0,-0.1 0,-0.1 -0.1,-0.1z"/>
      </g>
     </g>
    </g>
   </g>
   <g id="svg_407">
    <g id="svg_408">
     <g id="svg_409">
      <g id="svg_410">
       <path id="svg_411" d="m292.3,239.150001c-1.6,0 -3.1,-1 -3.9,-2.6c-1.8,-3.6 -6,-26.6 -6.6,-32.9c-0.6,-5.9 -1.1,-15.5 -2,-34.9c0,-0.5 0.3,-0.9 0.8,-1c1.4,-0.3 14.1,-2.9 18.1,0.2c0.8,0.6 1.3,1.5 1.3,2.5c0.5,10.9 -0.7,16.7 -1.7,21.8c-0.7,3.6 -1.5,7 -1.5,11.8c0,2.6 0.1,6.3 0.2,10.4c0.2,7.9 0.5,16.8 0,20c-0.5,3.2 -2.5,4.6 -4.2,4.9c-0.1,-0.2 -0.3,-0.2 -0.5,-0.2zm-10.5,-69.7c0.9,18.8 1.4,28.2 2,33.9c0.6,6.5 4.8,29.1 6.4,32.2c0.5,1.1 1.5,1.6 2.5,1.5c1,-0.2 2.2,-1.1 2.5,-3.2c0.5,-3 0.2,-11.8 0,-19.6c-0.1,-4 -0.2,-7.8 -0.2,-10.4c0,-5 0.7,-8.5 1.5,-12.2c1,-5 2.2,-10.6 1.7,-21.3c0,-0.4 -0.2,-0.7 -0.6,-1c-2.7,-1.9 -11.6,-0.7 -15.8,0.1z"/>
      </g>
     </g>
    </g>
   </g>
   <g id="svg_412">
    <g id="svg_413">
     <g id="svg_414">
      <g id="svg_415">
       <circle id="svg_416" r="2.6" cy="68.450001" cx="258.299988" class="st2"/>
      </g>
     </g>
    </g>
   </g>
   <g id="svg_417">
    <g id="svg_418">
     <g id="svg_419">
      <g id="svg_420">
       <circle id="svg_421" r="2.6" cy="72.349995" cx="232.699997" class="st2"/>
      </g>
     </g>
    </g>
   </g>
   <g id="svg_422">
    <g id="svg_423">
     <g id="svg_424">
      <g id="svg_425">
       <circle id="svg_426" r="2.3" cy="144.849995" cx="256" class="st2"/>
      </g>
     </g>
    </g>
   </g>
   <g id="svg_427">
    <g id="svg_428">
     <g id="svg_429">
      <g id="svg_430">
       <path id="svg_431" d="m288.1,115.250001c-1.7,0 -2.9,-0.3 -2.9,-0.3c-0.2,-0.1 -0.3,-0.3 -0.3,-0.5c0.1,-0.2 0.3,-0.3 0.5,-0.3c0.4,0.1 10.4,2.5 14.9,-8c0.1,-0.2 0.3,-0.3 0.5,-0.2c0.2,0.1 0.3,0.3 0.2,0.5c-3.2,7.6 -9.3,8.8 -12.9,8.8z"/>
      </g>
     </g>
    </g>
   </g>
   <g id="svg_432">
    <g id="svg_433">
     <g id="svg_434">
      <g id="svg_435">
       <path id="svg_436" d="m290.6,107.750001c-0.1,0 -0.1,0 0,0c-0.3,-0.1 -0.4,-0.3 -0.4,-0.5c0.2,-0.9 -0.4,-1.8 -1.2,-1.9c-0.9,-0.2 -1.8,0.4 -1.9,1.2c0,0.2 -0.2,0.3 -0.4,0.3c-0.2,0 -0.3,-0.2 -0.3,-0.4c0.3,-1.3 1.6,-2.1 2.8,-1.8c1.3,0.3 2.1,1.6 1.8,2.8c-0.1,0.2 -0.3,0.3 -0.4,0.3z"/>
      </g>
     </g>
    </g>
   </g>
   <g id="svg_437">
    <g id="svg_438">
     <g id="svg_439">
      <g id="svg_440">
       <path id="svg_441" d="m284.4,105.950001c-0.1,0 -0.1,0 0,0c-0.3,-0.1 -0.4,-0.3 -0.4,-0.5c0.1,-0.4 0,-0.9 -0.2,-1.2s-0.6,-0.6 -1,-0.7c-0.4,-0.1 -0.9,0 -1.2,0.2s-0.6,0.6 -0.7,1c0,0.2 -0.2,0.3 -0.4,0.3c-0.2,0 -0.3,-0.2 -0.3,-0.4c0.1,-0.6 0.5,-1.2 1,-1.5c0.5,-0.3 1.2,-0.5 1.8,-0.3c0.6,0.1 1.2,0.5 1.5,1s0.5,1.2 0.3,1.8c-0.1,0.2 -0.3,0.3 -0.4,0.3z"/>
      </g>
     </g>
    </g>
   </g>
   <g id="svg_442">
    <g id="svg_443">
     <g id="svg_444">
      <g id="svg_445">
       <path id="svg_446" d="m221.1,146.850001c1.5,2.7 8.7,12.7 12.9,17.6c4.2,4.9 9,0.3 6.3,-3.1c-1.8,-2.4 -11.6,-15.4 -12.2,-21.8" class="st1"/>
      </g>
     </g>
    </g>
    <g id="svg_447">
     <g id="svg_448">
      <g id="svg_449">
       <path id="svg_450" d="m238,167.550001c-1.5,0 -3.1,-0.7 -4.6,-2.5c-4.2,-4.9 -11.5,-14.9 -13,-17.8c-0.3,-0.5 -0.1,-1.1 0.4,-1.4c0.5,-0.3 1.1,-0.1 1.4,0.4c1.5,2.7 8.8,12.7 12.8,17.4c1.9,2.2 3.6,2.1 4.5,1.3c0.8,-0.7 1.1,-2 0.2,-3.1c-2,-2.5 -11.7,-15.5 -12.4,-22.3c-0.1,-0.5 0.4,-1 0.9,-1.1s1,0.4 1.1,0.9c0.5,5.1 7.8,15.8 12,21.3c1.7,2.2 1,4.7 -0.5,5.9c-0.9,0.7 -1.8,1 -2.8,1z"/>
      </g>
     </g>
    </g>
   </g>
   <g id="svg_451">
    <g id="svg_452">
     <g id="svg_453">
      <g id="svg_454">
       <path id="svg_455" d="m230.2,187.650001c0.1,10.5 -1.7,45 -2.3,48.3c-0.7,3.3 -8,3 -7.7,-2c0.7,-9.5 0.3,-30.4 0.3,-35.7c0,-5.3 -3.6,-11.4 -3.6,-11.4" class="st1"/>
      </g>
     </g>
    </g>
    <g id="svg_456">
     <g id="svg_457">
      <g id="svg_458">
       <path id="svg_459" d="m224.4,239.150001c-0.3,0 -0.6,0 -0.9,-0.1c-2.4,-0.3 -4.6,-2.1 -4.4,-5.2c0.5,-7.5 0.4,-22.6 0.3,-30.8c0,-2.1 0,-3.8 0,-4.9c0,-5 -3.4,-10.8 -3.4,-10.9c-0.3,-0.5 -0.1,-1.1 0.4,-1.4c0.5,-0.3 1.1,-0.1 1.4,0.4c0.2,0.3 3.7,6.4 3.7,11.9c0,1.1 0,2.8 0,4.9c0.1,8.1 0.2,23.3 -0.3,30.9c-0.2,2.5 2,3 2.7,3.1c1.3,0.2 2.8,-0.3 3,-1.3c0.7,-3.3 2.4,-37.9 2.3,-48.1c0,-0.6 0.4,-1 1,-1c0.5,0 1,0.4 1,1c0.1,10.3 -1.7,45.1 -2.3,48.5c-0.4,1.8 -2.3,3 -4.5,3z"/>
      </g>
     </g>
    </g>
   </g>
   <g id="svg_460">
    <g id="svg_461">
     <g id="svg_462">
      <g id="svg_463">
       <path id="svg_464" d="m216.8,186.850001c-1.1,20.6 -2.7,45.8 -3.4,49.1c-0.7,3.3 -8,3 -7.7,-2c0.7,-9.5 0.2,-37.4 0.2,-42.7" class="st1"/>
      </g>
     </g>
    </g>
    <g id="svg_465">
     <g id="svg_466">
      <g id="svg_467">
       <path id="svg_468" d="m210,239.150001c-0.3,0 -0.6,0 -0.9,-0.1c-2.4,-0.3 -4.6,-2.1 -4.4,-5.2c0.5,-7.5 0.3,-26.5 0.2,-36.8c0,-2.7 0,-4.7 0,-5.8c0,-0.6 0.4,-1 1,-1s1,0.4 1,1c0,1.1 0,3.1 0,5.8c0.1,10.3 0.3,29.4 -0.2,37c-0.2,2.5 2,3 2.7,3.1c1.3,0.2 2.8,-0.3 3,-1.3c0.7,-3.2 2.3,-28.5 3.4,-49c0,-0.6 0.5,-1 1.1,-0.9c0.6,0 1,0.5 0.9,1.1c-1.1,20.6 -2.7,45.8 -3.4,49.3c-0.3,1.6 -2.2,2.8 -4.4,2.8z"/>
      </g>
     </g>
    </g>
   </g>
   <g id="svg_469">
    <g id="svg_470">
     <g id="svg_471">
      <g id="svg_472">
       <path id="svg_473" d="m224.9,153.950001c0,-6.1 3.8,-13.6 4.2,-15.5c1.3,-7.4 -1.6,-14.9 -8.1,-16.5c-2.1,-0.5 -3.7,-1.3 -3.7,-2.8c0,0 0,0 0,0c-1.1,0.6 -2.4,1 -3.7,1.2c-2.2,0.4 -4.4,0.2 -6.4,-0.4c0,0 0,0 0,0s0.2,2.7 -1.2,5.1c-5.2,9.1 1.8,21.4 1.3,29.4c-0.5,8 -4.1,6.6 -4.1,13.9c0,7.3 2.7,8.1 2.7,22.9c0,0 14.5,3.7 24.4,-3.9c0,-21.4 -5.4,-29.1 -5.4,-33.4z" class="st1"/>
      </g>
     </g>
    </g>
    <g id="svg_474">
     <g id="svg_475">
      <g id="svg_476">
       <path id="svg_477" d="m214.3,193.150001c-4.7,0 -8.3,-0.9 -8.6,-0.9c-0.4,-0.1 -0.8,-0.5 -0.8,-1c0,-8.6 -0.9,-12.4 -1.7,-15.5c-0.6,-2.3 -1,-4.3 -1,-7.4c0,-3.9 1,-5.6 2,-7.2c0.9,-1.5 1.8,-3 2.1,-6.7c0.2,-2.7 -0.6,-6.1 -1.5,-9.7c-1.5,-6.5 -3.3,-14 0.3,-20.1c1.2,-2.2 1.1,-4.5 1.1,-4.5c0,-0.4 0.2,-0.8 0.6,-1c0.2,-0.1 0.5,-0.1 0.7,-0.1c2,0.6 4,0.7 5.9,0.4c1.1,-0.2 2.3,-0.6 3.4,-1.2c0.3,-0.2 0.8,-0.1 1.1,0.1c0.3,0.2 0.4,0.5 0.4,0.8c0,1 1.8,1.6 2.9,1.9c6.6,1.6 10.4,9.1 8.9,17.6c-0.1,0.7 -0.5,1.7 -1.1,3.1c-1.2,3.2 -3.1,8.1 -3.1,12.2c0,1.2 0.5,2.8 1.2,5c1.6,5.1 4.2,13.5 4.2,28.5c0,0.3 -0.1,0.6 -0.4,0.8c-5.2,4 -11.6,4.9 -16.6,4.9zm-7.4,-2.7c3,0.6 14.3,2.3 22.4,-3.6c-0.1,-14.3 -2.6,-22.5 -4.1,-27.4c-0.7,-2.4 -1.3,-4.1 -1.3,-5.6c0,-4.5 1.9,-9.6 3.2,-12.9c0.5,-1.2 0.9,-2.3 1,-2.7c1.1,-6.3 -1.1,-13.8 -7.4,-15.3c-2.2,-0.5 -3.5,-1.3 -4.1,-2.4c-0.9,0.4 -1.9,0.7 -2.9,0.8c-1.9,0.3 -3.7,0.3 -5.6,-0.1c-0.1,1.1 -0.4,2.8 -1.3,4.3c-3.1,5.5 -1.6,12.2 0,18.7c0.9,3.7 1.7,7.3 1.5,10.3c-0.3,4.2 -1.4,6.1 -2.3,7.7c-0.9,1.5 -1.7,2.8 -1.7,6.2c0,2.9 0.4,4.7 1,6.9c0.6,3 1.6,6.9 1.6,15.1zm23.4,-3l0,0l0,0z"/>
      </g>
     </g>
    </g>
   </g>
   <g id="svg_478">
    <g id="svg_479">
     <g id="svg_480">
      <g id="svg_481">
       <g id="svg_482">
        <rect id="svg_483" height="2" width="4.8" class="st2" transform="matrix(0.7071,-0.7071,0.7071,0.7071,-28.3831,281.8985) " y="62.520784" x="324.093505"/>
       </g>
      </g>
     </g>
    </g>
    <g id="svg_484">
     <g id="svg_485">
      <g id="svg_486">
       <g id="svg_487">
        <rect id="svg_488" height="2" width="4.8" class="st2" y="70.750004" x="298.100006"/>
       </g>
      </g>
     </g>
    </g>
    <g id="svg_489">
     <g id="svg_490">
      <g id="svg_491">
       <g id="svg_492">
        <rect id="svg_493" height="4.8" width="2" class="st2" y="69.349995" x="306.100006"/>
       </g>
      </g>
     </g>
    </g>
    <g id="svg_494">
     <g id="svg_495">
      <g id="svg_496">
       <g id="svg_497">
        <rect id="svg_498" height="4.8" width="2" class="st2" y="62.750004" x="299.5"/>
       </g>
      </g>
     </g>
    </g>
   </g>
   <g id="svg_499">
    <g id="svg_500">
     <g id="svg_501">
      <g id="svg_502">
       <path id="svg_503" d="m297.7,142.150001c0,0 5.1,0 8.8,-2c0,0 -0.6,-7.3 -1.8,-10.1c-2.3,-5.8 -10.4,-4.3 -11.3,-9.7c0,0 0,0 0,0c-1.9,0.5 -3.9,0.6 -5.9,0.3c-1.5,-0.3 -2.9,-0.8 -4.2,-1.5c0,0 0,0 0,0c-1.7,5.8 -13.7,2.6 -13.7,2.6l-3.8,9.2l5.5,2.9c0,0 -1.9,7.4 -0.7,12.7s1.8,19.9 3.2,24.4c1.5,4.6 14.6,6.2 19.2,4.9c0.7,-0.2 1.3,-0.6 1.9,-1.1c-2.2,0.2 -4.5,-2 -2.9,-6c2.3,-5.6 4.5,-10.9 5.7,-14.2c1,-2.7 0.4,-9.3 0.1,-11.5l-0.1,-0.9z" class="st1"/>
      </g>
     </g>
    </g>
    <g id="svg_504">
     <g id="svg_505">
      <g id="svg_506">
       <path id="svg_507" d="m288.9,177.250001c-6,0 -14.6,-1.8 -16,-6c-0.8,-2.6 -1.4,-8.2 -1.9,-13.6c-0.4,-4.4 -0.8,-8.6 -1.4,-10.9c-1,-4.5 0,-10.3 0.5,-12.4l-4.8,-2.5c-0.5,-0.2 -0.7,-0.8 -0.5,-1.3l3.8,-9.2c0.2,-0.5 0.7,-0.7 1.2,-0.6c0.1,0 11.1,2.8 12.5,-1.9c0.1,-0.3 0.3,-0.5 0.6,-0.6c0.3,-0.1 0.6,-0.1 0.9,0c1.2,0.7 2.5,1.2 3.9,1.4c1.8,0.3 3.6,0.2 5.5,-0.3c0.3,-0.1 0.7,0 1,0.3c0.1,0.1 0.2,0.3 0.3,0.5c0.4,2.1 2,2.9 4.6,4c2.5,1 5.4,2.2 6.7,5.5c1.2,2.9 1.8,10.1 1.8,10.4c0,0.4 -0.2,0.8 -0.5,1c-2.8,1.6 -6.4,2 -8.1,2.1c0.3,2.8 0.8,8.9 -0.2,11.7c-0.8,2.2 -2,5.1 -3.4,8.6c-0.7,1.8 -1.5,3.7 -2.3,5.6c-0.6,1.6 -0.6,3 0,3.9c0.4,0.6 1.1,0.9 1.8,0.8c0.4,0 0.8,0.2 1,0.6c0.2,0.4 0.1,0.9 -0.2,1.2c-0.7,0.7 -1.5,1.1 -2.3,1.3c-1.2,0.2 -2.7,0.4 -4.5,0.4zm-21.8,-46.8l4.7,2.5c0.4,0.2 0.6,0.7 0.5,1.1c0,0.1 -1.8,7.2 -0.7,12.2c0.6,2.4 1,6.7 1.4,11.2c0.5,5.3 1,10.8 1.8,13.2c1.1,3.5 12.5,5.4 17.5,4.3c-0.3,-0.2 -0.6,-0.5 -0.9,-0.9c-0.6,-0.9 -1.5,-2.7 -0.3,-5.8c0.8,-1.9 1.6,-3.9 2.3,-5.7c1.4,-3.4 2.6,-6.4 3.4,-8.5c0.8,-2 0.5,-7.1 0,-11.1l-0.1,-0.7c0,-0.3 0.1,-0.6 0.2,-0.8c0.2,-0.2 0.5,-0.3 0.7,-0.3c0,0 4.4,0 7.7,-1.6c-0.2,-1.8 -0.8,-7 -1.6,-9.2c-1,-2.5 -3.2,-3.4 -5.6,-4.4c-2.3,-1 -4.7,-1.9 -5.6,-4.5c-1.8,0.4 -3.6,0.4 -5.4,0.1c-1.2,-0.2 -2.4,-0.6 -3.5,-1.1c-2.5,4.5 -10.9,3 -13.6,2.4l-2.9,7.6z"/>
      </g>
     </g>
    </g>
   </g>
   <g id="svg_508">
    <g id="svg_509">
     <g id="svg_510">
      <g id="svg_511">
       <path id="svg_512" d="m278.9,174.650001c0,0 -4.1,-1 -5.1,-3.8s-5.6,-29.2 -2.6,-37.1c-2,-1.3 -3.8,-1.9 -5.5,-2.9c0.9,-3 2.7,-6.6 3.8,-9.2c3.7,1.3 9.2,0.4 10.7,0.3c-0.4,1.4 0.2,2.7 0.5,3.1c-1.4,1.4 -5.9,6.1 -5.1,17c0.8,11.6 3.3,32.6 3.3,32.6z" class="st0"/>
      </g>
     </g>
    </g>
   </g>
   <g id="svg_513">
    <g id="svg_514">
     <g id="svg_515">
      <g id="svg_516">
       <path id="svg_517" d="m309.06304,158.414921c0,0 1.83846,4.80828 -0.35355,7.28313l-2.33343,-1.62633l0,-4.2426l2.68698,-1.4142z" class="st0"/>
      </g>
     </g>
    </g>
   </g>
   <g id="svg_518">
    <g id="svg_519">
     <g id="svg_520">
      <g id="svg_521">
       <path id="svg_522" d="m308.5694,161.773081c-0.56568,0.56568 -1.27278,1.13136 -2.05059,1.62633c-3.46479,2.19201 -6.64674,-0.14142 -7.7781,-1.69704c-0.28284,-0.42426 -0.21213,-1.06065 0.21213,-1.34349c0.42426,-0.28284 1.06065,-0.21213 1.34349,0.21213c0.21213,0.35355 2.33343,2.89911 5.09112,1.13136c5.37396,-3.39408 4.38402,-10.04082 4.45473,-10.11153c-0.07071,-0.49497 0.35355,-1.06065 0.84852,-1.13136c0.49497,-0.07071 1.06065,0.35355 1.13136,0.84852c0.07071,0.21213 0.98994,6.22248 -3.25266,10.46508z"/>
      </g>
     </g>
    </g>
   </g>
   <g id="svg_523">
    <g id="svg_524">
     <g id="svg_525">
      <g id="svg_526">
       <path id="svg_527" d="m346.69842,198.665441c-4.2426,4.2426 -11.59644,9.05088 -15.5562,7.071c-2.40414,-1.27278 -6.78816,-4.80828 -10.96005,-8.27307c-3.39408,-2.8284 -6.64674,-5.51538 -8.69733,-6.71745c-3.88905,-2.47485 -7.28313,-7.28313 -8.41449,-9.12159l-5.16183,1.62633c-0.49497,0.21213 -1.06065,-0.07071 -1.27278,-0.56568l-3.81834,-9.1923c-0.21213,-0.49497 0,-0.98994 0.42426,-1.27278c0.07071,-0.07071 9.82869,-5.86893 7.49526,-10.18224c-0.14142,-0.28284 -0.14142,-0.56568 0,-0.84852c0.14142,-0.28284 0.35355,-0.49497 0.63639,-0.63639c1.34349,-0.35355 2.61627,-0.91923 3.74763,-1.76775c1.48491,-1.06065 2.68698,-2.40414 3.67692,-4.10118c0.14142,-0.28284 0.49497,-0.49497 0.91923,-0.49497c0.14142,0 0.35355,0.07071 0.56568,0.14142c1.76775,1.20207 3.46479,0.63639 6.08106,-0.42426c2.47485,-1.06065 5.37396,-2.26272 8.62662,-0.84852c2.89911,1.20207 8.41449,5.86893 8.62662,6.08106c0.28284,0.28284 0.42426,0.7071 0.35355,1.06065c-0.84852,3.11124 -3.11124,5.93964 -4.2426,7.21242c2.19201,1.76775 6.85887,5.72751 8.13165,8.41449c0.98994,2.1213 2.19201,5.02041 3.67692,8.4852c0.77781,1.76775 1.55562,3.67692 2.33343,5.58609c0.7071,1.55562 1.69704,2.54556 2.75769,2.75769c0.7071,0.14142 1.4142,-0.14142 1.83846,-0.7071c0.28284,-0.28284 0.7071,-0.42426 1.13136,-0.28284c0.42426,0.14142 0.7071,0.56568 0.7071,0.98994c0,0.98994 -0.28284,1.83846 -0.7071,2.54556c-0.7071,0.98994 -1.62633,2.19201 -2.89911,3.46479zm-48.50706,-17.6775l5.09112,-1.55562c0.42426,-0.14142 0.91923,0.07071 1.13136,0.42426c0.07071,0.07071 3.81834,6.3639 8.13165,9.12159c2.1213,1.27278 5.44467,4.03047 8.90946,6.92958c4.10118,3.39408 8.34378,6.92958 10.6065,8.06094c3.25266,1.69704 12.65709,-5.02041 15.41478,-9.33372c-0.35355,0.07071 -0.77781,0.07071 -1.27278,0c-1.06065,-0.21213 -2.96982,-0.84852 -4.31331,-3.88905c-0.77781,-1.90917 -1.62633,-3.88905 -2.40414,-5.6568c-1.4142,-3.39408 -2.68698,-6.3639 -3.60621,-8.41449c-0.84852,-1.97988 -4.66686,-5.37396 -7.84881,-7.84881l-0.56568,-0.42426c-0.21213,-0.21213 -0.35355,-0.49497 -0.42426,-0.7071c0,-0.28284 0.14142,-0.56568 0.28284,-0.7071c0,0 3.11124,-3.11124 4.31331,-6.57603c-1.4142,-1.13136 -5.51538,-4.38402 -7.63668,-5.37396c-2.47485,-1.06065 -4.66686,-0.14142 -7.071,0.84852c-2.33343,0.91923 -4.66686,1.97988 -7.14171,0.77781c-0.98994,1.55562 -2.26272,2.8284 -3.74763,3.88905c-0.98994,0.7071 -2.1213,1.27278 -3.25266,1.69704c1.4142,4.9497 -5.58609,9.82869 -7.91952,11.3136l3.32337,7.42455z"/>
      </g>
     </g>
    </g>
   </g>
   <g id="svg_528">
    <g id="svg_529">
     <g id="svg_530">
      <g id="svg_531">
       <path id="svg_532" d="m328.02178,159.347911c0,0 4.31326,5.02107 6.36374,8.62768c0.84848,1.41436 1.8384,2.6873 3.04048,3.74811c2.75771,2.47522 4.80831,4.38467 6.15167,7.56694l-5.23211,-11.31477l-7.4953,-6.9306l-2.82848,-1.69736z" class="st0"/>
      </g>
     </g>
    </g>
   </g>
   <g id="svg_533">
    <g id="svg_534">
     <g id="svg_535">
      <g id="svg_536">
       <line id="svg_537" y2="138.250004" x2="296.799988" y1="142.149998" x1="297.700012" class="st1"/>
      </g>
     </g>
    </g>
    <g id="svg_538">
     <g id="svg_539">
      <g id="svg_540">
       <path id="svg_541" d="m297.7,143.150001c-0.4,0 -0.9,-0.3 -1,-0.8l-1,-3.9c-0.1,-0.5 0.2,-1.1 0.7,-1.2c0.5,-0.1 1.1,0.2 1.2,0.7l1,3.9c0.1,0.5 -0.2,1.1 -0.7,1.2c0,0.1 -0.1,0.1 -0.2,0.1z"/>
      </g>
     </g>
    </g>
   </g>
   <g id="svg_542">
    <g id="svg_543">
     <g id="svg_544">
      <g id="svg_545">
       <path id="svg_546" d="m306.5,140.150001c-3.6,2 -8.8,2 -8.8,2s0,0.3 0.1,0.7c0.3,2.2 0.9,8.8 -0.1,11.5c-1.2,3.3 -3.5,8.6 -5.7,14.2c-1.6,4 0.7,6.3 2.9,6c0.9,-0.1 1.8,-0.6 2.4,-1.5c2.3,-3.3 8.9,-15.2 9.8,-18.2c1.1,-4.3 -0.6,-14.7 -0.6,-14.7z" class="st1"/>
      </g>
     </g>
    </g>
    <g id="svg_547">
     <g id="svg_548">
      <g id="svg_549">
       <path id="svg_550" d="m294.5,175.750001c-1.3,0 -2.4,-0.6 -3.2,-1.6c-0.6,-0.9 -1.5,-2.7 -0.3,-5.8c0.8,-1.9 1.6,-3.9 2.3,-5.7c1.4,-3.4 2.6,-6.4 3.4,-8.5c0.8,-2 0.5,-7.1 0,-11.1c-0.1,-0.4 -0.1,-0.7 -0.1,-0.7c0,-0.3 0,-0.6 0.2,-0.8c0.2,-0.2 0.5,-0.3 0.8,-0.3c0,0 4.9,0 8.3,-1.9c0.3,-0.2 0.6,-0.2 0.9,0c0.3,0.1 0.5,0.4 0.6,0.7c0.1,0.4 1.7,10.7 0.5,15.2c-0.9,3.3 -7.7,15.4 -9.9,18.5c-0.8,1.1 -1.9,1.8 -3.1,1.9c-0.1,0 -0.2,0.1 -0.4,0.1zm4.4,-32.6c0.3,2.8 0.8,8.9 -0.2,11.7c-0.8,2.2 -2,5.1 -3.4,8.6c-0.7,1.8 -1.5,3.7 -2.3,5.6c-0.6,1.6 -0.6,3 0,3.9c0.4,0.6 1.1,0.9 1.8,0.8c0.5,-0.1 1.1,-0.3 1.7,-1.1c2.2,-3.3 8.8,-15.1 9.6,-17.9c0.9,-3.2 0,-10.1 -0.4,-13c-2.5,0.9 -5.3,1.3 -6.8,1.4z"/>
      </g>
     </g>
    </g>
   </g>
   <g id="svg_551">
    <g id="svg_552">
     <g id="svg_553">
      <g id="svg_554">
       <path id="svg_555" d="m289.8,121.850001c-0.8,0 -1.7,-0.1 -2.5,-0.2c-4.4,-0.8 -8.1,-3.5 -10.6,-7.6c-2.4,-4.1 -3.3,-9.1 -2.4,-14.1s3.4,-9.5 7.1,-12.5c3.7,-3.1 8.2,-4.3 12.5,-3.6c4.4,0.8 8.1,3.5 10.6,7.6c2.4,4.1 3.3,9.1 2.4,14.1c-1.6,9.5 -9,16.3 -17.1,16.3zm1.7,-36.3c-3.1,0 -6.1,1.1 -8.8,3.3c-3.3,2.7 -5.6,6.7 -6.4,11.3l0,0c-0.8,4.6 -0.1,9.1 2.1,12.8c2.1,3.6 5.4,6 9.2,6.7c7.9,1.4 15.6,-5.1 17.3,-14.4c0.8,-4.6 0.1,-9.1 -2.1,-12.8c-2.1,-3.6 -5.4,-6 -9.2,-6.7c-0.7,-0.1 -1.4,-0.2 -2.1,-0.2zm-16.1,14.4l0,0l0,0z"/>
      </g>
     </g>
    </g>
   </g>
   <g id="svg_556">
    <g id="svg_557">
     <g id="svg_558">
      <g id="svg_559">
       <path id="svg_560" d="m250.9,95.650001c0,0 3,19.5 5.1,23.8s11.8,6.6 11.8,6.6l-2,4.9l-13.2,-8.8l-3.8,-21.5c0,0 -0.9,-3.5 2.1,-5z" class="st0"/>
      </g>
     </g>
    </g>
   </g>
   <g id="svg_561">
    <g id="svg_562">
     <g id="svg_563">
      <g id="svg_564">
       <path id="svg_565" d="m265.8,131.950001c-0.2,0 -0.3,0 -0.5,-0.1c-12.9,-7 -13.4,-8.7 -13.6,-9.4c-1,-3.1 -3.2,-15.3 -3.8,-21.7c-0.4,-4 1.7,-6.1 3.9,-6.4c2,-0.2 4.2,1 4.7,3.7c1.2,8.1 3.2,17.1 4.9,18.7c0.4,0.4 0.4,1 0,1.4c-0.4,0.4 -1,0.4 -1.4,0c-2.6,-2.6 -4.7,-14.7 -5.4,-19.9c-0.2,-1.5 -1.4,-2.1 -2.4,-2c-1.2,0.1 -2.5,1.3 -2.2,4.2c0.6,6.2 2.8,18.3 3.8,21.3c0.1,0.3 1.2,1.9 11.7,7.7l3.3,-8.2c0.2,-0.5 0.8,-0.8 1.3,-0.5c0.5,0.2 0.8,0.8 0.5,1.3l-3.8,9.2c-0.1,0.3 -0.3,0.5 -0.6,0.6c-0.2,0.1 -0.3,0.1 -0.4,0.1z"/>
      </g>
     </g>
    </g>
   </g>
   <g id="svg_566">
    <g id="svg_567">
     <g id="svg_568">
      <g id="svg_569">
       <polygon id="svg_570" points="211.3000030517578,120.84999465942383 211.3000030517578,124.14999771118164 206.39999389648438,124.14999771118164 207.10000610351562,119.95000076293945 " class="st0"/>
      </g>
     </g>
    </g>
   </g>
   <g id="svg_571">
    <g id="svg_572">
     <g id="svg_573">
      <g id="svg_574">
       <polygon id="svg_575" points="212.60000610351562,192.1500129699707 209.60000610351562,238.1500129699707 206.10000610351562,235.95000076293945 206.10000610351562,217.2499885559082 206.10000610351562,192.1500129699707 " class="st0"/>
      </g>
     </g>
    </g>
   </g>
   <g id="svg_576">
    <g id="svg_577">
     <g id="svg_578">
      <g id="svg_579">
       <polygon id="svg_580" points="225.39999389648438,190.2499885559082 223.6999969482422,238.1500129699707 220.3000030517578,235.95000076293945 220.3000030517578,217.2499885559082 220.3000030517578,192.1500129699707 " class="st0"/>
      </g>
     </g>
    </g>
   </g>
   <g id="svg_581">
    <g id="svg_582">
     <g id="svg_583">
      <g id="svg_584">
       <path id="svg_585" d="m210.5,124.150001c0,0 -1.5,6.8 -1.7,9.2c-0.5,5 1.7,20.1 1.7,20.1c0,0.5 0,1 0,1.5c0,1.9 -0.1,3.9 -0.3,5.8c-0.3,2.5 -0.7,5.9 -0.6,7.7c0.3,5.6 3,23.7 3,23.7l-6.7,-0.9l0,-6.8l-2.7,-16.1l3.6,-10.5l-0.2,-9.8l-2.9,-15.6l2.6,-8.4l4.2,0l0,0.1z" class="st0"/>
      </g>
     </g>
    </g>
   </g>
   <g id="svg_586">
    <g id="svg_587">
     <g id="svg_588">
      <g id="svg_589">
       <path id="svg_590" d="m214.3,193.150001c-4.7,0 -8.3,-0.9 -8.6,-0.9c-0.4,-0.1 -0.8,-0.5 -0.8,-1c0,-8.6 -0.9,-12.4 -1.7,-15.5c-0.6,-2.3 -1,-4.3 -1,-7.4c0,-3.9 1,-5.6 2,-7.2c0.9,-1.5 1.8,-3 2.1,-6.7c0.2,-2.7 -0.6,-6.1 -1.5,-9.7c-1.5,-6.5 -3.3,-14 0.3,-20.1c1.2,-2.2 1.1,-4.5 1.1,-4.5c0,-0.4 0.2,-0.8 0.6,-1c0.2,-0.1 0.5,-0.1 0.7,-0.1c2,0.6 4,0.7 5.9,0.4c1.1,-0.2 2.3,-0.6 3.4,-1.2c0.3,-0.2 0.8,-0.1 1.1,0.1c0.3,0.2 0.4,0.5 0.4,0.8c0,1 1.8,1.6 2.9,1.9c6.6,1.6 10.4,9.1 8.9,17.6c-0.1,0.7 -0.5,1.7 -1.1,3.1c-1.2,3.2 -3.1,8.1 -3.1,12.2c0,1.2 0.5,2.8 1.2,5c1.6,5.1 4.2,13.5 4.2,28.5c0,0.3 -0.1,0.6 -0.4,0.8c-5.2,4 -11.6,4.9 -16.6,4.9zm-7.4,-2.7c3,0.6 14.3,2.3 22.4,-3.6c-0.1,-14.3 -2.6,-22.5 -4.1,-27.4c-0.7,-2.4 -1.3,-4.1 -1.3,-5.6c0,-4.5 1.9,-9.6 3.2,-12.9c0.5,-1.2 0.9,-2.3 1,-2.7c1.1,-6.3 -1.1,-13.8 -7.4,-15.3c-2.2,-0.5 -3.5,-1.3 -4.1,-2.4c-0.9,0.4 -1.9,0.7 -2.9,0.8c-1.9,0.3 -3.7,0.3 -5.6,-0.1c-0.1,1.1 -0.4,2.8 -1.3,4.3c-3.1,5.5 -1.6,12.2 0,18.7c0.9,3.7 1.7,7.3 1.5,10.3c-0.3,4.2 -1.4,6.1 -2.3,7.7c-0.9,1.5 -1.7,2.8 -1.7,6.2c0,2.9 0.4,4.7 1,6.9c0.6,3 1.6,6.9 1.6,15.1zm23.4,-3l0,0l0,0z"/>
      </g>
     </g>
    </g>
   </g>
   <g id="svg_591">
    <g id="svg_592">
     <g id="svg_593">
      <g id="svg_594">
       <path id="svg_595" d="m224,136.150001c-0.5,0 -0.9,-0.4 -1,-0.9c0,-0.1 -1.3,-9.6 -5.4,-13.6c-0.4,-0.4 -0.4,-1 0,-1.4s1,-0.4 1.4,0c4.5,4.5 5.9,14.4 6,14.8c0.1,0.5 -0.3,1.1 -0.9,1.1c0,0 -0.1,0 -0.1,0z"/>
      </g>
     </g>
    </g>
   </g>
   <g id="svg_596">
    <g id="svg_597">
     <g id="svg_598">
      <g id="svg_599">
       <path id="svg_600" d="m216.6,137.950001c0,0 23.1,-8.3 24.1,-11.3c0.9,-3 3.2,-15 3.8,-21.5s-6,-6.7 -6.6,-2.4c-0.5,3 -2.7,16.8 -5.2,19.3c-2.5,2.5 -17.1,7 -17.1,7s-6.7,2.2 -4.7,7.4c1.3,3.3 5.7,1.5 5.7,1.5z" class="st1"/>
      </g>
     </g>
    </g>
    <g id="svg_601">
     <g id="svg_602">
      <g id="svg_603">
       <path id="svg_604" d="m214.1,139.450001c-0.7,0 -1.3,-0.1 -2,-0.4c-1,-0.4 -1.7,-1.2 -2.2,-2.3c-0.6,-1.6 -0.6,-3.1 0.1,-4.5c1.4,-2.9 5.1,-4.1 5.2,-4.2c5.8,-1.8 15,-5.1 16.7,-6.8c1.5,-1.5 3.4,-8.8 4.9,-18.7c0.4,-2.7 2.7,-3.9 4.7,-3.7c2.2,0.3 4.3,2.4 3.9,6.4c-0.6,6.4 -2.8,18.6 -3.8,21.7c-1,3.1 -17.6,9.4 -24.7,11.9c-0.1,0.1 -1.4,0.6 -2.8,0.6zm26.9,-38.6c-1,0 -2,0.7 -2.2,2c-0.8,5.1 -2.9,17.3 -5.4,19.9c-2.6,2.6 -16,6.8 -17.6,7.3c0,0 -3,1 -4,3.1c-0.4,0.9 -0.4,1.8 0,2.9c0.2,0.6 0.6,1 1.1,1.2c1.1,0.5 2.8,0 3.3,-0.2c0,0 0,0 0,0c10.7,-3.9 22.7,-9 23.4,-10.7c0.9,-3 3.1,-15.1 3.7,-21.3c0.3,-2.9 -1,-4.1 -2.2,-4.2c0.1,0 0,0 -0.1,0z"/>
      </g>
     </g>
    </g>
   </g>
   <g id="svg_605">
    <g id="svg_606">
     <g id="svg_607">
      <g id="svg_608">
       <path id="svg_609" d="m347.129726,216.21541c-0.3,0 -0.5,-0.1 -0.7,-0.3c-0.2,-0.2 -4.8,-4.9 -11.7,-3c-0.5,0.1 -1.1,-0.2 -1.2,-0.7c-0.1,-0.5 0.2,-1.1 0.7,-1.2c8.1,-2.3 13.5,3.3 13.7,3.6c0.4,0.4 0.4,1 0,1.4c-0.3,0.1 -0.6,0.2 -0.8,0.2z"/>
      </g>
     </g>
    </g>
   </g>
   <g id="svg_610">
    <g id="svg_611">
     <g id="svg_612">
      <g id="svg_613">
       <ellipse id="svg_614" ry="18.200001" rx="15.5" cy="174.882908" cx="334.282195" class="st1"/>
      </g>
     </g>
    </g>
    <g id="svg_615">
     <g id="svg_616">
      <g id="svg_617">
       <path id="svg_618" d="m211.1,121.850001c-8.1,0 -15.4,-6.8 -17.1,-16.3c-0.9,-5 0,-10 2.4,-14.1c2.4,-4.2 6.2,-6.9 10.6,-7.6c4.4,-0.8 8.8,0.5 12.5,3.6c3.7,3 6.2,7.5 7.1,12.5l0,0c0.9,5 0,10 -2.4,14.1c-2.4,4.2 -6.2,6.9 -10.6,7.6c-0.9,0.1 -1.7,0.2 -2.5,0.2zm-1.7,-36.3c-0.7,0 -1.4,0.1 -2.2,0.2c-3.8,0.7 -7.1,3 -9.2,6.7c-2.2,3.7 -2.9,8.2 -2.1,12.8c1.6,9.3 9.4,15.8 17.3,14.4c3.8,-0.7 7.1,-3 9.2,-6.7c2.2,-3.7 2.9,-8.2 2.1,-12.8l0,0c-0.8,-4.6 -3.1,-8.6 -6.4,-11.3c-2.6,-2.2 -5.6,-3.3 -8.7,-3.3z"/>
      </g>
     </g>
    </g>
   </g>
   <g id="svg_619">
    <g id="svg_620">
     <g id="svg_621">
      <g id="svg_622">
       <g id="svg_623">
        <path id="svg_624" d="m193.8,105.550001c-2.3,-10.6 4,-20.6 13.1,-22.2c5.4,-1 11.3,0.9 14.7,5.5c2.8,3.8 0.9,9.7 -10.4,8.2c-6.9,-0.9 -9.6,14.6 -0.4,17c-0.1,0.1 -14.4,3.5 -17,-8.5z"/>
       </g>
      </g>
     </g>
     <g id="svg_625">
      <g id="svg_626">
       <g id="svg_627">
        <path id="svg_628" d="m206.3,115.650001c-2.5,0 -5.7,-0.4 -8.3,-2.1c-2.7,-1.7 -4.4,-4.3 -5.1,-7.7l0,0c-1.2,-5.6 -0.2,-11.4 2.9,-16c2.7,-4 6.6,-6.6 11,-7.4c6.1,-1.1 12.2,1.3 15.6,5.9c1.5,2.1 1.8,4.6 0.6,6.6c-1,1.7 -3.8,4.3 -11.9,3.3c-2.6,-0.3 -4.4,2.4 -5,5.3c-0.8,3.9 0.5,8.6 5,9.8c0.4,0.1 0.7,0.5 0.7,1s-0.3,0.9 -0.8,1c-0.2,-0.2 -2.1,0.3 -4.7,0.3zm3.3,-31.5c-0.9,0 -1.7,0.1 -2.6,0.2c-3.9,0.7 -7.3,3 -9.7,6.5c-2.8,4.1 -3.7,9.4 -2.6,14.5l0,0c0.6,2.9 2.1,5.1 4.3,6.4c2.7,1.7 6,1.9 8.4,1.8c-3.1,-2.4 -4,-6.7 -3.3,-10.5c0.9,-4.5 3.8,-7.3 7.2,-6.9c5.1,0.7 8.7,-0.2 10,-2.3c0.7,-1.2 0.5,-2.9 -0.5,-4.4c-2.6,-3.3 -6.8,-5.3 -11.2,-5.3z"/>
       </g>
      </g>
     </g>
    </g>
    <g id="svg_629">
     <g id="svg_630">
      <g id="svg_631">
       <g id="svg_632">
        <g id="svg_633">
         <g id="svg_634">
          <path id="svg_635" d="m212.5,108.650001c-0.2,0 -0.4,-0.2 -0.4,-0.3c0,-0.6 0.2,-1.2 0.6,-1.7c0.4,-0.5 1,-0.8 1.6,-0.8c0.6,0 1.2,0.2 1.7,0.6c0.5,0.4 0.8,1 0.8,1.6c0,0.2 -0.1,0.4 -0.3,0.4c-0.2,0 -0.4,-0.1 -0.4,-0.3c-0.1,-0.9 -0.8,-1.6 -1.7,-1.5c-0.4,0 -0.8,0.2 -1.1,0.6c-0.3,0.3 -0.4,0.8 -0.4,1.2c0,0 -0.1,0.1 -0.4,0.2c0,0 0,0 0,0z"/>
         </g>
        </g>
       </g>
      </g>
      <g id="svg_636">
       <g id="svg_637">
        <g id="svg_638">
         <g id="svg_639">
          <path id="svg_640" d="m218.9,107.750001c-0.2,0 -0.4,-0.2 -0.4,-0.3c0,-0.6 0.2,-1.2 0.6,-1.7c0.4,-0.5 1,-0.8 1.6,-0.8c0.6,0 1.2,0.2 1.7,0.6c0.5,0.4 0.8,1 0.8,1.6c0,0.2 -0.1,0.4 -0.3,0.4c-0.2,0 -0.4,-0.1 -0.4,-0.3c0,-0.4 -0.2,-0.8 -0.6,-1.1c-0.3,-0.3 -0.7,-0.4 -1.2,-0.4c-0.4,0 -0.8,0.2 -1.1,0.6c-0.3,0.3 -0.4,0.8 -0.4,1.2c0.1,0 0,0.2 -0.3,0.2c0,0 0,0 0,0z"/>
         </g>
        </g>
       </g>
      </g>
     </g>
     <g id="svg_641">
      <g id="svg_642">
       <g id="svg_643">
        <g id="svg_644">
         <path id="svg_645" d="m219.7,112.450001c0.1,0.8 -0.6,1.6 -1.4,1.6c-0.8,0.1 -1.6,-0.6 -1.6,-1.4"/>
        </g>
       </g>
      </g>
     </g>
    </g>
   </g>
   <g id="svg_646">
    <g id="svg_647">
     <g id="svg_648">
      <g id="svg_649">
       <path id="svg_650" d="m210,239.150001c-0.3,0 -0.6,0 -0.9,-0.1c-2.4,-0.3 -4.6,-2.1 -4.4,-5.2c0.5,-7.5 0.3,-26.5 0.2,-36.8c0,-2.7 0,-4.7 0,-5.8c0,-0.6 0.4,-1 1,-1s1,0.4 1,1c0,1.1 0,3.1 0,5.8c0.1,10.3 0.3,29.4 -0.2,37c-0.2,2.5 2,3 2.7,3.1c1.3,0.2 2.8,-0.3 3,-1.3c0.6,-3.1 2,-22.3 3.1,-43.7c0,-0.6 0.5,-1 1.1,-0.9c0.6,0 1,0.5 0.9,1.1c-1,18.8 -2.4,40.4 -3.1,44c-0.3,1.6 -2.2,2.8 -4.4,2.8z"/>
      </g>
     </g>
    </g>
   </g>
   <g id="svg_651">
    <g id="svg_652">
     <g id="svg_653">
      <g id="svg_654">
       <path id="svg_655" d="m224.4,239.150001c-0.3,0 -0.6,0 -0.9,-0.1c-2.4,-0.3 -4.6,-2.1 -4.4,-5.2c0.5,-7.5 0.4,-22.6 0.3,-30.8c0,-2.1 0,-3.8 0,-4.9c0,-1.7 -0.4,-3.8 -1.2,-6.1c-0.2,-0.5 0.1,-1.1 0.6,-1.3c0.5,-0.2 1.1,0.1 1.3,0.6c0.9,2.5 1.4,4.8 1.4,6.7c0,1.1 0,2.8 0,4.9c0.1,8.1 0.2,23.3 -0.3,30.9c-0.2,2.5 2,3 2.7,3.1c1.3,0.2 2.8,-0.3 3,-1.3c0.7,-3.3 2.4,-37.9 2.3,-48.1c0,-0.6 0.4,-1 1,-1c0.5,0 1,0.4 1,1c0.1,10.3 -1.7,45.1 -2.3,48.5c-0.4,1.9 -2.3,3.1 -4.5,3.1z"/>
      </g>
     </g>
    </g>
   </g>
  </g>
 </g>
 <g>
  <title>Layer 2</title>
  <rect fill="none" y="0" x="0" height="100%" width="100%" id="backgroundrect"/>
 </g>
 <g>
  <title>background</title>
  <rect fill="none" id="canvas_background" height="282" width="502" y="-1" x="-1"/>
 </g>
</svg>