<svg width="500" height="280" xmlns="http://www.w3.org/2000/svg">

 <style type="text/css">.st0{fill:#E6E7E8;}
	.st1{fill:#FFFFFF;}
	.st2{fill:#FFD16C;}
	.st3{fill:#FFD16D;}
	.st4{fill:#C7C8CA;}
	.st5{fill:#C7C8C9;}
	.st6{fill:#FFFFFF;stroke:#000000;stroke-width:2;stroke-linecap:round;stroke-linejoin:round;stroke-miterlimit:10;}</style>
 <g class="currentLayer">
  <title>Layer 1</title>
  <g id="svg_134">
   <g id="svg_135">
    <g id="svg_136">
     <g id="svg_137">
      <path id="svg_138" d="m199.7,215.2l-4,0c-0.6,0 -1,-0.4 -1,-1s0.4,-1 1,-1l4,0c0.6,0 1,0.4 1,1s-0.5,1 -1,1zm-11,0l-4,0c-0.6,0 -1,-0.4 -1,-1s0.4,-1 1,-1l4,0c0.6,0 1,0.4 1,1s-0.5,1 -1,1zm-11,0l-4,0c-0.6,0 -1,-0.4 -1,-1s0.4,-1 1,-1l4,0c0.6,0 1,0.4 1,1s-0.5,1 -1,1zm-11,0l-4,0c-0.6,0 -1,-0.4 -1,-1s0.4,-1 1,-1l4,0c0.6,0 1,0.4 1,1s-0.5,1 -1,1zm38.9,-1.1c-0.6,0 -1,-0.4 -1,-1l0,-4c0,-0.6 0.4,-1 1,-1s1,0.4 1,1l0,4c0,0.5 -0.5,1 -1,1zm104.5,-3.9l-4,0c-0.6,0 -1,-0.4 -1,-1s0.4,-1 1,-1l4,0c0.6,0 1,0.4 1,1s-0.4,1 -1,1zm-11,0l-4,0c-0.6,0 -1,-0.4 -1,-1s0.4,-1 1,-1l4,0c0.6,0 1,0.4 1,1s-0.4,1 -1,1zm-11,0l-4,0c-0.6,0 -1,-0.4 -1,-1s0.4,-1 1,-1l4,0c0.6,0 1,0.4 1,1s-0.4,1 -1,1zm-11,0l-4,0c-0.6,0 -1,-0.4 -1,-1s0.4,-1 1,-1l4,0c0.6,0 1,0.4 1,1s-0.4,1 -1,1zm-11,0l-3.1,0c-0.6,0 -1,-0.4 -1,-1l0,-0.8c0,-0.6 0.4,-1 1,-1c0.5,0 0.9,0.4 1,0.8l2.2,0c0.6,0 1,0.4 1,1s-0.5,1 -1.1,1zm-60.5,-7.1c-0.6,0 -1,-0.4 -1,-1l0,-4c0,-0.6 0.4,-1 1,-1s1,0.4 1,1l0,4c0,0.5 -0.5,1 -1,1zm57.4,-0.7c-0.6,0 -1,-0.4 -1,-1l0,-4c0,-0.6 0.4,-1 1,-1s1,0.4 1,1l0,4c0,0.5 -0.5,1 -1,1zm-57.4,-10.3c-0.6,0 -1,-0.4 -1,-1l0,-1.1c0,-0.6 0.4,-1 1,-1l2.9,0c0.6,0 1,0.4 1,1s-0.4,1 -1,1l-1.9,0l0,0.1c0,0.5 -0.5,1 -1,1zm57.4,-0.7c-0.4,0 -0.7,-0.2 -0.8,-0.5l-2.7,0c-0.6,0 -1,-0.4 -1,-1s0.4,-1 1,-1l3.5,0c0.6,0 1,0.4 1,1l0,0.5c0,0.5 -0.5,1 -1,1zm-10.6,-0.5l-4,0c-0.6,0 -1,-0.4 -1,-1s0.4,-1 1,-1l4,0c0.6,0 1,0.4 1,1s-0.4,1 -1,1zm-11,0l-4,0c-0.6,0 -1,-0.4 -1,-1s0.4,-1 1,-1l4,0c0.6,0 1,0.4 1,1s-0.4,1 -1,1zm-11,0l-4,0c-0.6,0 -1,-0.4 -1,-1s0.4,-1 1,-1l4,0c0.6,0 1,0.4 1,1s-0.4,1 -1,1zm-11,0l-4,0c-0.6,0 -1,-0.4 -1,-1s0.4,-1 1,-1l4,0c0.6,0 1,0.4 1,1s-0.4,1 -1,1z" class="st2"/>
     </g>
    </g>
   </g>
  </g>
  <g id="svg_139">
   <g id="svg_140">
    <g id="svg_141">
     <g id="svg_142">
      <path id="svg_143" d="m413.8,192.6l-4,0c-0.6,0 -1,-0.4 -1,-1s0.4,-1 1,-1l4,0c0.6,0 1,0.4 1,1s-0.4,1 -1,1zm-11,0l-4,0c-0.6,0 -1,-0.4 -1,-1s0.4,-1 1,-1l4,0c0.6,0 1,0.4 1,1s-0.4,1 -1,1zm-11,0l-4,0c-0.6,0 -1,-0.4 -1,-1s0.4,-1 1,-1l4,0c0.6,0 1,0.4 1,1s-0.4,1 -1,1zm-11,0l-4,0c-0.6,0 -1,-0.4 -1,-1s0.4,-1 1,-1l4,0c0.6,0 1,0.4 1,1s-0.4,1 -1,1zm-11,0l-4,0c-0.6,0 -1,-0.4 -1,-1s0.4,-1 1,-1l4,0c0.6,0 1,0.4 1,1s-0.4,1 -1,1zm-11,0l-4,0c-0.6,0 -1,-0.4 -1,-1s0.4,-1 1,-1l4,0c0.6,0 1,0.4 1,1s-0.4,1 -1,1zm-11,0l-4,0c-0.6,0 -1,-0.4 -1,-1s0.4,-1 1,-1l4,0c0.6,0 1,0.4 1,1s-0.4,1 -1,1zm68.5,-4.5c-0.6,0 -1,-0.4 -1,-1l0,-4c0,-0.6 0.4,-1 1,-1s1,0.4 1,1l0,4c0,0.5 -0.5,1 -1,1zm0,-11c-0.6,0 -1,-0.4 -1,-1l0,-4c0,-0.6 0.4,-1 1,-1s1,0.4 1,1l0,4c0,0.5 -0.5,1 -1,1zm0,-11c-0.6,0 -1,-0.4 -1,-1l0,-4c0,-0.6 0.4,-1 1,-1s1,0.4 1,1l0,4c0,0.5 -0.5,1 -1,1zm-3.7,-7.4l-4,0c-0.6,0 -1,-0.4 -1,-1s0.4,-1 1,-1l4,0c0.6,0 1,0.4 1,1s-0.4,1 -1,1zm-11,0l-4,0c-0.6,0 -1,-0.4 -1,-1s0.4,-1 1,-1l4,0c0.6,0 1,0.4 1,1s-0.4,1 -1,1zm-11,0l-4,0c-0.6,0 -1,-0.4 -1,-1s0.4,-1 1,-1l4,0c0.6,0 1,0.4 1,1s-0.4,1 -1,1zm-11,0l-4,0c-0.6,0 -1,-0.4 -1,-1s0.4,-1 1,-1l4,0c0.6,0 1,0.4 1,1s-0.4,1 -1,1zm-11,0l-4,0c-0.6,0 -1,-0.4 -1,-1s0.4,-1 1,-1l4,0c0.6,0 1,0.4 1,1s-0.4,1 -1,1zm-11,0l-4,0c-0.6,0 -1,-0.4 -1,-1s0.4,-1 1,-1l4,0c0.6,0 1,0.4 1,1s-0.4,1 -1,1zm-10.7,-0.3c-0.6,0 -1,-0.4 -1,-1l0,-4c0,-0.6 0.4,-1 1,-1s1,0.4 1,1l0,4c0,0.6 -0.4,1 -1,1zm0,-11c-0.6,0 -1,-0.4 -1,-1l0,-4c0,-0.6 0.4,-1 1,-1s1,0.4 1,1l0,4c0,0.6 -0.4,1 -1,1zm0,-11c-0.6,0 -1,-0.4 -1,-1l0,-4c0,-0.6 0.4,-1 1,-1s1,0.4 1,1l0,4c0,0.6 -0.4,1 -1,1zm0,-11c-0.6,0 -1,-0.4 -1,-1l0,-4c0,-0.6 0.4,-1 1,-1s1,0.4 1,1l0,4c0,0.6 -0.4,1 -1,1zm0,-11c-0.6,0 -1,-0.4 -1,-1l0,-4c0,-0.6 0.4,-1 1,-1s1,0.4 1,1l0,4c0,0.6 -0.4,1 -1,1zm0,-11c-0.6,0 -1,-0.4 -1,-1l0,-4c0,-0.6 0.4,-1 1,-1s1,0.4 1,1l0,4c0,0.6 -0.4,1 -1,1zm0,-11c-0.6,0 -1,-0.4 -1,-1l0,-4c0,-0.6 0.4,-1 1,-1s1,0.4 1,1l0,4c0,0.6 -0.4,1 -1,1zm-2.4,-8.5l-4,0c-0.6,0 -1,-0.4 -1,-1s0.4,-1 1,-1l4,0c0.6,0 1,0.4 1,1s-0.5,1 -1,1zm-11,0l-4,0c-0.6,0 -1,-0.4 -1,-1s0.4,-1 1,-1l4,0c0.6,0 1,0.4 1,1s-0.5,1 -1,1z" class="st2"/>
     </g>
    </g>
   </g>
  </g>
  <g id="svg_144">
   <g id="svg_145">
    <g id="svg_146">
     <g id="svg_147">
      <path id="svg_148" d="m207.9,102.6l-2.8,0c-0.6,0 -1,-0.4 -1,-1s0.4,-1 1,-1l1.8,0l0,-0.2c0,-0.6 0.4,-1 1,-1s1,0.4 1,1l0,1.2c0,0.6 -0.4,1 -1,1zm-9.8,0l-4,0c-0.6,0 -1,-0.4 -1,-1s0.4,-1 1,-1l4,0c0.6,0 1,0.4 1,1s-0.4,1 -1,1zm-11,0l-4,0c-0.6,0 -1,-0.4 -1,-1s0.4,-1 1,-1l4,0c0.6,0 1,0.4 1,1s-0.4,1 -1,1zm-11,0l-4,0c-0.6,0 -1,-0.4 -1,-1s0.4,-1 1,-1l4,0c0.6,0 1,0.4 1,1s-0.4,1 -1,1zm31.8,-8.2c-0.6,0 -1,-0.4 -1,-1l0,-4c0,-0.6 0.4,-1 1,-1s1,0.4 1,1l0,4c0,0.6 -0.4,1 -1,1zm0,-11c-0.6,0 -1,-0.4 -1,-1l0,-4c0,-0.6 0.4,-1 1,-1s1,0.4 1,1l0,4c0,0.6 -0.4,1 -1,1zm0,-11c-0.6,0 -1,-0.4 -1,-1l0,-2.6c0,-0.6 0.4,-1 1,-1l1.4,0c0.6,0 1,0.4 1,1s-0.4,1 -1,1l-0.4,0l0,1.6c0,0.6 -0.4,1 -1,1zm98.4,-2.5l-2,0c-0.6,0 -1,-0.4 -1,-1s0.4,-1 1,-1l2,0c0.6,0 1,0.4 1,1s-0.4,1 -1,1zm-9,0l-4,0c-0.6,0 -1,-0.4 -1,-1s0.4,-1 1,-1l4,0c0.6,0 1,0.4 1,1s-0.4,1 -1,1zm-11,0l-4,0c-0.6,0 -1,-0.4 -1,-1s0.4,-1 1,-1l4,0c0.6,0 1,0.4 1,1s-0.4,1 -1,1zm-11,0l-4,0c-0.6,0 -1,-0.4 -1,-1s0.4,-1 1,-1l4,0c0.6,0 1,0.4 1,1s-0.4,1 -1,1zm-11,0l-4,0c-0.6,0 -1,-0.4 -1,-1s0.4,-1 1,-1l4,0c0.6,0 1,0.4 1,1s-0.4,1 -1,1zm-11,0l-4,0c-0.6,0 -1,-0.4 -1,-1s0.4,-1 1,-1l4,0c0.6,0 1,0.4 1,1s-0.4,1 -1,1zm-11,0l-4,0c-0.6,0 -1,-0.4 -1,-1s0.4,-1 1,-1l4,0c0.6,0 1,0.4 1,1s-0.4,1 -1,1zm-11,0l-4,0c-0.6,0 -1,-0.4 -1,-1s0.4,-1 1,-1l4,0c0.6,0 1,0.4 1,1s-0.4,1 -1,1zm-11,0l-4,0c-0.6,0 -1,-0.4 -1,-1s0.4,-1 1,-1l4,0c0.6,0 1,0.4 1,1s-0.4,1 -1,1z" class="st2"/>
     </g>
    </g>
   </g>
  </g>
  <g id="svg_149">
   <g id="svg_150">
    <g id="svg_151">
     <g id="svg_152">
      <path id="svg_153" d="m161.1,149.1c-0.6,0 -1,-0.4 -1,-1l0,-4c0,-0.6 0.4,-1 1,-1s1,0.4 1,1l0,4c0,0.6 -0.4,1 -1,1zm0,-11c-0.6,0 -1,-0.4 -1,-1l0,-4c0,-0.6 0.4,-1 1,-1s1,0.4 1,1l0,4c0,0.6 -0.4,1 -1,1zm0,-11c-0.6,0 -1,-0.4 -1,-1l0,-4c0,-0.6 0.4,-1 1,-1s1,0.4 1,1l0,4c0,0.6 -0.4,1 -1,1zm0,-11c-0.6,0 -1,-0.4 -1,-1l0,-0.6c0,-0.6 0.4,-1 1,-1s1,0.4 1,1l0,0.6c0,0.6 -0.4,1 -1,1z" class="st2"/>
     </g>
    </g>
   </g>
  </g>
  <g id="svg_154">
   <g id="svg_155">
    <g id="svg_156">
     <g id="svg_157">
      <g id="svg_158">
       <path id="svg_159" d="m324.4,119.8c0.8,-4.4 0.8,-7.1 0.8,-11c0,-2.9 -1.8,-4.1 -2,-6.3l-0.7,-7.5c0,0 5.1,0 8.8,-2c0,0 -0.6,-7.3 -1.8,-10.1c-2.3,-5.8 -10.4,-4.3 -11.3,-9.7c0,0 0,0 0,0c-1.9,0.5 -3.9,0.6 -5.9,0.3c-1.5,-0.3 -2.9,-0.8 -4.2,-1.5l0,0c-1,3.4 -3,4.5 -7.2,5.4c-4.7,1 -6.7,4.1 -7.3,10.1c0,0.4 -0.1,0.9 -0.1,1.3l-0.2,5.9c0,0 1.8,0 2.7,0c0,1.6 0.1,2.2 0.4,3.7c1.2,5.3 -0.2,16.9 1.2,21.4" class="st1"/>
      </g>
     </g>
    </g>
    <g id="svg_160">
     <g id="svg_161">
      <g id="svg_162">
       <path id="svg_163" d="m324.4,120.8c-0.1,0 -0.1,0 -0.2,0c-0.5,-0.1 -0.9,-0.6 -0.8,-1.2c0.7,-4.2 0.8,-6.8 0.8,-10.8c0,-1.4 -0.5,-2.3 -1,-3.3c-0.4,-0.8 -0.9,-1.7 -1,-2.8l-0.7,-7.6c0,-0.3 0.1,-0.6 0.3,-0.8s0.5,-0.3 0.7,-0.3c0,0 4.4,0 7.7,-1.6c-0.2,-1.8 -0.8,-7 -1.6,-9.2c-1,-2.5 -3.2,-3.4 -5.6,-4.4c-2.3,-1 -4.7,-1.9 -5.6,-4.5c-1.8,0.4 -3.6,0.4 -5.4,0.1c-1.2,-0.2 -2.3,-0.6 -3.5,-1.1c-1.3,3 -3.6,4.1 -7.5,5c-4.1,0.9 -6,3.5 -6.6,9.2c0,0.4 -0.1,0.8 -0.1,1.2l-0.2,4.9c0.5,0 1.2,0 1.7,0c0.3,0 0.5,0.1 0.7,0.3c0.2,0.2 0.3,0.5 0.3,0.7c0,1.5 0,2 0.4,3.5c0.6,2.6 0.6,6.7 0.5,10.6c0,4.2 -0.1,8.5 0.7,10.7c0.2,0.5 -0.1,1.1 -0.6,1.3c-0.5,0.2 -1.1,-0.1 -1.3,-0.6c-0.8,-2.6 -0.8,-6.8 -0.8,-11.4c0,-3.8 0.1,-7.8 -0.5,-10.2c-0.3,-1.2 -0.4,-1.9 -0.4,-2.9c-0.8,0 -1.7,0 -1.7,0c0,0 0,0 0,0c-0.3,0 -0.5,-0.1 -0.7,-0.3c-0.2,-0.2 -0.3,-0.5 -0.3,-0.7l0.2,-5.9c0,-0.4 0,-0.9 0.1,-1.3c0.7,-6.6 3.1,-9.8 8.1,-11c4,-0.9 5.6,-1.7 6.5,-4.7c0.1,-0.3 0.3,-0.5 0.6,-0.6c0.3,-0.1 0.6,-0.1 0.9,0.1c1.2,0.7 2.5,1.2 3.9,1.4c1.8,0.3 3.6,0.2 5.5,-0.3c0.3,-0.1 0.7,0 0.9,0.2c0.2,0.2 0.3,0.4 0.4,0.6c0.4,2.1 2,2.9 4.6,4c2.5,1 5.4,2.2 6.7,5.5c1.2,2.9 1.8,10.1 1.8,10.4c0,0.4 -0.2,0.8 -0.5,1c-2.8,1.6 -6.4,2 -8.2,2.1l0.6,6.5c0.1,0.7 0.4,1.4 0.8,2.1c0.6,1.1 1.2,2.3 1.2,4.3c0,4.1 -0.1,6.8 -0.8,11.1c-0.1,0.4 -0.5,0.7 -1,0.7zm-6.3,-47.6l0,0l0,0z"/>
      </g>
     </g>
    </g>
   </g>
   <g id="svg_164">
    <g id="svg_165">
     <g id="svg_166">
      <g id="svg_167">
       <ellipse id="svg_168" ry="15.5" rx="18.200001" cy="175.702088" cx="427.656753" class="st1" transform="matrix(0.01946735,-0.9998,0.9998,0.01946735,129.604,480.0839) "/>
      </g>
     </g>
    </g>
    <g id="svg_169">
     <g id="svg_170">
      <g id="svg_171">
       <path id="svg_172" d="m313.5,75.2c-0.1,0 -0.2,0 -0.3,0c-4.4,-0.1 -8.6,-2.2 -11.6,-5.9c-3,-3.7 -4.6,-8.5 -4.5,-13.6l0,0c0.1,-5.1 1.9,-9.9 5,-13.4c3.2,-3.6 7.4,-5.5 11.8,-5.5c4.4,0.1 8.6,2.2 11.6,5.9c3,3.7 4.6,8.5 4.5,13.6c-0.1,5.1 -1.9,9.9 -5,13.4c-3.1,3.5 -7.2,5.5 -11.5,5.5zm0.2,-36.4c-3.8,0 -7.3,1.7 -10.1,4.8c-2.8,3.2 -4.5,7.5 -4.5,12.1l0,0c-0.1,4.6 1.4,9 4.1,12.3c2.7,3.3 6.3,5.1 10.1,5.2c3.9,0.1 7.5,-1.6 10.3,-4.8c2.8,-3.2 4.5,-7.5 4.5,-12.1s-1.4,-9 -4.1,-12.3c-2.7,-3.3 -6.3,-5.1 -10.1,-5.2c-0.1,0 -0.2,0 -0.2,0zm-15.7,16.9l0,0l0,0z"/>
      </g>
     </g>
    </g>
   </g>
   <g id="svg_173">
    <g id="svg_174">
     <g id="svg_175">
      <g id="svg_176">
       <path id="svg_177" d="m303,54.9c0.2,-8.1 4.8,-14.9 11.1,-17.1c-0.1,0 -0.1,0 -0.2,0c-8.6,-0.2 -15.7,7.8 -15.9,17.9c-0.2,10.1 6.6,18.3 15.2,18.5c1.7,0 3.3,-0.3 4.8,-0.8c-8.5,-0.3 -15.2,-8.5 -15,-18.5z" class="st0"/>
      </g>
     </g>
    </g>
   </g>
   <g id="svg_178">
    <g id="svg_179">
     <g id="svg_180">
      <g id="svg_181">
       <path id="svg_182" d="m310.8,69c-0.4,0 -0.7,0 -0.7,0c-0.2,0 -0.4,-0.2 -0.3,-0.4c0,-0.2 0.2,-0.4 0.4,-0.3c0.1,0 6.1,0.5 10.2,-3.9c0.1,-0.2 0.4,-0.2 0.5,0c0.2,0.1 0.2,0.4 0,0.5c-3.6,3.7 -8.3,4.1 -10.1,4.1z"/>
      </g>
     </g>
    </g>
   </g>
   <g id="svg_183">
    <g id="svg_184">
     <g id="svg_185">
      <g id="svg_186">
       <path id="svg_187" d="m313.5,75.2c-0.1,0 -0.2,0 -0.3,0c-4.4,-0.1 -8.6,-2.2 -11.6,-5.9c-3,-3.7 -4.6,-8.5 -4.5,-13.6l0,0c0.1,-5.1 1.9,-9.9 5,-13.4c3.2,-3.6 7.4,-5.5 11.8,-5.5c4.4,0.1 8.6,2.2 11.6,5.9c3,3.7 4.6,8.5 4.5,13.6c-0.1,5.1 -1.9,9.9 -5,13.4c-3.1,3.5 -7.2,5.5 -11.5,5.5zm0.2,-36.4c-3.8,0 -7.3,1.7 -10.1,4.8c-2.8,3.2 -4.5,7.5 -4.5,12.1l0,0c-0.1,4.6 1.4,9 4.1,12.3c2.7,3.3 6.3,5.1 10.1,5.2c3.9,0.1 7.5,-1.6 10.3,-4.8c2.8,-3.2 4.5,-7.5 4.5,-12.1s-1.4,-9 -4.1,-12.3c-2.7,-3.3 -6.3,-5.1 -10.1,-5.2c-0.1,0 -0.2,0 -0.2,0zm-15.7,16.9l0,0l0,0z"/>
      </g>
     </g>
    </g>
   </g>
   <g id="svg_188">
    <g id="svg_189">
     <g id="svg_190">
      <g id="svg_191">
       <path id="svg_192" d="m298,55.7c0,0 -1.3,-6.3 2.1,-12.9c1.1,-2.2 2.1,-3.8 1.5,-6.9c1.7,-0.2 6.4,3.4 7.7,0.2c1.5,2 6.2,1.7 5.8,-1.3c7,0.3 8.2,8.6 13,6.7c3.6,6 0.6,18.1 0.6,18.1s0.1,-11.1 -10.3,-9.3c2.6,-6 -4.2,-10.5 -8.8,-5.7c-1.6,-6.2 -12,-1 -11.6,11.1z"/>
      </g>
     </g>
    </g>
    <g id="svg_193">
     <g id="svg_194">
      <g id="svg_195">
       <path id="svg_196" d="m328.8,60.5c0,0 -0.1,0 -0.1,0c-0.5,-0.1 -0.9,-0.5 -0.9,-1c0,0 0,-4.7 -2.8,-7.1c-1.5,-1.3 -3.6,-1.7 -6.3,-1.2c-0.4,0.1 -0.7,-0.1 -1,-0.4c-0.2,-0.3 -0.3,-0.7 -0.1,-1c1.2,-2.8 0,-4.8 -1.3,-5.7c-1.4,-0.9 -3.7,-1.2 -5.9,1.1c-0.2,0.3 -0.6,0.4 -1,0.3c-0.4,-0.1 -0.6,-0.4 -0.7,-0.7c-0.4,-1.4 -1.3,-2 -2.6,-1.8c-3.1,0.5 -7.3,5.1 -7,12.6c0,0.5 -0.4,1 -0.9,1c-0.5,0.1 -1,-0.3 -1.1,-0.8c-0.1,-0.3 -1.3,-6.7 2.2,-13.5l0.2,-0.3c1,-2 1.7,-3.4 1.3,-6c0,-0.3 0,-0.5 0.2,-0.8c0.2,-0.2 0.4,-0.4 0.7,-0.4c0.8,-0.1 1.8,0.3 2.9,0.7c2.7,1.1 3.6,1.1 4,0.1c0.1,-0.3 0.4,-0.6 0.8,-0.6c0.4,0 0.7,0.1 0.9,0.4c0.6,0.8 2.2,1.1 3.2,0.7c0.8,-0.3 0.8,-0.8 0.7,-1.2c0,-0.3 0,-0.6 0.2,-0.8s0.5,-0.3 0.8,-0.3c3.9,0.2 6.2,2.6 8,4.5c1.9,1.9 2.9,2.9 4.6,2.2c0.5,-0.2 1,0 1.2,0.4c3.7,6.3 0.8,18.3 0.7,18.8c-0.1,0.5 -0.5,0.8 -0.9,0.8zm-8.2,-11.5c2.2,0 4.1,0.6 5.6,1.9c1.1,1 1.9,2.1 2.4,3.3c0.4,-3.6 0.5,-8.4 -1,-11.6c-2.5,0.6 -4.3,-1.2 -5.9,-3c-1.6,-1.6 -3.2,-3.3 -5.7,-3.8c-0.2,0.9 -0.9,1.7 -1.9,2.1c-1.3,0.5 -3.2,0.4 -4.6,-0.4c-1.6,1.6 -4.2,0.5 -5.9,-0.1c-0.3,-0.1 -0.6,-0.2 -0.9,-0.3c0.1,2.5 -0.7,4 -1.6,5.8l-0.2,0.3c-0.2,0.4 -0.4,0.7 -0.5,1.1c1.5,-1.9 3.4,-3.1 5.3,-3.3c1.8,-0.3 3.3,0.4 4.2,1.9c2.5,-1.9 5.4,-1.7 7.3,-0.4c1.8,1.2 3.2,3.6 2.6,6.6c0.3,0 0.6,-0.1 0.8,-0.1z"/>
      </g>
     </g>
    </g>
   </g>
   <g id="svg_197">
    <g id="svg_198">
     <g id="svg_199">
      <g id="svg_200">
       <g id="svg_201">
        <circle id="svg_202" r="0.8" cy="60" cx="312.200012"/>
       </g>
      </g>
     </g>
    </g>
    <g id="svg_203">
     <g id="svg_204">
      <g id="svg_205">
       <g id="svg_206">
        <circle id="svg_207" r="0.8" cy="58.899994" cx="304.399994"/>
       </g>
      </g>
     </g>
    </g>
   </g>
   <g id="svg_208">
    <g id="svg_209">
     <g id="svg_210">
      <g id="svg_211">
       <path id="svg_212" d="m298.7,95.6c-0.6,0 -1,-0.4 -1,-1l0,-6.2c0,-0.6 0.4,-1 1,-1s1,0.4 1,1l0,6.2c0,0.6 -0.4,1 -1,1z"/>
      </g>
     </g>
    </g>
   </g>
   <g id="svg_213">
    <g id="svg_214">
     <g id="svg_215">
      <g id="svg_216">
       <line id="svg_217" y2="87" x2="321.5" y1="95" x1="322.5" class="st1"/>
      </g>
     </g>
    </g>
    <g id="svg_218">
     <g id="svg_219">
      <g id="svg_220">
       <path id="svg_221" d="m322.4,96c-0.5,0 -0.9,-0.4 -1,-0.9l-1,-8c-0.1,-0.5 0.3,-1 0.9,-1.1c0.6,-0.1 1,0.3 1.1,0.9l1,8c0.1,0.5 -0.3,1 -0.9,1.1c0,0 0,0 -0.1,0z"/>
      </g>
     </g>
    </g>
   </g>
   <g id="svg_222">
    <g id="svg_223">
     <g id="svg_224">
      <g id="svg_225">
       <path id="svg_226" d="m322.5,95l8.8,-2c0,0 0.5,12.8 -3.6,14.5c-2.6,1.2 -8.2,2 -13.9,1.4c-2.8,-0.3 -6.2,-1 -7.4,-2.2c0,0 5,-1.6 9.4,-2c4.1,-0.4 5.7,-0.3 6.9,-1.2c1.3,-0.6 -0.2,-8.5 -0.2,-8.5z" class="st1"/>
      </g>
     </g>
    </g>
    <g id="svg_227">
     <g id="svg_228">
      <g id="svg_229">
       <path id="svg_230" d="m317.7,110.1c-1.3,0 -2.7,-0.1 -4.1,-0.2c-2.9,-0.3 -6.6,-1 -8,-2.5c-0.2,-0.2 -0.3,-0.6 -0.3,-0.9c0.1,-0.3 0.3,-0.6 0.7,-0.7c0.2,-0.1 5.2,-1.6 9.6,-2c0.9,-0.1 1.7,-0.2 2.3,-0.2c2.2,-0.2 3.4,-0.3 4.1,-0.8c0.3,-0.8 0,-4.2 -0.6,-7.5c-0.1,-0.5 0.2,-1 0.8,-1.2l8.8,-2c0.3,-0.1 0.6,0 0.8,0.2c0.2,0.2 0.4,0.5 0.4,0.8c0.1,1.4 0.4,13.5 -4.2,15.5c-2,0.7 -5.8,1.5 -10.3,1.5zm-8.7,-3.1c1.2,0.4 2.9,0.7 4.8,0.9c5.5,0.6 10.8,-0.2 13.3,-1.3c2.3,-1 3.1,-7.7 3,-12.4l-6.6,1.5c1.3,7.4 0.1,8.4 -0.4,8.6c-1.1,0.8 -2.4,0.9 -5,1.1c-0.7,0.1 -1.4,0.1 -2.3,0.2c-2.3,0.3 -4.9,0.9 -6.8,1.4z"/>
      </g>
     </g>
    </g>
   </g>
   <g id="svg_231">
    <g id="svg_232">
     <g id="svg_233">
      <g id="svg_234">
       <path id="svg_235" d="m298.7,94.6l-5.5,0c0,0 -0.7,11.7 2.3,13c2.4,1.1 9.8,-0.5 17,-2.2c5.4,-1.3 8,-1 9.5,-1.4c1.8,-0.5 1.1,-3.6 -0.5,-3.6c-6.7,0 -15.9,-2.9 -22.8,0.1c0,-3.2 0,-5.9 0,-5.9z" class="st1"/>
      </g>
     </g>
    </g>
    <g id="svg_236">
     <g id="svg_237">
      <g id="svg_238">
       <path id="svg_239" d="m297.9,109c-1.2,0 -2.2,-0.1 -2.8,-0.4c-3.3,-1.5 -3.1,-11.1 -2.9,-14c0,-0.5 0.5,-0.9 1,-0.9l5.5,0c0,0 0,0 0,0c0.3,0 0.5,0.1 0.7,0.3c0.2,0.2 0.3,0.4 0.3,0.7l0,4.4c4.7,-1.5 10.1,-0.8 15,-0.2c2.5,0.3 4.8,0.6 6.8,0.6c1.4,0 2.3,1.3 2.5,2.6c0.2,1.4 -0.5,2.6 -1.8,3c-0.6,0.2 -1.3,0.2 -2.2,0.3c-1.6,0.1 -3.9,0.3 -7.3,1.1c-7.1,1.6 -11.8,2.5 -14.8,2.5zm-3.7,-13.4c-0.2,5.1 0.4,10.5 1.7,11.1c1.7,0.8 7.2,0 16.3,-2.3c3.6,-0.9 6,-1.1 7.7,-1.2c0.8,-0.1 1.4,-0.1 1.8,-0.2c0.3,-0.1 0.3,-0.6 0.3,-0.8c-0.1,-0.5 -0.4,-0.9 -0.5,-0.9c-2.2,0 -4.5,-0.3 -7.1,-0.6c-5.4,-0.7 -10.9,-1.3 -15.3,0.6c-0.3,0.1 -0.7,0.1 -0.9,-0.1c-0.3,-0.2 -0.5,-0.5 -0.5,-0.8l0,-4.8l-3.5,0z"/>
      </g>
     </g>
    </g>
   </g>
   <g id="svg_240">
    <g id="svg_241">
     <g id="svg_242">
      <g id="svg_243">
       <path id="svg_244" d="m303.7,95.1c-1.5,-1.5 -3.8,-1.7 -5.1,-0.4c-1.3,1.3 -1.1,3.6 0.4,5.1c0.1,0.1 0.3,0.2 0.4,0.4c2,-0.8 4,-1 5.3,-1.1c0.5,-1.3 0.1,-2.9 -1,-4z" class="st1"/>
      </g>
     </g>
    </g>
    <g id="svg_245">
     <g id="svg_246">
      <g id="svg_247">
       <path id="svg_248" d="m299.4,101.2c-0.2,0 -0.4,-0.1 -0.6,-0.2c-0.2,-0.2 -0.4,-0.3 -0.5,-0.4c-1.9,-1.9 -2.1,-4.8 -0.4,-6.5c0.8,-0.8 2,-1.2 3.2,-1.2c1.2,0.1 2.4,0.6 3.3,1.5c1.4,1.4 1.9,3.4 1.3,5.1c-0.1,0.4 -0.5,0.6 -0.9,0.7c-1.3,0.1 -3.2,0.3 -5,1c-0.2,-0.1 -0.3,0 -0.4,0zm5.3,-2.1l0,0l0,0zm-3.9,-4.3c-0.6,0 -1.1,0.2 -1.5,0.6c-0.9,0.9 -0.7,2.5 0.3,3.6c1.5,-0.5 3.1,-0.8 4.3,-0.9c0.1,-0.8 -0.3,-1.7 -0.9,-2.4c-0.6,-0.6 -1.3,-0.9 -2,-1c-0.1,0.1 -0.2,0.1 -0.2,0.1z"/>
      </g>
     </g>
    </g>
   </g>
   <g id="svg_249">
    <g id="svg_250">
     <g id="svg_251">
      <g id="svg_252">
       <path id="svg_253" d="m312.7,81c-0.5,0 -1,0 -1.6,-0.1c-2.9,-0.5 -5.5,-2.2 -6.8,-4.6c-0.3,-0.5 -0.1,-1.1 0.4,-1.3c0.5,-0.3 1.1,-0.1 1.3,0.4c0.9,1.8 3,3.2 5.3,3.5c2.9,0.4 5.8,-0.7 8.3,-3.1c0.4,-0.4 1,-0.4 1.4,0s0.4,1 0,1.4c-2.4,2.5 -5.3,3.8 -8.3,3.8z"/>
      </g>
     </g>
    </g>
   </g>
   <g id="svg_254">
    <g id="svg_255">
     <g id="svg_256">
      <g id="svg_257">
       <circle id="svg_258" r="3.3" cy="90.300003" cx="316.299988" class="st2"/>
      </g>
     </g>
    </g>
   </g>
  </g>
  <g id="svg_259">
   <g id="svg_260">
    <g id="svg_261">
     <g id="svg_262">
      <g id="svg_263">
       <path id="svg_264" d="m175.6,93.6c3.6,2 8.4,2 8.4,2s-1,8.8 0.4,11.4c1.4,2.6 3.3,9.4 10.2,9.9c6.4,0.5 4.5,8.5 -0.5,7.9c-0.9,-0.1 -14.6,-6.9 -17.6,-11.8c-2.3,-4 -0.9,-19.4 -0.9,-19.4z" class="st1"/>
      </g>
     </g>
    </g>
    <g id="svg_265">
     <g id="svg_266">
      <g id="svg_267">
       <path id="svg_268" d="m194.6,125.8c-0.2,0 -0.4,0 -0.6,0c-1.3,-0.1 -15.2,-7.1 -18.3,-12.3c-2.4,-4.1 -1.2,-18.3 -1,-19.9c0,-0.3 0.2,-0.6 0.5,-0.8c0.3,-0.2 0.7,-0.2 1,0c3.4,1.9 7.8,1.8 7.9,1.8c0.3,0 0.6,0.1 0.8,0.3c0.2,0.2 0.3,0.5 0.3,0.8c-0.4,3.3 -0.6,9.1 0.3,10.8c0.2,0.4 0.4,0.9 0.7,1.4c1.4,3 3.4,7.6 8.8,8c3,0.2 4.1,1.8 4.6,2.8c0.7,1.6 0.5,3.6 -0.6,5.1c-1.4,1.2 -2.8,2 -4.4,2zm-18.1,-30.7c-0.4,5 -0.7,14.6 0.9,17.3c2.6,4.4 15.6,11 16.9,11.4c1.5,0.2 2.4,-0.7 2.8,-1.2c0.7,-0.9 0.8,-2.1 0.4,-3.1c-0.4,-0.9 -1.4,-1.5 -2.9,-1.6c-6.5,-0.5 -9.1,-6.1 -10.4,-9.1c-0.2,-0.5 -0.4,-0.9 -0.6,-1.3c-1.2,-2.3 -0.8,-8.3 -0.6,-10.9c-1.6,-0.2 -4.1,-0.5 -6.5,-1.5z"/>
      </g>
     </g>
    </g>
   </g>
   <g id="svg_269">
    <g id="svg_270">
     <g id="svg_271">
      <g id="svg_272">
       <path id="svg_273" d="m158.1,124.8c-0.8,-4.4 -0.8,-7.1 -0.8,-11c0,-2.9 1.8,-4.1 2,-6.3l0.7,-7.5c0,0 -5.1,0 -8.8,-2c0,0 0.6,-7.3 1.8,-10.1c2.3,-5.8 10.4,-4.3 11.3,-9.7c0,0 0,0 0,0c1.9,0.5 3.9,0.6 5.9,0.3c1.5,-0.3 2.9,-0.8 4.2,-1.5l0,0c1,3.4 1.5,3.5 5.7,4.4c4.7,1 3.8,14.2 3.8,14.2s-1.8,0 -2.7,0c0,1.6 0.3,4.3 0,5.8c-1.2,5.3 0.2,18.9 -1.2,23.4" class="st1"/>
      </g>
     </g>
    </g>
    <g id="svg_274">
     <g id="svg_275">
      <g id="svg_276">
       <path id="svg_277" d="m158.1,125.8c-0.5,0 -0.9,-0.3 -1,-0.8c-0.7,-4.3 -0.8,-7.1 -0.8,-11.1c0,-1.9 0.7,-3.2 1.2,-4.3c0.4,-0.7 0.7,-1.4 0.8,-2.2l0.6,-6.5c-1.8,-0.1 -5.3,-0.5 -8.2,-2.1c-0.3,-0.2 -0.5,-0.6 -0.5,-1c0,-0.3 0.7,-7.5 1.8,-10.4c1.3,-3.3 4.1,-4.5 6.7,-5.5c2.6,-1.1 4.3,-1.9 4.6,-4c0,-0.2 0.1,-0.4 0.3,-0.6c0.2,-0.2 0.6,-0.3 1,-0.2c1.8,0.5 3.7,0.6 5.5,0.3c1.3,-0.2 2.6,-0.7 3.9,-1.4c0.3,-0.1 0.6,-0.2 0.9,-0.1c0.3,0.1 0.5,0.4 0.6,0.6c0.8,2.8 0.8,2.8 4.6,3.6l0.3,0.1c5.3,1.2 4.7,13.8 4.6,15.3c0,0.5 -0.5,0.9 -1,0.9c0,0 0,0 0,0c0,0 -0.8,0 -1.6,0c0,0.1 0,0.2 0,0.2c0.1,1.6 0.2,3.5 -0.1,4.7c-0.6,2.4 -0.5,6.8 -0.5,11.1c0,5.1 0.1,9.9 -0.8,12.5c-0.2,0.5 -0.7,0.8 -1.3,0.6c-0.5,-0.2 -0.8,-0.7 -0.6,-1.3c0.7,-2.3 0.7,-7.1 0.7,-11.8c0,-4.6 -0.1,-8.9 0.5,-11.5c0.2,-1 0.1,-2.8 0.1,-4.2c0,-0.5 0,-0.9 -0.1,-1.3c0,-0.3 0.1,-0.5 0.3,-0.7c0.2,-0.2 0.4,-0.3 0.7,-0.3c0.5,0 1.2,0 1.7,0c0.2,-4.3 -0.4,-11.7 -3.1,-12.3l-0.3,-0.1c-3.7,-0.8 -4.7,-1.1 -5.7,-3.9c-1.1,0.5 -2.3,0.9 -3.4,1.1c-1.8,0.3 -3.6,0.3 -5.4,-0.1c-0.9,2.5 -3.3,3.5 -5.6,4.5c-2.4,1 -4.6,1.9 -5.6,4.4c-0.9,2.2 -1.4,7.3 -1.6,9.2c3.3,1.6 7.7,1.6 7.7,1.6c0.3,0 0.5,0.1 0.7,0.3s0.3,0.5 0.3,0.8l-0.7,7.5c-0.1,1.2 -0.6,2 -1,2.9c-0.5,1 -1,1.9 -1,3.3c0,3.9 0,6.6 0.8,10.8c0.1,0.5 -0.3,1.1 -0.8,1.2c-0.1,0.1 -0.1,0.2 -0.2,0.2z"/>
      </g>
     </g>
    </g>
   </g>
   <g id="svg_278">
    <g id="svg_279">
     <g id="svg_280">
      <g id="svg_281">
       <ellipse id="svg_282" ry="18.200001" rx="15.5" cy="60.998989" cx="171.296479" class="st1" transform="matrix(0.9998,-0.01946735,0.01946735,0.9998,-3.4519,3.2455) "/>
      </g>
     </g>
    </g>
    <g id="svg_283">
     <g id="svg_284">
      <g id="svg_285">
       <path id="svg_286" d="m169.1,80.1c-4.3,0 -8.4,-1.9 -11.6,-5.5c-3.2,-3.6 -4.9,-8.3 -5,-13.4c-0.2,-10.6 7,-19.3 16.1,-19.5c0.1,0 0.2,0 0.3,0c9,0 16.4,8.4 16.6,18.9l0,0c0.1,5.1 -1.5,9.9 -4.5,13.6c-3.1,3.7 -7.2,5.8 -11.6,5.9c-0.1,0 -0.2,0 -0.3,0zm-0.2,-36.4c-0.1,0 -0.2,0 -0.2,0c-8,0.2 -14.4,8 -14.2,17.5c0.1,4.6 1.7,8.9 4.5,12.1c2.8,3.2 6.4,4.9 10.3,4.8c3.8,-0.1 7.4,-1.9 10.1,-5.2c2.7,-3.3 4.2,-7.7 4.1,-12.3l0,0c-0.2,-9.3 -6.7,-16.9 -14.6,-16.9z"/>
      </g>
     </g>
    </g>
   </g>
   <g id="svg_287">
    <g id="svg_288">
     <g id="svg_289">
      <g id="svg_290">
       <path id="svg_291" d="m160.8,59.8c0.2,-8.1 4.8,-14.9 11.1,-17.1c-0.1,0 -0.1,0 -0.2,0c-8.6,-0.2 -15.7,7.8 -15.9,17.9c-0.2,10.1 6.6,18.3 15.2,18.5c1.7,0 3.3,-0.3 4.8,-0.8c-8.5,-0.2 -15.2,-8.5 -15,-18.5z" class="st0"/>
      </g>
     </g>
    </g>
   </g>
   <g id="svg_292">
    <g id="svg_293">
     <g id="svg_294">
      <g id="svg_295">
       <path id="svg_296" d="m169.1,80.1c-4.3,0 -8.4,-1.9 -11.6,-5.5c-3.2,-3.6 -4.9,-8.3 -5,-13.4c-0.2,-10.6 7,-19.3 16.1,-19.5c0.1,0 0.2,0 0.3,0c9,0 16.4,8.4 16.6,18.9l0,0c0.1,5.1 -1.5,9.9 -4.5,13.6c-3.1,3.7 -7.2,5.8 -11.6,5.9c-0.1,0 -0.2,0 -0.3,0zm-0.2,-36.4c-0.1,0 -0.2,0 -0.2,0c-8,0.2 -14.4,8 -14.2,17.5c0.1,4.6 1.7,8.9 4.5,12.1c2.8,3.2 6.4,4.9 10.3,4.8c3.8,-0.1 7.4,-1.9 10.1,-5.2c2.7,-3.3 4.2,-7.7 4.1,-12.3l0,0c-0.2,-9.3 -6.7,-16.9 -14.6,-16.9z"/>
      </g>
     </g>
    </g>
   </g>
   <g id="svg_297">
    <g id="svg_298">
     <g id="svg_299">
      <g id="svg_300">
       <line id="svg_301" y2="92" x2="161.100006" y1="100" x1="160.100006" class="st1"/>
      </g>
     </g>
    </g>
    <g id="svg_302">
     <g id="svg_303">
      <g id="svg_304">
       <path id="svg_305" d="m160.1,101c0,0 -0.1,0 -0.1,0c-0.5,-0.1 -0.9,-0.6 -0.9,-1.1l1,-8c0.1,-0.5 0.6,-0.9 1.1,-0.9c0.5,0.1 0.9,0.6 0.9,1.1l-1,8c-0.1,0.5 -0.5,0.9 -1,0.9z"/>
      </g>
     </g>
    </g>
   </g>
   <g id="svg_306">
    <g id="svg_307">
     <g id="svg_308">
      <g id="svg_309">
       <path id="svg_310" d="m178.7,102.3c-0.4,6.1 -3.7,9.6 -7.3,8.2c-3.6,-1.4 -6.2,-5.4 -5.8,-9.3c0.4,-3.9 3.7,-8 7.3,-8.8c3.6,-0.8 6.2,3.8 5.8,9.9z" class="st2"/>
      </g>
     </g>
    </g>
   </g>
   <g id="svg_311">
    <g id="svg_312">
     <g id="svg_313">
      <g id="svg_314">
       <line id="svg_315" y2="122.5" x2="172.5" y1="114.5" x1="173.399994" class="st1"/>
      </g>
     </g>
    </g>
    <g id="svg_316">
     <g id="svg_317">
      <g id="svg_318">
       <path id="svg_319" d="m172.5,123.5c0,0 -0.1,0 -0.1,0c-0.5,-0.1 -0.9,-0.6 -0.9,-1.1l0.9,-8c0.1,-0.5 0.5,-1 1.1,-0.9c0.5,0.1 0.9,0.6 0.9,1.1l-0.9,8c-0.1,0.5 -0.5,0.9 -1,0.9z"/>
      </g>
     </g>
    </g>
   </g>
   <g id="svg_320">
    <g id="svg_321">
     <g id="svg_322">
      <g id="svg_323">
       <path id="svg_324" d="m153.5,61.5c0.9,13.3 10.1,20 18.7,20.6c8.6,0.5 13.4,-4.3 14.8,-10.6c1.4,-6.3 -2.6,-8.5 -2.6,-8.5s0.6,6.3 -4,5.6c-6.6,-1 -7,1.1 -11,2.2c-4,1.1 -4.6,-2.3 -4.6,-2.3s-6.2,0.8 -8.2,-6.7l-3.1,-0.3z" class="st2"/>
      </g>
     </g>
    </g>
    <g id="svg_325">
     <g id="svg_326">
      <g id="svg_327">
       <path id="svg_328" d="m173.4,83.1c-0.4,0 -0.8,0 -1.2,0c-12.5,-0.7 -19,-11.6 -19.7,-21.5c0,-0.3 0.1,-0.6 0.3,-0.8c0.2,-0.2 0.5,-0.3 0.8,-0.3l3.1,0.2c0.4,0 0.8,0.3 0.9,0.7c1.8,6.5 6.9,6 7.1,5.9c0.5,-0.1 1,0.3 1.1,0.8c0,0 0.2,0.9 1,1.4c0.6,0.4 1.4,0.4 2.4,0.1c1.1,-0.3 2,-0.7 2.8,-1.1c1.9,-0.9 3.8,-1.8 8.6,-1.1c0.8,0.1 1.4,0 1.8,-0.4c1,-1 1.1,-3.3 1,-4.1c0,-0.4 0.1,-0.7 0.4,-0.9c0.3,-0.2 0.7,-0.2 1,0c0.2,0.1 4.6,2.6 3.1,9.6c-1.5,7.3 -6.9,11.5 -14.5,11.5zm-18.8,-20.5c1,8.7 6.8,17.8 17.7,18.5c7.3,0.4 12.3,-3.2 13.7,-9.8c0.6,-2.9 0,-4.8 -0.7,-5.9c-0.2,1.1 -0.6,2.4 -1.5,3.3c-0.6,0.6 -1.7,1.2 -3.5,0.9c-4.2,-0.7 -5.7,0 -7.5,0.9c-0.8,0.4 -1.8,0.9 -3.1,1.2c-1.6,0.4 -2.9,0.3 -4,-0.4c-0.9,-0.5 -1.3,-1.3 -1.6,-1.9c-1.9,-0.1 -6.4,-0.9 -8.3,-6.7l-1.2,-0.1z"/>
      </g>
     </g>
    </g>
   </g>
   <g id="svg_329">
    <g id="svg_330">
     <g id="svg_331">
      <g id="svg_332">
       <path id="svg_333" d="m156.6,61.7c3.6,-10 15.8,-3.8 22.3,-7.1l-1.6,-2.5c0,0 5.9,-0.1 6.4,-3.3c-3.5,-1.5 -4.2,-4.8 -10.3,-6.1c-10,-2.2 -25.4,3.8 -21.3,22.1c2.9,0.8 4.5,-3.1 4.5,-3.1z"/>
      </g>
     </g>
    </g>
    <g id="svg_334">
     <g id="svg_335">
      <g id="svg_336">
       <path id="svg_337" d="m152.9,66c-0.3,0 -0.7,0 -1,-0.1c-0.4,-0.1 -0.6,-0.4 -0.7,-0.7c-2.2,-9.6 1,-15.3 4,-18.3c5.1,-5.1 12.9,-6.2 18.4,-5c4,0.9 5.8,2.5 7.5,4c1,0.9 1.8,1.6 3,2.1c0.4,0.2 0.7,0.6 0.6,1.1c-0.4,2.8 -3.6,3.7 -5.6,4l0.7,1.1c0.2,0.2 0.2,0.5 0.1,0.8s-0.3,0.5 -0.5,0.6c-2.6,1.4 -6,1.3 -9.3,1.2c-5.4,-0.1 -10.5,-0.3 -12.5,5.4c0,0 0,0 0,0c-0.6,1.3 -2.3,3.8 -4.7,3.8zm16.4,-22.7c-4.3,0 -9.2,1.4 -12.7,4.9c-3.7,3.7 -5,9.2 -3.6,15.8c1.6,-0.1 2.6,-2.4 2.7,-2.6c2.5,-7 8.9,-6.8 14.4,-6.7c2.7,0.1 5.3,0.1 7.3,-0.5l-1,-1.5c-0.2,-0.3 -0.2,-0.7 0,-1s0.5,-0.5 0.9,-0.5c1.2,0 4.2,-0.4 5.2,-1.8c-1.1,-0.6 -1.9,-1.3 -2.7,-2.1c-1.5,-1.4 -3.1,-2.8 -6.6,-3.5c-1.2,-0.4 -2.5,-0.5 -3.9,-0.5zm-12.7,18.4l0,0l0,0z"/>
      </g>
     </g>
    </g>
   </g>
   <g id="svg_338">
    <g id="svg_339">
     <g id="svg_340">
      <g id="svg_341">
       <path id="svg_342" d="m173.4,72.3c0.3,1.7 1.9,3 3.6,2.7s3,-1.9 2.7,-3.6l-6.3,0.9z"/>
      </g>
     </g>
    </g>
   </g>
   <g id="svg_343">
    <g id="svg_344">
     <g id="svg_345">
      <g id="svg_346">
       <path id="svg_347" d="m157.1,73.4c-0.2,0 -0.3,-0.1 -0.4,-0.3c0,-0.2 -0.7,-5.2 1.1,-8.2c0.1,-0.2 0.3,-0.2 0.5,-0.1c0.2,0.1 0.2,0.3 0.1,0.5c-1.6,2.7 -1,7.7 -1,7.7c0.1,0.2 -0.1,0.4 -0.3,0.4c0,0 0,0 0,0z"/>
      </g>
     </g>
    </g>
   </g>
   <g id="svg_348">
    <g id="svg_349">
     <g id="svg_350">
      <g id="svg_351">
       <path id="svg_352" d="m160.1,76.9c-0.1,0 -0.3,-0.1 -0.3,-0.2c-0.1,-0.2 -2.3,-5.4 -0.5,-10.1c0.1,-0.2 0.3,-0.3 0.5,-0.2c0.2,0.1 0.3,0.3 0.2,0.5c-1.7,4.4 0.4,9.5 0.5,9.5c0.1,0.2 0,0.4 -0.2,0.5c-0.1,0 -0.1,0 -0.2,0z"/>
      </g>
     </g>
    </g>
   </g>
   <g id="svg_353">
    <g id="svg_354">
     <g id="svg_355">
      <g id="svg_356">
       <path id="svg_357" d="m162.5,79.8c-0.2,-0.3 -3.8,-7.6 -1.8,-12.5l1.9,0.7c-1.6,4.1 1.7,10.8 1.8,10.9l-1.9,0.9z"/>
      </g>
     </g>
    </g>
   </g>
   <g id="svg_358">
    <g id="svg_359">
     <g id="svg_360">
      <g id="svg_361">
       <g id="svg_362">
        <circle id="svg_363" r="0.8" cy="64.600006" cx="171.300003"/>
       </g>
      </g>
     </g>
    </g>
    <g id="svg_364">
     <g id="svg_365">
      <g id="svg_366">
       <g id="svg_367">
        <circle id="svg_368" r="0.8" cy="63.5" cx="179.100006"/>
       </g>
      </g>
     </g>
    </g>
   </g>
   <g id="svg_369">
    <g id="svg_370">
     <g id="svg_371">
      <g id="svg_372">
       <line id="svg_373" y2="89.5" x2="180.5" y1="95.5" x1="181.300003" class="st1"/>
      </g>
     </g>
    </g>
    <g id="svg_374">
     <g id="svg_375">
      <g id="svg_376">
       <path id="svg_377" d="m181.3,96.5c-0.5,0 -0.9,-0.4 -1,-0.9l-0.7,-6c-0.1,-0.5 0.3,-1 0.9,-1.1c0.6,-0.1 1,0.3 1.1,0.9l0.7,6c0.1,0.5 -0.3,1 -0.9,1.1c0,0 -0.1,0 -0.1,0z"/>
      </g>
     </g>
    </g>
   </g>
   <g id="svg_378">
    <g id="svg_379">
     <g id="svg_380">
      <g id="svg_381">
       <polygon id="svg_382" points="154.1999969482422,98.89999389648438 154.6999969482422,95.5 157.39999389648438,96.19999694824219 156.89999389648438,99.5 "/>
      </g>
     </g>
    </g>
   </g>
   <g id="svg_383">
    <g id="svg_384">
     <g id="svg_385">
      <g id="svg_386">
       <path id="svg_387" d="m164.3,82.9c0,0 -6.4,3.6 -7,5.9c-0.5,2.2 -0.9,6.2 -0.9,6.2l-3.9,-1.2c0,0 -0.6,-3.1 0.4,-6.1c1,-3 7.5,-5.6 7.5,-5.6l3.9,0.8z" class="st0"/>
      </g>
     </g>
    </g>
   </g>
   <g id="svg_388">
    <g id="svg_389">
     <g id="svg_390">
      <g id="svg_391">
       <path id="svg_392" d="m151.8,93.5c0,0 4,2 8.8,2" class="st1"/>
      </g>
     </g>
    </g>
    <g id="svg_393">
     <g id="svg_394">
      <g id="svg_395">
       <path id="svg_396" d="m160.6,96.5c-4.9,0 -9,-2 -9.2,-2.1c-0.5,-0.2 -0.7,-0.8 -0.4,-1.3c0.2,-0.5 0.8,-0.7 1.3,-0.4c0,0 3.9,1.9 8.3,1.9c0.6,0 1,0.4 1,1s-0.5,0.9 -1,0.9z"/>
      </g>
     </g>
    </g>
   </g>
   <g id="svg_397">
    <g id="svg_398">
     <g id="svg_399">
      <g id="svg_400">
       <path id="svg_401" d="m158.1,125.8c-0.5,0 -0.9,-0.3 -1,-0.8c-0.7,-4.3 -0.8,-7.1 -0.8,-11.1c0,-1.9 0.7,-3.2 1.2,-4.3c0.4,-0.7 0.7,-1.4 0.8,-2.2l0.6,-6.5c-1.8,-0.1 -5.3,-0.5 -8.2,-2.1c-0.3,-0.2 -0.5,-0.6 -0.5,-1c0,-0.3 0.7,-7.5 1.8,-10.4c1.3,-3.3 4.1,-4.5 6.7,-5.5c1.3,-0.6 2.6,-1.1 3.5,-1.9c0.4,-0.4 1,-0.3 1.4,0.1c0.4,0.4 0.3,1 -0.1,1.4c-1.1,1 -2.6,1.7 -4.1,2.3c-2.4,1 -4.6,1.9 -5.6,4.4c-0.9,2.2 -1.4,7.3 -1.6,9.2c3.3,1.6 7.7,1.6 7.7,1.6c0.3,0 0.5,0.1 0.7,0.3s0.3,0.5 0.3,0.8l-0.7,7.5c-0.1,1.2 -0.6,2 -1,2.9c-0.5,1 -1,1.9 -1,3.3c0,3.9 0,6.6 0.8,10.8c0.1,0.5 -0.3,1.1 -0.8,1.2c0,-0.1 0,0 -0.1,0z"/>
      </g>
     </g>
    </g>
   </g>
   <g id="svg_402">
    <g id="svg_403">
     <g id="svg_404">
      <g id="svg_405">
       <path id="svg_406" d="m180,125.7c-0.1,0 -0.2,0 -0.3,0c-0.5,-0.2 -0.8,-0.7 -0.6,-1.3c0.7,-2.3 0.7,-7.1 0.7,-11.8c0,-4.6 -0.1,-8.9 0.5,-11.5c0.2,-1 0.1,-2.8 0.1,-4.2c0,-0.5 0,-0.9 -0.1,-1.3c0,-0.3 0.1,-0.5 0.3,-0.7c0.2,-0.2 0.4,-0.3 0.7,-0.3c0.5,0 1.2,0 1.7,0c0.2,-4.3 -0.4,-11.7 -3.1,-12.3c-0.5,-0.1 -0.9,-0.7 -0.8,-1.2s0.7,-0.9 1.2,-0.8c5.3,1.2 4.7,13.8 4.6,15.3c0,0.5 -0.5,0.9 -1,0.9c0,0 0,0 0,0c0,0 -0.8,0 -1.6,0c0,0.1 0,0.2 0,0.2c0.1,1.6 0.2,3.5 -0.1,4.7c-0.6,2.4 -0.5,6.8 -0.5,11.1c0,5.1 0.1,9.9 -0.8,12.5c-0.1,0.5 -0.5,0.7 -0.9,0.7z"/>
      </g>
     </g>
    </g>
   </g>
   <g id="svg_407">
    <g id="svg_408">
     <g id="svg_409">
      <g id="svg_410">
       <path id="svg_411" d="m151.3,97.9c3.6,2 8.7,2 8.7,2s0,0.3 -0.1,0.7c-0.3,2.2 -1.3,8 0.1,10.5c1.4,2.6 11.6,3.1 18.5,3.6c6.4,0.5 4.5,8.5 -0.5,7.9c-0.9,-0.1 -22.9,-0.6 -25.8,-5.5c-2.3,-3.7 -0.9,-19.2 -0.9,-19.2z" class="st1"/>
      </g>
     </g>
    </g>
    <g id="svg_412">
     <g id="svg_413">
      <g id="svg_414">
       <path id="svg_415" d="m178.6,123.8c-0.2,0 -0.4,0 -0.6,0c-0.1,0 -0.4,0 -0.8,0c-15.4,-0.7 -23.8,-2.6 -25.8,-5.9c-2.4,-4.1 -1.2,-18.3 -1,-19.9c0,-0.3 0.2,-0.6 0.5,-0.8c0.3,-0.2 0.7,-0.2 1,0c3.4,1.9 8.2,1.9 8.2,1.9c0.3,0 0.6,0.1 0.8,0.3s0.3,0.5 0.2,0.8c0,0 0,0.3 -0.1,0.7c0,0.3 -0.1,0.6 -0.1,1c-0.3,2.3 -0.9,7 0.1,9c1,1.8 10.6,2.5 15.7,2.9l2,0.1c3,0.2 4.1,1.8 4.6,2.8c0.7,1.6 0.5,3.6 -0.6,5.1c-1.1,1.3 -2.5,2 -4.1,2zm-26.4,-24.3c-0.4,5 -0.7,14.6 0.9,17.3c0.7,1.2 4.5,4 24.1,5c0.5,0 0.9,0 1,0.1c1.5,0.2 2.4,-0.7 2.8,-1.2c0.7,-0.9 0.8,-2.1 0.4,-3.1c-0.4,-0.9 -1.4,-1.5 -2.9,-1.6l-2,-0.1c-9.3,-0.7 -16,-1.4 -17.4,-4c-1.3,-2.6 -0.7,-7.3 -0.3,-10.2c0,-0.2 0.1,-0.4 0.1,-0.6c-1.5,-0.3 -4.2,-0.6 -6.7,-1.6z"/>
      </g>
     </g>
    </g>
   </g>
   <g id="svg_416">
    <g id="svg_417">
     <g id="svg_418">
      <g id="svg_419">
       <path id="svg_420" d="m172.5,87.3c-2.5,0 -6,-1.6 -10.9,-5.1c-0.5,-0.3 -0.6,-0.9 -0.2,-1.4c0.3,-0.5 0.9,-0.6 1.4,-0.2c5.3,3.7 8.9,5.2 10.8,4.5c1,-0.4 1.6,-1.5 2.1,-3.6c0.1,-0.5 0.7,-0.9 1.2,-0.7c0.5,0.1 0.9,0.7 0.7,1.2c-0.4,1.9 -1.2,4.1 -3.4,5c-0.5,0.2 -1.1,0.3 -1.7,0.3z"/>
      </g>
     </g>
    </g>
   </g>
   <g id="svg_421">
    <g id="svg_422">
     <g id="svg_423">
      <g id="svg_424">
       <path id="svg_425" d="m155.8,99.5c0,0 -1.2,13 0.4,15c4.4,5.3 24.2,8 24.2,8l-19.5,-1.4l-8,-2.6l-1.7,-2.4l-0.7,-11.2l0.7,-6.8l4.6,1.4z" class="st0"/>
      </g>
     </g>
    </g>
   </g>
   <g id="svg_426">
    <g id="svg_427">
     <g id="svg_428">
      <g id="svg_429">
       <path id="svg_430" d="m178.6,123.8c-0.2,0 -0.4,0 -0.6,0c-0.1,0 -0.4,0 -0.8,0c-15.4,-0.7 -23.8,-2.6 -25.8,-5.9c-2.4,-4.1 -1.2,-18.3 -1,-19.9c0,-0.3 0.2,-0.6 0.5,-0.8c0.3,-0.2 0.7,-0.2 1,0c3.4,1.9 8.2,1.9 8.2,1.9c0.3,0 0.6,0.1 0.8,0.3s0.3,0.5 0.2,0.8c0,0 0,0.3 -0.1,0.7c0,0.3 -0.1,0.6 -0.1,1c-0.3,2.3 -0.9,7 0.1,9c1,1.8 10.6,2.5 15.7,2.9l2,0.1c3,0.2 4.1,1.8 4.6,2.8c0.7,1.6 0.5,3.6 -0.6,5.1c-1.1,1.3 -2.5,2 -4.1,2zm-26.4,-24.3c-0.4,5 -0.7,14.6 0.9,17.3c0.7,1.2 4.5,4 24.1,5c0.5,0 0.9,0 1,0.1c1.5,0.2 2.4,-0.7 2.8,-1.2c0.7,-0.9 0.8,-2.1 0.4,-3.1c-0.4,-0.9 -1.4,-1.5 -2.9,-1.6l-2,-0.1c-9.3,-0.7 -16,-1.4 -17.4,-4c-1.3,-2.6 -0.7,-7.3 -0.3,-10.2c0,-0.2 0.1,-0.4 0.1,-0.6c-1.5,-0.3 -4.2,-0.6 -6.7,-1.6z"/>
      </g>
     </g>
    </g>
   </g>
  </g>
  <g id="svg_431">
   <g id="svg_432">
    <g id="svg_433">
     <g id="svg_434">
      <circle id="svg_435" r="2.6" cy="139.600006" cx="127.099998" class="st2"/>
     </g>
    </g>
   </g>
  </g>
  <g id="svg_436">
   <g id="svg_437">
    <g id="svg_438">
     <g id="svg_439">
      <circle id="svg_440" r="2.6" cy="157.700012" cx="116.199997" class="st2"/>
     </g>
    </g>
   </g>
  </g>
  <g id="svg_441">
   <g id="svg_442">
    <g id="svg_443">
     <g id="svg_444">
      <circle id="svg_445" r="2.3" cy="99.5" cx="275.100006" class="st2"/>
     </g>
    </g>
   </g>
  </g>
  <g id="svg_446">
   <g id="svg_447">
    <g id="svg_448">
     <g id="svg_449">
      <g id="svg_450">
       <path id="svg_451" d="m151.3,212.5c1.2,2.9 12.8,6.2 16.6,11.5c3.8,5.3 8.9,1.2 6.6,-2.5c-1.6,-2.5 -13.8,-12.5 -13.8,-18.9l0,-7.8" class="st1"/>
      </g>
     </g>
    </g>
    <g id="svg_452">
     <g id="svg_453">
      <g id="svg_454">
       <path id="svg_455" d="m171.9,227.5c-1.6,0 -3.3,-0.8 -4.8,-2.9c-1.9,-2.7 -6.4,-5 -9.9,-6.9c-3.4,-1.8 -6,-3.1 -6.7,-4.8c-0.2,-0.5 0,-1.1 0.5,-1.3c0.5,-0.2 1.1,0 1.3,0.5c0.4,1 3.3,2.5 5.8,3.8c3.9,2.1 8.4,4.4 10.6,7.5c1.7,2.3 3.4,2.4 4.4,1.7c0.9,-0.6 1.3,-1.8 0.5,-3.1c-0.4,-0.6 -1.6,-1.9 -3.1,-3.3c-4.3,-4.4 -10.9,-11 -10.9,-16.1l0,-7.8c0,-0.6 0.4,-1 1,-1c0,0 0,0 0,0c0.6,0 1,0.4 1,1l0,7.8c0,4.3 6.5,10.8 10.3,14.7c1.7,1.7 2.9,2.9 3.3,3.7c1.5,2.3 0.5,4.8 -1.1,5.8c-0.5,0.4 -1.3,0.7 -2.2,0.7z"/>
      </g>
     </g>
    </g>
   </g>
   <g id="svg_456">
    <g id="svg_457">
     <g id="svg_458">
      <g id="svg_459">
       <path id="svg_460" d="m163.9,219.6c-3,-3 -4.3,-12.8 -1.5,-17.7c3.3,-5.7 -1.7,-8.6 -5.2,-12.1c-2.3,-2.3 -1,-5.6 -0.9,-6.5c0,0 0,0 0,0c-1.1,0.6 -2.4,1 -3.7,1.2c-2.2,0.4 -4.4,0.2 -6.4,-0.4c0,0 0,0 0,0s0.2,2.7 -1.2,5.1c-5.2,9.1 4.6,21.4 4.1,29.4c-0.5,8 -4.1,6.6 -4.1,13.9" class="st1"/>
      </g>
     </g>
    </g>
    <g id="svg_461">
     <g id="svg_462">
      <g id="svg_463">
       <path id="svg_464" d="m145,233.5c-0.6,0 -1,-0.4 -1,-1c0,-3.9 1,-5.6 2,-7.2c0.9,-1.5 1.8,-3 2.1,-6.7c0.2,-2.9 -1.1,-6.5 -2.5,-10.4c-2.3,-6.3 -4.9,-13.5 -1.4,-19.5c1.2,-2.2 1.1,-4.5 1.1,-4.5c0,-0.4 0.2,-0.8 0.5,-1c0.2,-0.1 0.5,-0.1 0.8,-0.1c2,0.6 4,0.7 5.9,0.4c1.1,-0.2 2.3,-0.6 3.4,-1.2c0.3,-0.2 0.7,-0.1 1,0c0.3,0.2 0.5,0.5 0.5,0.9c0,0.3 -0.1,0.6 -0.1,1c-0.2,1.3 -0.6,3.4 0.8,4.8c0.5,0.5 1.1,1.1 1.7,1.6c3.2,2.9 6.8,6.2 3.7,11.7c-2.6,4.5 -1.4,13.8 1.3,16.5c0.4,0.4 0.4,1 0,1.4s-1,0.4 -1.4,0c-3.3,-3.3 -4.7,-13.6 -1.7,-18.9c2.2,-3.9 0.2,-6 -3.3,-9.2c-0.6,-0.5 -1.2,-1.1 -1.8,-1.7c-1.8,-1.8 -1.7,-4 -1.5,-5.6c-0.7,0.3 -1.5,0.5 -2.2,0.6c-1.9,0.3 -3.7,0.3 -5.6,-0.1c-0.1,1.1 -0.4,2.8 -1.3,4.3c-3,5.2 -0.7,11.6 1.6,17.8c1.5,4 2.8,7.9 2.6,11.2c-0.3,4.2 -1.4,6.1 -2.3,7.7c-0.9,1.5 -1.7,2.8 -1.7,6.2c-0.2,0.6 -0.7,1 -1.2,1z"/>
      </g>
     </g>
    </g>
   </g>
   <g id="svg_465">
    <g id="svg_466">
     <g id="svg_467">
      <g id="svg_468">
       <path id="svg_469" d="m163.2,197.7c-0.4,0 -0.7,-0.2 -0.9,-0.5c0,-0.1 -4.3,-7.7 -9.4,-7.7c-4.5,0 -6.8,0.4 -8.3,3c-0.3,0.5 -0.9,0.6 -1.4,0.4s-0.6,-0.9 -0.4,-1.4c2.2,-3.7 5.7,-4 10,-4c6.3,0 11,8.4 11.2,8.7c0.3,0.5 0.1,1.1 -0.4,1.4c-0.1,0.1 -0.2,0.1 -0.4,0.1z"/>
      </g>
     </g>
    </g>
   </g>
   <g id="svg_470">
    <g id="svg_471">
     <g id="svg_472">
      <g id="svg_473">
       <path id="svg_474" d="m150.3,195.2c0,0 1.2,21.4 3.4,22.9c2.2,1.5 11.7,6.4 17,8.5c5.2,2.1 7.1,-3.3 3.7,-4.9c-2.4,-1.1 -13.3,-6.4 -14.8,-9.1c-1.5,-2.7 -1.6,-16.1 -1.6,-16.1s-0.1,-6.1 -5,-5.7c-3.1,0.3 -2.7,4.4 -2.7,4.4z" class="st1"/>
      </g>
     </g>
    </g>
    <g id="svg_475">
     <g id="svg_476">
      <g id="svg_477">
       <path id="svg_478" d="m173,228.1c-0.8,0 -1.7,-0.2 -2.7,-0.6c-5.2,-2.1 -14.8,-7 -17.2,-8.6c-1,-0.7 -2.8,-4.6 -3.8,-23.6c0,-0.4 -0.2,-2.7 1.1,-4.2c0.6,-0.7 1.5,-1.2 2.5,-1.3c1.5,-0.1 2.8,0.3 3.8,1.2c2.1,1.9 2.2,5.4 2.2,5.5c0,5.1 0.5,13.8 1.5,15.6c0.8,1.5 6.6,5 14.3,8.7c2.2,1.1 2.7,3.4 2,5c-0.5,1.3 -1.8,2.3 -3.7,2.3zm-19.5,-36.3c-0.1,0 -0.2,0 -0.4,0c-0.5,0 -0.9,0.2 -1.2,0.6c-0.7,0.8 -0.7,2.2 -0.6,2.7c0,0 0,0 0,0c0.5,9.7 1.8,21 3,22.1c2.2,1.5 11.8,6.4 16.8,8.4c2.2,0.9 3.5,0.2 3.9,-0.7c0.3,-0.8 0.2,-1.8 -1,-2.4c-4.1,-1.9 -13.7,-6.7 -15.2,-9.6c-1.5,-2.8 -1.7,-15.1 -1.7,-16.5c0,0 -0.1,-2.7 -1.6,-4.1c-0.6,-0.3 -1.2,-0.5 -2,-0.5z"/>
      </g>
     </g>
    </g>
   </g>
   <g id="svg_479">
    <g id="svg_480">
     <g id="svg_481">
      <g id="svg_482">
       <ellipse id="svg_483" ry="18.200001" rx="15.5" cy="169.284291" cx="169.724785" class="st1" transform="matrix(0.9848,-0.1736,0.1736,0.9848,-47.2521,29.5495) "/>
      </g>
     </g>
    </g>
    <g id="svg_484">
     <g id="svg_485">
      <g id="svg_486">
       <path id="svg_487" d="m150.1,186c-8.1,0 -15.4,-6.8 -17.1,-16.3c-1.8,-10.4 4,-20.2 12.9,-21.8c9,-1.6 17.8,5.6 19.6,16l0,0c0.9,5 0,10 -2.4,14.1c-2.4,4.2 -6.2,6.9 -10.6,7.6c-0.7,0.3 -1.6,0.4 -2.4,0.4zm-1.7,-36.3c-0.7,0 -1.4,0.1 -2.1,0.2c-7.9,1.4 -13,10.1 -11.3,19.5c1.6,9.3 9.4,15.8 17.3,14.4c3.8,-0.7 7.1,-3 9.2,-6.7c2.2,-3.7 2.9,-8.2 2.1,-12.8c-1.5,-8.5 -8.1,-14.6 -15.2,-14.6z"/>
      </g>
     </g>
    </g>
   </g>
   <g id="svg_488">
    <g id="svg_489">
     <g id="svg_490">
      <g id="svg_491">
       <path id="svg_492" d="m132.8,169.7c-2.3,-10.6 4,-20.6 13.1,-22.2c5.4,-1 11.3,0.9 14.7,5.5c2.8,3.8 0.9,9.7 -10.4,8.2c-6.9,-0.9 -9.6,14.6 -0.4,17c0,0.1 -14.4,3.5 -17,-8.5z"/>
      </g>
     </g>
    </g>
    <g id="svg_493">
     <g id="svg_494">
      <g id="svg_495">
       <path id="svg_496" d="m145.3,179.8c-2.5,0 -5.7,-0.4 -8.3,-2.1c-2.7,-1.7 -4.4,-4.3 -5.1,-7.7l0,0c-1.2,-5.6 -0.2,-11.4 2.9,-16c2.7,-4 6.6,-6.6 11,-7.4c6.1,-1.1 12.2,1.3 15.6,5.9c1.5,2.1 1.8,4.6 0.6,6.6c-1,1.7 -3.8,4.3 -11.9,3.3c-2.6,-0.3 -4.4,2.4 -5,5.3c-0.8,3.9 0.5,8.6 5,9.8c0.4,0.1 0.8,0.5 0.7,1s-0.3,0.9 -0.8,1c-0.2,-0.2 -2.1,0.3 -4.7,0.3zm-11.5,-10.3c0.6,2.9 2.1,5.1 4.3,6.4c2.7,1.7 6,1.9 8.4,1.8c-3.1,-2.4 -4,-6.7 -3.3,-10.5c0.9,-4.5 3.8,-7.3 7.2,-6.9c5.1,0.7 8.7,-0.2 10,-2.3c0.7,-1.2 0.5,-2.9 -0.5,-4.4c-3,-4.1 -8.4,-6.1 -13.7,-5.2c-3.9,0.7 -7.3,3 -9.7,6.5c-2.9,4.3 -3.8,9.5 -2.7,14.6l0,0z"/>
      </g>
     </g>
    </g>
   </g>
   <g id="svg_497">
    <g id="svg_498">
     <g id="svg_499">
      <g id="svg_500">
       <path id="svg_501" d="m151.6,172.8c-0.2,0 -0.4,-0.2 -0.4,-0.3c-0.1,-1.3 0.9,-2.5 2.2,-2.5c1.3,-0.1 2.5,0.9 2.5,2.2c0,0.2 -0.1,0.4 -0.3,0.4c-0.2,0 -0.4,-0.1 -0.4,-0.3c-0.1,-0.9 -0.8,-1.6 -1.7,-1.5c-0.9,0.1 -1.6,0.8 -1.5,1.7c-0.1,0.1 -0.2,0.2 -0.4,0.3c0,0 0,0 0,0z"/>
      </g>
     </g>
    </g>
   </g>
   <g id="svg_502">
    <g id="svg_503">
     <g id="svg_504">
      <g id="svg_505">
       <path id="svg_506" d="m157.9,171.9c-0.2,0 -0.4,-0.2 -0.4,-0.3c-0.1,-1.3 0.9,-2.5 2.2,-2.5c1.3,-0.1 2.5,0.9 2.5,2.2c0,0.2 -0.1,0.4 -0.3,0.4c-0.2,0 -0.4,-0.1 -0.4,-0.3c-0.1,-0.9 -0.8,-1.6 -1.7,-1.5c-0.9,0.1 -1.6,0.8 -1.5,1.7c0,0.1 -0.1,0.3 -0.4,0.3c0.1,0 0.1,0 0,0z"/>
      </g>
     </g>
    </g>
   </g>
   <g id="svg_507">
    <g id="svg_508">
     <g id="svg_509">
      <g id="svg_510">
       <path id="svg_511" d="m158.7,176.6c0.1,0.8 -0.6,1.6 -1.4,1.6c-0.8,0.1 -1.6,-0.6 -1.6,-1.4"/>
      </g>
     </g>
    </g>
   </g>
  </g>
  <g id="svg_512">
   <g id="svg_513">
    <g id="svg_514">
     <g id="svg_515">
      <g id="svg_516">
       <rect id="svg_517" height="2" width="4.8" class="st2" transform="matrix(0.7071,-0.7071,0.7071,0.7071,-50.5183,321.356) " y="140.089051" x="446.467867"/>
      </g>
     </g>
    </g>
   </g>
   <g id="svg_518">
    <g id="svg_519">
     <g id="svg_520">
      <g id="svg_521">
       <rect id="svg_522" height="2" width="4.8" class="st2" transform="matrix(0.7071,-0.7071,0.7071,0.7071,-57.093,318.6331) " y="146.589051" x="439.967867"/>
      </g>
     </g>
    </g>
   </g>
   <g id="svg_523">
    <g id="svg_524">
     <g id="svg_525">
      <g id="svg_526">
       <rect id="svg_527" height="4.8" width="2" class="st2" transform="matrix(0.7071,-0.7071,0.7071,0.7071,-55.1675,323.2817) " y="145.189057" x="447.967867"/>
      </g>
     </g>
    </g>
   </g>
   <g id="svg_528">
    <g id="svg_529">
     <g id="svg_530">
      <g id="svg_531">
       <rect id="svg_532" height="4.8" width="2" class="st2" transform="matrix(0.7072,-0.7071,0.7071,0.7072,-52.4506,316.678) " y="138.688658" x="441.356061"/>
      </g>
     </g>
    </g>
   </g>
  </g>
  <g id="svg_533">
   <g id="svg_534">
    <g id="svg_535">
     <g id="svg_536">
      <path id="svg_537" d="m129.3,246.7c0,2.7 -2.2,4.9 -4.9,4.9s-4.9,-2.2 -4.9,-4.9" class="st1"/>
     </g>
    </g>
   </g>
   <g id="svg_538">
    <g id="svg_539">
     <g id="svg_540">
      <path id="svg_541" d="m124.4,252.6c-3.2,0 -5.9,-2.6 -5.9,-5.9c0,-0.6 0.4,-1 1,-1s1,0.4 1,1c0,2.1 1.7,3.9 3.9,3.9c2.1,0 3.9,-1.7 3.9,-3.9c0,-0.6 0.4,-1 1,-1s1,0.4 1,1c-0.1,3.3 -2.7,5.9 -5.9,5.9z"/>
     </g>
    </g>
   </g>
  </g>
  <g id="svg_542">
   <g id="svg_543">
    <g id="svg_544">
     <g id="svg_545">
      <path id="svg_546" d="m266.1,13.8c0,2.7 -2.2,4.9 -4.9,4.9c-2.7,0 -4.9,-2.2 -4.9,-4.9" class="st1"/>
     </g>
    </g>
   </g>
   <g id="svg_547">
    <g id="svg_548">
     <g id="svg_549">
      <path id="svg_550" d="m261.2,19.7c-3.2,0 -5.9,-2.6 -5.9,-5.9c0,-0.6 0.4,-1 1,-1s1,0.4 1,1c0,2.1 1.7,3.9 3.9,3.9c2.1,0 3.9,-1.7 3.9,-3.9c0,-0.6 0.4,-1 1,-1s1,0.4 1,1c0,3.2 -2.7,5.9 -5.9,5.9z"/>
     </g>
    </g>
   </g>
  </g>
  <g id="svg_551">
   <g id="svg_552">
    <g id="svg_553">
     <g id="svg_554">
      <g id="svg_555">
       <path id="svg_556" d="m305.1,190.2c-2.3,-1.6 -8.6,3.6 -10.1,5.3c-0.5,7.5 -1.6,8.3 -4.2,10.6c-2.9,2.5 -9,6.8 -13.9,10.8c-3.6,2.9 -1.5,9.2 5.2,5.7c4.5,-2.3 15.6,-9.4 17.2,-12.5c2.1,-4.4 5.8,-19.9 5.8,-19.9z" class="st1"/>
      </g>
     </g>
    </g>
    <g id="svg_557">
     <g id="svg_558">
      <g id="svg_559">
       <path id="svg_560" d="m278.5,224.6c-1.7,0 -3,-0.8 -3.6,-1.8c-1.3,-2 -0.7,-4.9 1.4,-6.7c2.4,-2 5.2,-4.1 7.7,-6c2.4,-1.8 4.8,-3.6 6.2,-4.8l0.2,-0.2c2.4,-2.1 3.3,-2.9 3.7,-9.7c0,-0.2 0.1,-0.4 0.3,-0.6c0.1,-0.1 7.9,-7.8 11.4,-5.4c0.3,0.2 0.5,0.7 0.4,1.1c-0.2,0.6 -3.7,15.6 -5.9,20.1c-1.7,3.5 -13.4,10.7 -17.6,12.9c-1.8,0.7 -3.1,1.1 -4.2,1.1zm17.5,-28.7c-0.5,7 -1.5,8.3 -4.4,10.8l-0.2,0.2c-1.5,1.3 -3.7,3 -6.3,4.9c-2.5,1.8 -5.2,3.9 -7.6,5.9c-1.5,1.2 -1.7,3 -1,4c0.8,1.2 2.7,1.2 5.1,0c5,-2.6 15.5,-9.5 16.7,-12c1.8,-3.6 4.7,-15.3 5.6,-18.7c-1.9,0 -5.9,2.9 -7.9,4.9z"/>
      </g>
     </g>
    </g>
   </g>
   <g id="svg_561">
    <g id="svg_562">
     <g id="svg_563">
      <g id="svg_564">
       <path id="svg_565" d="m326.5,227.3c2.3,-3.3 2.6,-32.7 2.6,-32.7s5.6,-0.5 9.3,-2.4c0,0 -1.9,-6.7 -3.4,-9.3c-3.3,-5.3 -12.7,-4.7 -13.5,-10.1c0,0 -9.5,0.5 -10.8,-0.2c0,0 -0.4,1.9 -0.7,2.6c-1.2,2.4 -6.3,4 -10,6c-4.7,2.5 -5,14.3 -5,14.3s4.1,0.3 7.4,1.1c1,5.3 -1.1,23.6 0.2,28.3" class="st1"/>
      </g>
     </g>
    </g>
    <g id="svg_566">
     <g id="svg_567">
      <g id="svg_568">
       <path id="svg_569" d="m326.5,228.3c-0.2,0 -0.4,-0.1 -0.6,-0.2c-0.5,-0.3 -0.6,-0.9 -0.2,-1.4c1.5,-2.2 2.3,-20.9 2.4,-32.1c0,-0.5 0.4,-0.9 0.9,-1c0.1,0 4.7,-0.4 8.2,-1.9c-0.6,-1.8 -2,-6.3 -3.1,-8.2c-1.4,-2.2 -4,-3.3 -6.6,-4.4c-2.9,-1.2 -5.9,-2.4 -6.7,-5.2c-3,0.2 -7.1,0.3 -9.3,-0.1c-0.2,0.7 -0.4,1.4 -0.6,1.8c-1,2.1 -4,3.4 -7.1,4.9c-1.1,0.5 -2.3,1 -3.3,1.6c-3.1,1.7 -4.2,8.9 -4.4,12.5c1.4,0.1 4.2,0.4 6.6,1c0.4,0.1 0.7,0.4 0.7,0.8c0.5,2.6 0.3,8.1 0,13.8c-0.3,6 -0.5,12.1 0.1,14.4c0.2,0.5 -0.2,1.1 -0.7,1.2c-0.5,0.2 -1.1,-0.2 -1.2,-0.7c-0.7,-2.6 -0.5,-8.6 -0.2,-15c0.2,-4.9 0.4,-10 0.1,-12.7c-3,-0.7 -6.5,-0.9 -6.5,-0.9c-0.5,0 -0.9,-0.5 -0.9,-1c0,-1.3 0.4,-12.5 5.5,-15.1c1.1,-0.6 2.3,-1.1 3.4,-1.6c2.7,-1.2 5.5,-2.5 6.2,-3.9c0.2,-0.4 0.6,-1.9 0.7,-2.3c0.1,-0.3 0.2,-0.5 0.5,-0.7c0.3,-0.2 0.7,-0.2 1,0c0.8,0.4 5.9,0.3 10.2,0.1c0.5,0 1,0.3 1,0.9c0.3,2.3 2.8,3.4 5.7,4.5c2.8,1.1 5.9,2.4 7.6,5.2c1.6,2.6 3.5,9.2 3.5,9.5c0.1,0.5 -0.1,0.9 -0.5,1.2c-3,1.5 -7,2.2 -8.8,2.4c-0.1,6.5 -0.5,29.2 -2.8,32.4c-0.2,0 -0.5,0.2 -0.8,0.2z"/>
      </g>
     </g>
    </g>
   </g>
   <g id="svg_570">
    <g id="svg_571">
     <g id="svg_572">
      <g id="svg_573">
       <path id="svg_574" d="m329.1,194.6c0,0 -0.5,-3.2 -1.1,-4.6" class="st1"/>
      </g>
     </g>
    </g>
    <g id="svg_575">
     <g id="svg_576">
      <g id="svg_577">
       <path id="svg_578" d="m329.1,195.6c-0.5,0 -0.9,-0.3 -1,-0.8c-0.1,-0.9 -0.6,-3.4 -1,-4.4c-0.2,-0.5 0,-1.1 0.5,-1.3c0.5,-0.2 1.1,0 1.3,0.5c0.6,1.5 1.2,4.7 1.2,4.9c0.1,0.5 -0.3,1.1 -0.8,1.1c-0.1,0 -0.2,0 -0.2,0z"/>
      </g>
     </g>
    </g>
   </g>
   <g id="svg_579">
    <g id="svg_580">
     <g id="svg_581">
      <g id="svg_582">
       <line id="svg_583" y2="191.899994" x2="302.5" y1="196.5" x1="302.399994" class="st1"/>
      </g>
     </g>
    </g>
    <g id="svg_584">
     <g id="svg_585">
      <g id="svg_586">
       <path id="svg_587" d="m302.4,197.5c0,0 0,0 0,0c-0.6,0 -1,-0.5 -1,-1l0.1,-4.6c0,-0.5 0.5,-1 1,-1c0,0 0,0 0,0c0.6,0 1,0.5 1,1l-0.1,4.6c0,0.6 -0.5,1 -1,1z"/>
      </g>
     </g>
    </g>
   </g>
   <g id="svg_588">
    <g id="svg_589">
     <g id="svg_590">
      <g id="svg_591">
       <path id="svg_592" d="m338.4,192.2c-2.9,2.2 -6.1,2.5 -9.3,2.4c-0.1,4.2 0.7,8.7 -0.4,11.4c-1.3,3.3 -3.6,8.6 -6,14.1c-1.7,4 0.5,6.3 2.8,6.1c0.9,-0.1 1.8,-0.5 2.4,-1.5c2.3,-3.3 9.2,-15 10.1,-18.1c1.3,-4.3 0.4,-14.4 0.4,-14.4z" class="st1"/>
      </g>
     </g>
    </g>
    <g id="svg_593">
     <g id="svg_594">
      <g id="svg_595">
       <path id="svg_596" d="m325.2,227.2c-1.3,0 -2.5,-0.6 -3.2,-1.7c-0.6,-0.9 -1.5,-2.8 -0.2,-5.8c0.8,-1.9 1.6,-3.8 2.4,-5.6c1.5,-3.4 2.7,-6.3 3.6,-8.4c0.6,-1.6 0.5,-4.1 0.4,-6.7c-0.1,-1.4 -0.1,-2.9 -0.1,-4.4c0,-0.3 0.1,-0.5 0.3,-0.7c0.2,-0.2 0.5,-0.3 0.7,-0.3c2.7,0.1 5.9,-0.1 8.7,-2.2c0.3,-0.2 0.7,-0.3 1,-0.1s0.6,0.5 0.6,0.8c0,0.4 0.9,10.3 -0.4,14.8c-1,3.3 -8,15.3 -10.2,18.4c-0.8,1.1 -1.9,1.8 -3.2,1.9c-0.1,0 -0.2,0 -0.4,0zm4.9,-31.6c0,1.1 0.1,2.2 0.1,3.2c0.1,2.9 0.3,5.6 -0.5,7.6c-0.8,2.2 -2.1,5.1 -3.6,8.5c-0.8,1.8 -1.6,3.7 -2.4,5.6c-0.7,1.6 -0.7,3 0,3.9c0.4,0.6 1.1,0.9 1.8,0.8c0.5,0 1.2,-0.3 1.7,-1.1c2.3,-3.2 9.1,-14.9 9.9,-17.8c0.9,-3.1 0.6,-9.4 0.5,-12.4c-2.6,1.4 -5.2,1.7 -7.5,1.7z"/>
      </g>
     </g>
    </g>
   </g>
   <g id="svg_597">
    <g id="svg_598">
     <g id="svg_599">
      <g id="svg_600">
       <path id="svg_601" d="m315.8,182.9c-0.3,0 -0.7,0 -0.9,-0.1c-3.3,-0.4 -6.2,-3.1 -6.8,-6.3c-0.1,-0.5 0.3,-1.1 0.8,-1.2c0.5,-0.1 1.1,0.3 1.2,0.8c0.4,2.4 2.6,4.4 5,4.7c2.9,0.4 5.6,-1.6 7.3,-5.4c0.2,-0.5 0.8,-0.7 1.3,-0.5c0.5,0.2 0.7,0.8 0.5,1.3c-2.6,5.8 -6.3,6.7 -8.4,6.7z"/>
      </g>
     </g>
    </g>
   </g>
   <g id="svg_602">
    <g id="svg_603">
     <g id="svg_604">
      <g id="svg_605">
       <ellipse id="svg_606" ry="3.1" rx="3.1" cy="312.227618" cx="436.168351" class="st2" transform="matrix(0.03449126,-0.9994,0.9994,0.03449126,-4.9554,619.4254) "/>
      </g>
     </g>
    </g>
   </g>
   <g id="svg_607">
    <g id="svg_608">
     <g id="svg_609">
      <g id="svg_610">
       <ellipse id="svg_611" ry="15.5" rx="18.200001" cy="258.653883" cx="429.304535" class="st1" transform="matrix(0.1736,-0.9848,0.9848,0.1736,-12.8816,535.0822) "/>
      </g>
     </g>
    </g>
    <g id="svg_612">
     <g id="svg_613">
      <g id="svg_614">
       <path id="svg_615" d="m315.6,176.3c-0.8,0 -1.7,-0.1 -2.5,-0.2c-4.4,-0.8 -8.1,-3.5 -10.6,-7.6c-2.4,-4.1 -3.2,-9.1 -2.4,-14.1c1.8,-10.4 10.6,-17.6 19.6,-16c9,1.6 14.8,11.4 12.9,21.8c-1.6,9.3 -9,16.1 -17,16.1zm1.6,-36.2c-7.1,0 -13.6,6.1 -15.1,14.6c-0.8,4.6 0,9.1 2.1,12.8c2.1,3.6 5.4,6 9.2,6.7c7.9,1.4 15.6,-5.1 17.3,-14.4c1.6,-9.3 -3.4,-18.1 -11.3,-19.5c-0.7,-0.2 -1.4,-0.2 -2.2,-0.2z"/>
      </g>
     </g>
    </g>
   </g>
   <g id="svg_616">
    <g id="svg_617">
     <g id="svg_618">
      <g id="svg_619">
       <path id="svg_620" d="m306.1,154.5c1.4,-8 7,-13.9 13.6,-15.2c-0.1,0 -0.1,0 -0.2,0c-8.4,-1.5 -16.7,5.3 -18.4,15.2c-1.7,9.9 3.7,19.1 12.1,20.6c1.6,0.3 3.3,0.3 4.8,0c-8.2,-1.6 -13.6,-10.7 -11.9,-20.6z" class="st0"/>
      </g>
     </g>
    </g>
   </g>
   <g id="svg_621">
    <g id="svg_622">
     <g id="svg_623">
      <g id="svg_624">
       <path id="svg_625" d="m313.8,169.8c-1.7,0 -2.9,-0.3 -2.9,-0.3c-0.2,-0.1 -0.3,-0.3 -0.3,-0.5c0,-0.2 0.3,-0.3 0.5,-0.3c0.4,0.1 10.4,2.5 14.9,-8c0.1,-0.2 0.3,-0.3 0.5,-0.2s0.3,0.3 0.2,0.5c-3.2,7.6 -9.3,8.8 -12.9,8.8z"/>
      </g>
     </g>
    </g>
   </g>
   <g id="svg_626">
    <g id="svg_627">
     <g id="svg_628">
      <g id="svg_629">
       <path id="svg_630" d="m316.3,162.3c0,0 0,0 0,0c-0.3,-0.1 -0.4,-0.3 -0.4,-0.5c0.2,-0.9 -0.4,-1.8 -1.2,-1.9c-0.9,-0.2 -1.8,0.4 -1.9,1.2c0,0.2 -0.2,0.3 -0.4,0.3c-0.2,0 -0.3,-0.2 -0.3,-0.4c0.3,-1.3 1.6,-2.1 2.8,-1.8c1.3,0.3 2.1,1.6 1.8,2.8c-0.1,0.1 -0.2,0.3 -0.4,0.3z"/>
      </g>
     </g>
    </g>
   </g>
   <g id="svg_631">
    <g id="svg_632">
     <g id="svg_633">
      <g id="svg_634">
       <path id="svg_635" d="m310.1,160.5c0,0 -0.1,0 0,0c-0.3,-0.1 -0.4,-0.3 -0.4,-0.5c0.1,-0.4 0,-0.9 -0.2,-1.2c-0.2,-0.4 -0.6,-0.6 -1,-0.7c-0.9,-0.2 -1.8,0.4 -1.9,1.2c0,0.2 -0.2,0.3 -0.4,0.3c-0.2,0 -0.3,-0.2 -0.3,-0.4c0.3,-1.3 1.6,-2.1 2.8,-1.8c0.6,0.1 1.2,0.5 1.5,1c0.3,0.5 0.5,1.2 0.3,1.8c-0.1,0.2 -0.2,0.3 -0.4,0.3z"/>
      </g>
     </g>
    </g>
   </g>
   <g id="svg_636">
    <g id="svg_637">
     <g id="svg_638">
      <g id="svg_639">
       <path id="svg_640" d="m315.6,176.3c-0.8,0 -1.7,-0.1 -2.5,-0.2c-4.4,-0.8 -8.1,-3.5 -10.6,-7.6c-2.4,-4.1 -3.2,-9.1 -2.4,-14.1c1.8,-10.4 10.6,-17.6 19.6,-16c9,1.6 14.8,11.4 12.9,21.8c-1.6,9.3 -9,16.1 -17,16.1zm1.6,-36.2c-7.1,0 -13.6,6.1 -15.1,14.6c-0.8,4.6 0,9.1 2.1,12.8c2.1,3.6 5.4,6 9.2,6.7c7.9,1.4 15.6,-5.1 17.3,-14.4c1.6,-9.3 -3.4,-18.1 -11.3,-19.5c-0.7,-0.2 -1.4,-0.2 -2.2,-0.2z"/>
      </g>
     </g>
    </g>
   </g>
   <g id="svg_641">
    <g id="svg_642">
     <g id="svg_643">
      <g id="svg_644">
       <path id="svg_645" d="m321.3,151.8c0.1,0 0.1,0 0,0c-1.2,-4.7 -6.4,-6.7 -10.6,-7.3c-6.3,-0.9 -11.1,2 -12.7,5.7c-0.5,1.2 1.1,2.3 1.9,1.4c1.4,-1.7 3.1,-4.2 8.1,-3.9c1.8,0.1 4.5,0.7 6.7,3c1.6,1.7 4.1,2.2 6.3,1.2c0.1,0 0.2,0 0.3,-0.1z" class="st3"/>
      </g>
     </g>
    </g>
    <g id="svg_646">
     <g id="svg_647">
      <g id="svg_648">
       <path id="svg_649" d="m318.7,153.5c-1.7,0 -3.4,-0.7 -4.7,-2c-2.1,-2.2 -4.7,-2.6 -6,-2.7c-4.2,-0.2 -5.8,1.7 -7.1,3.3l-0.2,0.3c-0.6,0.8 -1.7,1 -2.6,0.4c-0.9,-0.5 -1.5,-1.6 -1,-2.8c1.6,-3.8 6.6,-7.4 13.8,-6.3c2.9,0.4 9.9,2 11.5,8c0.1,0.5 -0.2,1.1 -0.7,1.3c0,0 0,0 0,0c-0.1,0 -0.2,0.1 -0.3,0.1c-0.9,0.2 -1.8,0.4 -2.7,0.4zm2.6,-1.7l0,0l0,0zm0,0l0,0l0,0zm-14.1,-5.1c0.3,0 0.5,0 0.8,0c1.7,0.1 4.8,0.6 7.4,3.3c1.2,1.3 3,1.7 4.7,1.2c-1.7,-4.1 -7.2,-5.4 -9.6,-5.7c-6.1,-0.9 -10.3,2.1 -11.6,5.1c0,0 0,0.1 0,0.2c0.1,0.1 0.2,0.2 0.2,0.2l0.1,-0.2c1.4,-1.7 3.3,-4.1 8,-4.1z"/>
      </g>
     </g>
    </g>
   </g>
   <g id="svg_650">
    <g id="svg_651">
     <g id="svg_652">
      <g id="svg_653">
       <path id="svg_654" d="m321.4,151.4c0,0 9.7,0 10.4,6.1" class="st1"/>
      </g>
     </g>
    </g>
    <g id="svg_655">
     <g id="svg_656">
      <g id="svg_657">
       <path id="svg_658" d="m331.9,158.6c-0.5,0 -0.9,-0.4 -1,-0.9c-0.7,-5.2 -9.4,-5.3 -9.5,-5.3c-0.6,0 -1,-0.5 -1,-1c0,-0.6 0.4,-1 1,-1c0,0 0,0 0,0c0.4,0 10.6,0.1 11.4,7c0.1,0.5 -0.3,1 -0.9,1.1c0.1,0 0,0.1 0,0.1z"/>
      </g>
     </g>
    </g>
   </g>
  </g>
  <g id="svg_659">
   <g id="svg_660">
    <g id="svg_661">
     <g id="svg_662">
      <path id="svg_663" d="m400.1,136.3c0,-2.4 1.9,-4.4 4.4,-4.4s4.4,1.9 4.4,4.4" class="st1"/>
     </g>
    </g>
   </g>
   <g id="svg_664">
    <g id="svg_665">
     <g id="svg_666">
      <path id="svg_667" d="m408.8,136.8c-0.3,0 -0.5,-0.2 -0.5,-0.5c0,-2.1 -1.7,-3.9 -3.9,-3.9s-3.9,1.7 -3.9,3.9c0,0.3 -0.2,0.5 -0.5,0.5s-0.5,-0.2 -0.5,-0.5c0,-2.7 2.2,-4.9 4.9,-4.9s4.9,2.2 4.9,4.9c0,0.3 -0.3,0.5 -0.5,0.5z"/>
     </g>
    </g>
   </g>
  </g>
  <g id="svg_668">
   <g id="svg_669">
    <g id="svg_670">
     <g id="svg_671">
      <circle id="svg_672" r="0.7" cy="210.600006" cx="218.600006"/>
     </g>
    </g>
   </g>
  </g>
  <g id="svg_673">
   <g id="svg_674">
    <g id="svg_675">
     <g id="svg_676">
      <circle id="svg_677" r="0.7" cy="13.100006" cx="184"/>
     </g>
    </g>
   </g>
  </g>
  <g id="svg_678">
   <g id="svg_679">
    <g id="svg_680">
     <g id="svg_681">
      <circle id="svg_682" r="0.7" cy="124.800003" cx="337.700012"/>
     </g>
    </g>
   </g>
  </g>
  <g id="svg_683">
   <g id="svg_684">
    <g id="svg_685">
     <g id="svg_686">
      <circle id="svg_687" r="0.7" cy="149.5" cx="192.199997"/>
     </g>
    </g>
   </g>
  </g>
  <g id="svg_688">
   <g id="svg_689">
    <g id="svg_690">
     <g id="svg_691">
      <circle id="svg_692" r="0.7" cy="87.300003" cx="377.200012"/>
     </g>
    </g>
   </g>
  </g>
  <g id="svg_693">
   <g id="svg_694">
    <g id="svg_695">
     <g id="svg_696">
      <circle id="svg_697" r="0.7" cy="20.699997" cx="198"/>
     </g>
    </g>
   </g>
  </g>
  <g id="svg_698">
   <g id="svg_699">
    <g id="svg_700">
     <g id="svg_701">
      <g id="svg_702">
       <path id="svg_703" d="m247,166.7c-0.2,0 -0.3,0 -0.4,-0.1l-28.4,-14.2c-0.3,-0.2 -0.6,-0.5 -0.6,-0.9l0,-28.4c0,-0.3 0.2,-0.7 0.5,-0.9c0.3,-0.2 0.7,-0.2 1,0l28.4,14.2c0.3,0.2 0.6,0.5 0.6,0.9l0,28.4c0,0.3 -0.2,0.7 -0.5,0.9c-0.2,0 -0.4,0.1 -0.6,0.1zm-27.4,-15.8l26.4,13.2l0,-26.2l-26.4,-13.2l0,26.2z" class="st2"/>
      </g>
     </g>
    </g>
   </g>
   <g id="svg_704">
    <g id="svg_705">
     <g id="svg_706">
      <g id="svg_707">
       <path id="svg_708" d="m275.4,152.4c-0.2,0 -0.3,0 -0.4,-0.1l-28.4,-14.2c-0.3,-0.2 -0.6,-0.5 -0.6,-0.9l0,-28.4c0,-0.3 0.2,-0.7 0.5,-0.9s0.7,-0.2 1,0l28.4,14.2c0.3,0.2 0.6,0.5 0.6,0.9l0,28.4c0,0.3 -0.2,0.7 -0.5,0.9c-0.2,0.1 -0.4,0.1 -0.6,0.1zm-27.4,-15.8l26.4,13.2l0,-26.2l-26.4,-13.2l0,26.2z" class="st2"/>
      </g>
     </g>
    </g>
   </g>
   <g id="svg_709">
    <g id="svg_710">
     <g id="svg_711">
      <g id="svg_712">
       <path id="svg_713" d="m218.6,152.4c-0.2,0 -0.4,-0.1 -0.5,-0.1c-0.3,-0.2 -0.5,-0.5 -0.5,-0.9l0,-28.4c0,-0.4 0.2,-0.7 0.6,-0.9l28.4,-14.2c0.3,-0.2 0.7,-0.1 1,0c0.3,0.2 0.5,0.5 0.5,0.9l0,28.4c0,0.4 -0.2,0.7 -0.6,0.9l-28.5,14.2c-0.1,0.1 -0.3,0.1 -0.4,0.1zm1,-28.8l0,26.2l26.4,-13.2l0,-26.2l-26.4,13.2z" class="st2"/>
      </g>
     </g>
    </g>
   </g>
   <g id="svg_714">
    <g id="svg_715">
     <g id="svg_716">
      <g id="svg_717">
       <path id="svg_718" d="m247,166.7c-0.2,0 -0.4,-0.1 -0.5,-0.1c-0.3,-0.2 -0.5,-0.5 -0.5,-0.9l0,-28.4c0,-0.4 0.2,-0.7 0.6,-0.9l28.4,-14.2c0.3,-0.2 0.7,-0.1 1,0c0.3,0.2 0.5,0.5 0.5,0.9l0,28.4c0,0.4 -0.2,0.7 -0.6,0.9l-28.4,14.2c-0.2,0.1 -0.4,0.1 -0.5,0.1zm1,-28.8l0,26.2l26.4,-13.2l0,-26.2l-26.4,13.2z" class="st2"/>
      </g>
     </g>
    </g>
   </g>
  </g>
  <g id="svg_719">
   <g id="svg_720">
    <g id="svg_721">
     <g id="svg_722">
      <polygon id="svg_723" points="267.8999938964844,147.70001220703125 247,137.1999969482422 247,116.30000305175781 267.8999938964844,126.80000305175781 " class="st1"/>
     </g>
    </g>
   </g>
   <g id="svg_724">
    <g id="svg_725">
     <g id="svg_726">
      <path id="svg_727" d="m267.9,148.7c-0.2,0 -0.3,0 -0.4,-0.1l-20.9,-10.4c-0.3,-0.2 -0.6,-0.5 -0.6,-0.9l0,-20.9c0,-0.3 0.2,-0.7 0.5,-0.9c0.3,-0.2 0.7,-0.2 1,0l20.9,10.4c0.3,0.2 0.6,0.5 0.6,0.9l0,20.9c0,0.3 -0.2,0.7 -0.5,0.9c-0.3,0 -0.4,0.1 -0.6,0.1zm-19.9,-12.1l18.9,9.4l0,-18.6l-18.9,-9.4l0,18.6z"/>
     </g>
    </g>
   </g>
  </g>
  <g id="svg_728">
   <g id="svg_729">
    <g id="svg_730">
     <g id="svg_731">
      <polygon id="svg_732" points="226.10000610351562,147.70001220703125 247,137.1999969482422 247,116.30000305175781 226.10000610351562,126.80000305175781 " class="st1"/>
     </g>
    </g>
   </g>
   <g id="svg_733">
    <g id="svg_734">
     <g id="svg_735">
      <path id="svg_736" d="m226.1,148.7c-0.2,0 -0.4,-0.1 -0.5,-0.1c-0.3,-0.2 -0.5,-0.5 -0.5,-0.9l0,-20.9c0,-0.4 0.2,-0.7 0.6,-0.9l20.9,-10.4c0.3,-0.2 0.7,-0.1 1,0c0.3,0.2 0.5,0.5 0.5,0.9l0,20.9c0,0.4 -0.2,0.7 -0.6,0.9l-20.9,10.4c-0.2,0 -0.3,0.1 -0.5,0.1zm1,-21.3l0,18.6l18.9,-9.4l0,-18.6l-18.9,9.4z"/>
     </g>
    </g>
   </g>
  </g>
  <g id="svg_737">
   <g id="svg_738">
    <g id="svg_739">
     <g id="svg_740">
      <g id="svg_741">
       <path id="svg_742" d="m258.2,137.9c-0.2,0 -0.3,0 -0.4,-0.1l-11.2,-5.6c-0.3,-0.2 -0.6,-0.5 -0.6,-0.9l0,-11.2c0,-0.3 0.2,-0.7 0.5,-0.9s0.7,-0.2 1,0l11.2,5.6c0.3,0.2 0.6,0.5 0.6,0.9l0,11.2c0,0.3 -0.2,0.7 -0.5,0.9c-0.2,0 -0.4,0.1 -0.6,0.1zm-10.2,-7.2l9.2,4.6l0,-9l-9.2,-4.6l0,9z" class="st2"/>
      </g>
     </g>
    </g>
   </g>
   <g id="svg_743">
    <g id="svg_744">
     <g id="svg_745">
      <g id="svg_746">
       <path id="svg_747" d="m235.8,137.9c-0.2,0 -0.4,-0.1 -0.5,-0.1c-0.3,-0.2 -0.5,-0.5 -0.5,-0.9l0,-11.2c0,-0.4 0.2,-0.7 0.6,-0.9l11.2,-5.6c0.3,-0.2 0.7,-0.1 1,0c0.3,0.2 0.5,0.5 0.5,0.9l0,11.2c0,0.4 -0.2,0.7 -0.6,0.9l-11.2,5.6c-0.2,0 -0.4,0.1 -0.5,0.1zm1,-11.6l0,9l9.2,-4.6l0,-9l-9.2,4.6z" class="st2"/>
      </g>
     </g>
    </g>
   </g>
   <g id="svg_748">
    <g id="svg_749">
     <g id="svg_750">
      <g id="svg_751">
       <path id="svg_752" d="m247,143.5c-0.2,0 -0.4,-0.1 -0.5,-0.1c-0.3,-0.2 -0.5,-0.5 -0.5,-0.9l0,-11.2c0,-0.4 0.2,-0.7 0.6,-0.9l11.2,-5.6c0.3,-0.2 0.7,-0.1 1,0c0.3,0.2 0.5,0.5 0.5,0.9l0,11.2c0,0.4 -0.2,0.7 -0.6,0.9l-11.2,5.6c-0.2,0.1 -0.4,0.1 -0.5,0.1zm1,-11.6l0,9l9.2,-4.6l0,-9l-9.2,4.6z" class="st2"/>
      </g>
     </g>
    </g>
   </g>
   <g id="svg_753">
    <g id="svg_754">
     <g id="svg_755">
      <g id="svg_756">
       <path id="svg_757" d="m247,143.5c-0.2,0 -0.3,0 -0.4,-0.1l-11.2,-5.6c-0.3,-0.2 -0.6,-0.5 -0.6,-0.9l0,-11.2c0,-0.3 0.2,-0.7 0.5,-0.9c0.3,-0.2 0.7,-0.2 1,0l11.2,5.6c0.3,0.2 0.6,0.5 0.6,0.9l0,11.2c0,0.3 -0.2,0.7 -0.5,0.9c-0.2,0.1 -0.4,0.1 -0.6,0.1zm-10.2,-7.2l9.2,4.6l0,-9l-9.2,-4.6l0,9z" class="st2"/>
      </g>
     </g>
    </g>
   </g>
  </g>
  <g id="svg_758">
   <g id="svg_759">
    <g id="svg_760">
     <g id="svg_761">
      <g id="svg_762">
       <polygon id="svg_763" points="252.60000610351562,121 247,118.19999694824219 247,112.60000610351562 252.60000610351562,115.39999389648438 " class="st1"/>
      </g>
     </g>
    </g>
    <g id="svg_764">
     <g id="svg_765">
      <g id="svg_766">
       <path id="svg_767" d="m252.6,122c-0.2,0 -0.3,0 -0.4,-0.1l-5.6,-2.8c-0.3,-0.2 -0.6,-0.5 -0.6,-0.9l0,-5.6c0,-0.3 0.2,-0.7 0.5,-0.9c0.3,-0.2 0.7,-0.2 1,0l5.6,2.8c0.3,0.2 0.6,0.5 0.6,0.9l0,5.6c0,0.3 -0.2,0.7 -0.5,0.9c-0.2,0 -0.4,0.1 -0.6,0.1zm-4.6,-4.4l3.6,1.8l0,-3.4l-3.6,-1.8l0,3.4z"/>
      </g>
     </g>
    </g>
   </g>
   <g id="svg_768">
    <g id="svg_769">
     <g id="svg_770">
      <g id="svg_771">
       <polygon id="svg_772" points="241.39999389648438,121 247,118.19999694824219 247,112.60000610351562 241.39999389648438,115.39999389648438 " class="st1"/>
      </g>
     </g>
    </g>
    <g id="svg_773">
     <g id="svg_774">
      <g id="svg_775">
       <path id="svg_776" d="m241.4,122c-0.2,0 -0.4,-0.1 -0.5,-0.1c-0.3,-0.2 -0.5,-0.5 -0.5,-0.9l0,-5.6c0,-0.4 0.2,-0.7 0.6,-0.9l5.6,-2.8c0.3,-0.2 0.7,-0.1 1,0c0.3,0.2 0.5,0.5 0.5,0.9l0,5.6c0,0.4 -0.2,0.7 -0.6,0.9l-5.6,2.8c-0.2,0.1 -0.4,0.1 -0.5,0.1zm1,-6l0,3.4l3.6,-1.8l0,-3.4l-3.6,1.8z"/>
      </g>
     </g>
    </g>
   </g>
   <g id="svg_777">
    <g id="svg_778">
     <g id="svg_779">
      <g id="svg_780">
       <polygon id="svg_781" points="247,123.80000305175781 252.60000610351562,121 252.60000610351562,115.39999389648438 247,118.19999694824219 " class="st1"/>
      </g>
     </g>
    </g>
    <g id="svg_782">
     <g id="svg_783">
      <g id="svg_784">
       <path id="svg_785" d="m247,124.8c-0.2,0 -0.4,-0.1 -0.5,-0.1c-0.3,-0.2 -0.5,-0.5 -0.5,-0.9l0,-5.6c0,-0.4 0.2,-0.7 0.6,-0.9l5.6,-2.8c0.3,-0.2 0.7,-0.1 1,0c0.3,0.2 0.5,0.5 0.5,0.9l0,5.6c0,0.4 -0.2,0.7 -0.6,0.9l-5.6,2.8c-0.2,0.1 -0.4,0.1 -0.5,0.1zm1,-6l0,3.4l3.6,-1.8l0,-3.4l-3.6,1.8z"/>
      </g>
     </g>
    </g>
   </g>
   <g id="svg_786">
    <g id="svg_787">
     <g id="svg_788">
      <g id="svg_789">
       <polygon id="svg_790" points="247,123.80000305175781 241.39999389648438,121 241.39999389648438,115.39999389648438 247,118.19999694824219 " class="st1"/>
      </g>
     </g>
    </g>
    <g id="svg_791">
     <g id="svg_792">
      <g id="svg_793">
       <path id="svg_794" d="m247,124.8c-0.2,0 -0.3,0 -0.4,-0.1l-5.6,-2.8c-0.3,-0.2 -0.6,-0.5 -0.6,-0.9l0,-5.6c0,-0.3 0.2,-0.7 0.5,-0.9c0.3,-0.2 0.7,-0.2 1,0l5.6,2.8c0.3,0.2 0.6,0.5 0.6,0.9l0,5.6c0,0.3 -0.2,0.7 -0.5,0.9c-0.2,0.1 -0.4,0.1 -0.6,0.1zm-4.6,-4.4l3.6,1.8l0,-3.4l-3.6,-1.8l0,3.4z"/>
      </g>
     </g>
    </g>
   </g>
  </g>
  <g id="svg_795">
   <g id="svg_796">
    <g id="svg_797">
     <g id="svg_798">
      <polygon id="svg_799" points="247,158.20001220703125 267.8999938964844,147.70001220703125 267.8999938964844,126.80000305175781 247,137.3000030517578 " class="st1"/>
     </g>
    </g>
   </g>
   <g id="svg_800">
    <g id="svg_801">
     <g id="svg_802">
      <path id="svg_803" d="m247,159.2c-0.2,0 -0.4,-0.1 -0.5,-0.1c-0.3,-0.2 -0.5,-0.5 -0.5,-0.9l0,-20.9c0,-0.4 0.2,-0.7 0.6,-0.9l20.9,-10.4c0.3,-0.2 0.7,-0.1 1,0c0.3,0.2 0.5,0.5 0.5,0.9l0,20.9c0,0.4 -0.2,0.7 -0.6,0.9l-20.9,10.4c-0.2,0 -0.4,0.1 -0.5,0.1zm1,-21.3l0,18.6l18.9,-9.4l0,-18.6l-18.9,9.4z"/>
     </g>
    </g>
   </g>
  </g>
  <g id="svg_804">
   <g id="svg_805">
    <g id="svg_806">
     <g id="svg_807">
      <polygon id="svg_808" points="247,158.20001220703125 226.10000610351562,147.70001220703125 226.10000610351562,126.80000305175781 247,137.3000030517578 " class="st1"/>
     </g>
    </g>
   </g>
   <g id="svg_809">
    <g id="svg_810">
     <g id="svg_811">
      <path id="svg_812" d="m247,159.2c-0.2,0 -0.3,0 -0.4,-0.1l-20.9,-10.4c-0.3,-0.2 -0.6,-0.5 -0.6,-0.9l0,-20.9c0,-0.3 0.2,-0.7 0.5,-0.9c0.3,-0.2 0.7,-0.2 1,0l20.9,10.4c0.3,0.2 0.6,0.5 0.6,0.9l0,20.9c0,0.3 -0.2,0.7 -0.5,0.9c-0.2,0 -0.4,0.1 -0.6,0.1zm-19.9,-12.1l18.9,9.4l0,-18.6l-18.9,-9.4l0,18.6z"/>
     </g>
    </g>
   </g>
  </g>
  <g id="svg_813">
   <g id="svg_814">
    <g id="svg_815">
     <g id="svg_816">
      <g id="svg_817">
       <rect id="svg_818" height="19.700001" width="91.199997" class="st0" y="61.5" x="51.700001"/>
      </g>
     </g>
    </g>
   </g>
  </g>
  <g id="svg_819">
   <g id="svg_820">
    <g id="svg_821">
     <g id="svg_822">
      <g id="svg_823">
       <g id="svg_824">
        <rect id="svg_825" height="19.700001" width="43.400002" class="st0" y="182.799988" x="89.599998"/>
       </g>
      </g>
     </g>
    </g>
   </g>
   <g id="svg_826">
    <g id="svg_827">
     <g id="svg_828">
      <g id="svg_829">
       <circle id="svg_830" r="5.5" cy="192.600006" cx="102.5" class="st3"/>
      </g>
     </g>
    </g>
    <g id="svg_831">
     <g id="svg_832">
      <g id="svg_833">
       <path id="svg_834" d="m102.5,198.7c-3.3,0 -6,-2.7 -6,-6s2.7,-6 6,-6s6,2.7 6,6s-2.7,6 -6,6zm0,-11.1c-2.8,0 -5,2.3 -5,5s2.3,5 5,5s5,-2.3 5,-5s-2.2,-5 -5,-5z"/>
      </g>
     </g>
    </g>
   </g>
   <g id="svg_835">
    <g id="svg_836">
     <g id="svg_837">
      <g id="svg_838">
       <circle id="svg_839" r="5.5" cy="192.600006" cx="118.800003" class="st3"/>
      </g>
     </g>
    </g>
    <g id="svg_840">
     <g id="svg_841">
      <g id="svg_842">
       <path id="svg_843" d="m118.8,198.7c-3.3,0 -6,-2.7 -6,-6s2.7,-6 6,-6s6,2.7 6,6s-2.6,6 -6,6zm0,-11.1c-2.8,0 -5,2.3 -5,5s2.3,5 5,5c2.8,0 5,-2.3 5,-5s-2.2,-5 -5,-5z"/>
      </g>
     </g>
    </g>
   </g>
   <g id="svg_844">
    <g id="svg_845">
     <g id="svg_846">
      <g id="svg_847">
       <g id="svg_848">
        <line id="svg_849" y2="194.299988" x2="100.800003" y1="191" x1="104.099998" class="st3"/>
       </g>
      </g>
     </g>
     <g id="svg_850">
      <g id="svg_851">
       <g id="svg_852">
        <path id="svg_853" d="m100.8,194.8c-0.1,0 -0.3,0 -0.4,-0.1c-0.2,-0.2 -0.2,-0.5 0,-0.7l3.3,-3.3c0.2,-0.2 0.5,-0.2 0.7,0s0.2,0.5 0,0.7l-3.3,3.3c0,0 -0.1,0.1 -0.3,0.1z"/>
       </g>
      </g>
     </g>
    </g>
    <g id="svg_854">
     <g id="svg_855">
      <g id="svg_856">
       <g id="svg_857">
        <line id="svg_858" y2="194.299988" x2="104.099998" y1="191" x1="100.800003" class="st3"/>
       </g>
      </g>
     </g>
     <g id="svg_859">
      <g id="svg_860">
       <g id="svg_861">
        <path id="svg_862" d="m104.1,194.8c-0.1,0 -0.3,0 -0.4,-0.1l-3.3,-3.3c-0.2,-0.2 -0.2,-0.5 0,-0.7s0.5,-0.2 0.7,0l3.3,3.3c0.2,0.2 0.2,0.5 0,0.7c0,0 -0.2,0.1 -0.3,0.1z"/>
       </g>
      </g>
     </g>
    </g>
   </g>
   <g id="svg_863">
    <g id="svg_864">
     <g id="svg_865">
      <g id="svg_866">
       <path id="svg_867" d="m117.9,194.7c-0.1,0 -0.3,0 -0.4,-0.1l-1.3,-1.3c-0.2,-0.2 -0.2,-0.5 0,-0.7s0.5,-0.2 0.7,0l1,1l2.8,-2.8c0.2,-0.2 0.5,-0.2 0.7,0s0.2,0.5 0,0.7l-3.1,3.1c-0.1,0.1 -0.3,0.1 -0.4,0.1z"/>
      </g>
     </g>
    </g>
   </g>
  </g>
  <g id="svg_868">
   <g id="svg_869">
    <g id="svg_870">
     <g id="svg_871">
      <g id="svg_872">
       <g id="svg_873">
        <rect id="svg_874" height="19.700001" width="43.400002" class="st0" y="48.199997" x="340.100006"/>
       </g>
      </g>
     </g>
    </g>
   </g>
   <g id="svg_875">
    <g id="svg_876">
     <g id="svg_877">
      <g id="svg_878">
       <g id="svg_879">
        <path id="svg_880" d="m354.7,63.9l-4.8,0l0,-7.6l7.6,0c0.9,0 1.6,0.8 1.5,1.7l-0.3,2.4c-0.3,2 -2,3.5 -4,3.5z" class="st3"/>
       </g>
      </g>
     </g>
     <g id="svg_881">
      <g id="svg_882">
       <g id="svg_883">
        <path id="svg_884" d="m354.7,64.4l-4.8,0c-0.3,0 -0.5,-0.2 -0.5,-0.5l0,-7.6c0,-0.3 0.2,-0.5 0.5,-0.5l7.6,0c0.6,0 1.1,0.2 1.5,0.7c0.4,0.4 0.6,1 0.5,1.6l-0.3,2.4c-0.3,2.2 -2.3,3.9 -4.5,3.9zm-4.4,-1l4.3,0c1.8,0 3.3,-1.3 3.5,-3.1l0.3,-2.4c0,-0.3 -0.1,-0.6 -0.3,-0.8c-0.2,-0.2 -0.5,-0.3 -0.8,-0.3l-7.1,0l0,6.6l0.1,0z"/>
       </g>
      </g>
     </g>
    </g>
    <g id="svg_885">
     <g id="svg_886">
      <g id="svg_887">
       <g id="svg_888">
        <path id="svg_889" d="m349.8,56.3l2,-3.5c0.2,-0.4 0.6,-0.6 1,-0.6l0,0c0.6,0 1.2,0.5 1.2,1.2l0,2.9l-4.2,0z" class="st3"/>
       </g>
      </g>
     </g>
     <g id="svg_890">
      <g id="svg_891">
       <g id="svg_892">
        <path id="svg_893" d="m354,56.8l-4.1,0c-0.2,0 -0.3,-0.1 -0.4,-0.2c-0.1,-0.2 -0.1,-0.3 0,-0.5l2,-3.5c0.3,-0.5 0.8,-0.8 1.4,-0.8c0.9,0 1.7,0.7 1.7,1.7l0,2.9c-0.1,0.2 -0.4,0.4 -0.6,0.4zm-3.3,-1l2.8,0l0,-2.4c0,-0.4 -0.3,-0.7 -0.7,-0.7c-0.2,0 -0.5,0.1 -0.6,0.3l-1.5,2.8z"/>
       </g>
      </g>
     </g>
    </g>
    <g id="svg_894">
     <g id="svg_895">
      <g id="svg_896">
       <g id="svg_897">
        <rect id="svg_898" height="5.9" width="2.8" class="st3" y="57.100006" x="347"/>
       </g>
      </g>
     </g>
     <g id="svg_899">
      <g id="svg_900">
       <g id="svg_901">
        <path id="svg_902" d="m349.8,63.6l-2.8,0c-0.3,0 -0.5,-0.2 -0.5,-0.5l0,-5.9c0,-0.3 0.2,-0.5 0.5,-0.5l2.8,0c0.3,0 0.5,0.2 0.5,0.5l0,5.9c0,0.2 -0.2,0.5 -0.5,0.5zm-2.3,-1l1.8,0l0,-4.9l-1.8,0l0,4.9z"/>
       </g>
      </g>
     </g>
    </g>
   </g>
   <g id="svg_903">
    <g id="svg_904">
     <g id="svg_905">
      <g id="svg_906">
       <g id="svg_907">
        <path id="svg_908" d="m367.6,52.2l4.8,0l0,7.6l-7.6,0c-0.9,0 -1.6,-0.8 -1.5,-1.7l0.3,-2.4c0.3,-1.9 2,-3.5 4,-3.5z" class="st3"/>
       </g>
      </g>
     </g>
     <g id="svg_909">
      <g id="svg_910">
       <g id="svg_911">
        <path id="svg_912" d="m372.4,60.4l-7.6,0c-0.6,0 -1.1,-0.2 -1.5,-0.7c-0.4,-0.4 -0.6,-1 -0.5,-1.6l0.3,-2.4c0.3,-2.3 2.2,-4 4.5,-4l4.8,0c0.3,0 0.5,0.2 0.5,0.5l0,7.6c0,0.3 -0.2,0.6 -0.5,0.6zm-4.8,-7.7c-1.8,0 -3.3,1.3 -3.5,3.1l-0.3,2.4c0,0.3 0.1,0.6 0.3,0.8c0.2,0.2 0.5,0.3 0.8,0.3l7.1,0l0,-6.6l-4.4,0z"/>
       </g>
      </g>
     </g>
    </g>
    <g id="svg_913">
     <g id="svg_914">
      <g id="svg_915">
       <g id="svg_916">
        <path id="svg_917" d="m372.4,59.9l-2,3.5c-0.2,0.4 -0.6,0.6 -1,0.6l0,0c-0.6,0 -1.2,-0.5 -1.2,-1.2l0,-2.9l4.2,0z" class="st3"/>
       </g>
      </g>
     </g>
     <g id="svg_918">
      <g id="svg_919">
       <g id="svg_920">
        <path id="svg_921" d="m369.5,64.4c-0.9,0 -1.7,-0.7 -1.7,-1.7l0,-2.9c0,-0.3 0.2,-0.5 0.5,-0.5l4.1,0c0.2,0 0.3,0.1 0.4,0.2c0.1,0.2 0.1,0.3 0,0.5l-2,3.5c-0.2,0.6 -0.7,0.9 -1.3,0.9zm-0.7,-4l0,2.4c0,0.4 0.3,0.7 0.7,0.7c0.2,0 0.5,-0.1 0.6,-0.3l1.5,-2.7l-2.8,0l0,-0.1z"/>
       </g>
      </g>
     </g>
    </g>
    <g id="svg_922">
     <g id="svg_923">
      <g id="svg_924">
       <g id="svg_925">
        <rect id="svg_926" height="5.9" width="2.8" class="st3" transform="matrix(-1,4.538402e-11,-4.538402e-11,-1,739.6876,348.1052) " y="289.100006" x="364.399994"/>
       </g>
      </g>
     </g>
     <g id="svg_927">
      <g id="svg_928">
       <g id="svg_929">
        <path id="svg_930" d="m375.2,59.5l-2.8,0c-0.3,0 -0.5,-0.2 -0.5,-0.5l0,-5.9c0,-0.3 0.2,-0.5 0.5,-0.5l2.8,0c0.3,0 0.5,0.2 0.5,0.5l0,5.9c0,0.3 -0.2,0.5 -0.5,0.5zm-2.3,-1l1.8,0l0,-4.9l-1.8,0l0,4.9z"/>
       </g>
      </g>
     </g>
    </g>
   </g>
  </g>
  <g id="svg_931">
   <g id="svg_932">
    <g id="svg_933">
     <g id="svg_934">
      <g id="svg_935">
       <g id="svg_936">
        <rect id="svg_937" height="19.700001" width="61.200001" class="st0" y="212.899994" x="343.200012"/>
       </g>
      </g>
     </g>
    </g>
   </g>
   <g id="svg_938">
    <g id="svg_939">
     <g id="svg_940">
      <g id="svg_941">
       <g id="svg_942">
        <g id="svg_943">
         <g id="svg_944">
          <circle id="svg_945" r="5.5" cy="220.700012" cx="373.799988" class="st3"/>
         </g>
        </g>
       </g>
       <g id="svg_946">
        <g id="svg_947">
         <g id="svg_948">
          <path id="svg_949" d="m373.8,226.8c-3.3,0 -6,-2.7 -6,-6c0,-3.3 2.7,-6 6,-6s6,2.7 6,6c0.1,3.3 -2.7,6 -6,6zm0,-11.1c-2.8,0 -5,2.3 -5,5c0,2.8 2.3,5 5,5s5,-2.3 5,-5c0.1,-2.8 -2.2,-5 -5,-5z"/>
         </g>
        </g>
       </g>
      </g>
      <g id="svg_950">
       <g id="svg_951">
        <g id="svg_952">
         <g id="svg_953">
          <g id="svg_954">
           <path id="svg_955" d="m373.8,221.2c-0.9,0 -1.7,-0.7 -1.7,-1.7s0.7,-1.7 1.7,-1.7s1.7,0.7 1.7,1.7c0,0.3 -0.2,0.5 -0.5,0.5s-0.5,-0.2 -0.5,-0.5c0,-0.4 -0.3,-0.7 -0.7,-0.7s-0.7,0.3 -0.7,0.7s0.3,0.7 0.7,0.7c0.3,0 0.5,0.2 0.5,0.5s-0.2,0.5 -0.5,0.5z"/>
          </g>
         </g>
        </g>
       </g>
       <g id="svg_956">
        <g id="svg_957">
         <g id="svg_958">
          <g id="svg_959">
           <path id="svg_960" d="m373.8,223.5c-0.9,0 -1.7,-0.7 -1.7,-1.7c0,-0.3 0.2,-0.5 0.5,-0.5s0.5,0.2 0.5,0.5c0,0.4 0.3,0.7 0.7,0.7s0.7,-0.3 0.7,-0.7s-0.3,-0.7 -0.7,-0.7c-0.3,0 -0.5,-0.2 -0.5,-0.5s0.2,-0.5 0.5,-0.5c0.9,0 1.7,0.7 1.7,1.7s-0.8,1.7 -1.7,1.7z"/>
          </g>
         </g>
        </g>
       </g>
      </g>
     </g>
     <g id="svg_961">
      <g id="svg_962">
       <g id="svg_963">
        <g id="svg_964">
         <g id="svg_965">
          <path id="svg_966" d="m373.8,215.7c-0.3,0 -0.5,-0.2 -0.5,-0.5l0,-8.6c0,-0.3 0.2,-0.5 0.5,-0.5s0.5,0.2 0.5,0.5l0,8.6c0,0.3 -0.2,0.5 -0.5,0.5z"/>
         </g>
        </g>
       </g>
      </g>
      <g id="svg_967">
       <g id="svg_968">
        <g id="svg_969">
         <g id="svg_970">
          <path id="svg_971" d="m373.8,239.4c-0.3,0 -0.5,-0.2 -0.5,-0.5l0,-12.6c0,-0.3 0.2,-0.5 0.5,-0.5s0.5,0.2 0.5,0.5l0,12.6c0,0.2 -0.2,0.5 -0.5,0.5z"/>
         </g>
        </g>
       </g>
      </g>
     </g>
    </g>
    <g id="svg_972">
     <g id="svg_973">
      <g id="svg_974">
       <g id="svg_975">
        <g id="svg_976">
         <g id="svg_977">
          <circle id="svg_978" r="5.5" cy="224.700012" cx="357.5" class="st3"/>
         </g>
        </g>
       </g>
       <g id="svg_979">
        <g id="svg_980">
         <g id="svg_981">
          <path id="svg_982" d="m357.5,230.8c-3.3,0 -6,-2.7 -6,-6c0,-3.3 2.7,-6 6,-6s6,2.7 6,6c0,3.3 -2.7,6 -6,6zm0,-11.1c-2.8,0 -5,2.3 -5,5c0,2.8 2.3,5 5,5c2.8,0 5,-2.3 5,-5c0,-2.8 -2.3,-5 -5,-5z"/>
         </g>
        </g>
       </g>
      </g>
      <g id="svg_983">
       <g id="svg_984">
        <g id="svg_985">
         <g id="svg_986">
          <g id="svg_987">
           <path id="svg_988" d="m357.5,225.2c-0.9,0 -1.7,-0.7 -1.7,-1.7s0.7,-1.7 1.7,-1.7s1.7,0.7 1.7,1.7c0,0.3 -0.2,0.5 -0.5,0.5s-0.5,-0.2 -0.5,-0.5c0,-0.4 -0.3,-0.7 -0.7,-0.7s-0.7,0.3 -0.7,0.7s0.3,0.7 0.7,0.7c0.3,0 0.5,0.2 0.5,0.5s-0.3,0.5 -0.5,0.5z"/>
          </g>
         </g>
        </g>
       </g>
       <g id="svg_989">
        <g id="svg_990">
         <g id="svg_991">
          <g id="svg_992">
           <path id="svg_993" d="m357.5,227.5c-0.9,0 -1.7,-0.7 -1.7,-1.7c0,-0.3 0.2,-0.5 0.5,-0.5s0.5,0.2 0.5,0.5c0,0.4 0.3,0.7 0.7,0.7s0.7,-0.3 0.7,-0.7s-0.3,-0.7 -0.7,-0.7c-0.3,0 -0.5,-0.2 -0.5,-0.5s0.2,-0.5 0.5,-0.5c0.9,0 1.7,0.7 1.7,1.7s-0.8,1.7 -1.7,1.7z"/>
          </g>
         </g>
        </g>
       </g>
      </g>
     </g>
     <g id="svg_994">
      <g id="svg_995">
       <g id="svg_996">
        <g id="svg_997">
         <g id="svg_998">
          <path id="svg_999" d="m357.5,219.7c-0.3,0 -0.5,-0.2 -0.5,-0.5l0,-12.6c0,-0.3 0.2,-0.5 0.5,-0.5s0.5,0.2 0.5,0.5l0,12.6c0,0.3 -0.3,0.5 -0.5,0.5z"/>
         </g>
        </g>
       </g>
      </g>
      <g id="svg_1000">
       <g id="svg_1001">
        <g id="svg_1002">
         <g id="svg_1003">
          <path id="svg_1004" d="m357.5,239.4c-0.3,0 -0.5,-0.2 -0.5,-0.5l0,-8.6c0,-0.3 0.2,-0.5 0.5,-0.5s0.5,0.2 0.5,0.5l0,8.6c0,0.2 -0.3,0.5 -0.5,0.5z"/>
         </g>
        </g>
       </g>
      </g>
     </g>
    </g>
    <g id="svg_1005">
     <g id="svg_1006">
      <g id="svg_1007">
       <g id="svg_1008">
        <g id="svg_1009">
         <g id="svg_1010">
          <circle id="svg_1011" r="5.5" cy="230.700012" cx="390.200012" class="st3"/>
         </g>
        </g>
       </g>
       <g id="svg_1012">
        <g id="svg_1013">
         <g id="svg_1014">
          <path id="svg_1015" d="m390.2,236.8c-3.3,0 -6,-2.7 -6,-6c0,-3.3 2.7,-6 6,-6s6,2.7 6,6c0,3.3 -2.7,6 -6,6zm0,-11.1c-2.8,0 -5,2.3 -5,5c0,2.8 2.3,5 5,5c2.8,0 5,-2.3 5,-5c0,-2.8 -2.2,-5 -5,-5z"/>
         </g>
        </g>
       </g>
      </g>
      <g id="svg_1016">
       <g id="svg_1017">
        <g id="svg_1018">
         <g id="svg_1019">
          <g id="svg_1020">
           <path id="svg_1021" d="m390.2,231.2c-0.9,0 -1.7,-0.7 -1.7,-1.7s0.7,-1.7 1.7,-1.7s1.7,0.7 1.7,1.7c0,0.3 -0.2,0.5 -0.5,0.5s-0.5,-0.2 -0.5,-0.5c0,-0.4 -0.3,-0.7 -0.7,-0.7s-0.7,0.3 -0.7,0.7s0.3,0.7 0.7,0.7c0.3,0 0.5,0.2 0.5,0.5s-0.2,0.5 -0.5,0.5z"/>
          </g>
         </g>
        </g>
       </g>
       <g id="svg_1022">
        <g id="svg_1023">
         <g id="svg_1024">
          <g id="svg_1025">
           <path id="svg_1026" d="m390.2,233.5c-0.9,0 -1.7,-0.7 -1.7,-1.7c0,-0.3 0.2,-0.5 0.5,-0.5s0.5,0.2 0.5,0.5c0,0.4 0.3,0.7 0.7,0.7s0.7,-0.3 0.7,-0.7s-0.3,-0.7 -0.7,-0.7c-0.3,0 -0.5,-0.2 -0.5,-0.5s0.2,-0.5 0.5,-0.5c0.9,0 1.7,0.7 1.7,1.7c-0.1,1 -0.8,1.7 -1.7,1.7z"/>
          </g>
         </g>
        </g>
       </g>
      </g>
     </g>
     <g id="svg_1027">
      <g id="svg_1028">
       <g id="svg_1029">
        <g id="svg_1030">
         <g id="svg_1031">
          <path id="svg_1032" d="m390.2,225.7c-0.3,0 -0.5,-0.2 -0.5,-0.5l0,-18.6c0,-0.3 0.2,-0.5 0.5,-0.5s0.5,0.2 0.5,0.5l0,18.6c0,0.3 -0.2,0.5 -0.5,0.5z"/>
         </g>
        </g>
       </g>
      </g>
      <g id="svg_1033">
       <g id="svg_1034">
        <g id="svg_1035">
         <g id="svg_1036">
          <path id="svg_1037" d="m390.2,239.4c-0.3,0 -0.5,-0.2 -0.5,-0.5l0,-2.6c0,-0.3 0.2,-0.5 0.5,-0.5s0.5,0.2 0.5,0.5l0,2.6c0,0.2 -0.2,0.5 -0.5,0.5z"/>
         </g>
        </g>
       </g>
      </g>
     </g>
    </g>
   </g>
  </g>
  <g id="svg_1038">
   <g id="svg_1039">
    <g id="svg_1040">
     <g id="svg_1041">
      <circle id="svg_1042" r="2.9" cy="123.899994" cx="97.900002" class="st1"/>
     </g>
    </g>
   </g>
   <g id="svg_1043">
    <g id="svg_1044">
     <g id="svg_1045">
      <path id="svg_1046" d="m97.9,127.4c-1.9,0 -3.4,-1.5 -3.4,-3.4s1.5,-3.4 3.4,-3.4s3.4,1.5 3.4,3.4s-1.5,3.4 -3.4,3.4zm0,-5.9c-1.3,0 -2.4,1.1 -2.4,2.4s1.1,2.4 2.4,2.4s2.4,-1.1 2.4,-2.4s-1.1,-2.4 -2.4,-2.4z"/>
     </g>
    </g>
   </g>
  </g>
  <g id="svg_1047">
   <g id="svg_1048">
    <g id="svg_1049">
     <g id="svg_1050">
      <circle id="svg_1051" r="1.3" cy="59.699997" cx="229.199997" class="st1"/>
     </g>
    </g>
   </g>
   <g id="svg_1052">
    <g id="svg_1053">
     <g id="svg_1054">
      <path id="svg_1055" d="m229.2,61.4c-1,0 -1.8,-0.8 -1.8,-1.8s0.8,-1.8 1.8,-1.8s1.8,0.8 1.8,1.8s-0.9,1.8 -1.8,1.8zm0,-2.5c-0.4,0 -0.8,0.3 -0.8,0.8s0.3,0.8 0.8,0.8c0.4,0 0.8,-0.3 0.8,-0.8s-0.4,-0.8 -0.8,-0.8z"/>
     </g>
    </g>
   </g>
  </g>
  <g id="svg_1056">
   <g id="svg_1057">
    <g id="svg_1058">
     <g id="svg_1059">
      <circle id="svg_1060" r="2.3" cy="213.600006" cx="246.5" class="st1"/>
     </g>
    </g>
   </g>
   <g id="svg_1061">
    <g id="svg_1062">
     <g id="svg_1063">
      <path id="svg_1064" d="m246.5,216.4c-1.5,0 -2.8,-1.3 -2.8,-2.8s1.3,-2.8 2.8,-2.8s2.8,1.3 2.8,2.8s-1.3,2.8 -2.8,2.8zm0,-4.6c-1,0 -1.8,0.8 -1.8,1.8s0.8,1.8 1.8,1.8s1.8,-0.8 1.8,-1.8s-0.8,-1.8 -1.8,-1.8z"/>
     </g>
    </g>
   </g>
  </g>
  <g id="svg_1065">
   <g id="svg_1066">
    <g id="svg_1067">
     <g id="svg_1068">
      <g id="svg_1069">
       <path id="svg_1070" d="m65,65.8l1.3,2.6c0.1,0.3 0.4,0.4 0.7,0.5l2.8,0.4c0.7,0.1 1,1 0.5,1.5l-2,2c-0.2,0.2 -0.3,0.5 -0.3,0.8l0.5,2.8c0.1,0.7 -0.6,1.3 -1.3,0.9l-2.5,-1.3c-0.3,-0.1 -0.6,-0.1 -0.8,0l-2.5,1.3c-0.6,0.3 -1.4,-0.2 -1.3,-0.9l0.5,-2.8c0,-0.3 0,-0.6 -0.3,-0.8l-2,-2c-0.5,-0.5 -0.2,-1.4 0.5,-1.5l2.8,-0.4c0.3,0 0.5,-0.2 0.7,-0.5l1.3,-2.6c0.2,-0.7 1.1,-0.7 1.4,0z" class="st3"/>
      </g>
     </g>
    </g>
    <g id="svg_1071">
     <g id="svg_1072">
      <g id="svg_1073">
       <path id="svg_1074" d="m60.9,77.9c-0.3,0 -0.6,-0.1 -0.8,-0.3c-0.4,-0.3 -0.6,-0.8 -0.6,-1.4l0.5,-2.8c0,-0.1 0,-0.3 -0.1,-0.3l-2,-2c-0.4,-0.4 -0.5,-0.9 -0.4,-1.4c0.2,-0.5 0.6,-0.9 1.1,-0.9l2.8,-0.4c0.1,0 0.2,-0.1 0.3,-0.2l1.3,-2.6c0.2,-0.5 0.7,-0.8 1.2,-0.8s1,0.3 1.2,0.8l1.3,2.6c0.1,0.1 0.2,0.2 0.3,0.2l2.8,0.4c0.5,0.1 1,0.4 1.1,0.9c0.2,0.5 0,1 -0.3,1.4l-2,2c-0.1,0.1 -0.1,0.2 -0.1,0.3l0.5,2.8c0.1,0.5 -0.1,1 -0.6,1.4c-0.4,0.3 -1,0.4 -1.5,0.1l-2.5,-1.3c-0.1,-0.1 -0.2,-0.1 -0.4,0l-2.5,1.3c-0.2,0.1 -0.4,0.2 -0.6,0.2zm3.3,-12.1c-0.1,0 -0.2,0 -0.3,0.2l-1.3,2.6c-0.2,0.4 -0.6,0.7 -1,0.8l-2.8,0.4c-0.2,0 -0.3,0.2 -0.3,0.3c0,0.1 -0.1,0.2 0.1,0.4l2,2c0.3,0.3 0.5,0.8 0.4,1.2l-0.5,2.8c0,0.2 0.1,0.3 0.2,0.4c0.1,0 0.2,0.1 0.4,0l2.5,-1.3c0.4,-0.2 0.9,-0.2 1.3,0l2.5,1.3c0.2,0.1 0.3,0 0.4,0c0.1,0 0.2,-0.2 0.2,-0.4l-0.5,-2.8c-0.1,-0.4 0.1,-0.9 0.4,-1.2l2,-2c0.2,-0.2 0.1,-0.3 0.1,-0.4s-0.1,-0.2 -0.3,-0.3l-2.8,-0.4c-0.5,-0.1 -0.8,-0.3 -1,-0.8l-1.3,-2.6l0,0c-0.1,-0.2 -0.3,-0.2 -0.4,-0.2z"/>
      </g>
     </g>
    </g>
   </g>
   <g id="svg_1075">
    <g id="svg_1076">
     <g id="svg_1077">
      <g id="svg_1078">
       <path id="svg_1079" d="m81.6,65.8l1.3,2.6c0.1,0.3 0.4,0.4 0.7,0.5l2.8,0.4c0.7,0.1 1,1 0.5,1.5l-2,2c-0.2,0.2 -0.3,0.5 -0.3,0.8l0.5,2.8c0.1,0.7 -0.6,1.3 -1.3,0.9l-2.5,-1.3c-0.3,-0.1 -0.6,-0.1 -0.8,0l-2.5,1.3c-0.6,0.3 -1.4,-0.2 -1.3,-0.9l0.5,-2.8c0,-0.3 0,-0.6 -0.3,-0.8l-2,-2c-0.5,-0.5 -0.2,-1.4 0.5,-1.5l2.8,-0.4c0.3,0 0.5,-0.2 0.7,-0.5l1.3,-2.6c0.1,-0.7 1.1,-0.7 1.4,0z" class="st3"/>
      </g>
     </g>
    </g>
    <g id="svg_1080">
     <g id="svg_1081">
      <g id="svg_1082">
       <path id="svg_1083" d="m84.1,77.9c-0.2,0 -0.4,-0.1 -0.6,-0.2l-2.5,-1.3c-0.1,-0.1 -0.2,-0.1 -0.4,0l-2.5,1.3c-0.5,0.2 -1,0.2 -1.5,-0.1c-0.4,-0.3 -0.6,-0.8 -0.6,-1.4l0.5,-2.8c0,-0.1 0,-0.3 -0.1,-0.3l-2,-2c-0.4,-0.4 -0.5,-0.9 -0.4,-1.4c0.2,-0.5 0.6,-0.9 1.1,-0.9l2.8,-0.4c0.1,0 0.2,-0.1 0.3,-0.2l1.3,-2.6c0.2,-0.5 0.7,-0.8 1.2,-0.8s1,0.3 1.2,0.8l1.3,2.6c0.1,0.1 0.2,0.2 0.3,0.2l2.8,0.4c0.5,0.1 1,0.4 1.1,0.9c0.2,0.5 0,1 -0.4,1.4l-2,2c-0.1,0.1 -0.1,0.2 -0.1,0.3l0.5,2.8c0.1,0.5 -0.1,1 -0.6,1.4c-0.1,0.2 -0.4,0.3 -0.7,0.3zm-3.3,-2.5c0.2,0 0.4,0.1 0.6,0.2l2.5,1.3c0.2,0.1 0.3,0 0.4,0c0.1,0 0.2,-0.2 0.2,-0.4l-0.5,-2.8c-0.1,-0.5 0.1,-0.9 0.4,-1.2l2,-2c0.2,-0.2 0.1,-0.3 0.1,-0.4c0,-0.1 -0.1,-0.2 -0.3,-0.3l-2.8,-0.4c-0.5,-0.1 -0.8,-0.3 -1,-0.8l-1.3,-2.6l0,0c-0.1,-0.2 -0.3,-0.2 -0.3,-0.2s-0.2,0 -0.3,0.2l-1.3,2.6c-0.2,0.4 -0.6,0.7 -1,0.8l-2.8,0.4c-0.2,0 -0.3,0.2 -0.3,0.3c0,0.1 -0.1,0.2 0.1,0.4l2,2c0.3,0.3 0.5,0.8 0.4,1.2l-0.5,2.8c0,0.2 0.1,0.3 0.2,0.4c0.1,0 0.2,0.1 0.4,0l2.5,-1.3c0.1,-0.2 0.4,-0.2 0.6,-0.2z"/>
      </g>
     </g>
    </g>
   </g>
   <g id="svg_1084">
    <g id="svg_1085">
     <g id="svg_1086">
      <g id="svg_1087">
       <path id="svg_1088" d="m98.1,65.8l1.3,2.6c0.1,0.3 0.4,0.4 0.7,0.5l2.8,0.4c0.7,0.1 1,1 0.5,1.5l-2,2c-0.2,0.2 -0.3,0.5 -0.3,0.8l0.5,2.8c0.1,0.7 -0.6,1.3 -1.3,0.9l-2.5,-1.3c-0.3,-0.1 -0.6,-0.1 -0.8,0l-2.5,1.3c-0.6,0.3 -1.4,-0.2 -1.3,-0.9l0.5,-2.8c0,-0.3 0,-0.6 -0.3,-0.8l-2,-2c-0.5,-0.5 -0.2,-1.4 0.5,-1.5l2.8,-0.4c0.3,0 0.5,-0.2 0.7,-0.5l1.3,-2.6c0.2,-0.7 1.1,-0.7 1.4,0z" class="st3"/>
      </g>
     </g>
    </g>
    <g id="svg_1089">
     <g id="svg_1090">
      <g id="svg_1091">
       <path id="svg_1092" d="m94,77.9c-0.3,0 -0.6,-0.1 -0.8,-0.3c-0.4,-0.3 -0.6,-0.8 -0.6,-1.4l0.5,-2.8c0,-0.1 0,-0.3 -0.1,-0.3l-2,-2c-0.4,-0.4 -0.5,-0.9 -0.4,-1.4c0.2,-0.5 0.6,-0.9 1.1,-0.9l2.8,-0.4c0.1,0 0.2,-0.1 0.3,-0.2l1.3,-2.6c0.2,-0.5 0.7,-0.8 1.2,-0.8s1,0.3 1.2,0.8l1.3,2.6c0.1,0.1 0.2,0.2 0.3,0.2l2.8,0.4c0.5,0.1 1,0.4 1.1,0.9c0.2,0.5 0,1 -0.4,1.4l-2,2c-0.1,0.1 -0.1,0.2 -0.1,0.3l0.5,2.8c0.1,0.5 -0.1,1 -0.6,1.4c-0.4,0.3 -1,0.4 -1.5,0.1l-2.5,-1.3c-0.1,-0.1 -0.2,-0.1 -0.4,0l-2.5,1.3c-0.1,0.1 -0.3,0.2 -0.5,0.2zm3.3,-12.1c-0.1,0 -0.2,0 -0.3,0.2l-1.3,2.6c-0.2,0.4 -0.6,0.7 -1,0.8l-2.8,0.4c-0.2,0 -0.3,0.2 -0.3,0.3s-0.1,0.2 0.1,0.4l2,2c0.3,0.3 0.5,0.8 0.4,1.2l-0.5,2.8c0,0.2 0.1,0.3 0.2,0.4c0.1,0 0.2,0.1 0.4,0l2.5,-1.3c0.4,-0.2 0.9,-0.2 1.3,0l2.5,1.3c0.2,0.1 0.3,0 0.4,0c0.1,0 0.2,-0.2 0.2,-0.4l-0.5,-2.8c-0.1,-0.4 0.1,-0.9 0.4,-1.2l2,-2c0.2,-0.2 0.1,-0.3 0.1,-0.4c0,-0.1 -0.1,-0.2 -0.3,-0.3l-2.8,-0.4c-0.5,-0.1 -0.8,-0.3 -1,-0.8l-1.3,-2.6l0,0c-0.1,-0.2 -0.3,-0.2 -0.4,-0.2z"/>
      </g>
     </g>
    </g>
   </g>
   <g id="svg_1093">
    <g id="svg_1094">
     <g id="svg_1095">
      <g id="svg_1096">
       <path id="svg_1097" d="m114.7,65.8l1.3,2.6c0.1,0.3 0.4,0.4 0.7,0.5l2.8,0.4c0.7,0.1 1,1 0.5,1.5l-2,2c-0.2,0.2 -0.3,0.5 -0.3,0.8l0.5,2.8c0.1,0.7 -0.6,1.3 -1.3,0.9l-2.5,-1.3c-0.3,-0.1 -0.6,-0.1 -0.8,0l-2.5,1.3c-0.6,0.3 -1.4,-0.2 -1.3,-0.9l0.5,-2.8c0,-0.3 0,-0.6 -0.3,-0.8l-2,-2c-0.5,-0.5 -0.2,-1.4 0.5,-1.5l2.8,-0.4c0.3,0 0.5,-0.2 0.7,-0.5l1.3,-2.6c0.1,-0.7 1.1,-0.7 1.4,0z" class="st3"/>
      </g>
     </g>
    </g>
    <g id="svg_1098">
     <g id="svg_1099">
      <g id="svg_1100">
       <path id="svg_1101" d="m110.5,77.9c-0.3,0 -0.6,-0.1 -0.8,-0.3c-0.4,-0.3 -0.6,-0.8 -0.6,-1.4l0.5,-2.8c0,-0.1 0,-0.3 -0.1,-0.3l-2,-2c-0.4,-0.4 -0.5,-0.9 -0.4,-1.4c0.2,-0.5 0.6,-0.9 1.1,-0.9l2.8,-0.4c0.1,0 0.2,-0.1 0.3,-0.2l1.3,-2.6c0.2,-0.5 0.7,-0.8 1.2,-0.8c0,0 0,0 0,0c0.5,0 1,0.3 1.2,0.8l0,0l1.3,2.6c0.1,0.1 0.2,0.2 0.3,0.2l2.8,0.4c0.5,0.1 1,0.4 1.1,0.9c0.2,0.5 0,1 -0.3,1.4l-2,2c-0.1,0.1 -0.1,0.2 -0.1,0.3l0.5,2.8c0.1,0.5 -0.1,1 -0.6,1.4s-1,0.4 -1.5,0.1l-2.5,-1.3c-0.1,-0.1 -0.2,-0.1 -0.4,0l-2.5,1.3c-0.1,0.1 -0.3,0.2 -0.6,0.2zm3.4,-12.1l0,0c-0.1,0 -0.2,0 -0.3,0.2l-1.3,2.6c-0.2,0.4 -0.6,0.7 -1,0.8l-2.8,0.4c-0.2,0 -0.3,0.2 -0.3,0.3s-0.1,0.2 0.1,0.4l2,2c0.3,0.3 0.5,0.8 0.4,1.2l-0.5,2.8c0,0.2 0.1,0.3 0.2,0.4c0.1,0 0.2,0.1 0.4,0l2.5,-1.3c0.4,-0.2 0.9,-0.2 1.3,0l2.5,1.3c0.2,0.1 0.3,0 0.4,0c0.1,0 0.2,-0.2 0.2,-0.4l-0.5,-2.8c-0.1,-0.4 0.1,-0.9 0.4,-1.2l2,-2c0.2,-0.2 0.1,-0.3 0.1,-0.4s-0.1,-0.2 -0.3,-0.3l-2.8,-0.4c-0.5,-0.1 -0.8,-0.3 -1,-0.8l-1.3,-2.6c-0.2,-0.2 -0.3,-0.2 -0.4,-0.2z"/>
      </g>
     </g>
    </g>
   </g>
   <g id="svg_1102">
    <g id="svg_1103">
     <g id="svg_1104">
      <g id="svg_1105">
       <path id="svg_1106" d="m131.2,65.8l1.3,2.6c0.1,0.3 0.4,0.4 0.7,0.5l2.8,0.4c0.7,0.1 1,1 0.5,1.5l-2,2c-0.2,0.2 -0.3,0.5 -0.3,0.8l0.5,2.8c0.1,0.7 -0.6,1.3 -1.3,0.9l-2.5,-1.3c-0.3,-0.1 -0.6,-0.1 -0.8,0l-2.5,1.3c-0.6,0.3 -1.4,-0.2 -1.3,-0.9l0.5,-2.8c0,-0.3 0,-0.6 -0.3,-0.8l-2,-2c-0.5,-0.5 -0.2,-1.4 0.5,-1.5l2.8,-0.4c0.3,0 0.5,-0.2 0.7,-0.5l1.3,-2.6c0.2,-0.7 1.1,-0.7 1.4,0z" class="st3"/>
      </g>
     </g>
    </g>
    <g id="svg_1107">
     <g id="svg_1108">
      <g id="svg_1109">
       <path id="svg_1110" d="m133.8,77.9c-0.2,0 -0.4,-0.1 -0.6,-0.2l-2.5,-1.3c-0.1,-0.1 -0.2,-0.1 -0.4,0l-2.5,1.3c-0.5,0.2 -1,0.2 -1.5,-0.1c-0.4,-0.3 -0.6,-0.8 -0.6,-1.4l0.5,-2.8c0,-0.1 0,-0.3 -0.1,-0.3l-2,-2c-0.4,-0.4 -0.5,-0.9 -0.4,-1.4c0.2,-0.5 0.6,-0.9 1.1,-0.9l2.8,-0.4c0.1,0 0.2,-0.1 0.3,-0.2l1.3,-2.6c0.2,-0.5 0.7,-0.8 1.2,-0.8s1,0.3 1.2,0.8l1.3,2.6c0.1,0.1 0.2,0.2 0.3,0.2l2.8,0.4c0.5,0.1 1,0.4 1.1,0.9c0.2,0.5 0,1 -0.3,1.4l-2,2c-0.1,0.1 -0.1,0.2 -0.1,0.3l0.5,2.8c0.1,0.5 -0.1,1 -0.6,1.4c-0.2,0.2 -0.5,0.3 -0.8,0.3zm-3.4,-2.5c0.2,0 0.4,0.1 0.6,0.2l2.5,1.3c0.2,0.1 0.3,0 0.4,0c0.1,0 0.2,-0.2 0.2,-0.4l-0.5,-2.8c-0.1,-0.5 0.1,-0.9 0.4,-1.2l2,-2c0.2,-0.2 0.1,-0.3 0.1,-0.4c0,-0.1 -0.1,-0.2 -0.3,-0.3l-2.8,-0.4c-0.5,-0.1 -0.8,-0.3 -1,-0.8l-1.3,-2.6l0,0c-0.1,-0.2 -0.3,-0.2 -0.3,-0.2s-0.2,0 -0.3,0.2l-1.3,2.6c-0.2,0.4 -0.6,0.7 -1,0.8l-2.8,0.4c-0.2,0 -0.3,0.2 -0.3,0.3c0,0.1 -0.1,0.2 0.1,0.4l2,2c0.3,0.3 0.5,0.8 0.4,1.2l-0.5,2.8c0,0.2 0.1,0.3 0.2,0.4s0.2,0.1 0.4,0l2.5,-1.3c0.2,-0.2 0.4,-0.2 0.6,-0.2z"/>
      </g>
     </g>
    </g>
   </g>
  </g>
 </g>
 <g>
  <title>Layer 2</title>
  <rect fill="none" y="0" x="0" height="100%" width="100%" id="backgroundrect"/>
 </g>
 <g>
  <title>background</title>
  <rect fill="none" id="canvas_background" height="282" width="502" y="-1" x="-1"/>
 </g>
</svg>