<svg width="500" height="280" xmlns="http://www.w3.org/2000/svg">

 <style type="text/css">.st0{fill:#E6E7E8;}
	.st1{fill:#FFFFFF;}
	.st2{fill:#FFD16C;}
	.st3{fill:#FFD16D;}
	.st4{fill:#C7C8CA;}
	.st5{fill:#C7C8C9;}
	.st6{fill:#FFFFFF;stroke:#000000;stroke-width:2;stroke-linecap:round;stroke-linejoin:round;stroke-miterlimit:10;}</style>
 <g class="currentLayer">
  <title>Layer 1</title>
  <g id="svg_82">
   <g id="svg_83">
    <g id="svg_84">
     <g id="svg_85">
      <polygon id="svg_86" points="190.3000030517578,126.39999389648438 190.3000030517578,133.10000610351562 186.60000610351562,130.5 186.60000610351562,125.79998779296875 " class="st0"/>
     </g>
    </g>
   </g>
  </g>
  <g id="svg_87">
   <g id="svg_88">
    <g id="svg_89">
     <g id="svg_90">
      <polygon id="svg_91" points="252,126.39999389648438 252,133.10000610351562 248.3000030517578,130.5 248.3000030517578,125.79998779296875 " class="st0"/>
     </g>
    </g>
   </g>
  </g>
  <g id="svg_92">
   <g id="svg_93">
    <g id="svg_94">
     <g id="svg_95">
      <polygon id="svg_96" points="312.70001220703125,126.39999389648438 312.70001220703125,133.10000610351562 309.1000061035156,130.5 309.1000061035156,125.79998779296875 " class="st0"/>
     </g>
    </g>
   </g>
  </g>
  <g id="svg_97">
   <g id="svg_98">
    <g id="svg_99">
     <g id="svg_100">
      <path id="svg_101" d="m334.4,231.8l-162.8,0c-0.3,0 -0.5,-0.2 -0.5,-0.5s0.2,-0.5 0.5,-0.5l162.7,0c0.3,0 0.5,0.2 0.5,0.5s-0.2,0.5 -0.4,0.5z"/>
     </g>
    </g>
   </g>
  </g>
  <g id="svg_102">
   <g id="svg_103">
    <g id="svg_104">
     <g id="svg_105">
      <path id="svg_106" d="m205,187.1c-1.1,20.6 -3,44.3 -3.2,47.7c-0.3,4.3 -7.7,4.5 -7.9,-0.6c-0.4,-10.9 -1.2,-34.2 -1.2,-39.5" class="st1"/>
     </g>
    </g>
   </g>
   <g id="svg_107">
    <g id="svg_108">
     <g id="svg_109">
      <path id="svg_110" d="m197.9,239c0,0 -0.1,0 0,0c-2.4,0 -4.9,-1.5 -5,-4.8c-0.4,-10.6 -1.2,-34.2 -1.2,-39.5c0,-0.6 0.4,-1 1,-1s1,0.4 1,1c0,5.3 0.8,28.8 1.2,39.4c0.1,2.1 1.7,2.8 3,2.8c1.3,0 2.8,-0.7 2.9,-2.3l0.2,-2.5c0.6,-7.5 2.1,-27.4 3,-45.2c0,-0.6 0.5,-1 1.1,-0.9c0.6,0 1,0.5 0.9,1.1c-0.9,17.8 -2.4,37.7 -3,45.2l-0.2,2.5c-0.2,2.8 -2.6,4.2 -4.9,4.2z"/>
     </g>
    </g>
   </g>
  </g>
  <g id="svg_111">
   <g id="svg_112">
    <g id="svg_113">
     <g id="svg_114">
      <g id="svg_115">
       <path id="svg_116" d="m192.6,194.8c0,5.3 0.8,28.6 1.2,39.5c0.1,2.4 1.8,3.6 3.6,3.8l0,-46.2l-4.8,2.9z" class="st0"/>
      </g>
     </g>
    </g>
   </g>
   <g id="svg_117">
    <g id="svg_118">
     <g id="svg_119">
      <g id="svg_120">
       <path id="svg_121" d="m197.9,239c0,0 -0.1,0 0,0c-2.4,0 -4.9,-1.5 -5,-4.8c-0.4,-10.6 -1.2,-34.2 -1.2,-39.5c0,-0.6 0.4,-1 1,-1s1,0.4 1,1c0,5.3 0.8,28.8 1.2,39.4c0.1,2.1 1.7,2.8 3,2.8c1.3,0 2.8,-0.7 2.9,-2.3l0.2,-2.5c0.6,-7.5 2.1,-27.4 3,-45.2c0,-0.6 0.5,-1 1.1,-0.9c0.6,0 1,0.5 0.9,1.1c-0.9,17.8 -2.4,37.7 -3,45.2l-0.2,2.5c-0.2,2.8 -2.6,4.2 -4.9,4.2z"/>
      </g>
     </g>
    </g>
   </g>
  </g>
  <g id="svg_122">
   <g id="svg_123">
    <g id="svg_124">
     <g id="svg_125">
      <path id="svg_126" d="m180.3,187.1c1.1,20.6 3,44.3 3.2,47.7c0.3,4.3 7.7,4.5 7.9,-0.6c0.4,-10.9 1.2,-34.2 1.2,-39.5" class="st1"/>
     </g>
    </g>
   </g>
   <g id="svg_127">
    <g id="svg_128">
     <g id="svg_129">
      <path id="svg_130" d="m187.4,239c-2.3,0 -4.7,-1.4 -4.9,-4.1l-0.2,-2.5c-0.6,-7.5 -2.1,-27.4 -3,-45.2c0,-0.6 0.4,-1 0.9,-1.1c0.5,0 1,0.4 1.1,0.9c0.9,17.8 2.4,37.7 3,45.2l0.2,2.5c0.1,1.6 1.6,2.3 2.9,2.3c1.3,0 2.9,-0.8 3,-2.8c0.4,-10.6 1.2,-34.2 1.2,-39.4c0,-0.6 0.4,-1 1,-1s1,0.4 1,1c0,5.3 -0.8,28.9 -1.2,39.5c-0.1,3.2 -2.6,4.7 -5,4.7c0,0 0,0 0,0z"/>
     </g>
    </g>
   </g>
  </g>
  <g id="svg_131">
   <g id="svg_132">
    <g id="svg_133">
     <g id="svg_134">
      <path id="svg_135" d="m180.3,187.1c1.1,20.6 3,44.3 3.2,47.7c0.1,1.8 1.4,2.8 3,3.1l0,-47l-6.2,-3.8z" class="st0"/>
     </g>
    </g>
   </g>
  </g>
  <g id="svg_136">
   <g id="svg_137">
    <g id="svg_138">
     <g id="svg_139">
      <path id="svg_140" d="m187.4,239c-2.3,0 -4.7,-1.4 -4.9,-4.1l-0.2,-2.5c-0.6,-7.5 -2.1,-27.4 -3,-45.2c0,-0.6 0.4,-1 0.9,-1.1c0.5,0 1,0.4 1.1,0.9c0.9,17.8 2.4,37.7 3,45.2l0.2,2.5c0.1,1.6 1.6,2.3 2.9,2.3c1.3,0 2.9,-0.8 3,-2.8c0.4,-10.6 1.2,-34.2 1.2,-39.4c0,-0.6 0.4,-1 1,-1s1,0.4 1,1c0,5.3 -0.8,28.9 -1.2,39.5c-0.1,3.2 -2.6,4.7 -5,4.7c0,0 0,0 0,0z"/>
     </g>
    </g>
   </g>
  </g>
  <g id="svg_141">
   <g id="svg_142">
    <g id="svg_143">
     <g id="svg_144">
      <g id="svg_145">
       <path id="svg_146" d="m266.2,178.5c-1.1,24.2 -3,51.9 -3.2,55.8c-0.3,5 -7.7,5.2 -7.9,-0.7c-0.4,-12.7 -1.2,-40 -1.2,-46.2" class="st1"/>
      </g>
     </g>
    </g>
    <g id="svg_147">
     <g id="svg_148">
      <g id="svg_149">
       <path id="svg_150" d="m259.1,239c0,0 0,0 0,0c-2.4,0 -4.9,-1.7 -5,-5.4c-0.4,-12.5 -1.2,-40.1 -1.2,-46.2c0,-0.6 0.4,-1 1,-1s1,0.4 1,1c0,6.2 0.8,33.7 1.2,46.2c0.1,2.5 1.7,3.5 3,3.5c1.3,0 2.8,-0.9 2.9,-2.8l0.2,-2.9c0.6,-8.8 2.1,-32.1 3,-52.9c0,-0.6 0.5,-1 1,-1c0.6,0 1,0.5 1,1c-0.9,20.8 -2.4,44.1 -3,52.9l-0.2,2.9c-0.2,3.1 -2.6,4.7 -4.9,4.7z"/>
      </g>
     </g>
    </g>
   </g>
   <g id="svg_151">
    <g id="svg_152">
     <g id="svg_153">
      <g id="svg_154">
       <path id="svg_155" d="m241.5,178.5c1.1,24.2 3,51.9 3.2,55.8c0.3,5 7.7,5.2 7.9,-0.7c0.4,-12.7 1.2,-40 1.2,-46.2" class="st1"/>
      </g>
     </g>
    </g>
    <g id="svg_156">
     <g id="svg_157">
      <g id="svg_158">
       <path id="svg_159" d="m248.6,239c-2.3,0 -4.7,-1.6 -4.9,-4.7l-0.2,-2.9c-0.6,-8.8 -2.1,-32.1 -3,-53c0,-0.6 0.4,-1 1,-1c0.5,0 1,0.4 1,1c0.9,20.9 2.4,44.2 3,52.9l0.2,2.9c0.1,1.9 1.6,2.8 2.9,2.8c0,0 0,0 0,0c1.3,0 2.9,-0.9 3,-3.5c0.4,-12.4 1.2,-40 1.2,-46.2c0,-0.6 0.4,-1 1,-1s1,0.4 1,1c0,6.2 -0.8,33.8 -1.2,46.2c-0.1,3.8 -2.6,5.5 -5,5.5c0,0 0,0 0,0z"/>
      </g>
     </g>
    </g>
   </g>
  </g>
  <g id="svg_160">
   <g id="svg_161">
    <g id="svg_162">
     <g id="svg_163">
      <g id="svg_164">
       <path id="svg_165" d="m270.5,136.4c-0.3,0 -0.5,-0.2 -0.5,-0.5l0,-28.4c0,-0.3 0.2,-0.5 0.5,-0.5s0.5,0.2 0.5,0.5l0,28.4c0,0.3 -0.2,0.5 -0.5,0.5z"/>
      </g>
     </g>
    </g>
   </g>
   <g id="svg_166">
    <g id="svg_167">
     <g id="svg_168">
      <g id="svg_169">
       <path id="svg_170" d="m394.834947,267.849187c-0.3,0 -0.5,-0.2 -0.5,-0.5l0,-28.4c0,-0.3 0.2,-0.5 0.5,-0.5s0.5,0.2 0.5,0.5l0,28.4c0,0.3 -0.2,0.5 -0.5,0.5z"/>
      </g>
     </g>
    </g>
   </g>
   <g id="svg_171">
    <g id="svg_172">
     <g id="svg_173">
      <g id="svg_174">
       <path id="svg_175" d="m263.1,136.4c-0.3,0 -0.5,-0.2 -0.5,-0.5l0,-28.4c0,-0.3 0.2,-0.5 0.5,-0.5s0.5,0.2 0.5,0.5l0,28.4c0,0.3 -0.2,0.5 -0.5,0.5z"/>
      </g>
     </g>
    </g>
   </g>
   <g id="svg_176">
    <g id="svg_177">
     <g id="svg_178">
      <g id="svg_179">
       <path id="svg_180" d="m259.4,136.9c-0.6,0 -1,-0.4 -1,-1l0,-28.4c0,-0.6 0.4,-1 1,-1s1,0.4 1,1l0,28.4c0,0.6 -0.4,1 -1,1z"/>
      </g>
     </g>
    </g>
   </g>
   <g id="svg_181">
    <g id="svg_182">
     <g id="svg_183">
      <g id="svg_184">
       <path id="svg_185" d="m248.3,136.9c-0.6,0 -1,-0.4 -1,-1l0,-28.4c0,-0.6 0.4,-1 1,-1s1,0.4 1,1l0,28.4c0,0.6 -0.4,1 -1,1z"/>
      </g>
     </g>
    </g>
   </g>
   <g id="svg_186">
    <g id="svg_187">
     <g id="svg_188">
      <g id="svg_189">
       <path id="svg_190" d="m244.6,136.4c-0.3,0 -0.5,-0.2 -0.5,-0.5l0,-28.4c0,-0.3 0.2,-0.5 0.5,-0.5s0.5,0.2 0.5,0.5l0,28.4c0,0.3 -0.2,0.5 -0.5,0.5z"/>
      </g>
     </g>
    </g>
   </g>
   <g id="svg_191">
    <g id="svg_192">
     <g id="svg_193">
      <g id="svg_194">
       <path id="svg_195" d="m240.9,136.4c-0.3,0 -0.5,-0.2 -0.5,-0.5l0,-28.4c0,-0.3 0.2,-0.5 0.5,-0.5s0.5,0.2 0.5,0.5l0,28.4c0,0.3 -0.2,0.5 -0.5,0.5z"/>
      </g>
     </g>
    </g>
   </g>
   <g id="svg_196">
    <g id="svg_197">
     <g id="svg_198">
      <g id="svg_199">
       <path id="svg_200" d="m237.2,136.4c-0.3,0 -0.5,-0.2 -0.5,-0.5l0,-28.4c0,-0.3 0.2,-0.5 0.5,-0.5s0.5,0.2 0.5,0.5l0,28.4c0,0.3 -0.2,0.5 -0.5,0.5z"/>
      </g>
     </g>
    </g>
   </g>
  </g>
  <g id="svg_201">
   <g id="svg_202">
    <g id="svg_203">
     <g id="svg_204">
      <path id="svg_205" d="m327.4,178.5c-1.1,24.2 -3,51.9 -3.2,55.8c-0.3,5 -7.7,5.2 -7.9,-0.7c-0.4,-12.7 -1.2,-40 -1.2,-46.2" class="st1"/>
     </g>
    </g>
   </g>
   <g id="svg_206">
    <g id="svg_207">
     <g id="svg_208">
      <path id="svg_209" d="m320.4,239c-0.1,0 -0.1,0 0,0c-2.4,0 -4.9,-1.7 -5,-5.4c-0.4,-12.5 -1.2,-40.1 -1.2,-46.2c0,-0.6 0.4,-1 1,-1s1,0.4 1,1c0,6.2 0.8,33.7 1.2,46.2c0.1,2.5 1.7,3.5 3,3.5c1.3,0 2.8,-0.9 2.9,-2.8l0.2,-2.9c0.6,-8.8 2.1,-32.1 3,-52.9c0,-0.6 0.5,-1 1,-1c0.6,0 1,0.5 1,1c-0.9,20.9 -2.4,44.2 -3,53l-0.2,2.9c-0.3,3 -2.7,4.6 -4.9,4.6z"/>
     </g>
    </g>
   </g>
  </g>
  <g id="svg_210">
   <g id="svg_211">
    <g id="svg_212">
     <g id="svg_213">
      <path id="svg_214" d="m302.8,178.5c1.1,24.2 3,51.9 3.2,55.8c0.3,5 7.7,5.2 7.9,-0.7c0.4,-12.7 1.2,-40 1.2,-46.2" class="st1"/>
     </g>
    </g>
   </g>
   <g id="svg_215">
    <g id="svg_216">
     <g id="svg_217">
      <path id="svg_218" d="m309.8,239c-2.3,0 -4.7,-1.6 -4.9,-4.7l-0.2,-2.9c-0.6,-8.8 -2.1,-32.1 -3,-53c0,-0.6 0.4,-1 1,-1c0.5,0 1,0.4 1,1c0.9,20.9 2.4,44.2 3,52.9l0.2,2.9c0.1,2 1.6,2.8 2.9,2.8c1.3,0 2.9,-0.9 3,-3.5c0.4,-12.4 1.2,-40 1.2,-46.2c0,-0.6 0.4,-1 1,-1s1,0.4 1,1c0,6.2 -0.8,33.8 -1.2,46.2c-0.1,3.8 -2.6,5.5 -5,5.5c0.1,0 0.1,0 0,0z"/>
     </g>
    </g>
   </g>
  </g>
  <g id="svg_219">
   <g id="svg_220">
    <g id="svg_221">
     <g id="svg_222">
      <ellipse id="svg_223" ry="18.1" rx="16.4" cy="108.5" cx="192.600006" class="st1"/>
     </g>
    </g>
   </g>
   <g id="svg_224">
    <g id="svg_225">
     <g id="svg_226">
      <path id="svg_227" d="m192.6,127.6c-9.6,0 -17.4,-8.6 -17.4,-19.1c0,-10.5 7.8,-19.1 17.4,-19.1s17.4,8.6 17.4,19.1c0,10.5 -7.8,19.1 -17.4,19.1zm0,-36.2c-8.5,0 -15.4,7.7 -15.4,17.1s6.9,17.1 15.4,17.1c8.5,0 15.4,-7.7 15.4,-17.1s-6.9,-17.1 -15.4,-17.1z"/>
     </g>
    </g>
   </g>
  </g>
  <g id="svg_228">
   <g id="svg_229">
    <g id="svg_230">
     <g id="svg_231">
      <path id="svg_232" d="m192.6,122.7c-7.1,0 -12.9,-6.4 -12.9,-14.2c0,-0.2 0.2,-0.4 0.4,-0.4s0.4,0.2 0.4,0.4c0,7.4 5.4,13.5 12.1,13.5s12.1,-6 12.1,-13.5c0,-0.2 0.2,-0.4 0.4,-0.4s0.4,0.2 0.4,0.4c0,7.8 -5.8,14.2 -12.9,14.2z"/>
     </g>
    </g>
   </g>
  </g>
  <g id="svg_233">
   <g id="svg_234">
    <g id="svg_235">
     <g id="svg_236">
      <g id="svg_237">
       <path id="svg_238" d="m191,113.2c-0.2,0 -0.4,-0.2 -0.4,-0.4c0,-1.2 -1,-2.2 -2.2,-2.2c-1.2,0 -2.2,1 -2.2,2.2c0,0.2 -0.2,0.4 -0.4,0.4s-0.4,-0.2 -0.4,-0.4c0,-1.6 1.3,-3 3,-3c1.6,0 3,1.3 3,3c0,0.2 -0.2,0.4 -0.4,0.4z"/>
      </g>
     </g>
    </g>
   </g>
   <g id="svg_239">
    <g id="svg_240">
     <g id="svg_241">
      <g id="svg_242">
       <path id="svg_243" d="m199.4,113.2c-0.2,0 -0.4,-0.2 -0.4,-0.4c0,-1.2 -1,-2.2 -2.2,-2.2c-1.2,0 -2.2,1 -2.2,2.2c0,0.2 -0.2,0.4 -0.4,0.4s-0.4,-0.2 -0.4,-0.4c0,-1.6 1.3,-3 3,-3c1.6,0 3,1.3 3,3c0,0.2 -0.2,0.4 -0.4,0.4z"/>
      </g>
     </g>
    </g>
   </g>
  </g>
  <g id="svg_244">
   <g id="svg_245">
    <g id="svg_246">
     <g id="svg_247">
      <path id="svg_248" d="m207.2,100.2c0,0 -5.6,5.1 -17.5,4.5c-8,-0.4 -11,-4 -17.4,-6.6c0,0 11.7,-10 21.8,-7.8c10.3,2.2 13.1,9.9 13.1,9.9z"/>
     </g>
    </g>
   </g>
   <g id="svg_249">
    <g id="svg_250">
     <g id="svg_251">
      <path id="svg_252" d="m191.9,105.8c-0.7,0 -1.4,0 -2.1,-0.1c-5.6,-0.3 -8.9,-2.1 -12.4,-4c-1.6,-0.9 -3.3,-1.8 -5.3,-2.6c-0.3,-0.1 -0.6,-0.4 -0.6,-0.8c-0.1,-0.3 0.1,-0.7 0.3,-0.9c0.5,-0.4 12.2,-10.2 22.7,-8c10.5,2.3 13.6,10.2 13.7,10.5c0.1,0.4 0,0.8 -0.3,1.1c-0.2,0.2 -5.4,4.8 -16,4.8zm-17.6,-7.9c1.4,0.7 2.7,1.4 3.9,2c3.4,1.9 6.4,3.5 11.6,3.8c9.2,0.5 14.5,-2.6 16.2,-3.8c-0.9,-1.8 -4.1,-6.9 -12,-8.6c-7.6,-1.6 -16.4,4.2 -19.7,6.6z"/>
     </g>
    </g>
   </g>
  </g>
  <g id="svg_253">
   <g id="svg_254">
    <g id="svg_255">
     <g id="svg_256">
      <ellipse id="svg_257" ry="18.1" rx="16.4" cy="108.5" cx="253.899994" class="st1"/>
     </g>
    </g>
   </g>
   <g id="svg_258">
    <g id="svg_259">
     <g id="svg_260">
      <path id="svg_261" d="m253.9,127.6c-9.6,0 -17.4,-8.6 -17.4,-19.1c0,-10.5 7.8,-19.1 17.4,-19.1s17.4,8.6 17.4,19.1c0,10.5 -7.8,19.1 -17.4,19.1zm0,-36.2c-8.5,0 -15.4,7.7 -15.4,17.1s6.9,17.1 15.4,17.1s15.4,-7.7 15.4,-17.1s-6.9,-17.1 -15.4,-17.1z"/>
     </g>
    </g>
   </g>
  </g>
  <g id="svg_262">
   <g id="svg_263">
    <g id="svg_264">
     <g id="svg_265">
      <path id="svg_266" d="m237.2,107.5c0,-10.2 7.5,-18.4 16.7,-18.4c9.2,0 16.7,8.2 16.7,18.4l-22.9,0l-1,-6.7l-1.1,6.7l-8.4,0z"/>
     </g>
    </g>
   </g>
   <g id="svg_267">
    <g id="svg_268">
     <g id="svg_269">
      <path id="svg_270" d="m270.5,108l-22.9,0c-0.2,0 -0.5,-0.2 -0.5,-0.4l-0.5,-3.6l-0.6,3.6c0,0.2 -0.2,0.4 -0.5,0.4l-8.3,0c-0.3,0 -0.5,-0.2 -0.5,-0.5c0,-10.4 7.7,-18.9 17.2,-18.9s17.2,8.5 17.2,18.9c-0.1,0.3 -0.3,0.5 -0.6,0.5zm-22.5,-1l22,0c-0.2,-9.7 -7.4,-17.4 -16.2,-17.4s-15.9,7.8 -16.2,17.4l7.4,0l1,-6.3c0,-0.2 0.2,-0.4 0.5,-0.4c0.2,0 0.5,0.2 0.5,0.4l1,6.3z"/>
     </g>
    </g>
   </g>
  </g>
  <g id="svg_271">
   <g id="svg_272">
    <g id="svg_273">
     <g id="svg_274">
      <g id="svg_275">
       <path id="svg_276" d="m252.3,113.2c-0.2,0 -0.4,-0.2 -0.4,-0.4c0,-1.2 -1,-2.2 -2.2,-2.2c-1.2,0 -2.2,1 -2.2,2.2c0,0.2 -0.2,0.4 -0.4,0.4s-0.4,-0.2 -0.4,-0.4c0,-1.6 1.3,-3 3,-3c1.6,0 3,1.3 3,3c-0.1,0.2 -0.2,0.4 -0.4,0.4z"/>
      </g>
     </g>
    </g>
   </g>
   <g id="svg_277">
    <g id="svg_278">
     <g id="svg_279">
      <g id="svg_280">
       <path id="svg_281" d="m260.6,113.2c-0.2,0 -0.4,-0.2 -0.4,-0.4c0,-1.2 -1,-2.2 -2.2,-2.2s-2.2,1 -2.2,2.2c0,0.2 -0.2,0.4 -0.4,0.4s-0.4,-0.2 -0.4,-0.4c0,-1.6 1.3,-3 3,-3s3,1.3 3,3c0,0.2 -0.2,0.4 -0.4,0.4z"/>
      </g>
     </g>
    </g>
   </g>
  </g>
  <g id="svg_282">
   <g id="svg_283">
    <g id="svg_284">
     <g id="svg_285">
      <path id="svg_286" d="m259.049739,117.581859c0,1.4 -1.2,2.6 -2.6,2.6s-2.6,-1.2 -2.6,-2.6l5.2,0z"/>
     </g>
    </g>
   </g>
  </g>
  <g id="svg_287">
   <g id="svg_288">
    <g id="svg_289">
     <g id="svg_290">
      <ellipse id="svg_291" ry="18.1" rx="16.4" cy="108.5" cx="315.100006" class="st1"/>
     </g>
    </g>
   </g>
   <g id="svg_292">
    <g id="svg_293">
     <g id="svg_294">
      <path id="svg_295" d="m315.1,127.6c-9.6,0 -17.4,-8.6 -17.4,-19.1c0,-10.5 7.8,-19.1 17.4,-19.1s17.4,8.6 17.4,19.1c0,10.5 -7.8,19.1 -17.4,19.1zm0,-36.2c-8.5,0 -15.4,7.7 -15.4,17.1s6.9,17.1 15.4,17.1s15.4,-7.7 15.4,-17.1s-6.9,-17.1 -15.4,-17.1z"/>
     </g>
    </g>
   </g>
  </g>
  <g id="svg_296">
   <g id="svg_297">
    <g id="svg_298">
     <g id="svg_299">
      <path id="svg_300" d="m315.1,122.7c-7.1,0 -12.9,-6.4 -12.9,-14.2c0,-0.2 0.2,-0.4 0.4,-0.4s0.4,0.2 0.4,0.4c0,7.4 5.4,13.5 12.1,13.5s12.1,-6 12.1,-13.5c0,-0.2 0.2,-0.4 0.4,-0.4s0.4,0.2 0.4,0.4c0,7.8 -5.8,14.2 -12.9,14.2z"/>
     </g>
    </g>
   </g>
  </g>
  <g id="svg_301">
   <g id="svg_302">
    <g id="svg_303">
     <g id="svg_304">
      <g id="svg_305">
       <path id="svg_306" d="m313.5,113.2c-0.2,0 -0.4,-0.2 -0.4,-0.4c0,-1.2 -1,-2.2 -2.2,-2.2c-1.2,0 -2.2,1 -2.2,2.2c0,0.2 -0.2,0.4 -0.4,0.4s-0.4,-0.2 -0.4,-0.4c0,-1.6 1.3,-3 3,-3c1.6,0 3,1.3 3,3c0,0.2 -0.2,0.4 -0.4,0.4z"/>
      </g>
     </g>
    </g>
   </g>
   <g id="svg_307">
    <g id="svg_308">
     <g id="svg_309">
      <g id="svg_310">
       <path id="svg_311" d="m321.9,113.2c-0.2,0 -0.4,-0.2 -0.4,-0.4c0,-1.2 -1,-2.2 -2.2,-2.2c-1.2,0 -2.2,1 -2.2,2.2c0,0.2 -0.2,0.4 -0.4,0.4s-0.4,-0.2 -0.4,-0.4c0,-1.6 1.3,-3 3,-3c1.6,0 3,1.3 3,3c-0.1,0.2 -0.2,0.4 -0.4,0.4z"/>
      </g>
     </g>
    </g>
   </g>
  </g>
  <g id="svg_312">
   <g id="svg_313">
    <g id="svg_314">
     <g id="svg_315">
      <path id="svg_316" d="m199.3,129.9c0,0 -4.7,4.1 -6.7,4.1c-2,0 -6.7,-4.1 -6.7,-4.1l-9.7,3l3,66.4l26.8,0l3,-66.4l-9.7,-3z" class="st1"/>
     </g>
    </g>
   </g>
   <g id="svg_317">
    <g id="svg_318">
     <g id="svg_319">
      <path id="svg_320" d="m206,200.3l-26.8,0c-0.5,0 -1,-0.4 -1,-1l-3,-66.4c0,-0.5 0.3,-0.9 0.7,-1l9.7,-3c0.3,-0.1 0.7,0 1,0.2c2.1,1.9 5,3.9 6,3.9c1,0 3.9,-2 6,-3.9c0.3,-0.2 0.6,-0.3 1,-0.2l9.7,3c0.4,0.1 0.7,0.5 0.7,1l-3,66.4c0,0.6 -0.4,1 -1,1zm-25.8,-2l24.9,0l2.9,-64.7l-8.4,-2.6c-1.4,1.2 -5,4 -6.9,4c-2,0 -5.5,-2.9 -6.9,-4l-8.4,2.6l2.8,64.7z"/>
     </g>
    </g>
   </g>
  </g>
  <g id="svg_321">
   <g id="svg_322">
    <g id="svg_323">
     <g id="svg_324">
      <path id="svg_325" d="m199.3,130.9c-0.6,0 -1,-0.4 -1,-1l0,-4.9c0,-0.6 0.4,-1 1,-1s1,0.4 1,1l0,4.9c0,0.6 -0.4,1 -1,1z"/>
     </g>
    </g>
   </g>
  </g>
  <g id="svg_326">
   <g id="svg_327">
    <g id="svg_328">
     <g id="svg_329">
      <path id="svg_330" d="m186,130.9c-0.6,0 -1,-0.4 -1,-1l0,-4.9c0,-0.6 0.4,-1 1,-1s1,0.4 1,1l0,4.9c0,0.6 -0.5,1 -1,1z"/>
     </g>
    </g>
   </g>
  </g>
  <g id="svg_331">
   <g id="svg_332">
    <g id="svg_333">
     <g id="svg_334">
      <path id="svg_335" d="m206.6,147l2.5,11c0.4,1.6 0.2,3.3 -0.3,4.8l-4.8,12.6l3.3,4l9.8,-16.6c1.1,-1.9 1.4,-4.3 0.7,-6.5l-6.9,-23.3l-2,-0.7" class="st1"/>
     </g>
    </g>
   </g>
   <g id="svg_336">
    <g id="svg_337">
     <g id="svg_338">
      <path id="svg_339" d="m207.3,180.5c-0.3,0 -0.6,-0.1 -0.8,-0.4l-3.3,-4c-0.2,-0.3 -0.3,-0.7 -0.2,-1l4.8,-12.6c0.5,-1.3 0.6,-2.8 0.3,-4.2l-2.5,-11c-0.1,-0.5 0.2,-1.1 0.8,-1.2c0.5,-0.1 1.1,0.2 1.2,0.8l2.5,11c0.4,1.8 0.3,3.7 -0.4,5.4l-4.6,12.1l2.1,2.4l9.1,-15.4c1,-1.6 1.2,-3.8 0.6,-5.7l-6.8,-22.8l-1.5,-0.6c-0.5,-0.2 -0.8,-0.8 -0.6,-1.3c0.2,-0.5 0.8,-0.8 1.3,-0.6l2,0.7c0.3,0.1 0.5,0.4 0.6,0.7l6.9,23.3c0.7,2.4 0.4,5.1 -0.8,7.3l-9.8,16.6c-0.2,0.3 -0.5,0.4 -0.9,0.5c0,0 0,0 0,0z"/>
     </g>
    </g>
   </g>
  </g>
  <g id="svg_340">
   <g id="svg_341">
    <g id="svg_342">
     <g id="svg_343">
      <path id="svg_344" d="m178.7,147l-2.5,11c-0.4,1.6 -0.2,3.3 0.3,4.8l4.8,12.6l-3.3,4.4l-9.9,-17.1c-1.1,-1.9 -1.4,-4.3 -0.7,-6.4l7,-23.3l2,-0.7" class="st1"/>
     </g>
    </g>
   </g>
   <g id="svg_345">
    <g id="svg_346">
     <g id="svg_347">
      <path id="svg_348" d="m178,180.9c0,0 0,0 0,0c-0.4,0 -0.7,-0.2 -0.9,-0.5l-9.9,-17.1c-1.2,-2.1 -1.5,-4.8 -0.8,-7.2l7,-23.3c0.1,-0.3 0.3,-0.5 0.6,-0.7l2,-0.7c0.5,-0.2 1.1,0.1 1.3,0.6c0.2,0.5 -0.1,1.1 -0.6,1.3l-1.5,0.6l-6.8,22.8c-0.6,1.9 -0.3,4 0.6,5.6l9.2,15.8l2.1,-2.7l-4.6,-12.1c-0.6,-1.7 -0.8,-3.6 -0.4,-5.4l2.5,-11c0.1,-0.5 0.7,-0.9 1.2,-0.8c0.5,0.1 0.9,0.7 0.8,1.2l-2.5,11c-0.3,1.4 -0.2,2.9 0.3,4.2l4.8,12.6c0.1,0.3 0.1,0.7 -0.1,1l-3.3,4.4c-0.4,0.2 -0.7,0.4 -1,0.4z"/>
     </g>
    </g>
   </g>
  </g>
  <g id="svg_349">
   <g id="svg_350">
    <g id="svg_351">
     <g id="svg_352">
      <path id="svg_353" d="m192.6,200.3c-0.6,0 -1,-0.4 -1,-1l0,-65.3c0,-0.6 0.4,-1 1,-1s1,0.4 1,1l0,65.2c0,0.6 -0.4,1.1 -1,1.1z"/>
     </g>
    </g>
   </g>
  </g>
  <g id="svg_354">
   <g id="svg_355">
    <g id="svg_356">
     <g id="svg_357">
      <line id="svg_358" y2="172.899994" x2="201.800003" y1="179.5" x1="207.300003" class="st1"/>
     </g>
    </g>
   </g>
   <g id="svg_359">
    <g id="svg_360">
     <g id="svg_361">
      <path id="svg_362" d="m207.3,180.5c-0.3,0 -0.6,-0.1 -0.8,-0.4l-5.5,-6.5c-0.4,-0.4 -0.3,-1.1 0.1,-1.4c0.4,-0.4 1.1,-0.3 1.4,0.1l5.5,6.5c0.4,0.4 0.3,1.1 -0.1,1.4c-0.2,0.2 -0.4,0.3 -0.6,0.3z"/>
     </g>
    </g>
   </g>
  </g>
  <g id="svg_363">
   <g id="svg_364">
    <g id="svg_365">
     <g id="svg_366">
      <line id="svg_367" y2="172.899994" x2="183.800003" y1="179.5" x1="178.300003" class="st1"/>
     </g>
    </g>
   </g>
   <g id="svg_368">
    <g id="svg_369">
     <g id="svg_370">
      <path id="svg_371" d="m178.3,180.5c-0.2,0 -0.5,-0.1 -0.6,-0.2c-0.4,-0.4 -0.5,-1 -0.1,-1.4l5.5,-6.5c0.4,-0.4 1,-0.5 1.4,-0.1c0.4,0.4 0.5,1 0.1,1.4l-5.5,6.5c-0.3,0.2 -0.5,0.3 -0.8,0.3z"/>
     </g>
    </g>
   </g>
  </g>
  <g id="svg_372">
   <g id="svg_373">
    <g id="svg_374">
     <g id="svg_375">
      <g id="svg_376">
       <path id="svg_377" d="m202.7,141c-0.2,0 -0.4,-0.2 -0.4,-0.4l0,-9.7c0,-0.2 0.2,-0.4 0.4,-0.4s0.4,0.2 0.4,0.4l0,9.7c0,0.2 -0.2,0.4 -0.4,0.4z"/>
      </g>
     </g>
    </g>
   </g>
   <g id="svg_378">
    <g id="svg_379">
     <g id="svg_380">
      <g id="svg_381">
       <path id="svg_382" d="m182.6,141c-0.2,0 -0.4,-0.2 -0.4,-0.4l0,-9.7c0,-0.2 0.2,-0.4 0.4,-0.4s0.4,0.2 0.4,0.4l0,9.7c-0.1,0.2 -0.2,0.4 -0.4,0.4z"/>
      </g>
     </g>
    </g>
   </g>
  </g>
  <g id="svg_383">
   <g id="svg_384">
    <g id="svg_385">
     <g id="svg_386">
      <circle id="svg_387" r="3.7" cy="147.200012" cx="200.600006" class="st2"/>
     </g>
    </g>
   </g>
  </g>
  <g id="svg_388">
   <g id="svg_389">
    <g id="svg_390">
     <g id="svg_391">
      <path id="svg_392" d="m308.4,130.9c-0.6,0 -1,-0.4 -1,-1l0,-4.9c0,-0.6 0.4,-1 1,-1s1,0.4 1,1l0,4.9c0,0.6 -0.4,1 -1,1z"/>
     </g>
    </g>
   </g>
  </g>
  <g id="svg_393">
   <g id="svg_394">
    <g id="svg_395">
     <g id="svg_396">
      <path id="svg_397" d="m321.8,130.9c-0.6,0 -1,-0.4 -1,-1l0,-4.9c0,-0.6 0.4,-1 1,-1s1,0.4 1,1l0,4.9c0,0.6 -0.5,1 -1,1z"/>
     </g>
    </g>
   </g>
  </g>
  <g id="svg_398">
   <g id="svg_399">
    <g id="svg_400">
     <g id="svg_401">
      <path id="svg_402" d="m338.1,145l-3.6,-9.5c-0.6,-1.6 -2,-2.9 -3.7,-3.3l-9,-2.3c0,0 -4.7,4.1 -6.7,4.1s-6.7,-4.1 -6.7,-4.1l-9,2.3c-1.7,0.4 -3.1,1.7 -3.7,3.3l-3.6,9.5" class="st1"/>
     </g>
    </g>
   </g>
   <g id="svg_403">
    <g id="svg_404">
     <g id="svg_405">
      <path id="svg_406" d="m338.1,146c-0.4,0 -0.8,-0.2 -0.9,-0.6l-3.6,-9.5c-0.5,-1.3 -1.6,-2.3 -3,-2.7l-8.6,-2.2c-1.4,1.2 -5,4 -6.9,4s-5.6,-2.9 -6.9,-4l-8.5,2.2c-1.4,0.4 -2.5,1.4 -3,2.7l-3.6,9.5c-0.2,0.5 -0.8,0.8 -1.3,0.6c-0.5,-0.2 -0.8,-0.8 -0.6,-1.3l3.6,-9.5c0.7,-1.9 2.4,-3.4 4.4,-3.9l9,-2.3c0.3,-0.1 0.7,0 0.9,0.2c2.1,1.9 5,3.9 6,3.9c1,0 3.9,-2 6,-3.9c0.2,-0.2 0.6,-0.3 0.9,-0.2l9,2.3c2,0.5 3.6,2 4.4,3.9l3.6,9.5c0.2,0.5 -0.1,1.1 -0.6,1.3c-0.1,0 -0.2,0 -0.3,0z"/>
     </g>
    </g>
   </g>
  </g>
  <g id="svg_407">
   <g id="svg_408">
    <g id="svg_409">
     <g id="svg_410">
      <polyline id="svg_411" points="328.6000061035156,142.60000610351562 329.8999938964844,147.20001220703125 328.5,178.5 301.70001220703125,178.5 300.29998779296875,147.20001220703125 302.1000061035156,142.60000610351562 " class="st1"/>
     </g>
    </g>
   </g>
   <g id="svg_412">
    <g id="svg_413">
     <g id="svg_414">
      <path id="svg_415" d="m328.5,179.5l-26.8,0c-0.5,0 -1,-0.4 -1,-1l-1.4,-31.2c0,-0.1 0,-0.3 0.1,-0.4l1.8,-4.6c0.2,-0.5 0.8,-0.8 1.3,-0.6c0.5,0.2 0.8,0.8 0.6,1.3l-1.7,4.4l1.3,30.1l24.9,0l1.3,-30.1l-1.2,-4.5c-0.1,-0.5 0.2,-1.1 0.7,-1.2c0.5,-0.1 1.1,0.2 1.2,0.7l1.3,4.6c0,0.1 0,0.2 0,0.3l-1.4,31.2c0,0.5 -0.5,1 -1,1z"/>
     </g>
    </g>
   </g>
  </g>
  <g id="svg_416">
   <g id="svg_417">
    <g id="svg_418">
     <g id="svg_419">
      <circle id="svg_420" r="3.7" cy="147.200012" cx="321.899994" class="st2"/>
     </g>
    </g>
   </g>
  </g>
  <g id="svg_421">
   <g id="svg_422">
    <g id="svg_423">
     <g id="svg_424">
      <path id="svg_425" d="m268.1,179.5l5.9,-12.9c1.8,-4 2.5,-8.4 1.9,-12.7l-2.6,-18.4c-0.6,-1.6 -2,-2.9 -3.7,-3.3l-9,-2.3c0,0 -4.7,4.1 -6.7,4.1s-6.7,-4.1 -6.7,-4.1l-9,2.3c-1.7,0.4 -3.1,1.7 -3.7,3.3l-2.6,18.4c-0.6,4.3 0,8.7 1.9,12.7l5.9,12.9" class="st1"/>
     </g>
    </g>
   </g>
   <g id="svg_426">
    <g id="svg_427">
     <g id="svg_428">
      <path id="svg_429" d="m239.6,180.5c-0.4,0 -0.7,-0.2 -0.9,-0.6l-5.9,-12.9c-1.9,-4.2 -2.6,-8.7 -1.9,-13.3l2.6,-18.4c0,-0.1 0,-0.1 0.1,-0.2c0.7,-1.9 2.4,-3.4 4.4,-3.9l9,-2.3c0.3,-0.1 0.7,0 0.9,0.2c2.1,1.9 5,3.9 6,3.9c1,0 3.9,-2 6,-3.9c0.2,-0.2 0.6,-0.3 0.9,-0.2l9,2.3c2,0.5 3.6,2 4.4,3.9c0,0.1 0,0.1 0.1,0.2l2.6,18.4c0.7,4.5 0,9.1 -1.9,13.3l-5.9,12.9c-0.2,0.5 -0.8,0.7 -1.3,0.5c-0.5,-0.2 -0.7,-0.8 -0.5,-1.3l5.9,-12.9c1.8,-3.8 2.4,-8 1.8,-12.2l-2.6,-18.3c-0.5,-1.3 -1.6,-2.2 -2.9,-2.6l-8.5,-2.2c-1.4,1.2 -5,4 -6.9,4s-5.6,-2.9 -6.9,-4l-8.5,2.2c-1.3,0.3 -2.4,1.3 -2.9,2.6l-2.6,18.3c-0.6,4.1 0,8.3 1.8,12.1l5.9,12.9c0.2,0.5 0,1.1 -0.5,1.3c-0.5,0.1 -0.6,0.2 -0.8,0.2z"/>
     </g>
    </g>
   </g>
  </g>
  <g id="svg_430">
   <g id="svg_431">
    <g id="svg_432">
     <g id="svg_433">
      <path id="svg_434" d="m237.5,143.5c-0.6,2.1 -0.1,4.4 0.5,6.1c0.7,2.2 1.1,4.5 1.2,6.8l1.3,61.9l26.8,0l1.3,-61.9c0,-2.3 0.4,-4.6 1.2,-6.8c0.6,-1.7 1.1,-4 0.5,-6.1" class="st1"/>
     </g>
    </g>
   </g>
   <g id="svg_435">
    <g id="svg_436">
     <g id="svg_437">
      <path id="svg_438" d="m267.3,219.2l-26.8,0c-0.5,0 -1,-0.4 -1,-1l-1.3,-61.9c0,-2.2 -0.4,-4.4 -1.1,-6.5c-0.6,-1.7 -1.2,-4.3 -0.5,-6.6c0.1,-0.5 0.7,-0.9 1.2,-0.7c0.5,0.1 0.9,0.7 0.7,1.2c-0.5,1.9 0,4 0.5,5.5c0.8,2.3 1.2,4.6 1.2,7.1l1.3,60.9l24.8,0l1.3,-60.9c0.1,-2.4 0.5,-4.8 1.2,-7.1c0.5,-1.5 1,-3.6 0.5,-5.5c-0.1,-0.5 0.2,-1.1 0.7,-1.2c0.5,-0.1 1.1,0.2 1.2,0.7c0.6,2.4 0.1,4.9 -0.5,6.6c-0.7,2.1 -1.1,4.2 -1.1,6.5l-1.3,61.9c-0.1,0.5 -0.5,1 -1,1z"/>
     </g>
    </g>
   </g>
  </g>
  <g id="svg_439">
   <g id="svg_440">
    <g id="svg_441">
     <g id="svg_442">
      <circle id="svg_443" r="3.7" cy="147.200012" cx="260.600006" class="st2"/>
     </g>
    </g>
   </g>
  </g>
  <g id="svg_444">
   <g id="svg_445">
    <g id="svg_446">
     <g id="svg_447">
      <g id="svg_448">
       <polygon id="svg_449" points="240.1999969482422,210.70001220703125 267.5,210.70001220703125 267.3999938964844,214 240.1999969482422,214 " class="st2"/>
      </g>
     </g>
    </g>
   </g>
   <g id="svg_450">
    <g id="svg_451">
     <g id="svg_452">
      <g id="svg_453">
       <polygon id="svg_454" points="240.1999969482422,204.79998779296875 267.5,204.79998779296875 267.3999938964844,208.10000610351562 240.1999969482422,208.10000610351562 " class="st2"/>
      </g>
     </g>
    </g>
   </g>
   <g id="svg_455">
    <g id="svg_456">
     <g id="svg_457">
      <g id="svg_458">
       <polygon id="svg_459" points="240.1999969482422,199 267.5,199 267.3999938964844,202.29998779296875 240.1999969482422,202.29998779296875 " class="st2"/>
      </g>
     </g>
    </g>
   </g>
   <g id="svg_460">
    <g id="svg_461">
     <g id="svg_462">
      <g id="svg_463">
       <polygon id="svg_464" points="240.1999969482422,193.10000610351562 267.5,193.10000610351562 267.3999938964844,196.39999389648438 240.1999969482422,196.39999389648438 " class="st2"/>
      </g>
     </g>
    </g>
   </g>
   <g id="svg_465">
    <g id="svg_466">
     <g id="svg_467">
      <g id="svg_468">
       <polygon id="svg_469" points="240.1999969482422,187.20001220703125 267.5,187.20001220703125 267.3999938964844,190.5 240.1999969482422,190.5 " class="st2"/>
      </g>
     </g>
    </g>
   </g>
   <g id="svg_470">
    <g id="svg_471">
     <g id="svg_472">
      <g id="svg_473">
       <polygon id="svg_474" points="240.1999969482422,181.29998779296875 267.5,181.29998779296875 267.3999938964844,184.60000610351562 240.1999969482422,184.60000610351562 " class="st2"/>
      </g>
     </g>
    </g>
   </g>
   <g id="svg_475">
    <g id="svg_476">
     <g id="svg_477">
      <g id="svg_478">
       <polygon id="svg_479" points="240.1999969482422,175.5 267.5,175.5 267.3999938964844,178.79998779296875 240.1999969482422,178.79998779296875 " class="st2"/>
      </g>
     </g>
    </g>
   </g>
   <g id="svg_480">
    <g id="svg_481">
     <g id="svg_482">
      <g id="svg_483">
       <polygon id="svg_484" points="262.8968200683594,163.70790100097656 290.19683837890625,163.70790100097656 290.0968322753906,175.4078826904297 262.8968200683594,175.4078826904297 " class="st2"/>
      </g>
     </g>
    </g>
   </g>
  </g>
  <g id="svg_485">
   <g id="svg_486">
    <g id="svg_487">
     <g id="svg_488">
      <path id="svg_489" d="m253.9,139.3c-2.1,0 -6,-7 -7.1,-9.2c-0.1,-0.2 0,-0.5 0.2,-0.7c0.2,-0.1 0.5,0 0.7,0.2c2.2,4.2 5.2,8.7 6.2,8.7c1,0 4,-4.5 6.2,-8.7c0.1,-0.2 0.4,-0.3 0.7,-0.2c0.2,0.1 0.3,0.4 0.2,0.7c-1.1,2.2 -5,9.2 -7.1,9.2z"/>
     </g>
    </g>
   </g>
  </g>
  <g id="svg_490">
   <g id="svg_491">
    <g id="svg_492">
     <g id="svg_493">
      <circle id="svg_494" r="1.6" cy="140.399994" cx="253.899994" class="st2"/>
     </g>
    </g>
   </g>
   <g id="svg_495">
    <g id="svg_496">
     <g id="svg_497">
      <path id="svg_498" d="m253.9,142.5c-1.2,0 -2.1,-0.9 -2.1,-2.1s0.9,-2.1 2.1,-2.1s2.1,0.9 2.1,2.1s-1,2.1 -2.1,2.1zm0,-3.2c-0.6,0 -1.1,0.5 -1.1,1.1s0.5,1.1 1.1,1.1s1.1,-0.5 1.1,-1.1s-0.5,-1.1 -1.1,-1.1z"/>
     </g>
    </g>
   </g>
  </g>
  <g id="svg_499">
   <g id="svg_500">
    <g id="svg_501">
     <g id="svg_502">
      <g id="svg_503">
       <path id="svg_504" d="m302.8,178.5c1.1,24.2 3,51.9 3.2,55.8c0.1,2.1 1.4,3.3 3,3.6l0,-59.5l-6.2,0l0,0.1z" class="st0"/>
      </g>
     </g>
    </g>
   </g>
   <g id="svg_505">
    <g id="svg_506">
     <g id="svg_507">
      <g id="svg_508">
       <path id="svg_509" d="m315.1,187.4c0,6.2 0.8,33.5 1.2,46.2c0.1,3 2,4.4 4,4.4l0,-36.3l-5.2,-14.3z" class="st0"/>
      </g>
     </g>
    </g>
   </g>
   <g id="svg_510">
    <g id="svg_511">
     <g id="svg_512">
      <g id="svg_513">
       <path id="svg_514" d="m320.4,239c-0.1,0 -0.1,0 0,0c-2.4,0 -4.9,-1.7 -5,-5.4c-0.4,-12.5 -1.2,-40.1 -1.2,-46.2c0,-0.6 0.4,-1 1,-1s1,0.4 1,1c0,6.2 0.8,33.7 1.2,46.2c0.1,2.5 1.7,3.5 3,3.5c1.3,0 2.8,-0.9 2.9,-2.8l0.2,-2.9c0.6,-8.8 2.1,-32.1 3,-52.9c0,-0.6 0.5,-1 1,-1c0.6,0 1,0.5 1,1c-0.9,20.9 -2.4,44.2 -3,53l-0.2,2.9c-0.3,3 -2.7,4.6 -4.9,4.6z"/>
      </g>
     </g>
    </g>
   </g>
   <g id="svg_515">
    <g id="svg_516">
     <g id="svg_517">
      <g id="svg_518">
       <path id="svg_519" d="m309.8,239c-2.3,0 -4.7,-1.6 -4.9,-4.7l-0.2,-2.9c-0.6,-8.8 -2.1,-32.1 -3,-53c0,-0.6 0.4,-1 1,-1c0.5,0 1,0.4 1,1c0.9,20.9 2.4,44.2 3,52.9l0.2,2.9c0.1,2 1.6,2.8 2.9,2.8c1.3,0 2.9,-0.9 3,-3.5c0.4,-12.4 1.2,-40 1.2,-46.2c0,-0.6 0.4,-1 1,-1s1,0.4 1,1c0,6.2 -0.8,33.8 -1.2,46.2c-0.1,3.8 -2.6,5.5 -5,5.5c0.1,0 0.1,0 0,0z"/>
      </g>
     </g>
    </g>
   </g>
  </g>
  <g id="svg_520">
   <g id="svg_521">
    <g id="svg_522">
     <g id="svg_523">
      <g id="svg_524">
       <path id="svg_525" d="m338.1,145c-3.4,2.2 -8.2,2.2 -8.2,2.2s0,0.3 0.1,0.8c0.2,2.4 0.9,9.4 -0.1,12.4c-1.1,3.6 -3.3,9.3 -5.4,15.2c-1.5,4.3 0.6,6.7 2.7,6.5c0.8,-0.1 1.7,-0.6 2.2,-1.6c2.1,-3.6 8.3,-16.3 9.1,-19.6c1.2,-4.7 -0.4,-15.9 -0.4,-15.9z" class="st1"/>
      </g>
     </g>
    </g>
    <g id="svg_526">
     <g id="svg_527">
      <g id="svg_528">
       <path id="svg_529" d="m326.9,183.1c-1.1,0 -2.1,-0.5 -2.8,-1.4c-1.2,-1.5 -1.4,-3.9 -0.5,-6.4c0.7,-2.1 1.5,-4.1 2.2,-6.1c1.3,-3.7 2.4,-6.8 3.2,-9.1c0.9,-2.8 0.3,-9.9 0,-12c0,-0.5 -0.1,-0.8 -0.1,-0.8c0,-0.3 0.1,-0.6 0.2,-0.8s0.5,-0.3 0.7,-0.3c0,0 4.5,0 7.6,-2c0.3,-0.2 0.6,-0.2 1,-0.1c0.3,0.1 0.5,0.4 0.6,0.8c0.1,0.5 1.6,11.4 0.5,16.2c-0.8,3.6 -7.2,16.5 -9.2,19.8c-0.7,1.2 -1.8,2 -3,2.1c-0.1,0.1 -0.2,0.1 -0.4,0.1zm4.1,-34.9c0.3,3 0.8,9.6 -0.2,12.5c-0.8,2.3 -1.9,5.5 -3.2,9.2c-0.7,1.9 -1.4,4 -2.2,6.1c-0.9,2.7 -0.2,4 0.2,4.5c0.4,0.5 0.9,0.7 1.5,0.6c0.6,-0.1 1.1,-0.5 1.5,-1.1c2.1,-3.5 8.2,-16.2 9,-19.3c0.8,-3.5 0.1,-10.9 -0.3,-14.1c-2.4,1.1 -4.9,1.4 -6.3,1.6z"/>
      </g>
     </g>
    </g>
   </g>
   <g id="svg_530">
    <g id="svg_531">
     <g id="svg_532">
      <g id="svg_533">
       <path id="svg_534" d="m292.1,145c3.4,2.2 8.2,2.2 8.2,2.2s0,0.3 -0.1,0.8c-0.2,2.4 -0.9,9.4 0.1,12.4c1.1,3.6 3.3,9.3 5.4,15.2c1.5,4.3 -0.6,6.7 -2.7,6.5c-0.8,-0.1 -1.7,-0.6 -2.2,-1.6c-2.1,-3.6 -8.3,-16.3 -9.1,-19.6c-1.2,-4.7 0.4,-15.9 0.4,-15.9z" class="st1"/>
      </g>
     </g>
    </g>
    <g id="svg_535">
     <g id="svg_536">
      <g id="svg_537">
       <path id="svg_538" d="m303.3,183.1c-0.1,0 -0.3,0 -0.4,0c-1.2,-0.2 -2.3,-0.9 -3,-2.1c-2,-3.4 -8.4,-16.3 -9.2,-19.8c-1.1,-4.8 0.4,-15.8 0.5,-16.2c0,-0.3 0.3,-0.6 0.6,-0.8c0.3,-0.1 0.7,-0.1 1,0.1c3.1,2 7.6,2 7.6,2c0.3,0 0.6,0.1 0.7,0.3c0.2,0.2 0.3,0.5 0.2,0.8c0,0 0,0.3 -0.1,0.8c-0.2,2.1 -0.9,9.2 0,12c0.7,2.3 1.9,5.5 3.2,9.1c0.7,1.9 1.4,4 2.2,6.1c0.9,2.6 0.7,4.9 -0.5,6.4c-0.7,0.8 -1.8,1.3 -2.8,1.3zm-10.4,-36.5c-0.4,3.1 -1.1,10.6 -0.3,14.1c0.7,3.1 6.9,15.8 9,19.3c0.4,0.7 0.9,1.1 1.5,1.1c0.5,0.1 1.1,-0.2 1.5,-0.6c0.4,-0.5 1.1,-1.8 0.2,-4.5c-0.7,-2.1 -1.5,-4.1 -2.2,-6.1c-1.3,-3.7 -2.4,-6.9 -3.2,-9.2c-1,-3 -0.5,-9.6 -0.2,-12.5c-1.4,-0.2 -4,-0.5 -6.3,-1.6z"/>
      </g>
     </g>
    </g>
   </g>
  </g>
  <g id="svg_539">
   <g id="svg_540">
    <g id="svg_541">
     <g id="svg_542">
      <path id="svg_543" d="m312.7,179.5l-6.5,0c-0.6,0 -1,-0.4 -1,-1s0.4,-1 1,-1l6.5,0c0.6,0 1,0.4 1,1s-0.5,1 -1,1z"/>
     </g>
    </g>
   </g>
  </g>
  <g id="svg_544">
   <g id="svg_545">
    <g id="svg_546">
     <g id="svg_547">
      <path id="svg_548" d="m267.3,219.2l-26.8,0c-0.5,0 -1,-0.4 -1,-1l-1.3,-61.9c0,-2.2 -0.4,-4.4 -1.1,-6.5c-0.6,-1.7 -1.2,-4.3 -0.5,-6.6c0.1,-0.5 0.7,-0.9 1.2,-0.7c0.5,0.1 0.9,0.7 0.7,1.2c-0.5,1.9 0,4 0.5,5.5c0.8,2.3 1.2,4.6 1.2,7.1l1.3,60.9l24.8,0l1.3,-60.9c0.1,-2.4 0.5,-4.8 1.2,-7.1c0.5,-1.5 1,-3.6 0.5,-5.5c-0.1,-0.5 0.2,-1.1 0.7,-1.2c0.5,-0.1 1.1,0.2 1.2,0.7c0.6,2.4 0.1,4.9 -0.5,6.6c-0.7,2.1 -1.1,4.2 -1.1,6.5l-1.3,61.9c-0.1,0.5 -0.5,1 -1,1z"/>
     </g>
    </g>
   </g>
  </g>
  <g id="svg_686">
   <g id="svg_687">
    <g id="svg_688">
     <g id="svg_689">
      <g id="svg_690">
       <path id="svg_691" d="m241.9,67c0,0 0,-0.2 0.1,-0.3c0.3,-0.4 0.1,-0.7 -0.1,-1.1c-4.2,-5.9 -8.3,-11.8 -12.5,-17.6c-0.2,-0.3 -0.3,-0.6 -0.1,-1c3,-6.5 6,-13.1 9,-19.6c0.2,-0.4 0.3,-0.6 -0.1,-1c-0.5,-0.6 -0.3,-1.6 0.3,-2c0.7,-0.4 1.5,-0.3 1.9,0.4c0.2,0.3 0.4,0.4 0.8,0.4c3,-0.3 6,-0.6 9.1,-0.8c3.4,-0.3 6.8,-0.6 10.1,-0.9c0.8,-0.1 1.7,-0.2 2.5,-0.2c0.2,0 0.5,0.1 0.6,0.3c4.3,6 8.5,12 12.7,17.9c0.2,0.3 0.3,0.3 0.7,0.3c0.9,-0.1 1.6,0.4 1.6,1.3c0.1,0.8 -0.6,1.5 -1.4,1.5c-0.4,0 -0.5,0.1 -0.6,0.4c-3,6.6 -6,13.1 -9,19.7c-0.2,0.4 -0.5,0.5 -0.9,0.6c-3.3,0.3 -6.5,0.6 -9.8,0.9c-3.8,0.4 -7.7,0.7 -11.5,1.1c-0.3,0 -0.5,0.1 -0.6,0.5c-0.2,0.7 -0.9,1 -1.5,0.9c-0.8,-0.4 -1.3,-1 -1.3,-1.7zm15.2,-13.4c-0.4,-0.1 -0.8,-0.2 -1.2,-0.4c-0.3,-0.1 -0.6,-0.1 -0.8,0.1c-1.8,1.5 -3.5,3.1 -5.3,4.6c-0.1,0.1 -0.3,0.1 -0.5,0.2c0.1,0.1 0.1,0.2 0.2,0.2c1.7,0.6 3.4,1.2 5.1,1.8c0.2,0.1 0.4,0 0.5,-0.1c2.1,-1.2 4.1,-2.4 6.2,-3.6c0.5,-0.3 0.2,-0.6 0.2,-1c0,-0.1 -0.2,-0.4 -0.4,-0.4c-0.9,-0.3 -1.8,-0.7 -2.8,-1c-0.2,-0.1 -0.3,-0.2 -0.5,-0.3c1.1,0.4 2.2,0.8 3.4,1.2c0.1,0 0.4,0 0.4,-0.1c0.6,-0.9 1.3,-0.9 2.3,-0.4c1,-0.9 2.1,-1.8 3.1,-2.8c0.1,-0.1 0.1,-0.3 0.2,-0.5c0.1,-2.7 0.1,-5.3 0.2,-8c0,-0.1 0,-0.2 0,-0.5c-4,3.4 -7.9,6.8 -11.8,10.2c0.5,0.4 1,0.6 1.5,0.8zm2.9,-13.6c-0.2,-0.1 -0.4,-0.3 -0.6,-0.4c-2.7,-1 -5.5,-2 -8.2,-2.9c-2.1,-0.7 -4.2,-1.5 -6.3,-2.2c-0.1,-0.1 -0.3,-0.1 -0.5,-0.1c0.1,0.3 0.1,0.5 0.1,0.8c0.5,2.4 1,4.9 1.4,7.3c0.5,2.5 1,5 1.5,7.5c0,0.2 0.2,0.4 0.3,0.6c0,0 -0.2,0.1 -0.2,0.1c0.5,2.5 0.9,4.9 1.4,7.5c6.1,-5.2 12.1,-10.4 18.2,-15.6c-0.7,-0.2 -1.3,-0.5 -1.9,-0.7c-1.6,-0.6 -3.2,-1.2 -4.9,-1.7c0,-0.3 -0.2,-0.2 -0.3,-0.2zm-11.4,18c-1.6,-7.9 -3.1,-15.7 -4.6,-23.6c-0.1,0.1 -0.2,0.1 -0.2,0.1c-1.4,1.2 -2.7,2.5 -4,3.7c-0.1,0.1 -0.2,0.4 -0.2,0.6c0,2.2 0,4.5 0,6.7c0,0.5 0.7,1 1.2,0.8c0,0.2 0,0.4 0.1,0.6c0.2,0.7 0.1,1.3 -0.5,1.7c-0.3,0.2 -0.3,0.4 -0.3,0.7c0.2,1.2 0.5,2.4 0.7,3.6c0.1,0.4 0.3,0.7 0.7,0.9c2.3,1.2 4.5,2.5 6.7,3.8c-0.1,0.2 0.1,0.2 0.4,0.4zm-3.9,-24.1c0.2,0.1 0.4,0.2 0.5,0.2c2.5,0.9 5,1.8 7.5,2.7c2.1,0.8 4.2,1.5 6.4,2.3c0.2,0.1 0.5,0.5 0.7,0c0,0 0,0.1 0.1,0.1c0.2,0.1 0.3,0.3 0.5,0.4c2.1,0.8 4.3,1.6 6.4,2.3c0.1,0.1 0.3,0.1 0.5,0.1c0,-0.1 0,-0.1 0,-0.2c-0.4,-1.8 -0.8,-3.5 -1.2,-5.3c0,-0.2 -0.2,-0.4 -0.4,-0.5c-1.1,-0.7 -2.2,-1.4 -3.3,-2.1c-1,-0.6 -1.9,-1.2 -2.9,-1.8c-0.1,0.1 -0.1,0.1 -0.2,0.1c-0.9,0.9 -2.5,0.1 -2.4,-1.1c0,-0.1 -0.2,-0.4 -0.4,-0.4c-1.1,-0.4 -2.3,-0.7 -3.4,-1c-0.3,-0.1 -0.7,0 -0.9,0.1c-2.3,1.3 -4.7,2.5 -7,3.8c-0.2,0.1 -0.3,0.1 -0.5,0.3zm-5.4,4.9c0,0 -0.1,-0.1 -0.1,-0.1c-3.1,2.9 -6.3,5.8 -9.5,8.7c3.6,2 7.1,4 10.7,6c-0.1,-1.4 -0.4,-2.7 -0.7,-4.1c-0.1,-0.3 -0.2,-0.4 -0.5,-0.5c-0.7,-0.1 -1.1,-0.6 -1.2,-1.3c-0.1,-0.6 0.3,-1.3 0.9,-1.4c0.4,-0.1 0.4,-0.3 0.4,-0.6c0,-2 0,-4 0,-6c0,-0.2 0,-0.5 0,-0.7zm15.7,21.6c4,1.4 7.9,2.8 11.9,4.2c0.1,-4.2 0.2,-8.3 0.3,-12.6c-1.1,1 -2,1.8 -2.9,2.6c-0.1,0.1 0,0.3 0,0.5c0.2,0.7 0.1,1.3 -0.4,1.7c-0.5,0.4 -1.2,0.4 -1.8,0c-0.3,-0.2 -0.5,-0.2 -0.8,0c-1.9,1.1 -3.9,2.2 -5.8,3.4c-0.1,-0.1 -0.3,0 -0.5,0.2zm-2.2,-31c1.3,0.4 2.5,0.7 3.6,1.1c0.3,0.1 0.5,0.1 0.8,-0.2c0.4,-0.5 1.1,-0.7 1.7,-0.4c0.6,0.3 0.9,0.9 0.7,1.6c-0.1,0.4 0,0.5 0.3,0.7c1.8,1.1 3.7,2.3 5.5,3.4c0.1,0.1 0.2,0.1 0.5,0.2c-0.9,-4.1 -1.8,-8 -2.8,-12.1c-3.4,1.9 -6.8,3.7 -10.3,5.7zm-10.2,36.5c0.1,0 0.1,-0.1 0.2,-0.1c0,-0.1 0,-0.2 0,-0.4c-0.7,-3.7 -1.4,-7.4 -2.1,-11c0,-0.2 -0.2,-0.5 -0.4,-0.6c-3.2,-1.8 -6.4,-3.6 -9.7,-5.4c-0.1,0 -0.2,-0.1 -0.3,-0.1c0,0 0,0.1 -0.1,0.1c4.1,5.8 8.2,11.6 12.4,17.5zm23.1,-1.1c0,0 0,-0.1 0,-0.1c-0.2,-0.1 -0.4,-0.2 -0.5,-0.2c-3.4,-1.2 -6.8,-2.4 -10.1,-3.6c-0.4,-0.2 -0.7,-0.1 -1.1,0.1c-3,1.7 -5.9,3.4 -8.9,5.2c-0.1,0.1 -0.2,0.1 -0.3,0.2c-0.1,0.1 -0.1,0.2 -0.1,0.3c0,0.1 0.1,0.1 0.2,0.1c0.1,0 0.3,0 0.4,0c5.9,-0.5 11.8,-1.1 17.8,-1.6c0.9,-0.3 1.7,-0.3 2.6,-0.4zm-26.5,-37.9c-0.1,0 -0.1,0 -0.2,0c-3,6.4 -5.9,12.9 -9,19.5c0.2,-0.1 0.3,-0.1 0.3,-0.2c2.9,-2.7 5.8,-5.3 8.7,-8c0.1,-0.1 0.2,-0.4 0.2,-0.6c0,-3.4 0,-6.7 0,-10.1c0.1,-0.2 0,-0.4 0,-0.6zm28.2,36.6c0,0 0.1,0 0.1,0c0.1,-0.1 0.1,-0.3 0.2,-0.4c2.7,-6 5.5,-11.9 8.2,-17.9c0.1,-0.2 0.2,-0.5 0.3,-0.7c0,-0.1 0,-0.2 0,-0.2c-0.1,0 -0.2,0 -0.3,0c-0.1,0.1 -0.2,0.2 -0.3,0.2c-2.6,2.3 -5.2,4.6 -7.7,6.9c-0.2,0.2 -0.4,0.5 -0.4,0.8c-0.1,3.7 -0.2,7.3 -0.2,11c0.1,0 0.1,0.1 0.1,0.3zm-3.5,-39c0,0.2 0,0.2 0,0.3c0.8,3.7 1.7,7.4 2.5,11c0,0.2 0.2,0.4 0.4,0.5c3,1.9 5.9,3.7 8.9,5.6c0.1,0.1 0.3,0.1 0.4,0.2c0,0 0.1,-0.1 0.1,-0.1c-4.1,-5.8 -8.2,-11.6 -12.3,-17.5zm-2.1,-0.7c0,-0.1 0,-0.1 0,-0.2c-7,0.6 -14,1.3 -21,1.9c0,0.1 0,0.1 0,0.2c0.1,0.1 0.3,0.1 0.4,0.2c3.5,1 7,2.1 10.5,3.1c0.3,0.1 0.7,0 0.9,-0.1c1.6,-0.8 3.1,-1.7 4.6,-2.5c1.5,-0.9 3.1,-1.7 4.6,-2.6zm-18.8,41.9c0.4,-0.2 0.9,0.2 1.2,-0.3c1.3,-2.2 2.7,-4.3 4.1,-6.5c0.1,-0.1 0.1,-0.2 0.2,-0.4c-2.6,-1.4 -5.1,-2.9 -7.7,-4.4c0.7,4 1.5,7.8 2.2,11.6zm1.1,-32.1c2.6,-1.4 5.1,-2.8 7.7,-4.3c-3.8,-1.1 -7.5,-2.2 -11.1,-3.3c-0.5,0.4 -0.5,0.8 -0.2,1.3c0.3,0.4 0.5,0.8 0.7,1.3c1,1.7 2,3.3 2.9,5zm23.5,17.7c0.3,-0.2 0.4,-0.3 0.5,-0.4c2.5,-2.2 4.9,-4.4 7.4,-6.6c0.2,-0.2 0.4,-0.3 0.3,-0.7c-0.1,-0.4 -0.4,-0.5 -0.7,-0.5c-2.3,-0.2 -4.6,-0.3 -6.8,-0.5c-0.2,0 -0.3,0 -0.5,0c-0.1,2.9 -0.1,5.7 -0.2,8.7zm-28.1,-13.5c1.4,-1.3 2.8,-2.5 4.1,-3.8c0.1,-0.1 0.1,-0.4 0,-0.6c-0.5,-0.9 -1,-1.8 -1.5,-2.7c-0.7,-1.2 -1.4,-2.4 -2,-3.6c-0.1,-0.2 -0.3,-0.5 -0.6,-0.1c-0.1,0.1 0,0.3 0,0.4c0,3.2 0,6.5 0,9.7c-0.1,0.3 0,0.4 0,0.7zm4.8,28.2c0,0.1 0.1,0.1 0.1,0.2c3.2,-1.9 6.4,-3.7 9.8,-5.6c-1.7,-0.6 -3.2,-1.1 -4.8,-1.7c-0.4,-0.1 -0.6,-0.1 -0.8,0.3c-1.4,2.2 -2.7,4.3 -4.1,6.5c-0.1,0 -0.1,0.2 -0.2,0.3zm22.2,-29.5c0,0.2 0.1,0.4 0.1,0.5c0.3,1.5 0.7,2.9 1,4.4c0.1,0.6 0.4,0.7 0.9,0.8c2.2,0.1 4.5,0.3 6.7,0.5c0.2,0 0.4,-0.1 0.6,-0.1c-0.1,-0.2 -0.2,-0.4 -0.4,-0.5c-2.8,-1.7 -5.5,-3.5 -8.3,-5.2c-0.1,-0.1 -0.3,-0.2 -0.6,-0.4z" class="st2"/>
      </g>
     </g>
    </g>
   </g>
  </g>
  <g id="svg_692">
   <g id="svg_693">
    <g id="svg_694">
     <g id="svg_695">
      <g id="svg_696">
       <path id="svg_697" d="m215.3,45.8c0,12.5 -10.1,22.7 -22.7,22.7c-12.7,-0.1 -22.7,-10 -22.7,-22.8c0,-12.5 10.2,-22.6 22.8,-22.6c12.3,0 22.8,10.4 22.6,22.7zm-1.8,0.1c0.2,-11.1 -9,-20.8 -20.7,-20.8c-11.5,0 -20.8,9.3 -20.8,20.8c0,11.5 9.3,20.7 20.7,20.8c11.6,-0.1 20.9,-9.7 20.8,-20.8z" class="st2"/>
      </g>
     </g>
    </g>
   </g>
   <g id="svg_698">
    <g id="svg_699">
     <g id="svg_700">
      <g id="svg_701">
       <path id="svg_702" d="m209,45.8c0,9 -7.3,16.3 -16.4,16.3c-9.1,0 -16.3,-7.3 -16.3,-16.5c0,-8.9 7.4,-16.2 16.4,-16.1c9.1,0 16.4,7.3 16.3,16.3zm-25.4,-9.4c0,1 0,1.8 0,2.8c0.7,0 1.3,-0.1 1.9,0c1,0.1 1.3,0.5 1.3,1.5c0,3.4 0,6.9 0,10.3c0,1 -0.2,1.2 -1.2,1.2c-0.5,0 -1,0 -1.5,0c-0.2,1.1 -0.3,2 -0.5,3.1c1.7,0 3.4,0 5.1,0c0,1.4 0,2.7 0,4.1c0.9,0 1.7,0 2.6,0c0,-1.4 0,-2.7 0,-4c0.7,0 1.2,0 1.9,0c0,1.4 0,2.7 0,4c0.9,0 1.7,0 2.6,0c0,-1.4 0,-2.7 0,-4c1,-0.1 1.8,-0.2 2.7,-0.4c2.4,-0.5 4.2,-1.6 4.7,-4.2c0.5,-2.8 -0.3,-5 -3.1,-5.8c0,0 0,-0.1 -0.1,-0.1c0.1,-0.1 0.1,-0.1 0.2,-0.2c2.3,-1.4 2.3,-5.8 -0.5,-7.1c-1,-0.5 -2.2,-0.7 -3.3,-1c-0.5,-0.1 -0.7,-0.2 -0.7,-0.8c0,-1.1 0,-2.2 0,-3.4c-0.9,0 -1.7,0 -2.5,0c0,0.1 -0.1,0.1 -0.1,0.2c0,0.7 0,1.4 0,2.2c0,1.7 0,1.7 -1.7,1.6c0,0 -0.1,0 -0.2,-0.1c0,-1.2 0,-2.5 0,-3.8c-0.9,0 -1.7,0 -2.6,0c0,1.4 0,2.7 0,4c-1.8,-0.1 -3.4,-0.1 -5,-0.1z" class="st2"/>
      </g>
     </g>
    </g>
   </g>
   <g id="svg_703">
    <g id="svg_704">
     <g id="svg_705">
      <g id="svg_706">
       <path id="svg_707" d="m191.2,52.2c0,-1.8 0,-3.6 0,-5.4c1.9,-0.1 3.7,-0.2 5.4,0.6c0.9,0.4 1.4,1.1 1.4,2.1c0,1 -0.5,1.6 -1.4,2c-1.6,0.8 -3.4,0.7 -5.4,0.7z" class="st2"/>
      </g>
     </g>
    </g>
   </g>
   <g id="svg_708">
    <g id="svg_709">
     <g id="svg_710">
      <g id="svg_711">
       <path id="svg_712" d="m191.2,44.4c0,-1.8 0,-3.4 0,-5c1.4,-0.1 2.8,-0.1 4.1,0.3c1.1,0.4 1.6,1 1.6,2c0,1 -0.4,1.8 -1.5,2c-1.3,0.4 -2.7,0.5 -4.2,0.7z" class="st2"/>
      </g>
     </g>
    </g>
   </g>
  </g>
  <g id="svg_713">
   <g id="svg_714">
    <g id="svg_715">
     <g id="svg_716">
      <g id="svg_717">
       <path id="svg_718" d="m315.1,23.1l0,31.3l13.9,-8.2l-13.9,-23.1z" class="st2"/>
      </g>
     </g>
    </g>
   </g>
   <g id="svg_719">
    <g id="svg_720">
     <g id="svg_721">
      <g id="svg_722">
       <path id="svg_723" d="m315.1,23.1l-13.9,23.1l13.9,8.2l0,-31.3z" class="st2"/>
      </g>
     </g>
    </g>
   </g>
   <g id="svg_724">
    <g id="svg_725">
     <g id="svg_726">
      <g id="svg_727">
       <path id="svg_728" d="m315.1,57.1l0,11.4l13.9,-19.6l-13.9,8.2z" class="st2"/>
      </g>
     </g>
    </g>
   </g>
   <g id="svg_729">
    <g id="svg_730">
     <g id="svg_731">
      <g id="svg_732">
       <path id="svg_733" d="m315.1,57.1l0,11.4l13.9,-19.6l-13.9,8.2z" class="st2"/>
      </g>
     </g>
    </g>
   </g>
   <g id="svg_734">
    <g id="svg_735">
     <g id="svg_736">
      <g id="svg_737">
       <path id="svg_738" d="m315.1,68.5l0,-11.4l-13.9,-8.2l13.9,19.6z" class="st2"/>
      </g>
     </g>
    </g>
   </g>
   <g id="svg_739">
    <g id="svg_740">
     <g id="svg_741">
      <g id="svg_742">
       <path id="svg_743" d="m301.2,46.2l13.9,8.2l0,-14.6" class="st2"/>
      </g>
     </g>
    </g>
   </g>
   <g id="svg_744">
    <g id="svg_745">
     <g id="svg_746">
      <g id="svg_747">
       <path id="svg_748" d="m315.1,54.5l13.9,-8.2l-13.9,-6.3l0,14.5" class="st2"/>
      </g>
     </g>
    </g>
   </g>
   <g id="svg_749">
    <g id="svg_750">
     <g id="svg_751">
      <g id="svg_752">
       <path id="svg_753" d="m315.1,54.5l13.9,-8.2l-13.9,-6.3l0,14.5" class="st2"/>
      </g>
     </g>
    </g>
   </g>
   <g id="svg_754">
    <g id="svg_755">
     <g id="svg_756">
      <g id="svg_757">
       <path id="svg_758" d="m315.1,54.5l0,-14.6l-13.9,6.3l13.9,8.3" class="st2"/>
      </g>
     </g>
    </g>
   </g>
  </g>
 </g>
 <g>
  <title>Layer 2</title>
  <rect fill="none" y="0" x="0" height="100%" width="100%" id="backgroundrect"/>
 </g>
 <g>
  <title>background</title>
  <rect fill="none" id="canvas_background" height="282" width="502" y="-1" x="-1"/>
 </g>
</svg>