<svg xmlns="http://www.w3.org/2000/svg" xmlns:xlink="http://www.w3.org/1999/xlink" version="1.1" style="" xml:space="preserve" width="500" height="500"><rect id="backgroundrect" width="100%" height="100%" x="0" y="0" fill="none" stroke="none"/>
<style type="text/css">
	.st0{fill:#E6E7E8;}
	.st1{fill:#FFFFFF;}
	.st2{fill:#FFD16C;}
	.st3{fill:#FFD16D;}
	.st4{fill:#C7C8CA;}
	.st5{fill:#C7C8C9;}
	.st6{fill:#FFFFFF;stroke:#000000;stroke-width:2;stroke-linecap:round;stroke-linejoin:round;stroke-miterlimit:10;}
</style>






















































<g class="currentLayer" style=""><title>Layer 1</title><g id="svg_82">
	<g id="svg_83">
		<g id="svg_84">
			<g id="svg_85">
				<polygon class="st0" points="187.3,265.4 187.3,272.1 183.6,269.5 183.6,264.8     " id="svg_86"/>
			</g>
		</g>
	</g>
</g><g id="svg_87">
	<g id="svg_88">
		<g id="svg_89">
			<g id="svg_90">
				<polygon class="st0" points="249,265.4 249,272.1 245.3,269.5 245.3,264.8     " id="svg_91"/>
			</g>
		</g>
	</g>
</g><g id="svg_92">
	<g id="svg_93">
		<g id="svg_94">
			<g id="svg_95">
				<polygon class="st0" points="309.7,265.4 309.7,272.1 306.1,269.5 306.1,264.8     " id="svg_96"/>
			</g>
		</g>
	</g>
</g><g id="svg_97">
	<g id="svg_98">
		<g id="svg_99">
			<g id="svg_100">
				<path d="M331.4,370.8H168.6c-0.3,0-0.5-0.2-0.5-0.5s0.2-0.5,0.5-0.5h162.7c0.3,0,0.5,0.2,0.5,0.5S331.6,370.8,331.4,370.8z" id="svg_101"/>
			</g>
		</g>
	</g>
</g><g id="svg_102">
	<g id="svg_103">
		<g id="svg_104">
			<g id="svg_105">
				<path class="st1" d="M202,326.1c-1.1,20.6-3,44.3-3.2,47.7c-0.3,4.3-7.7,4.5-7.9-0.6c-0.4-10.9-1.2-34.2-1.2-39.5" id="svg_106"/>
			</g>
		</g>
	</g>
	<g id="svg_107">
		<g id="svg_108">
			<g id="svg_109">
				<path d="M194.9,378C194.9,378,194.8,378,194.9,378c-2.4,0-4.9-1.5-5-4.8c-0.4-10.6-1.2-34.2-1.2-39.5c0-0.6,0.4-1,1-1s1,0.4,1,1      c0,5.3,0.8,28.8,1.2,39.4c0.1,2.1,1.7,2.8,3,2.8c1.3,0,2.8-0.7,2.9-2.3l0.2-2.5c0.6-7.5,2.1-27.4,3-45.2c0-0.6,0.5-1,1.1-0.9      c0.6,0,1,0.5,0.9,1.1c-0.9,17.8-2.4,37.7-3,45.2l-0.2,2.5C199.6,376.6,197.2,378,194.9,378z" id="svg_110"/>
			</g>
		</g>
	</g>
</g><g id="svg_111">
	<g id="svg_112">
		<g id="svg_113">
			<g id="svg_114">
				<g id="svg_115">
					<path class="st0" d="M189.6,333.8c0,5.3,0.8,28.6,1.2,39.5c0.1,2.4,1.8,3.6,3.6,3.8v-46.2L189.6,333.8z" id="svg_116"/>
				</g>
			</g>
		</g>
	</g>
	<g id="svg_117">
		<g id="svg_118">
			<g id="svg_119">
				<g id="svg_120">
					<path d="M194.9,378C194.9,378,194.8,378,194.9,378c-2.4,0-4.9-1.5-5-4.8c-0.4-10.6-1.2-34.2-1.2-39.5c0-0.6,0.4-1,1-1       s1,0.4,1,1c0,5.3,0.8,28.8,1.2,39.4c0.1,2.1,1.7,2.8,3,2.8c1.3,0,2.8-0.7,2.9-2.3l0.2-2.5c0.6-7.5,2.1-27.4,3-45.2       c0-0.6,0.5-1,1.1-0.9c0.6,0,1,0.5,0.9,1.1c-0.9,17.8-2.4,37.7-3,45.2l-0.2,2.5C199.6,376.6,197.2,378,194.9,378z" id="svg_121"/>
				</g>
			</g>
		</g>
	</g>
</g><g id="svg_122">
	<g id="svg_123">
		<g id="svg_124">
			<g id="svg_125">
				<path class="st1" d="M177.3,326.1c1.1,20.6,3,44.3,3.2,47.7c0.3,4.3,7.7,4.5,7.9-0.6c0.4-10.9,1.2-34.2,1.2-39.5" id="svg_126"/>
			</g>
		</g>
	</g>
	<g id="svg_127">
		<g id="svg_128">
			<g id="svg_129">
				<path d="M184.4,378c-2.3,0-4.7-1.4-4.9-4.1l-0.2-2.5c-0.6-7.5-2.1-27.4-3-45.2c0-0.6,0.4-1,0.9-1.1c0.5,0,1,0.4,1.1,0.9      c0.9,17.8,2.4,37.7,3,45.2l0.2,2.5c0.1,1.6,1.6,2.3,2.9,2.3c1.3,0,2.9-0.8,3-2.8c0.4-10.6,1.2-34.2,1.2-39.4c0-0.6,0.4-1,1-1      s1,0.4,1,1c0,5.3-0.8,28.9-1.2,39.5C189.3,376.5,186.8,378,184.4,378C184.4,378,184.4,378,184.4,378z" id="svg_130"/>
			</g>
		</g>
	</g>
</g><g id="svg_131">
	<g id="svg_132">
		<g id="svg_133">
			<g id="svg_134">
				<path class="st0" d="M177.3,326.1c1.1,20.6,3,44.3,3.2,47.7c0.1,1.8,1.4,2.8,3,3.1v-47L177.3,326.1z" id="svg_135"/>
			</g>
		</g>
	</g>
</g><g id="svg_136">
	<g id="svg_137">
		<g id="svg_138">
			<g id="svg_139">
				<path d="M184.4,378c-2.3,0-4.7-1.4-4.9-4.1l-0.2-2.5c-0.6-7.5-2.1-27.4-3-45.2c0-0.6,0.4-1,0.9-1.1c0.5,0,1,0.4,1.1,0.9      c0.9,17.8,2.4,37.7,3,45.2l0.2,2.5c0.1,1.6,1.6,2.3,2.9,2.3c1.3,0,2.9-0.8,3-2.8c0.4-10.6,1.2-34.2,1.2-39.4c0-0.6,0.4-1,1-1      s1,0.4,1,1c0,5.3-0.8,28.9-1.2,39.5C189.3,376.5,186.8,378,184.4,378C184.4,378,184.4,378,184.4,378z" id="svg_140"/>
			</g>
		</g>
	</g>
</g><g id="svg_141">
	<g id="svg_142">
		<g id="svg_143">
			<g id="svg_144">
				<g id="svg_145">
					<path class="st1" d="M263.2,317.5c-1.1,24.2-3,51.9-3.2,55.8c-0.3,5-7.7,5.2-7.9-0.7c-0.4-12.7-1.2-40-1.2-46.2" id="svg_146"/>
				</g>
			</g>
		</g>
		<g id="svg_147">
			<g id="svg_148">
				<g id="svg_149">
					<path d="M256.1,378C256.1,378,256.1,378,256.1,378c-2.4,0-4.9-1.7-5-5.4c-0.4-12.5-1.2-40.1-1.2-46.2c0-0.6,0.4-1,1-1       s1,0.4,1,1c0,6.2,0.8,33.7,1.2,46.2c0.1,2.5,1.7,3.5,3,3.5c1.3,0,2.8-0.9,2.9-2.8l0.2-2.9c0.6-8.8,2.1-32.1,3-52.9       c0-0.6,0.5-1,1-1c0.6,0,1,0.5,1,1c-0.9,20.8-2.4,44.1-3,52.9l-0.2,2.9C260.8,376.4,258.4,378,256.1,378z" id="svg_150"/>
				</g>
			</g>
		</g>
	</g>
	<g id="svg_151">
		<g id="svg_152">
			<g id="svg_153">
				<g id="svg_154">
					<path class="st1" d="M238.5,317.5c1.1,24.2,3,51.9,3.2,55.8c0.3,5,7.7,5.2,7.9-0.7c0.4-12.7,1.2-40,1.2-46.2" id="svg_155"/>
				</g>
			</g>
		</g>
		<g id="svg_156">
			<g id="svg_157">
				<g id="svg_158">
					<path d="M245.6,378c-2.3,0-4.7-1.6-4.9-4.7l-0.2-2.9c-0.6-8.8-2.1-32.1-3-53c0-0.6,0.4-1,1-1c0.5,0,1,0.4,1,1       c0.9,20.9,2.4,44.2,3,52.9l0.2,2.9c0.1,1.9,1.6,2.8,2.9,2.8c0,0,0,0,0,0c1.3,0,2.9-0.9,3-3.5c0.4-12.4,1.2-40,1.2-46.2       c0-0.6,0.4-1,1-1s1,0.4,1,1c0,6.2-0.8,33.8-1.2,46.2C250.5,376.3,248,378,245.6,378C245.6,378,245.6,378,245.6,378z" id="svg_159"/>
				</g>
			</g>
		</g>
	</g>
</g><g id="svg_160">
	<g id="svg_161">
		<g id="svg_162">
			<g id="svg_163">
				<g id="svg_164">
					<path d="M267.5,275.4c-0.3,0-0.5-0.2-0.5-0.5v-28.4c0-0.3,0.2-0.5,0.5-0.5s0.5,0.2,0.5,0.5v28.4       C268,275.2,267.8,275.4,267.5,275.4z" id="svg_165"/>
				</g>
			</g>
		</g>
	</g>
	<g id="svg_166">
		<g id="svg_167">
			<g id="svg_168">
				<g id="svg_169">
					<path d="M263.8,275.4c-0.3,0-0.5-0.2-0.5-0.5v-28.4c0-0.3,0.2-0.5,0.5-0.5s0.5,0.2,0.5,0.5v28.4       C264.3,275.2,264.1,275.4,263.8,275.4z" id="svg_170"/>
				</g>
			</g>
		</g>
	</g>
	<g id="svg_171">
		<g id="svg_172">
			<g id="svg_173">
				<g id="svg_174">
					<path d="M260.1,275.4c-0.3,0-0.5-0.2-0.5-0.5v-28.4c0-0.3,0.2-0.5,0.5-0.5s0.5,0.2,0.5,0.5v28.4       C260.6,275.2,260.4,275.4,260.1,275.4z" id="svg_175"/>
				</g>
			</g>
		</g>
	</g>
	<g id="svg_176">
		<g id="svg_177">
			<g id="svg_178">
				<g id="svg_179">
					<path d="M256.4,275.9c-0.6,0-1-0.4-1-1v-28.4c0-0.6,0.4-1,1-1s1,0.4,1,1v28.4C257.4,275.5,257,275.9,256.4,275.9z" id="svg_180"/>
				</g>
			</g>
		</g>
	</g>
	<g id="svg_181">
		<g id="svg_182">
			<g id="svg_183">
				<g id="svg_184">
					<path d="M245.3,275.9c-0.6,0-1-0.4-1-1v-28.4c0-0.6,0.4-1,1-1s1,0.4,1,1v28.4C246.3,275.5,245.9,275.9,245.3,275.9z" id="svg_185"/>
				</g>
			</g>
		</g>
	</g>
	<g id="svg_186">
		<g id="svg_187">
			<g id="svg_188">
				<g id="svg_189">
					<path d="M241.6,275.4c-0.3,0-0.5-0.2-0.5-0.5v-28.4c0-0.3,0.2-0.5,0.5-0.5s0.5,0.2,0.5,0.5v28.4       C242.1,275.2,241.9,275.4,241.6,275.4z" id="svg_190"/>
				</g>
			</g>
		</g>
	</g>
	<g id="svg_191">
		<g id="svg_192">
			<g id="svg_193">
				<g id="svg_194">
					<path d="M237.9,275.4c-0.3,0-0.5-0.2-0.5-0.5v-28.4c0-0.3,0.2-0.5,0.5-0.5s0.5,0.2,0.5,0.5v28.4       C238.4,275.2,238.2,275.4,237.9,275.4z" id="svg_195"/>
				</g>
			</g>
		</g>
	</g>
	<g id="svg_196">
		<g id="svg_197">
			<g id="svg_198">
				<g id="svg_199">
					<path d="M234.2,275.4c-0.3,0-0.5-0.2-0.5-0.5v-28.4c0-0.3,0.2-0.5,0.5-0.5s0.5,0.2,0.5,0.5v28.4       C234.7,275.2,234.5,275.4,234.2,275.4z" id="svg_200"/>
				</g>
			</g>
		</g>
	</g>
</g><g id="svg_201">
	<g id="svg_202">
		<g id="svg_203">
			<g id="svg_204">
				<path class="st1" d="M324.4,317.5c-1.1,24.2-3,51.9-3.2,55.8c-0.3,5-7.7,5.2-7.9-0.7c-0.4-12.7-1.2-40-1.2-46.2" id="svg_205"/>
			</g>
		</g>
	</g>
	<g id="svg_206">
		<g id="svg_207">
			<g id="svg_208">
				<path d="M317.4,378C317.3,378,317.3,378,317.4,378c-2.4,0-4.9-1.7-5-5.4c-0.4-12.5-1.2-40.1-1.2-46.2c0-0.6,0.4-1,1-1s1,0.4,1,1      c0,6.2,0.8,33.7,1.2,46.2c0.1,2.5,1.7,3.5,3,3.5c1.3,0,2.8-0.9,2.9-2.8l0.2-2.9c0.6-8.8,2.1-32.1,3-52.9c0-0.6,0.5-1,1-1      c0.6,0,1,0.5,1,1c-0.9,20.9-2.4,44.2-3,53l-0.2,2.9C322,376.4,319.6,378,317.4,378z" id="svg_209"/>
			</g>
		</g>
	</g>
</g><g id="svg_210">
	<g id="svg_211">
		<g id="svg_212">
			<g id="svg_213">
				<path class="st1" d="M299.8,317.5c1.1,24.2,3,51.9,3.2,55.8c0.3,5,7.7,5.2,7.9-0.7c0.4-12.7,1.2-40,1.2-46.2" id="svg_214"/>
			</g>
		</g>
	</g>
	<g id="svg_215">
		<g id="svg_216">
			<g id="svg_217">
				<path d="M306.8,378c-2.3,0-4.7-1.6-4.9-4.7l-0.2-2.9c-0.6-8.8-2.1-32.1-3-53c0-0.6,0.4-1,1-1c0.5,0,1,0.4,1,1      c0.9,20.9,2.4,44.2,3,52.9l0.2,2.9c0.1,2,1.6,2.8,2.9,2.8c1.3,0,2.9-0.9,3-3.5c0.4-12.4,1.2-40,1.2-46.2c0-0.6,0.4-1,1-1      s1,0.4,1,1c0,6.2-0.8,33.8-1.2,46.2C311.7,376.3,309.2,378,306.8,378C306.9,378,306.9,378,306.8,378z" id="svg_218"/>
			</g>
		</g>
	</g>
</g><g id="svg_219">
	<g id="svg_220">
		<g id="svg_221">
			<g id="svg_222">
				<ellipse class="st1" cx="189.60000610351562" cy="247.5" rx="16.399999618530273" ry="18.100000381469727" id="svg_223"/>
			</g>
		</g>
	</g>
	<g id="svg_224">
		<g id="svg_225">
			<g id="svg_226">
				<path d="M189.6,266.6c-9.6,0-17.4-8.6-17.4-19.1c0-10.5,7.8-19.1,17.4-19.1s17.4,8.6,17.4,19.1C207,258,199.2,266.6,189.6,266.6      z M189.6,230.4c-8.5,0-15.4,7.7-15.4,17.1s6.9,17.1,15.4,17.1c8.5,0,15.4-7.7,15.4-17.1S198.1,230.4,189.6,230.4z" id="svg_227"/>
			</g>
		</g>
	</g>
</g><g id="svg_228">
	<g id="svg_229">
		<g id="svg_230">
			<g id="svg_231">
				<path d="M189.6,261.7c-7.1,0-12.9-6.4-12.9-14.2c0-0.2,0.2-0.4,0.4-0.4s0.4,0.2,0.4,0.4c0,7.4,5.4,13.5,12.1,13.5      s12.1-6,12.1-13.5c0-0.2,0.2-0.4,0.4-0.4s0.4,0.2,0.4,0.4C202.5,255.3,196.7,261.7,189.6,261.7z" id="svg_232"/>
			</g>
		</g>
	</g>
</g><g id="svg_233">
	<g id="svg_234">
		<g id="svg_235">
			<g id="svg_236">
				<g id="svg_237">
					<path d="M188,252.2c-0.2,0-0.4-0.2-0.4-0.4c0-1.2-1-2.2-2.2-2.2c-1.2,0-2.2,1-2.2,2.2c0,0.2-0.2,0.4-0.4,0.4s-0.4-0.2-0.4-0.4       c0-1.6,1.3-3,3-3c1.6,0,3,1.3,3,3C188.4,252,188.2,252.2,188,252.2z" id="svg_238"/>
				</g>
			</g>
		</g>
	</g>
	<g id="svg_239">
		<g id="svg_240">
			<g id="svg_241">
				<g id="svg_242">
					<path d="M196.4,252.2c-0.2,0-0.4-0.2-0.4-0.4c0-1.2-1-2.2-2.2-2.2c-1.2,0-2.2,1-2.2,2.2c0,0.2-0.2,0.4-0.4,0.4       s-0.4-0.2-0.4-0.4c0-1.6,1.3-3,3-3c1.6,0,3,1.3,3,3C196.8,252,196.6,252.2,196.4,252.2z" id="svg_243"/>
				</g>
			</g>
		</g>
	</g>
</g><g id="svg_244">
	<g id="svg_245">
		<g id="svg_246">
			<g id="svg_247">
				<path d="M204.2,239.2c0,0-5.6,5.1-17.5,4.5c-8-0.4-11-4-17.4-6.6c0,0,11.7-10,21.8-7.8C201.4,231.5,204.2,239.2,204.2,239.2z" id="svg_248"/>
			</g>
		</g>
	</g>
	<g id="svg_249">
		<g id="svg_250">
			<g id="svg_251">
				<path d="M188.9,244.8c-0.7,0-1.4,0-2.1-0.1c-5.6-0.3-8.9-2.1-12.4-4c-1.6-0.9-3.3-1.8-5.3-2.6c-0.3-0.1-0.6-0.4-0.6-0.8      c-0.1-0.3,0.1-0.7,0.3-0.9c0.5-0.4,12.2-10.2,22.7-8c10.5,2.3,13.6,10.2,13.7,10.5c0.1,0.4,0,0.8-0.3,1.1      C204.7,240.2,199.5,244.8,188.9,244.8z M171.3,236.9c1.4,0.7,2.7,1.4,3.9,2c3.4,1.9,6.4,3.5,11.6,3.8c9.2,0.5,14.5-2.6,16.2-3.8      c-0.9-1.8-4.1-6.9-12-8.6C183.4,228.7,174.6,234.5,171.3,236.9z" id="svg_252"/>
			</g>
		</g>
	</g>
</g><g id="svg_253">
	<g id="svg_254">
		<g id="svg_255">
			<g id="svg_256">
				<ellipse class="st1" cx="250.89999389648438" cy="247.5" rx="16.399999618530273" ry="18.100000381469727" id="svg_257"/>
			</g>
		</g>
	</g>
	<g id="svg_258">
		<g id="svg_259">
			<g id="svg_260">
				<path d="M250.9,266.6c-9.6,0-17.4-8.6-17.4-19.1c0-10.5,7.8-19.1,17.4-19.1s17.4,8.6,17.4,19.1      C268.3,258,260.5,266.6,250.9,266.6z M250.9,230.4c-8.5,0-15.4,7.7-15.4,17.1s6.9,17.1,15.4,17.1s15.4-7.7,15.4-17.1      S259.4,230.4,250.9,230.4z" id="svg_261"/>
			</g>
		</g>
	</g>
</g><g id="svg_262">
	<g id="svg_263">
		<g id="svg_264">
			<g id="svg_265">
				<path d="M234.2,246.5c0-10.2,7.5-18.4,16.7-18.4c9.2,0,16.7,8.2,16.7,18.4h-22.9l-1-6.7l-1.1,6.7H234.2z" id="svg_266"/>
			</g>
		</g>
	</g>
	<g id="svg_267">
		<g id="svg_268">
			<g id="svg_269">
				<path d="M267.5,247h-22.9c-0.2,0-0.5-0.2-0.5-0.4l-0.5-3.6l-0.6,3.6c0,0.2-0.2,0.4-0.5,0.4h-8.3c-0.3,0-0.5-0.2-0.5-0.5      c0-10.4,7.7-18.9,17.2-18.9s17.2,8.5,17.2,18.9C268,246.8,267.8,247,267.5,247z M245,246h22c-0.2-9.7-7.4-17.4-16.2-17.4      s-15.9,7.8-16.2,17.4h7.4l1-6.3c0-0.2,0.2-0.4,0.5-0.4c0.2,0,0.5,0.2,0.5,0.4L245,246z" id="svg_270"/>
			</g>
		</g>
	</g>
</g><g id="svg_271">
	<g id="svg_272">
		<g id="svg_273">
			<g id="svg_274">
				<g id="svg_275">
					<path d="M249.3,252.2c-0.2,0-0.4-0.2-0.4-0.4c0-1.2-1-2.2-2.2-2.2c-1.2,0-2.2,1-2.2,2.2c0,0.2-0.2,0.4-0.4,0.4       s-0.4-0.2-0.4-0.4c0-1.6,1.3-3,3-3c1.6,0,3,1.3,3,3C249.6,252,249.5,252.2,249.3,252.2z" id="svg_276"/>
				</g>
			</g>
		</g>
	</g>
	<g id="svg_277">
		<g id="svg_278">
			<g id="svg_279">
				<g id="svg_280">
					<path d="M257.6,252.2c-0.2,0-0.4-0.2-0.4-0.4c0-1.2-1-2.2-2.2-2.2s-2.2,1-2.2,2.2c0,0.2-0.2,0.4-0.4,0.4s-0.4-0.2-0.4-0.4       c0-1.6,1.3-3,3-3s3,1.3,3,3C258,252,257.8,252.2,257.6,252.2z" id="svg_281"/>
				</g>
			</g>
		</g>
	</g>
</g><g id="svg_282">
	<g id="svg_283">
		<g id="svg_284">
			<g id="svg_285">
				<path d="M253.5,256.5c0,1.4-1.2,2.6-2.6,2.6s-2.6-1.2-2.6-2.6H253.5z" id="svg_286"/>
			</g>
		</g>
	</g>
</g><g id="svg_287">
	<g id="svg_288">
		<g id="svg_289">
			<g id="svg_290">
				<ellipse class="st1" cx="312.1000061035156" cy="247.5" rx="16.399999618530273" ry="18.100000381469727" id="svg_291"/>
			</g>
		</g>
	</g>
	<g id="svg_292">
		<g id="svg_293">
			<g id="svg_294">
				<path d="M312.1,266.6c-9.6,0-17.4-8.6-17.4-19.1c0-10.5,7.8-19.1,17.4-19.1s17.4,8.6,17.4,19.1      C329.5,258,321.7,266.6,312.1,266.6z M312.1,230.4c-8.5,0-15.4,7.7-15.4,17.1s6.9,17.1,15.4,17.1s15.4-7.7,15.4-17.1      S320.6,230.4,312.1,230.4z" id="svg_295"/>
			</g>
		</g>
	</g>
</g><g id="svg_296">
	<g id="svg_297">
		<g id="svg_298">
			<g id="svg_299">
				<path d="M312.1,261.7c-7.1,0-12.9-6.4-12.9-14.2c0-0.2,0.2-0.4,0.4-0.4s0.4,0.2,0.4,0.4c0,7.4,5.4,13.5,12.1,13.5      s12.1-6,12.1-13.5c0-0.2,0.2-0.4,0.4-0.4s0.4,0.2,0.4,0.4C325,255.3,319.2,261.7,312.1,261.7z" id="svg_300"/>
			</g>
		</g>
	</g>
</g><g id="svg_301">
	<g id="svg_302">
		<g id="svg_303">
			<g id="svg_304">
				<g id="svg_305">
					<path d="M310.5,252.2c-0.2,0-0.4-0.2-0.4-0.4c0-1.2-1-2.2-2.2-2.2c-1.2,0-2.2,1-2.2,2.2c0,0.2-0.2,0.4-0.4,0.4       s-0.4-0.2-0.4-0.4c0-1.6,1.3-3,3-3c1.6,0,3,1.3,3,3C310.9,252,310.7,252.2,310.5,252.2z" id="svg_306"/>
				</g>
			</g>
		</g>
	</g>
	<g id="svg_307">
		<g id="svg_308">
			<g id="svg_309">
				<g id="svg_310">
					<path d="M318.9,252.2c-0.2,0-0.4-0.2-0.4-0.4c0-1.2-1-2.2-2.2-2.2c-1.2,0-2.2,1-2.2,2.2c0,0.2-0.2,0.4-0.4,0.4       s-0.4-0.2-0.4-0.4c0-1.6,1.3-3,3-3c1.6,0,3,1.3,3,3C319.2,252,319.1,252.2,318.9,252.2z" id="svg_311"/>
				</g>
			</g>
		</g>
	</g>
</g><g id="svg_312">
	<g id="svg_313">
		<g id="svg_314">
			<g id="svg_315">
				<path class="st1" d="M196.3,268.9c0,0-4.7,4.1-6.7,4.1c-2,0-6.7-4.1-6.7-4.1l-9.7,3l3,66.4H203l3-66.4L196.3,268.9z" id="svg_316"/>
			</g>
		</g>
	</g>
	<g id="svg_317">
		<g id="svg_318">
			<g id="svg_319">
				<path d="M203,339.3h-26.8c-0.5,0-1-0.4-1-1l-3-66.4c0-0.5,0.3-0.9,0.7-1l9.7-3c0.3-0.1,0.7,0,1,0.2c2.1,1.9,5,3.9,6,3.9      c1,0,3.9-2,6-3.9c0.3-0.2,0.6-0.3,1-0.2l9.7,3c0.4,0.1,0.7,0.5,0.7,1l-3,66.4C204,338.9,203.6,339.3,203,339.3z M177.2,337.3      h24.9l2.9-64.7l-8.4-2.6c-1.4,1.2-5,4-6.9,4c-2,0-5.5-2.9-6.9-4l-8.4,2.6L177.2,337.3z" id="svg_320"/>
			</g>
		</g>
	</g>
</g><g id="svg_321">
	<g id="svg_322">
		<g id="svg_323">
			<g id="svg_324">
				<path d="M196.3,269.9c-0.6,0-1-0.4-1-1V264c0-0.6,0.4-1,1-1s1,0.4,1,1v4.9C197.3,269.5,196.9,269.9,196.3,269.9z" id="svg_325"/>
			</g>
		</g>
	</g>
</g><g id="svg_326">
	<g id="svg_327">
		<g id="svg_328">
			<g id="svg_329">
				<path d="M183,269.9c-0.6,0-1-0.4-1-1V264c0-0.6,0.4-1,1-1s1,0.4,1,1v4.9C184,269.5,183.5,269.9,183,269.9z" id="svg_330"/>
			</g>
		</g>
	</g>
</g><g id="svg_331">
	<g id="svg_332">
		<g id="svg_333">
			<g id="svg_334">
				<path class="st1" d="M203.6,286l2.5,11c0.4,1.6,0.2,3.3-0.3,4.8l-4.8,12.6l3.3,4l9.8-16.6c1.1-1.9,1.4-4.3,0.7-6.5l-6.9-23.3      l-2-0.7" id="svg_335"/>
			</g>
		</g>
	</g>
	<g id="svg_336">
		<g id="svg_337">
			<g id="svg_338">
				<path d="M204.3,319.5c-0.3,0-0.6-0.1-0.8-0.4l-3.3-4c-0.2-0.3-0.3-0.7-0.2-1l4.8-12.6c0.5-1.3,0.6-2.8,0.3-4.2l-2.5-11      c-0.1-0.5,0.2-1.1,0.8-1.2c0.5-0.1,1.1,0.2,1.2,0.8l2.5,11c0.4,1.8,0.3,3.7-0.4,5.4l-4.6,12.1l2.1,2.4l9.1-15.4      c1-1.6,1.2-3.8,0.6-5.7l-6.8-22.8l-1.5-0.6c-0.5-0.2-0.8-0.8-0.6-1.3c0.2-0.5,0.8-0.8,1.3-0.6l2,0.7c0.3,0.1,0.5,0.4,0.6,0.7      l6.9,23.3c0.7,2.4,0.4,5.1-0.8,7.3l-9.8,16.6C205,319.3,204.7,319.4,204.3,319.5C204.3,319.5,204.3,319.5,204.3,319.5z" id="svg_339"/>
			</g>
		</g>
	</g>
</g><g id="svg_340">
	<g id="svg_341">
		<g id="svg_342">
			<g id="svg_343">
				<path class="st1" d="M175.7,286l-2.5,11c-0.4,1.6-0.2,3.3,0.3,4.8l4.8,12.6l-3.3,4.4l-9.9-17.1c-1.1-1.9-1.4-4.3-0.7-6.4l7-23.3      l2-0.7" id="svg_344"/>
			</g>
		</g>
	</g>
	<g id="svg_345">
		<g id="svg_346">
			<g id="svg_347">
				<path d="M175,319.9C175,319.9,175,319.9,175,319.9c-0.4,0-0.7-0.2-0.9-0.5l-9.9-17.1c-1.2-2.1-1.5-4.8-0.8-7.2l7-23.3      c0.1-0.3,0.3-0.5,0.6-0.7l2-0.7c0.5-0.2,1.1,0.1,1.3,0.6c0.2,0.5-0.1,1.1-0.6,1.3l-1.5,0.6l-6.8,22.8c-0.6,1.9-0.3,4,0.6,5.6      l9.2,15.8l2.1-2.7l-4.6-12.1c-0.6-1.7-0.8-3.6-0.4-5.4l2.5-11c0.1-0.5,0.7-0.9,1.2-0.8c0.5,0.1,0.9,0.7,0.8,1.2l-2.5,11      c-0.3,1.4-0.2,2.9,0.3,4.2l4.8,12.6c0.1,0.3,0.1,0.7-0.1,1l-3.3,4.4C175.6,319.7,175.3,319.9,175,319.9z" id="svg_348"/>
			</g>
		</g>
	</g>
</g><g id="svg_349">
	<g id="svg_350">
		<g id="svg_351">
			<g id="svg_352">
				<path d="M189.6,339.3c-0.6,0-1-0.4-1-1V273c0-0.6,0.4-1,1-1s1,0.4,1,1v65.2C190.6,338.8,190.2,339.3,189.6,339.3z" id="svg_353"/>
			</g>
		</g>
	</g>
</g><g id="svg_354">
	<g id="svg_355">
		<g id="svg_356">
			<g id="svg_357">
				<line class="st1" x1="204.3000030517578" y1="318.5" x2="198.8000030517578" y2="311.8999938964844" id="svg_358"/>
			</g>
		</g>
	</g>
	<g id="svg_359">
		<g id="svg_360">
			<g id="svg_361">
				<path d="M204.3,319.5c-0.3,0-0.6-0.1-0.8-0.4l-5.5-6.5c-0.4-0.4-0.3-1.1,0.1-1.4c0.4-0.4,1.1-0.3,1.4,0.1l5.5,6.5      c0.4,0.4,0.3,1.1-0.1,1.4C204.7,319.4,204.5,319.5,204.3,319.5z" id="svg_362"/>
			</g>
		</g>
	</g>
</g><g id="svg_363">
	<g id="svg_364">
		<g id="svg_365">
			<g id="svg_366">
				<line class="st1" x1="175.3000030517578" y1="318.5" x2="180.8000030517578" y2="311.8999938964844" id="svg_367"/>
			</g>
		</g>
	</g>
	<g id="svg_368">
		<g id="svg_369">
			<g id="svg_370">
				<path d="M175.3,319.5c-0.2,0-0.5-0.1-0.6-0.2c-0.4-0.4-0.5-1-0.1-1.4l5.5-6.5c0.4-0.4,1-0.5,1.4-0.1c0.4,0.4,0.5,1,0.1,1.4      l-5.5,6.5C175.8,319.4,175.6,319.5,175.3,319.5z" id="svg_371"/>
			</g>
		</g>
	</g>
</g><g id="svg_372">
	<g id="svg_373">
		<g id="svg_374">
			<g id="svg_375">
				<g id="svg_376">
					<path d="M199.7,280c-0.2,0-0.4-0.2-0.4-0.4v-9.7c0-0.2,0.2-0.4,0.4-0.4s0.4,0.2,0.4,0.4v9.7C200.1,279.8,199.9,280,199.7,280z" id="svg_377"/>
				</g>
			</g>
		</g>
	</g>
	<g id="svg_378">
		<g id="svg_379">
			<g id="svg_380">
				<g id="svg_381">
					<path d="M179.6,280c-0.2,0-0.4-0.2-0.4-0.4v-9.7c0-0.2,0.2-0.4,0.4-0.4s0.4,0.2,0.4,0.4v9.7C179.9,279.8,179.8,280,179.6,280z" id="svg_382"/>
				</g>
			</g>
		</g>
	</g>
</g><g id="svg_383">
	<g id="svg_384">
		<g id="svg_385">
			<g id="svg_386">
				<circle class="st2" cx="197.60000610351562" cy="286.20001220703125" r="3.700000047683716" id="svg_387"/>
			</g>
		</g>
	</g>
</g><g id="svg_388">
	<g id="svg_389">
		<g id="svg_390">
			<g id="svg_391">
				<path d="M305.4,269.9c-0.6,0-1-0.4-1-1V264c0-0.6,0.4-1,1-1s1,0.4,1,1v4.9C306.4,269.5,306,269.9,305.4,269.9z" id="svg_392"/>
			</g>
		</g>
	</g>
</g><g id="svg_393">
	<g id="svg_394">
		<g id="svg_395">
			<g id="svg_396">
				<path d="M318.8,269.9c-0.6,0-1-0.4-1-1V264c0-0.6,0.4-1,1-1s1,0.4,1,1v4.9C319.8,269.5,319.3,269.9,318.8,269.9z" id="svg_397"/>
			</g>
		</g>
	</g>
</g><g id="svg_398">
	<g id="svg_399">
		<g id="svg_400">
			<g id="svg_401">
				<path class="st1" d="M335.1,284l-3.6-9.5c-0.6-1.6-2-2.9-3.7-3.3l-9-2.3c0,0-4.7,4.1-6.7,4.1s-6.7-4.1-6.7-4.1l-9,2.3      c-1.7,0.4-3.1,1.7-3.7,3.3l-3.6,9.5" id="svg_402"/>
			</g>
		</g>
	</g>
	<g id="svg_403">
		<g id="svg_404">
			<g id="svg_405">
				<path d="M335.1,285c-0.4,0-0.8-0.2-0.9-0.6l-3.6-9.5c-0.5-1.3-1.6-2.3-3-2.7L319,270c-1.4,1.2-5,4-6.9,4s-5.6-2.9-6.9-4      l-8.5,2.2c-1.4,0.4-2.5,1.4-3,2.7l-3.6,9.5c-0.2,0.5-0.8,0.8-1.3,0.6c-0.5-0.2-0.8-0.8-0.6-1.3l3.6-9.5c0.7-1.9,2.4-3.4,4.4-3.9      l9-2.3c0.3-0.1,0.7,0,0.9,0.2c2.1,1.9,5,3.9,6,3.9c1,0,3.9-2,6-3.9c0.2-0.2,0.6-0.3,0.9-0.2l9,2.3c2,0.5,3.6,2,4.4,3.9l3.6,9.5      c0.2,0.5-0.1,1.1-0.6,1.3C335.3,285,335.2,285,335.1,285z" id="svg_406"/>
			</g>
		</g>
	</g>
</g><g id="svg_407">
	<g id="svg_408">
		<g id="svg_409">
			<g id="svg_410">
				<polyline class="st1" points="325.6,281.6 326.9,286.2 325.5,317.5 298.7,317.5 297.3,286.2 299.1,281.6     " id="svg_411"/>
			</g>
		</g>
	</g>
	<g id="svg_412">
		<g id="svg_413">
			<g id="svg_414">
				<path d="M325.5,318.5h-26.8c-0.5,0-1-0.4-1-1l-1.4-31.2c0-0.1,0-0.3,0.1-0.4l1.8-4.6c0.2-0.5,0.8-0.8,1.3-0.6      c0.5,0.2,0.8,0.8,0.6,1.3l-1.7,4.4l1.3,30.1h24.9l1.3-30.1l-1.2-4.5c-0.1-0.5,0.2-1.1,0.7-1.2c0.5-0.1,1.1,0.2,1.2,0.7l1.3,4.6      c0,0.1,0,0.2,0,0.3l-1.4,31.2C326.5,318,326,318.5,325.5,318.5z" id="svg_415"/>
			</g>
		</g>
	</g>
</g><g id="svg_416">
	<g id="svg_417">
		<g id="svg_418">
			<g id="svg_419">
				<circle class="st2" cx="318.8999938964844" cy="286.20001220703125" r="3.700000047683716" id="svg_420"/>
			</g>
		</g>
	</g>
</g><g id="svg_421">
	<g id="svg_422">
		<g id="svg_423">
			<g id="svg_424">
				<path class="st1" d="M265.1,318.5l5.9-12.9c1.8-4,2.5-8.4,1.9-12.7l-2.6-18.4c-0.6-1.6-2-2.9-3.7-3.3l-9-2.3      c0,0-4.7,4.1-6.7,4.1s-6.7-4.1-6.7-4.1l-9,2.3c-1.7,0.4-3.1,1.7-3.7,3.3l-2.6,18.4c-0.6,4.3,0,8.7,1.9,12.7l5.9,12.9" id="svg_425"/>
			</g>
		</g>
	</g>
	<g id="svg_426">
		<g id="svg_427">
			<g id="svg_428">
				<path d="M236.6,319.5c-0.4,0-0.7-0.2-0.9-0.6l-5.9-12.9c-1.9-4.2-2.6-8.7-1.9-13.3l2.6-18.4c0-0.1,0-0.1,0.1-0.2      c0.7-1.9,2.4-3.4,4.4-3.9l9-2.3c0.3-0.1,0.7,0,0.9,0.2c2.1,1.9,5,3.9,6,3.9c1,0,3.9-2,6-3.9c0.2-0.2,0.6-0.3,0.9-0.2l9,2.3      c2,0.5,3.6,2,4.4,3.9c0,0.1,0,0.1,0.1,0.2l2.6,18.4c0.7,4.5,0,9.1-1.9,13.3l-5.9,12.9c-0.2,0.5-0.8,0.7-1.3,0.5      c-0.5-0.2-0.7-0.8-0.5-1.3l5.9-12.9c1.8-3.8,2.4-8,1.8-12.2l-2.6-18.3c-0.5-1.3-1.6-2.2-2.9-2.6l-8.5-2.2c-1.4,1.2-5,4-6.9,4      s-5.6-2.9-6.9-4l-8.5,2.2c-1.3,0.3-2.4,1.3-2.9,2.6l-2.6,18.3c-0.6,4.1,0,8.3,1.8,12.1l5.9,12.9c0.2,0.5,0,1.1-0.5,1.3      C236.9,319.4,236.8,319.5,236.6,319.5z" id="svg_429"/>
			</g>
		</g>
	</g>
</g><g id="svg_430">
	<g id="svg_431">
		<g id="svg_432">
			<g id="svg_433">
				<path class="st1" d="M234.5,282.5c-0.6,2.1-0.1,4.4,0.5,6.1c0.7,2.2,1.1,4.5,1.2,6.8l1.3,61.9h26.8l1.3-61.9      c0-2.3,0.4-4.6,1.2-6.8c0.6-1.7,1.1-4,0.5-6.1" id="svg_434"/>
			</g>
		</g>
	</g>
	<g id="svg_435">
		<g id="svg_436">
			<g id="svg_437">
				<path d="M264.3,358.2h-26.8c-0.5,0-1-0.4-1-1l-1.3-61.9c0-2.2-0.4-4.4-1.1-6.5c-0.6-1.7-1.2-4.3-0.5-6.6      c0.1-0.5,0.7-0.9,1.2-0.7c0.5,0.1,0.9,0.7,0.7,1.2c-0.5,1.9,0,4,0.5,5.5c0.8,2.3,1.2,4.6,1.2,7.1l1.3,60.9h24.8l1.3-60.9      c0.1-2.4,0.5-4.8,1.2-7.1c0.5-1.5,1-3.6,0.5-5.5c-0.1-0.5,0.2-1.1,0.7-1.2c0.5-0.1,1.1,0.2,1.2,0.7c0.6,2.4,0.1,4.9-0.5,6.6      c-0.7,2.1-1.1,4.2-1.1,6.5l-1.3,61.9C265.2,357.7,264.8,358.2,264.3,358.2z" id="svg_438"/>
			</g>
		</g>
	</g>
</g><g id="svg_439">
	<g id="svg_440">
		<g id="svg_441">
			<g id="svg_442">
				<circle class="st2" cx="257.6000061035156" cy="286.20001220703125" r="3.700000047683716" id="svg_443"/>
			</g>
		</g>
	</g>
</g><g id="svg_444">
	<g id="svg_445">
		<g id="svg_446">
			<g id="svg_447">
				<g id="svg_448">
					<polygon class="st2" points="237.2,349.7 264.5,349.7 264.4,353 237.2,353      " id="svg_449"/>
				</g>
			</g>
		</g>
	</g>
	<g id="svg_450">
		<g id="svg_451">
			<g id="svg_452">
				<g id="svg_453">
					<polygon class="st2" points="237.2,343.8 264.5,343.8 264.4,347.1 237.2,347.1      " id="svg_454"/>
				</g>
			</g>
		</g>
	</g>
	<g id="svg_455">
		<g id="svg_456">
			<g id="svg_457">
				<g id="svg_458">
					<polygon class="st2" points="237.2,338 264.5,338 264.4,341.3 237.2,341.3      " id="svg_459"/>
				</g>
			</g>
		</g>
	</g>
	<g id="svg_460">
		<g id="svg_461">
			<g id="svg_462">
				<g id="svg_463">
					<polygon class="st2" points="237.2,332.1 264.5,332.1 264.4,335.4 237.2,335.4      " id="svg_464"/>
				</g>
			</g>
		</g>
	</g>
	<g id="svg_465">
		<g id="svg_466">
			<g id="svg_467">
				<g id="svg_468">
					<polygon class="st2" points="237.2,326.2 264.5,326.2 264.4,329.5 237.2,329.5      " id="svg_469"/>
				</g>
			</g>
		</g>
	</g>
	<g id="svg_470">
		<g id="svg_471">
			<g id="svg_472">
				<g id="svg_473">
					<polygon class="st2" points="237.2,320.3 264.5,320.3 264.4,323.6 237.2,323.6      " id="svg_474"/>
				</g>
			</g>
		</g>
	</g>
	<g id="svg_475">
		<g id="svg_476">
			<g id="svg_477">
				<g id="svg_478">
					<polygon class="st2" points="237.2,314.5 264.5,314.5 264.4,317.8 237.2,317.8      " id="svg_479"/>
				</g>
			</g>
		</g>
	</g>
	<g id="svg_480">
		<g id="svg_481">
			<g id="svg_482">
				<g id="svg_483">
					<polygon class="st2" points="237.2,300.2 264.5,300.2 264.4,311.9 237.2,311.9      " id="svg_484"/>
				</g>
			</g>
		</g>
	</g>
</g><g id="svg_485">
	<g id="svg_486">
		<g id="svg_487">
			<g id="svg_488">
				<path d="M250.9,278.3c-2.1,0-6-7-7.1-9.2c-0.1-0.2,0-0.5,0.2-0.7c0.2-0.1,0.5,0,0.7,0.2c2.2,4.2,5.2,8.7,6.2,8.7      c1,0,4-4.5,6.2-8.7c0.1-0.2,0.4-0.3,0.7-0.2c0.2,0.1,0.3,0.4,0.2,0.7C256.9,271.3,253,278.3,250.9,278.3z" id="svg_489"/>
			</g>
		</g>
	</g>
</g><g id="svg_490">
	<g id="svg_491">
		<g id="svg_492">
			<g id="svg_493">
				<circle class="st2" cx="250.89999389648438" cy="279.3999938964844" r="1.600000023841858" id="svg_494"/>
			</g>
		</g>
	</g>
	<g id="svg_495">
		<g id="svg_496">
			<g id="svg_497">
				<path d="M250.9,281.5c-1.2,0-2.1-0.9-2.1-2.1s0.9-2.1,2.1-2.1s2.1,0.9,2.1,2.1S252,281.5,250.9,281.5z M250.9,278.3      c-0.6,0-1.1,0.5-1.1,1.1s0.5,1.1,1.1,1.1s1.1-0.5,1.1-1.1S251.5,278.3,250.9,278.3z" id="svg_498"/>
			</g>
		</g>
	</g>
</g><g id="svg_499">
	<g id="svg_500">
		<g id="svg_501">
			<g id="svg_502">
				<g id="svg_503">
					<path class="st0" d="M299.8,317.5c1.1,24.2,3,51.9,3.2,55.8c0.1,2.1,1.4,3.3,3,3.6v-59.5H299.8z" id="svg_504"/>
				</g>
			</g>
		</g>
	</g>
	<g id="svg_505">
		<g id="svg_506">
			<g id="svg_507">
				<g id="svg_508">
					<path class="st0" d="M312.1,326.4c0,6.2,0.8,33.5,1.2,46.2c0.1,3,2,4.4,4,4.4v-36.3L312.1,326.4z" id="svg_509"/>
				</g>
			</g>
		</g>
	</g>
	<g id="svg_510">
		<g id="svg_511">
			<g id="svg_512">
				<g id="svg_513">
					<path d="M317.4,378C317.3,378,317.3,378,317.4,378c-2.4,0-4.9-1.7-5-5.4c-0.4-12.5-1.2-40.1-1.2-46.2c0-0.6,0.4-1,1-1       s1,0.4,1,1c0,6.2,0.8,33.7,1.2,46.2c0.1,2.5,1.7,3.5,3,3.5c1.3,0,2.8-0.9,2.9-2.8l0.2-2.9c0.6-8.8,2.1-32.1,3-52.9       c0-0.6,0.5-1,1-1c0.6,0,1,0.5,1,1c-0.9,20.9-2.4,44.2-3,53l-0.2,2.9C322,376.4,319.6,378,317.4,378z" id="svg_514"/>
				</g>
			</g>
		</g>
	</g>
	<g id="svg_515">
		<g id="svg_516">
			<g id="svg_517">
				<g id="svg_518">
					<path d="M306.8,378c-2.3,0-4.7-1.6-4.9-4.7l-0.2-2.9c-0.6-8.8-2.1-32.1-3-53c0-0.6,0.4-1,1-1c0.5,0,1,0.4,1,1       c0.9,20.9,2.4,44.2,3,52.9l0.2,2.9c0.1,2,1.6,2.8,2.9,2.8c1.3,0,2.9-0.9,3-3.5c0.4-12.4,1.2-40,1.2-46.2c0-0.6,0.4-1,1-1       s1,0.4,1,1c0,6.2-0.8,33.8-1.2,46.2C311.7,376.3,309.2,378,306.8,378C306.9,378,306.9,378,306.8,378z" id="svg_519"/>
				</g>
			</g>
		</g>
	</g>
</g><g id="svg_520">
	<g id="svg_521">
		<g id="svg_522">
			<g id="svg_523">
				<g id="svg_524">
					<path class="st1" d="M335.1,284c-3.4,2.2-8.2,2.2-8.2,2.2s0,0.3,0.1,0.8c0.2,2.4,0.9,9.4-0.1,12.4c-1.1,3.6-3.3,9.3-5.4,15.2       c-1.5,4.3,0.6,6.7,2.7,6.5c0.8-0.1,1.7-0.6,2.2-1.6c2.1-3.6,8.3-16.3,9.1-19.6C336.7,295.2,335.1,284,335.1,284z" id="svg_525"/>
				</g>
			</g>
		</g>
		<g id="svg_526">
			<g id="svg_527">
				<g id="svg_528">
					<path d="M323.9,322.1c-1.1,0-2.1-0.5-2.8-1.4c-1.2-1.5-1.4-3.9-0.5-6.4c0.7-2.1,1.5-4.1,2.2-6.1c1.3-3.7,2.4-6.8,3.2-9.1       c0.9-2.8,0.3-9.9,0-12c0-0.5-0.1-0.8-0.1-0.8c0-0.3,0.1-0.6,0.2-0.8s0.5-0.3,0.7-0.3c0,0,4.5,0,7.6-2c0.3-0.2,0.6-0.2,1-0.1       c0.3,0.1,0.5,0.4,0.6,0.8c0.1,0.5,1.6,11.4,0.5,16.2c-0.8,3.6-7.2,16.5-9.2,19.8c-0.7,1.2-1.8,2-3,2.1       C324.2,322.1,324.1,322.1,323.9,322.1z M328,287.2c0.3,3,0.8,9.6-0.2,12.5c-0.8,2.3-1.9,5.5-3.2,9.2c-0.7,1.9-1.4,4-2.2,6.1       c-0.9,2.7-0.2,4,0.2,4.5c0.4,0.5,0.9,0.7,1.5,0.6c0.6-0.1,1.1-0.5,1.5-1.1c2.1-3.5,8.2-16.2,9-19.3c0.8-3.5,0.1-10.9-0.3-14.1       C331.9,286.7,329.4,287,328,287.2z" id="svg_529"/>
				</g>
			</g>
		</g>
	</g>
	<g id="svg_530">
		<g id="svg_531">
			<g id="svg_532">
				<g id="svg_533">
					<path class="st1" d="M289.1,284c3.4,2.2,8.2,2.2,8.2,2.2s0,0.3-0.1,0.8c-0.2,2.4-0.9,9.4,0.1,12.4c1.1,3.6,3.3,9.3,5.4,15.2       c1.5,4.3-0.6,6.7-2.7,6.5c-0.8-0.1-1.7-0.6-2.2-1.6c-2.1-3.6-8.3-16.3-9.1-19.6C287.5,295.2,289.1,284,289.1,284z" id="svg_534"/>
				</g>
			</g>
		</g>
		<g id="svg_535">
			<g id="svg_536">
				<g id="svg_537">
					<path d="M300.3,322.1c-0.1,0-0.3,0-0.4,0c-1.2-0.2-2.3-0.9-3-2.1c-2-3.4-8.4-16.3-9.2-19.8c-1.1-4.8,0.4-15.8,0.5-16.2       c0-0.3,0.3-0.6,0.6-0.8c0.3-0.1,0.7-0.1,1,0.1c3.1,2,7.6,2,7.6,2c0.3,0,0.6,0.1,0.7,0.3c0.2,0.2,0.3,0.5,0.2,0.8       c0,0,0,0.3-0.1,0.8c-0.2,2.1-0.9,9.2,0,12c0.7,2.3,1.9,5.5,3.2,9.1c0.7,1.9,1.4,4,2.2,6.1c0.9,2.6,0.7,4.9-0.5,6.4       C302.4,321.6,301.3,322.1,300.3,322.1z M289.9,285.6c-0.4,3.1-1.1,10.6-0.3,14.1c0.7,3.1,6.9,15.8,9,19.3       c0.4,0.7,0.9,1.1,1.5,1.1c0.5,0.1,1.1-0.2,1.5-0.6c0.4-0.5,1.1-1.8,0.2-4.5c-0.7-2.1-1.5-4.1-2.2-6.1c-1.3-3.7-2.4-6.9-3.2-9.2       c-1-3-0.5-9.6-0.2-12.5C294.8,287,292.2,286.7,289.9,285.6z" id="svg_538"/>
				</g>
			</g>
		</g>
	</g>
</g><g id="svg_539">
	<g id="svg_540">
		<g id="svg_541">
			<g id="svg_542">
				<path d="M309.7,318.5h-6.5c-0.6,0-1-0.4-1-1s0.4-1,1-1h6.5c0.6,0,1,0.4,1,1S310.2,318.5,309.7,318.5z" id="svg_543"/>
			</g>
		</g>
	</g>
</g><g id="svg_544">
	<g id="svg_545">
		<g id="svg_546">
			<g id="svg_547">
				<path d="M264.3,358.2h-26.8c-0.5,0-1-0.4-1-1l-1.3-61.9c0-2.2-0.4-4.4-1.1-6.5c-0.6-1.7-1.2-4.3-0.5-6.6      c0.1-0.5,0.7-0.9,1.2-0.7c0.5,0.1,0.9,0.7,0.7,1.2c-0.5,1.9,0,4,0.5,5.5c0.8,2.3,1.2,4.6,1.2,7.1l1.3,60.9h24.8l1.3-60.9      c0.1-2.4,0.5-4.8,1.2-7.1c0.5-1.5,1-3.6,0.5-5.5c-0.1-0.5,0.2-1.1,0.7-1.2c0.5-0.1,1.1,0.2,1.2,0.7c0.6,2.4,0.1,4.9-0.5,6.6      c-0.7,2.1-1.1,4.2-1.1,6.5l-1.3,61.9C265.2,357.7,264.8,358.2,264.3,358.2z" id="svg_548"/>
			</g>
		</g>
	</g>
</g><g id="svg_686">
	<g id="svg_687">
		<g id="svg_688">
			<g id="svg_689">
				<g id="svg_690">
					<path class="st2" d="M238.9,206c0,0,0-0.2,0.1-0.3c0.3-0.4,0.1-0.7-0.1-1.1c-4.2-5.9-8.3-11.8-12.5-17.6       c-0.2-0.3-0.3-0.6-0.1-1c3-6.5,6-13.1,9-19.6c0.2-0.4,0.3-0.6-0.1-1c-0.5-0.6-0.3-1.6,0.3-2c0.7-0.4,1.5-0.3,1.9,0.4       c0.2,0.3,0.4,0.4,0.8,0.4c3-0.3,6-0.6,9.1-0.8c3.4-0.3,6.8-0.6,10.1-0.9c0.8-0.1,1.7-0.2,2.5-0.2c0.2,0,0.5,0.1,0.6,0.3       c4.3,6,8.5,12,12.7,17.9c0.2,0.3,0.3,0.3,0.7,0.3c0.9-0.1,1.6,0.4,1.6,1.3c0.1,0.8-0.6,1.5-1.4,1.5c-0.4,0-0.5,0.1-0.6,0.4       c-3,6.6-6,13.1-9,19.7c-0.2,0.4-0.5,0.5-0.9,0.6c-3.3,0.3-6.5,0.6-9.8,0.9c-3.8,0.4-7.7,0.7-11.5,1.1c-0.3,0-0.5,0.1-0.6,0.5       c-0.2,0.7-0.9,1-1.5,0.9C239.4,207.3,238.9,206.7,238.9,206z M254.1,192.6c-0.4-0.1-0.8-0.2-1.2-0.4c-0.3-0.1-0.6-0.1-0.8,0.1       c-1.8,1.5-3.5,3.1-5.3,4.6c-0.1,0.1-0.3,0.1-0.5,0.2c0.1,0.1,0.1,0.2,0.2,0.2c1.7,0.6,3.4,1.2,5.1,1.8c0.2,0.1,0.4,0,0.5-0.1       c2.1-1.2,4.1-2.4,6.2-3.6c0.5-0.3,0.2-0.6,0.2-1c0-0.1-0.2-0.4-0.4-0.4c-0.9-0.3-1.8-0.7-2.8-1c-0.2-0.1-0.3-0.2-0.5-0.3       c1.1,0.4,2.2,0.8,3.4,1.2c0.1,0,0.4,0,0.4-0.1c0.6-0.9,1.3-0.9,2.3-0.4c1-0.9,2.1-1.8,3.1-2.8c0.1-0.1,0.1-0.3,0.2-0.5       c0.1-2.7,0.1-5.3,0.2-8c0-0.1,0-0.2,0-0.5c-4,3.4-7.9,6.8-11.8,10.2C253.1,192.2,253.6,192.4,254.1,192.6z M257,179       c-0.2-0.1-0.4-0.3-0.6-0.4c-2.7-1-5.5-2-8.2-2.9c-2.1-0.7-4.2-1.5-6.3-2.2c-0.1-0.1-0.3-0.1-0.5-0.1c0.1,0.3,0.1,0.5,0.1,0.8       c0.5,2.4,1,4.9,1.4,7.3c0.5,2.5,1,5,1.5,7.5c0,0.2,0.2,0.4,0.3,0.6c0,0-0.2,0.1-0.2,0.1c0.5,2.5,0.9,4.9,1.4,7.5       c6.1-5.2,12.1-10.4,18.2-15.6c-0.7-0.2-1.3-0.5-1.9-0.7c-1.6-0.6-3.2-1.2-4.9-1.7C257.3,178.9,257.1,179,257,179z M245.6,197       c-1.6-7.9-3.1-15.7-4.6-23.6c-0.1,0.1-0.2,0.1-0.2,0.1c-1.4,1.2-2.7,2.5-4,3.7c-0.1,0.1-0.2,0.4-0.2,0.6c0,2.2,0,4.5,0,6.7       c0,0.5,0.7,1,1.2,0.8c0,0.2,0,0.4,0.1,0.6c0.2,0.7,0.1,1.3-0.5,1.7c-0.3,0.2-0.3,0.4-0.3,0.7c0.2,1.2,0.5,2.4,0.7,3.6       c0.1,0.4,0.3,0.7,0.7,0.9c2.3,1.2,4.5,2.5,6.7,3.8C245.1,196.8,245.3,196.8,245.6,197z M241.7,172.9c0.2,0.1,0.4,0.2,0.5,0.2       c2.5,0.9,5,1.8,7.5,2.7c2.1,0.8,4.2,1.5,6.4,2.3c0.2,0.1,0.5,0.5,0.7,0c0,0,0,0.1,0.1,0.1c0.2,0.1,0.3,0.3,0.5,0.4       c2.1,0.8,4.3,1.6,6.4,2.3c0.1,0.1,0.3,0.1,0.5,0.1c0-0.1,0-0.1,0-0.2c-0.4-1.8-0.8-3.5-1.2-5.3c0-0.2-0.2-0.4-0.4-0.5       c-1.1-0.7-2.2-1.4-3.3-2.1c-1-0.6-1.9-1.2-2.9-1.8c-0.1,0.1-0.1,0.1-0.2,0.1c-0.9,0.9-2.5,0.1-2.4-1.1c0-0.1-0.2-0.4-0.4-0.4       c-1.1-0.4-2.3-0.7-3.4-1c-0.3-0.1-0.7,0-0.9,0.1c-2.3,1.3-4.7,2.5-7,3.8C242,172.7,241.9,172.7,241.7,172.9z M236.3,177.8       c0,0-0.1-0.1-0.1-0.1c-3.1,2.9-6.3,5.8-9.5,8.7c3.6,2,7.1,4,10.7,6c-0.1-1.4-0.4-2.7-0.7-4.1c-0.1-0.3-0.2-0.4-0.5-0.5       c-0.7-0.1-1.1-0.6-1.2-1.3c-0.1-0.6,0.3-1.3,0.9-1.4c0.4-0.1,0.4-0.3,0.4-0.6c0-2,0-4,0-6C236.3,178.3,236.3,178,236.3,177.8z        M252,199.4c4,1.4,7.9,2.8,11.9,4.2c0.1-4.2,0.2-8.3,0.3-12.6c-1.1,1-2,1.8-2.9,2.6c-0.1,0.1,0,0.3,0,0.5       c0.2,0.7,0.1,1.3-0.4,1.7c-0.5,0.4-1.2,0.4-1.8,0c-0.3-0.2-0.5-0.2-0.8,0c-1.9,1.1-3.9,2.2-5.8,3.4       C252.4,199.1,252.2,199.2,252,199.4z M249.8,168.4c1.3,0.4,2.5,0.7,3.6,1.1c0.3,0.1,0.5,0.1,0.8-0.2c0.4-0.5,1.1-0.7,1.7-0.4       c0.6,0.3,0.9,0.9,0.7,1.6c-0.1,0.4,0,0.5,0.3,0.7c1.8,1.1,3.7,2.3,5.5,3.4c0.1,0.1,0.2,0.1,0.5,0.2c-0.9-4.1-1.8-8-2.8-12.1       C256.7,164.6,253.3,166.4,249.8,168.4z M239.6,204.9c0.1,0,0.1-0.1,0.2-0.1c0-0.1,0-0.2,0-0.4c-0.7-3.7-1.4-7.4-2.1-11       c0-0.2-0.2-0.5-0.4-0.6c-3.2-1.8-6.4-3.6-9.7-5.4c-0.1,0-0.2-0.1-0.3-0.1c0,0,0,0.1-0.1,0.1C231.3,193.2,235.4,199,239.6,204.9       z M262.7,203.8c0,0,0-0.1,0-0.1c-0.2-0.1-0.4-0.2-0.5-0.2c-3.4-1.2-6.8-2.4-10.1-3.6c-0.4-0.2-0.7-0.1-1.1,0.1       c-3,1.7-5.9,3.4-8.9,5.2c-0.1,0.1-0.2,0.1-0.3,0.2c-0.1,0.1-0.1,0.2-0.1,0.3c0,0.1,0.1,0.1,0.2,0.1c0.1,0,0.3,0,0.4,0       c5.9-0.5,11.8-1.1,17.8-1.6C261,203.9,261.8,203.9,262.7,203.8z M236.2,165.9c-0.1,0-0.1,0-0.2,0c-3,6.4-5.9,12.9-9,19.5       c0.2-0.1,0.3-0.1,0.3-0.2c2.9-2.7,5.8-5.3,8.7-8c0.1-0.1,0.2-0.4,0.2-0.6c0-3.4,0-6.7,0-10.1       C236.3,166.3,236.2,166.1,236.2,165.9z M264.4,202.5c0,0,0.1,0,0.1,0c0.1-0.1,0.1-0.3,0.2-0.4c2.7-6,5.5-11.9,8.2-17.9       c0.1-0.2,0.2-0.5,0.3-0.7c0-0.1,0-0.2,0-0.2c-0.1,0-0.2,0-0.3,0c-0.1,0.1-0.2,0.2-0.3,0.2c-2.6,2.3-5.2,4.6-7.7,6.9       c-0.2,0.2-0.4,0.5-0.4,0.8c-0.1,3.7-0.2,7.3-0.2,11C264.4,202.2,264.4,202.3,264.4,202.5z M260.9,163.5c0,0.2,0,0.2,0,0.3       c0.8,3.7,1.7,7.4,2.5,11c0,0.2,0.2,0.4,0.4,0.5c3,1.9,5.9,3.7,8.9,5.6c0.1,0.1,0.3,0.1,0.4,0.2c0,0,0.1-0.1,0.1-0.1       C269.1,175.2,265,169.4,260.9,163.5z M258.8,162.8c0-0.1,0-0.1,0-0.2c-7,0.6-14,1.3-21,1.9c0,0.1,0,0.1,0,0.2       c0.1,0.1,0.3,0.1,0.4,0.2c3.5,1,7,2.1,10.5,3.1c0.3,0.1,0.7,0,0.9-0.1c1.6-0.8,3.1-1.7,4.6-2.5       C255.7,164.5,257.3,163.7,258.8,162.8z M240,204.7c0.4-0.2,0.9,0.2,1.2-0.3c1.3-2.2,2.7-4.3,4.1-6.5c0.1-0.1,0.1-0.2,0.2-0.4       c-2.6-1.4-5.1-2.9-7.7-4.4C238.5,197.1,239.3,200.9,240,204.7z M241.1,172.6c2.6-1.4,5.1-2.8,7.7-4.3       c-3.8-1.1-7.5-2.2-11.1-3.3c-0.5,0.4-0.5,0.8-0.2,1.3c0.3,0.4,0.5,0.8,0.7,1.3C239.2,169.3,240.2,170.9,241.1,172.6z        M264.6,190.3c0.3-0.2,0.4-0.3,0.5-0.4c2.5-2.2,4.9-4.4,7.4-6.6c0.2-0.2,0.4-0.3,0.3-0.7c-0.1-0.4-0.4-0.5-0.7-0.5       c-2.3-0.2-4.6-0.3-6.8-0.5c-0.2,0-0.3,0-0.5,0C264.7,184.5,264.7,187.3,264.6,190.3z M236.5,176.8c1.4-1.3,2.8-2.5,4.1-3.8       c0.1-0.1,0.1-0.4,0-0.6c-0.5-0.9-1-1.8-1.5-2.7c-0.7-1.2-1.4-2.4-2-3.6c-0.1-0.2-0.3-0.5-0.6-0.1c-0.1,0.1,0,0.3,0,0.4       c0,3.2,0,6.5,0,9.7C236.4,176.4,236.5,176.5,236.5,176.8z M241.3,205c0,0.1,0.1,0.1,0.1,0.2c3.2-1.9,6.4-3.7,9.8-5.6       c-1.7-0.6-3.2-1.1-4.8-1.7c-0.4-0.1-0.6-0.1-0.8,0.3c-1.4,2.2-2.7,4.3-4.1,6.5C241.4,204.7,241.4,204.9,241.3,205z        M263.5,175.5c0,0.2,0.1,0.4,0.1,0.5c0.3,1.5,0.7,2.9,1,4.4c0.1,0.6,0.4,0.7,0.9,0.8c2.2,0.1,4.5,0.3,6.7,0.5       c0.2,0,0.4-0.1,0.6-0.1c-0.1-0.2-0.2-0.4-0.4-0.5c-2.8-1.7-5.5-3.5-8.3-5.2C264,175.8,263.8,175.7,263.5,175.5z" id="svg_691"/>
				</g>
			</g>
		</g>
	</g>
</g><g id="svg_692">
	<g id="svg_693">
		<g id="svg_694">
			<g id="svg_695">
				<g id="svg_696">
					<path class="st2" d="M212.3,184.8c0,12.5-10.1,22.7-22.7,22.7c-12.7-0.1-22.7-10-22.7-22.8c0-12.5,10.2-22.6,22.8-22.6       C202,162.1,212.5,172.5,212.3,184.8z M210.5,184.9c0.2-11.1-9-20.8-20.7-20.8c-11.5,0-20.8,9.3-20.8,20.8       c0,11.5,9.3,20.7,20.7,20.8C201.3,205.6,210.6,196,210.5,184.9z" id="svg_697"/>
				</g>
			</g>
		</g>
	</g>
	<g id="svg_698">
		<g id="svg_699">
			<g id="svg_700">
				<g id="svg_701">
					<path class="st2" d="M206,184.8c0,9-7.3,16.3-16.4,16.3c-9.1,0-16.3-7.3-16.3-16.5c0-8.9,7.4-16.2,16.4-16.1       C198.8,168.5,206.1,175.8,206,184.8z M180.6,175.4c0,1,0,1.8,0,2.8c0.7,0,1.3-0.1,1.9,0c1,0.1,1.3,0.5,1.3,1.5       c0,3.4,0,6.9,0,10.3c0,1-0.2,1.2-1.2,1.2c-0.5,0-1,0-1.5,0c-0.2,1.1-0.3,2-0.5,3.1c1.7,0,3.4,0,5.1,0c0,1.4,0,2.7,0,4.1       c0.9,0,1.7,0,2.6,0c0-1.4,0-2.7,0-4c0.7,0,1.2,0,1.9,0c0,1.4,0,2.7,0,4c0.9,0,1.7,0,2.6,0c0-1.4,0-2.7,0-4       c1-0.1,1.8-0.2,2.7-0.4c2.4-0.5,4.2-1.6,4.7-4.2c0.5-2.8-0.3-5-3.1-5.8c0,0,0-0.1-0.1-0.1c0.1-0.1,0.1-0.1,0.2-0.2       c2.3-1.4,2.3-5.8-0.5-7.1c-1-0.5-2.2-0.7-3.3-1c-0.5-0.1-0.7-0.2-0.7-0.8c0-1.1,0-2.2,0-3.4c-0.9,0-1.7,0-2.5,0       c0,0.1-0.1,0.1-0.1,0.2c0,0.7,0,1.4,0,2.2c0,1.7,0,1.7-1.7,1.6c0,0-0.1,0-0.2-0.1c0-1.2,0-2.5,0-3.8c-0.9,0-1.7,0-2.6,0       c0,1.4,0,2.7,0,4C183.8,175.4,182.2,175.4,180.6,175.4z" id="svg_702"/>
				</g>
			</g>
		</g>
	</g>
	<g id="svg_703">
		<g id="svg_704">
			<g id="svg_705">
				<g id="svg_706">
					<path class="st2" d="M188.2,191.2c0-1.8,0-3.6,0-5.4c1.9-0.1,3.7-0.2,5.4,0.6c0.9,0.4,1.4,1.1,1.4,2.1c0,1-0.5,1.6-1.4,2       C192,191.3,190.2,191.2,188.2,191.2z" id="svg_707"/>
				</g>
			</g>
		</g>
	</g>
	<g id="svg_708">
		<g id="svg_709">
			<g id="svg_710">
				<g id="svg_711">
					<path class="st2" d="M188.2,183.4c0-1.8,0-3.4,0-5c1.4-0.1,2.8-0.1,4.1,0.3c1.1,0.4,1.6,1,1.6,2c0,1-0.4,1.8-1.5,2       C191.1,183.1,189.7,183.2,188.2,183.4z" id="svg_712"/>
				</g>
			</g>
		</g>
	</g>
</g><g id="svg_713">
	<g id="svg_714">
		<g id="svg_715">
			<g id="svg_716">
				<g id="svg_717">
					<path class="st2" d="M312.1,162.1v31.3l13.9-8.2L312.1,162.1z" id="svg_718"/>
				</g>
			</g>
		</g>
	</g>
	<g id="svg_719">
		<g id="svg_720">
			<g id="svg_721">
				<g id="svg_722">
					<path class="st2" d="M312.1,162.1l-13.9,23.1l13.9,8.2V162.1z" id="svg_723"/>
				</g>
			</g>
		</g>
	</g>
	<g id="svg_724">
		<g id="svg_725">
			<g id="svg_726">
				<g id="svg_727">
					<path class="st2" d="M312.1,196.1v11.4l13.9-19.6L312.1,196.1z" id="svg_728"/>
				</g>
			</g>
		</g>
	</g>
	<g id="svg_729">
		<g id="svg_730">
			<g id="svg_731">
				<g id="svg_732">
					<path class="st2" d="M312.1,196.1v11.4l13.9-19.6L312.1,196.1z" id="svg_733"/>
				</g>
			</g>
		</g>
	</g>
	<g id="svg_734">
		<g id="svg_735">
			<g id="svg_736">
				<g id="svg_737">
					<path class="st2" d="M312.1,207.5v-11.4l-13.9-8.2L312.1,207.5z" id="svg_738"/>
				</g>
			</g>
		</g>
	</g>
	<g id="svg_739">
		<g id="svg_740">
			<g id="svg_741">
				<g id="svg_742">
					<path class="st2" d="M298.2,185.2l13.9,8.2v-14.6" id="svg_743"/>
				</g>
			</g>
		</g>
	</g>
	<g id="svg_744">
		<g id="svg_745">
			<g id="svg_746">
				<g id="svg_747">
					<path class="st2" d="M312.1,193.5l13.9-8.2l-13.9-6.3V193.5" id="svg_748"/>
				</g>
			</g>
		</g>
	</g>
	<g id="svg_749">
		<g id="svg_750">
			<g id="svg_751">
				<g id="svg_752">
					<path class="st2" d="M312.1,193.5l13.9-8.2l-13.9-6.3V193.5" id="svg_753"/>
				</g>
			</g>
		</g>
	</g>
	<g id="svg_754">
		<g id="svg_755">
			<g id="svg_756">
				<g id="svg_757">
					<path class="st2" d="M312.1,193.5v-14.6l-13.9,6.3L312.1,193.5" id="svg_758"/>
				</g>
			</g>
		</g>
	</g>
</g></g></svg>