<svg xmlns="http://www.w3.org/2000/svg" xmlns:xlink="http://www.w3.org/1999/xlink" version="1.1" style="enable-background:new 0 0 500 500;" xml:space="preserve" width="500" height="500"><rect id="backgroundrect" width="100%" height="100%" x="0" y="0" fill="none" stroke="none"/>
<style type="text/css">
	.st0{fill:#E6E7E8;}
	.st1{fill:#FFFFFF;}
	.st2{fill:#FFD16C;}
	.st3{fill:#FFD16D;}
	.st4{fill:#C7C8CA;}
	.st5{fill:#C7C8C9;}
	.st6{fill:#FFFFFF;stroke:#000000;stroke-width:2;stroke-linecap:round;stroke-linejoin:round;stroke-miterlimit:10;}
</style>









<g class="currentLayer" style=""><title>Layer 1</title><g id="svg_215">
	<g id="svg_216">
		<g id="svg_217">
			<g id="svg_218">
				<g id="svg_219">

						<rect x="316.3999938964844" y="175.60000610351562" transform="matrix(0.7071,-0.7071,0.7071,0.7071,-31.4828,277.1335) " class="st2" width="4.800000190734863" height="2" id="svg_220"/>
				</g>
			</g>
		</g>
	</g>
	<g id="svg_221">
		<g id="svg_222">
			<g id="svg_223">
				<g id="svg_224">

						<rect x="309.79998779296875" y="182.10000610351562" transform="matrix(0.7071,-0.7071,0.7071,0.7071,-38.0576,274.41) " class="st2" width="4.800000190734863" height="2" id="svg_225"/>
				</g>
			</g>
		</g>
	</g>
	<g id="svg_226">
		<g id="svg_227">
			<g id="svg_228">
				<g id="svg_229">

						<rect x="317.79998779296875" y="180.6999969482422" transform="matrix(0.7071,-0.7072,0.7072,0.7071,-36.1249,279.0846) " class="st2" width="2" height="4.800000190734863" id="svg_230"/>
				</g>
			</g>
		</g>
	</g>
	<g id="svg_231">
		<g id="svg_232">
			<g id="svg_233">
				<g id="svg_234">

						<rect x="311.20001220703125" y="174.1999969482422" transform="matrix(0.7071,-0.7071,0.7071,0.7071,-33.4085,272.4843) " class="st2" width="2" height="4.800000190734863" id="svg_235"/>
				</g>
			</g>
		</g>
	</g>
</g><g id="svg_236">
	<g id="svg_237">
		<g id="svg_238">
			<g id="svg_239">
				<g id="svg_240">

						<rect x="184.5" y="291.79998779296875" transform="matrix(0.7071,-0.7071,0.7071,0.7071,-152.2825,217.8761) " class="st2" width="4.800000190734863" height="2" id="svg_241"/>
				</g>
			</g>
		</g>
	</g>
	<g id="svg_242">
		<g id="svg_243">
			<g id="svg_244">
				<g id="svg_245">

						<rect x="177.89999389648438" y="298.29998779296875" transform="matrix(0.7071,-0.7071,0.7071,0.7071,-158.8576,215.1529) " class="st2" width="4.800000190734863" height="2" id="svg_246"/>
				</g>
			</g>
		</g>
	</g>
	<g id="svg_247">
		<g id="svg_248">
			<g id="svg_249">
				<g id="svg_250">

						<rect x="185.89999389648438" y="296.8999938964844" transform="matrix(0.7071,-0.7071,0.7071,0.7071,-156.9319,219.8019) " class="st2" width="2" height="4.800000190734863" id="svg_251"/>
				</g>
			</g>
		</g>
	</g>
	<g id="svg_252">
		<g id="svg_253">
			<g id="svg_254">
				<g id="svg_255">

						<rect x="179.3000030517578" y="290.3999938964844" transform="matrix(0.7071,-0.7071,0.7071,0.7071,-154.2082,213.227) " class="st2" width="2" height="4.800000190734863" id="svg_256"/>
				</g>
			</g>
		</g>
	</g>
</g><g id="svg_257">
	<g id="svg_258">
		<g id="svg_259">
			<g id="svg_260">
				<line class="st1" x1="151.60000610351562" y1="332.6000061035156" x2="343.5" y2="332.6000061035156" id="svg_261"/>
			</g>
		</g>
	</g>
	<g id="svg_262">
		<g id="svg_263">
			<g id="svg_264">
				<path d="M343.5,333.1H151.6c-0.3,0-0.5-0.2-0.5-0.5s0.2-0.5,0.5-0.5h191.9c0.3,0,0.5,0.2,0.5,0.5S343.7,333.1,343.5,333.1z" id="svg_265"/>
			</g>
		</g>
	</g>
</g><g id="svg_266">
	<g id="svg_267">
		<g id="svg_268">
			<g id="svg_269">
				<circle class="st2" cx="246" cy="233.10000610351562" r="57.5" id="svg_270"/>
			</g>
		</g>
	</g>
</g><g id="svg_271">
	<g id="svg_272">
		<g id="svg_273">
			<g id="svg_274">
				<circle class="st2" cx="156.5" cy="218.60000610351562" r="2.5999999046325684" id="svg_275"/>
			</g>
		</g>
	</g>
</g><g id="svg_276">
	<g id="svg_277">
		<g id="svg_278">
			<g id="svg_279">
				<circle class="st2" cx="241.3000030517578" cy="156.89999389648438" r="2.5999999046325684" id="svg_280"/>
			</g>
		</g>
	</g>
</g><g id="svg_281">
	<g id="svg_282">
		<g id="svg_283">
			<g id="svg_284">
				<g id="svg_285">
					<path class="st1" d="M241.8,274.2c0,16.6-0.9,28.9-1.1,35.6c-0.2,3.7-2.6,28-4.2,31.2c-1.6,3.2-5.8,2.5-6.5-1.9       s2.1-28.8,2.1-28.8l-7.9-26.3L241.8,274.2z" id="svg_286"/>
				</g>
			</g>
		</g>
		<g id="svg_287">
			<g id="svg_288">
				<g id="svg_289">
					<path d="M233.5,343.9c-0.2,0-0.4,0-0.6,0c-1.6-0.2-3.5-1.6-4-4.7c-0.7-4.3,1.8-26.4,2.1-28.9l-7.9-26.1       c-0.1-0.5,0.1-0.9,0.5-1.2l17.8-9.7c0.3-0.2,0.7-0.2,1,0c0.3,0.2,0.5,0.5,0.5,0.9c0,12.9-0.5,23.4-0.9,30.3       c-0.1,2-0.2,3.8-0.3,5.3c-0.1,3.5-2.6,28.1-4.3,31.6C236.5,343,235.1,343.9,233.5,343.9z M225.2,284.3l7.7,25.5       c0,0.1,0.1,0.3,0,0.4c-1,8.4-2.6,25.2-2.1,28.6c0.3,2,1.4,2.9,2.4,3c0.9,0.1,1.8-0.4,2.3-1.4c1.4-2.8,4-26.4,4.1-30.7       c0.1-1.5,0.2-3.3,0.3-5.3c0.3-6.6,0.8-16.4,0.9-28.5L225.2,284.3z" id="svg_290"/>
				</g>
			</g>
		</g>
	</g>
	<g id="svg_291">
		<g id="svg_292">
			<g id="svg_293">
				<g id="svg_294">
					<path class="st0" d="M234,281.9c0,0-0.1,19.9-0.8,27.9c-0.7,8-4,28.4-4,28.4s2.8,5.1,3.4,2.8c0.7-2.2,4.3-32.4,4.3-32.4l0.2-30       L234,281.9z" id="svg_295"/>
				</g>
			</g>
		</g>
	</g>
	<g id="svg_296">
		<g id="svg_297">
			<g id="svg_298">
				<g id="svg_299">
					<path d="M233.5,343.9c-0.2,0-0.4,0-0.6,0c-1.6-0.2-3.5-1.6-4-4.7c-0.7-4.3,1.8-26.4,2.1-28.9l-7.9-26.1c-0.1-0.4,0-0.9,0.4-1.1       l17.8-11.9c0.3-0.2,0.7-0.2,1-0.1c0.3,0.2,0.5,0.5,0.5,0.9c0,13.1-0.6,24.8-1,32.5c-0.1,2.1-0.2,3.9-0.3,5.4       c-0.1,3.5-2.6,28.1-4.3,31.6C236.5,343,235.1,343.9,233.5,343.9z M225.2,284.3l7.7,25.6c0,0.1,0.1,0.3,0,0.4       c-1,8.4-2.6,25.2-2.1,28.6c0.3,2,1.4,2.9,2.4,3c0.9,0.1,1.8-0.4,2.3-1.4c1.4-2.8,4-26.4,4.1-30.7c0.1-1.4,0.1-3.3,0.3-5.4       c0.4-7.4,0.9-18.3,1-30.6L225.2,284.3z" id="svg_300"/>
				</g>
			</g>
		</g>
	</g>
	<g id="svg_301">
		<g id="svg_302">
			<g id="svg_303">
				<g id="svg_304">
					<path class="st1" d="M235,276.3c-0.9,18.8-1.5,28.8-2,34.9c-0.6,6.6-4.8,29.2-6.5,32.6c-1.7,3.3-6.1,2.6-6.8-2       s0.3-22.6,0.3-30.2c0-11.7-4.1-15-3.2-33.5C217.1,272.4,235,276.3,235,276.3z" id="svg_305"/>
				</g>
			</g>
		</g>
		<g id="svg_306">
			<g id="svg_307">
				<g id="svg_308">
					<path d="M223.5,346.7c-0.2,0-0.4,0-0.6,0c-1.7-0.3-3.7-1.7-4.2-4.9c-0.5-3.1-0.2-12.1,0-20c0.1-4,0.2-7.8,0.2-10.3       c0-4.8-0.7-8.2-1.5-11.8c-1.1-5.1-2.3-10.9-1.7-21.8c0-1,0.5-1.9,1.3-2.5c4-3.1,16.7-0.5,18.1-0.2c0.5,0.1,0.8,0.5,0.8,1       c-1,19.3-1.5,29-2,34.9c-0.6,6.3-4.8,29.3-6.6,32.9C226.6,345.8,225.2,346.7,223.5,346.7z M223.8,275.9c-2.3,0-4.4,0.3-5.4,1.1       c-0.4,0.3-0.5,0.6-0.6,1c-0.5,10.7,0.7,16.3,1.7,21.3c0.8,3.7,1.5,7.2,1.5,12.2c0,2.6-0.1,6.4-0.2,10.4       c-0.2,7.8-0.5,16.6,0,19.6c0.3,2.1,1.5,3.1,2.5,3.2c1,0.1,1.9-0.4,2.5-1.5c1.6-3.1,5.8-25.8,6.4-32.2c0.5-5.8,1.1-15.2,2-33.9       C231.5,276.6,227.3,275.9,223.8,275.9z" id="svg_309"/>
				</g>
			</g>
		</g>
	</g>
	<g id="svg_310">
		<g id="svg_311">
			<g id="svg_312">
				<g id="svg_313">
					<path class="st0" d="M217.2,279c0,0,1.3,17,2.4,26.5c0.9,8,0.1,36.2,0.1,36.2s1.8,5.2,3.3,3.7c1.4-1.4,3.3-24.6,3.9-32.4       c0.1-1.7,0.2-3.4,0.1-5l-1.2-26.9L217.2,279z" id="svg_314"/>
				</g>
			</g>
		</g>
	</g>
	<g id="svg_315">
		<g id="svg_316">
			<g id="svg_317">
				<g id="svg_318">
					<path d="M223.5,346.7c-0.2,0-0.4,0-0.6,0c-1.7-0.3-3.7-1.7-4.2-4.9c-0.5-3.1-0.2-12.1,0-20c0.1-4,0.2-7.8,0.2-10.3       c0-4.8-0.7-8.2-1.5-11.8c-1.1-5.1-2.3-10.9-1.7-21.8c0-1,0.5-1.9,1.3-2.5c4-3.1,16.7-0.5,18.1-0.2c0.5,0.1,0.8,0.5,0.8,1       c-1,19.3-1.5,29-2,34.9c-0.6,6.3-4.8,29.3-6.6,32.9C226.6,345.8,225.2,346.7,223.5,346.7z M223.8,275.9c-2.3,0-4.4,0.3-5.4,1.1       c-0.4,0.3-0.5,0.6-0.6,1c-0.5,10.7,0.7,16.3,1.7,21.3c0.8,3.7,1.5,7.2,1.5,12.2c0,2.6-0.1,6.4-0.2,10.4       c-0.2,7.8-0.5,16.6,0,19.6c0.3,2.1,1.5,3.1,2.5,3.2c1,0.1,1.9-0.4,2.5-1.5c1.6-3.1,5.8-25.8,6.4-32.2c0.5-5.8,1.1-15.2,2-33.9       C231.5,276.6,227.3,275.9,223.8,275.9z" id="svg_319"/>
				</g>
			</g>
		</g>
	</g>
	<g id="svg_320">
		<g id="svg_321">
			<g id="svg_322">
				<g id="svg_323">
					<path class="st1" d="M231.6,238.5c0,0,21.3,11.8,24.3,11c3-0.8,14.4-5.3,20.2-8.2c5.8-2.9,2.5-8.6-1.5-6.9       c-2.7,1.2-16.2,7.5-19.7,6.7s-11.1-6.3-11.1-6.3s-7.3-3-10.6,1.4C231.2,239.2,231.6,238.5,231.6,238.5z" id="svg_324"/>
				</g>
			</g>
		</g>
		<g id="svg_325">
			<g id="svg_326">
				<g id="svg_327">
					<path d="M255.7,250.6c-4,0-18.7-8-24.1-10.9c-0.2,0-0.4-0.1-0.6-0.2c-0.4-0.3-0.5-1-0.2-1.4c0.1-0.1,0.2-0.2,0.3-0.3       c0.2-0.2,0.6-0.8,1.5-2c3.7-5,11.5-1.9,11.8-1.8c0.1,0,0.1,0.1,0.2,0.1c2.1,1.5,8.1,5.5,10.8,6.1c1.8,0.4,7.8-1.6,17.8-6.1       c0.5-0.2,1-0.4,1.3-0.6c2.5-1.1,4.8,0.2,5.6,2c1,2,0.3,4.9-3.3,6.7c-5.7,2.9-17.3,7.5-20.4,8.3       C256.1,250.5,255.9,250.6,255.7,250.6z M233.1,238.2c10,5.5,20.9,10.7,22.5,10.4c3-0.8,14.5-5.4,20-8.2c2.6-1.3,2.9-3,2.4-4.1       c-0.4-0.9-1.6-1.6-3-1c-0.3,0.1-0.7,0.3-1.2,0.5c-7.7,3.5-16.1,6.9-19.1,6.2c-3.4-0.8-10.4-5.7-11.4-6.3       c-0.8-0.3-6.7-2.4-9.3,1.1C233.7,237.4,233.4,237.8,233.1,238.2z" id="svg_328"/>
				</g>
			</g>
		</g>
	</g>
	<g id="svg_329">
		<g id="svg_330">
			<g id="svg_331">
				<g id="svg_332">
					<path class="st1" d="M220.9,249.1l-0.1,0.7C220.9,249.4,220.9,249.1,220.9,249.1z" id="svg_333"/>
				</g>
			</g>
		</g>
		<g id="svg_334">
			<g id="svg_335">
				<g id="svg_336">
					<path d="M220.8,250.9c0,0-0.1,0-0.1,0c-0.5-0.1-0.9-0.6-0.9-1.1c0.1-0.5,0.1-0.8,0.1-0.8c0.1-0.5,0.6-0.9,1.1-0.9       c0.5,0.1,0.9,0.6,0.9,1.1l-0.1,0.7C221.8,250.5,221.3,250.9,220.8,250.9z" id="svg_337"/>
				</g>
			</g>
		</g>
	</g>
	<g id="svg_338">
		<g id="svg_339">
			<g id="svg_340">
				<g id="svg_341">
					<path class="st1" d="M242.9,249.4c0,1.6-0.1,2.2-0.4,3.7c-1.2,5.3,0.2,18.9-1.2,23.4c-1.5,4.6-17.9,6-24,2.4       c-2-3.8-2.6-10.8-2.6-15.4c0-2.9-0.7-5.7-2.8-12.2l9.2-2.3c0,0-5.5,4.3-9.2,2.3c0,0-2.6-11-1.5-13.8c2.3-5.8,10.4-4.3,11.3-9.7       c0,0,0,0,0,0c1.9,0.5,3.9,0.6,5.9,0.3c1.5-0.3,2.9-0.8,4.2-1.5l0,0c1,3.4,3,4.4,7.2,5.4c1.7,0.4,3.1,0.9,5,2.8       c0.3,0.3,5.7,3.3,5.7,3.7l-2.8,7.8C246.9,246.4,242.4,241.7,242.9,249.4z" id="svg_342"/>
				</g>
			</g>
		</g>
		<g id="svg_343">
			<g id="svg_344">
				<g id="svg_345">
					<path d="M227.4,282c-4.1,0-8.2-0.7-10.7-2.1c-0.2-0.1-0.3-0.2-0.4-0.4c-2-3.8-2.8-10.7-2.8-15.9c0-2.7-0.6-5.2-2.8-11.9       c0,0,0,0,0-0.1l0,0c0,0,0,0,0,0c0,0,0,0,0,0v0c0,0,0,0,0,0c0,0,0,0,0,0c0,0,0,0,0,0l0,0c0,0,0,0,0,0l0,0c0,0,0,0,0,0       c-0.3-1.2-2.6-11.4-1.4-14.4c1.3-3.3,4.1-4.5,6.7-5.5c2.6-1.1,4.3-1.9,4.6-4c0-0.2,0.2-0.4,0.3-0.6c0.3-0.2,0.6-0.3,0.9-0.2       c1.8,0.5,3.7,0.6,5.5,0.3c1.3-0.2,2.6-0.7,3.9-1.4c0.3-0.1,0.6-0.2,0.9-0.1c0.3,0.1,0.5,0.4,0.6,0.6c0.9,2.9,2.4,3.8,6.5,4.7       c1.7,0.4,3.4,0.9,5.5,3c0.1,0.1,0.9,0.5,1.5,0.9c4.2,2.5,4.4,2.7,4.5,3.5c0,0.1,0,0.2-0.1,0.4l-2.8,7.8       c-0.1,0.3-0.4,0.6-0.7,0.6c-0.3,0.1-0.7,0-0.9-0.3c-0.6-0.6-1.6-1.2-1.8-1.1c0,0-0.6,0.4-0.5,3.3c0,0,0,0,0,0       c0,1.7-0.1,2.4-0.4,4c-0.6,2.4-0.5,6.8-0.5,11.1c0,5.1,0.1,9.9-0.8,12.5c-0.5,1.4-1.9,2.6-4.3,3.5       C235.2,281.4,231.3,282,227.4,282z M218,278.2c4.4,2.4,14.1,2.2,19.2,0.2c1.7-0.7,2.8-1.5,3.1-2.3c0.7-2.3,0.7-7.1,0.7-11.8       c0-4.6-0.1-8.9,0.5-11.5c0.3-1.4,0.4-2,0.4-3.5c-0.1-1.9,0-4.5,1.7-5.2c1-0.4,2.1,0,2.9,0.5l2.1-5.8c-0.8-0.5-2.4-1.5-3.3-2.1       c-1.5-0.9-1.8-1.1-1.9-1.2c-1.8-1.8-3-2.1-4.5-2.5c-4-0.9-6.3-2-7.5-5c-1.1,0.5-2.3,0.9-3.5,1.1c-1.8,0.3-3.6,0.3-5.4-0.1       c-0.9,2.5-3.3,3.5-5.6,4.5c-2.4,1-4.6,1.9-5.6,4.4c-0.7,1.7,0.4,8,1.3,12.2l8.2-2c0.5-0.1,0.9,0.1,1.1,0.5       c0.2,0.4,0.1,0.9-0.3,1.2c-0.2,0.2-4.4,3.4-8.2,3c1.8,5.5,2.3,8,2.3,10.7C215.6,268.2,216.2,274.7,218,278.2z M248.8,239.1       L248.8,239.1L248.8,239.1z" id="svg_346"/>
				</g>
			</g>
		</g>
	</g>
	<g id="svg_347">
		<g id="svg_348">
			<g id="svg_349">
				<g id="svg_350">
					<path d="M228.9,236.4c-6,0-9.6-4.9-9.8-5.1c-0.3-0.4-0.2-1.1,0.2-1.4c0.4-0.3,1.1-0.2,1.4,0.2c0.2,0.2,4.1,5.5,10.3,4       c1-0.2,1.6-0.6,1.9-1.2c0.5-0.9,0-2.2,0-2.2c-0.2-0.5,0-1.1,0.5-1.3c0.5-0.2,1.1,0,1.3,0.5c0,0.1,0.9,2.1,0,3.9       c-0.6,1.1-1.7,1.9-3.2,2.2C230.6,236.4,229.7,236.4,228.9,236.4z" id="svg_351"/>
				</g>
			</g>
		</g>
	</g>
	<g id="svg_352">
		<g id="svg_353">
			<g id="svg_354">
				<g id="svg_355">
					<line class="st1" x1="220.89999389648438" y1="249.10000610351562" x2="220" y2="242.89999389648438" id="svg_356"/>
				</g>
			</g>
		</g>
		<g id="svg_357">
			<g id="svg_358">
				<g id="svg_359">
					<path d="M220.9,250.1c-0.5,0-0.9-0.4-1-0.8l-1-6.3c-0.1-0.5,0.3-1.1,0.8-1.1c0.5-0.1,1.1,0.3,1.1,0.8l1,6.3       c0.1,0.5-0.3,1.1-0.8,1.1C221,250.1,221,250.1,220.9,250.1z" id="svg_360"/>
				</g>
			</g>
		</g>
	</g>
	<g id="svg_361">
		<g id="svg_362">
			<g id="svg_363">
				<g id="svg_364">

						<ellipse transform="matrix(0.9998,-0.01946735,0.01946735,0.9998,-4.0699,4.4501) " class="st1" cx="226.5" cy="211.3000030517578" rx="15.5" ry="18.200000762939453" id="svg_365"/>
				</g>
			</g>
		</g>
		<g id="svg_366">
			<g id="svg_367">
				<g id="svg_368">
					<path d="M226.6,230.5c-4.3,0-8.4-1.9-11.6-5.5c-3.2-3.6-4.9-8.3-5-13.4c-0.2-10.6,7-19.3,16.1-19.5c4.5-0.1,8.6,1.9,11.8,5.5       c3.2,3.6,4.9,8.3,5,13.4c0.2,10.6-7,19.3-16.1,19.5C226.8,230.5,226.7,230.5,226.6,230.5z M226.4,194.1c-0.1,0-0.2,0-0.2,0       c-8,0.2-14.4,8-14.2,17.5c0.1,4.6,1.7,8.9,4.5,12.1c2.8,3.2,6.5,4.9,10.3,4.8c8-0.2,14.4-8,14.2-17.5       c-0.1-4.6-1.7-8.9-4.5-12.1C233.8,195.8,230.2,194.1,226.4,194.1z" id="svg_369"/>
				</g>
			</g>
		</g>
	</g>
	<g id="svg_370">
		<g id="svg_371">
			<g id="svg_372">
				<g id="svg_373">
					<path class="st0" d="M215.8,210.2c0.2-8.1,4.8-14.9,11.1-17.1c-0.1,0-0.1,0-0.2,0c-8.6-0.2-15.7,7.8-15.9,17.9       c-0.2,10.1,6.6,18.3,15.2,18.5c1.7,0,3.3-0.3,4.8-0.8C222.3,228.4,215.6,220.2,215.8,210.2z" id="svg_374"/>
				</g>
			</g>
		</g>
	</g>
	<g id="svg_375">
		<g id="svg_376">
			<g id="svg_377">
				<g id="svg_378">
					<path d="M229.3,224.3c-1.8,0-6.5-0.4-10.1-4.2c-0.1-0.2-0.1-0.4,0-0.5c0.2-0.1,0.4-0.1,0.5,0c4.1,4.4,10.1,3.9,10.2,3.9       c0.2,0,0.4,0.1,0.4,0.3s-0.1,0.4-0.3,0.4C230,224.3,229.7,224.3,229.3,224.3z" id="svg_379"/>
				</g>
			</g>
		</g>
	</g>
	<g id="svg_380">
		<g id="svg_381">
			<g id="svg_382">
				<g id="svg_383">
					<path d="M225.9,216.3c-0.2,0-0.4-0.2-0.4-0.4c0-0.6,0.2-1.2,0.6-1.7s1-0.8,1.6-0.8c0.6,0,1.2,0.2,1.7,0.6s0.8,1,0.8,1.6       c0,0.2-0.1,0.4-0.4,0.4c-0.2,0-0.4-0.1-0.4-0.4c0-0.4-0.2-0.8-0.5-1.1c-0.3-0.3-0.7-0.4-1.2-0.4c-0.4,0-0.8,0.2-1.1,0.5       c-0.3,0.3-0.4,0.7-0.4,1.2C226.3,216.1,226.1,216.3,225.9,216.3C225.9,216.3,225.9,216.3,225.9,216.3z" id="svg_384"/>
				</g>
			</g>
		</g>
	</g>
	<g id="svg_385">
		<g id="svg_386">
			<g id="svg_387">
				<g id="svg_388">
					<path d="M232.3,215.5c-0.2,0-0.4-0.2-0.4-0.4c0-0.6,0.2-1.2,0.6-1.7c0.4-0.5,1-0.8,1.6-0.8c0.6,0,1.2,0.2,1.7,0.6       c0.5,0.4,0.8,1,0.8,1.6c0,0.2-0.1,0.4-0.4,0.4c-0.2,0-0.4-0.1-0.4-0.4c0-0.4-0.2-0.8-0.5-1.1c-0.3-0.3-0.7-0.4-1.2-0.4       c-0.4,0-0.8,0.2-1.1,0.5c-0.3,0.3-0.4,0.7-0.4,1.2C232.7,215.3,232.5,215.5,232.3,215.5C232.3,215.5,232.3,215.5,232.3,215.5z" id="svg_389"/>
				</g>
			</g>
		</g>
	</g>
	<g id="svg_390">
		<g id="svg_391">
			<g id="svg_392">
				<g id="svg_393">
					<path d="M226.6,230.5c-4.3,0-8.4-1.9-11.6-5.5c-3.2-3.6-4.9-8.3-5-13.4c-0.2-10.6,7-19.3,16.1-19.5c4.5-0.1,8.6,1.9,11.8,5.5       c3.2,3.6,4.9,8.3,5,13.4c0.2,10.6-7,19.3-16.1,19.5C226.8,230.5,226.7,230.5,226.6,230.5z M226.4,194.1c-0.1,0-0.2,0-0.2,0       c-8,0.2-14.4,8-14.2,17.5c0.1,4.6,1.7,8.9,4.5,12.1c2.8,3.2,6.5,4.9,10.3,4.8c8-0.2,14.4-8,14.2-17.5       c-0.1-4.6-1.7-8.9-4.5-12.1C233.8,195.8,230.2,194.1,226.4,194.1z" id="svg_394"/>
				</g>
			</g>
		</g>
	</g>
	<g id="svg_395">
		<g id="svg_396">
			<g id="svg_397">
				<g id="svg_398">
					<line class="st1" x1="242.89999389648438" y1="249.39999389648438" x2="242.39999389648438" y2="241.6999969482422" id="svg_399"/>
				</g>
			</g>
		</g>
		<g id="svg_400">
			<g id="svg_401">
				<g id="svg_402">
					<path d="M242.9,250.4c-0.5,0-1-0.4-1-0.9l-0.4-7.6c0-0.6,0.4-1,0.9-1.1c0.6,0,1,0.4,1.1,0.9l0.4,7.6       C243.9,249.9,243.5,250.3,242.9,250.4C242.9,250.4,242.9,250.4,242.9,250.4z" id="svg_403"/>
				</g>
			</g>
		</g>
	</g>
	<g id="svg_404">
		<g id="svg_405">
			<g id="svg_406">
				<g id="svg_407">
					<line class="st1" x1="229.10000610351562" y1="254.1999969482422" x2="222" y2="253.5" id="svg_408"/>
				</g>
			</g>
		</g>
		<g id="svg_409">
			<g id="svg_410">
				<g id="svg_411">
					<path d="M229.1,254.7C229,254.7,229,254.7,229.1,254.7L222,254c-0.3,0-0.5-0.3-0.5-0.5c0-0.3,0.3-0.5,0.5-0.5l7,0.7       c0.3,0,0.5,0.3,0.5,0.5C229.5,254.5,229.3,254.7,229.1,254.7z" id="svg_412"/>
				</g>
			</g>
		</g>
	</g>
	<g id="svg_413">
		<g id="svg_414">
			<g id="svg_415">
				<g id="svg_416">
					<line class="st1" x1="242.5" y1="253.10000610351562" x2="238.89999389648438" y2="254.1999969482422" id="svg_417"/>
				</g>
			</g>
		</g>
		<g id="svg_418">
			<g id="svg_419">
				<g id="svg_420">
					<path d="M238.9,254.7c-0.2,0-0.4-0.1-0.5-0.4c-0.1-0.3,0.1-0.5,0.3-0.6l3.6-1.1c0.3-0.1,0.5,0.1,0.6,0.3       c0.1,0.3-0.1,0.5-0.3,0.6l-3.6,1.1C239,254.7,238.9,254.7,238.9,254.7z" id="svg_421"/>
				</g>
			</g>
		</g>
	</g>
	<g id="svg_422">
		<g id="svg_423">
			<g id="svg_424">
				<g id="svg_425">
					<circle class="st2" cx="224.8000030517578" cy="246.39999389648438" r="3" id="svg_426"/>
				</g>
			</g>
		</g>
	</g>
	<g id="svg_427">
		<g id="svg_428">
			<g id="svg_429">
				<g id="svg_430">
					<path d="M242.1,211c0,0,2.3-11.2-7.2-19.3c-11.5,2.9-16.9-2.1-22.3,7c-3.6,6-1.2,16.2-1.2,16.2s-0.1-11.1,10.3-9.3       c-2.6-6,4.2-10.5,8.8-5.7C232.1,193.7,242.5,198.9,242.1,211z" id="svg_431"/>
				</g>
			</g>
		</g>
		<g id="svg_432">
			<g id="svg_433">
				<g id="svg_434">
					<path d="M211.3,215.8c-0.5,0-0.9-0.3-1-0.8c-0.1-0.4-2.4-10.6,1.3-16.9c3.7-6.3,7.8-6.4,12.9-6.4c2.8,0,6.1,0,10.1-1.1       c0.3-0.1,0.6,0,0.9,0.2c9.8,8.4,7.6,19.8,7.5,20.2c-0.1,0.5-0.6,0.9-1.1,0.8c-0.5-0.1-0.9-0.5-0.9-1c0.3-7.5-3.9-12.2-7-12.6       c-1.3-0.2-2.2,0.4-2.6,1.8c-0.1,0.4-0.4,0.6-0.7,0.7c-0.4,0.1-0.7,0-1-0.3c-2.1-2.3-4.5-2-5.9-1.1c-1.4,0.9-2.5,2.9-1.3,5.7       c0.1,0.3,0.1,0.7-0.1,1c-0.2,0.3-0.6,0.4-1,0.4c-2.7-0.5-4.8,0-6.3,1.2c-2.8,2.4-2.8,7-2.8,7.1c0,0.5-0.4,0.9-0.9,1       C211.4,215.8,211.4,215.8,211.3,215.8z M234.6,192.8c-4,1-7.3,1-10,1c-5,0-8,0-11.2,5.4c-1.7,2.9-1.9,6.9-1.8,10.1       c0.5-1.1,1.2-2.1,2.3-3c1.7-1.4,3.8-2,6.3-1.9c-0.6-2.9,0.7-5.4,2.6-6.6c1.9-1.3,4.8-1.5,7.3,0.4c0.9-1.4,2.4-2.2,4.2-1.9       c1.9,0.3,3.8,1.5,5.3,3.4C238.6,197.4,237.1,195,234.6,192.8z" id="svg_435"/>
				</g>
			</g>
		</g>
	</g>
	<g id="svg_436">
		<g id="svg_437">
			<g id="svg_438">
				<g id="svg_439">
					<path class="st1" d="M270.1,260c-2.2,2.2-11.7,7.7-18.6,11.2c-5.8,3-8-4-4.1-5.7c2.1-0.9,10.9-4.9,16.7-9.2       c1.9-1.4,2.5-11.1,3.4-12.4" id="svg_440"/>
				</g>
			</g>
		</g>
		<g id="svg_441">
			<g id="svg_442">
				<g id="svg_443">
					<path d="M248.9,272.9c-1.2,0-2-0.4-2.5-0.7c-1.3-0.9-2-2.5-1.9-4.1c0.1-1.6,1.1-2.9,2.6-3.6c1.1-0.5,10.5-4.7,16.5-9       c0.9-0.6,1.6-5.1,2-7.4c0.5-2.6,0.7-4,1.2-4.7c0.3-0.5,0.9-0.6,1.4-0.3c0.5,0.3,0.6,0.9,0.3,1.4c-0.2,0.4-0.6,2.4-0.9,3.9       c-0.8,4.5-1.4,7.7-2.8,8.7c-6,4.4-15.1,8.5-16.8,9.3c-1.1,0.5-1.3,1.4-1.4,1.9c-0.1,0.9,0.3,1.8,1,2.3c0.9,0.6,2.1,0.5,3.6-0.2       c7.3-3.7,16.4-9,18.4-11c0.4-0.4,1-0.4,1.4,0s0.4,1,0,1.4c-2.4,2.4-12.7,8.2-18.9,11.4C250.7,272.7,249.7,272.9,248.9,272.9z" id="svg_444"/>
				</g>
			</g>
		</g>
	</g>
	<g id="svg_445">
		<g id="svg_446">
			<g id="svg_447">
				<g id="svg_448">
					<path class="st1" d="M263,292c-0.1,10.5,1.7,45,2.3,48.3c0.7,3.3,8,3,7.7-2c-0.7-9.5-0.3-30.4-0.3-35.7       c0-5.3,3.6-11.4,3.6-11.4" id="svg_449"/>
				</g>
			</g>
		</g>
		<g id="svg_450">
			<g id="svg_451">
				<g id="svg_452">
					<path d="M268.8,343.5c-2.2,0-4-1.2-4.4-3c-0.7-3.4-2.5-38.3-2.3-48.5c0-0.6,0.5-1,1-1c0.6,0,1,0.5,1,1       c-0.1,10.2,1.6,44.7,2.3,48.1c0.2,1.1,1.7,1.5,3,1.3c0.7-0.1,2.9-0.6,2.7-3.1c-0.5-7.6-0.4-22.8-0.3-30.9c0-2.1,0-3.8,0-4.9       c0-5.5,3.6-11.6,3.7-11.9c0.3-0.5,0.9-0.6,1.4-0.4c0.5,0.3,0.6,0.9,0.4,1.4c0,0.1-3.4,5.9-3.4,10.9c0,1.1,0,2.8,0,4.9       c-0.1,8.1-0.2,23.2,0.3,30.8c0.2,3.2-2.1,4.9-4.4,5.2C269.4,343.5,269.1,343.5,268.8,343.5z" id="svg_453"/>
				</g>
			</g>
		</g>
	</g>
	<g id="svg_454">
		<g id="svg_455">
			<g id="svg_456">
				<g id="svg_457">
					<path class="st1" d="M276.4,291.2c1.1,20.6,2.7,45.8,3.4,49.1c0.7,3.3,8,3,7.7-2c-0.7-9.5-0.1-37.2-0.1-42.4" id="svg_458"/>
				</g>
			</g>
		</g>
		<g id="svg_459">
			<g id="svg_460">
				<g id="svg_461">
					<path d="M283.2,343.5c-2.2,0-4-1.2-4.4-3c-0.7-3.4-2.4-28.7-3.4-49.3c0-0.6,0.4-1,0.9-1.1c0.5,0,1,0.4,1.1,0.9       c1.1,20.4,2.7,45.7,3.4,49c0.2,1.1,1.7,1.5,3,1.3c0.7-0.1,2.9-0.6,2.7-3.1c-0.5-7.3-0.3-25.1-0.1-35.8c0-3.1,0.1-5.5,0.1-6.7       c0-0.6,0.4-1,1-1s1,0.4,1,1c0,1.2,0,3.6-0.1,6.7c-0.1,10.6-0.4,28.4,0.1,35.6c0.2,3.2-2.1,4.9-4.4,5.2       C283.8,343.5,283.5,343.5,283.2,343.5z" id="svg_462"/>
				</g>
			</g>
		</g>
	</g>
	<g id="svg_463">
		<g id="svg_464">
			<g id="svg_465">
				<g id="svg_466">
					<path class="st1" d="M268.3,263.7c0-6.1-3.8-13.6-4.2-15.5c-0.8-4.4,1.6-8.3,3.7-11.5c0.6-0.9-0.9-1.8,0.4-2.9       c1.1-0.9,2.5-1.7,4-2c2.1-0.5,3.7-1.3,3.7-2.8c0,0,0,0,0,0c1.1,0.6,3.1,1,3.1,1s0.4,3.4,2.1,4.2c1.1,0.5,2.2,1.2,2.9,2.3       c5.1,8,1.4,20.6,1.9,28c0.5,8,4.1,6.6,4.1,13.9c0,7.3-2.7,8.1-2.7,22.9c0,0-14.5,3.7-24.4-3.9       C262.9,275.7,268.3,268,268.3,263.7z" id="svg_467"/>
				</g>
			</g>
		</g>
		<g id="svg_468">
			<g id="svg_469">
				<g id="svg_470">
					<path d="M279,303c-5,0-11.4-1-16.7-5c-0.2-0.2-0.4-0.5-0.4-0.8c0-14.9,2.6-23.4,4.2-28.5c0.7-2.2,1.2-3.8,1.2-5       c0-4.1-1.9-9-3.1-12.2c-0.5-1.4-0.9-2.5-1.1-3.1c-0.8-4.7,1.4-8.6,3.8-12.2c0,0-0.1-0.2-0.1-0.3c-0.2-0.6-0.5-1.8,0.7-2.9       c1.3-1.1,2.8-1.8,4.4-2.2c1.1-0.3,3-0.9,2.9-1.9c0-0.3,0.1-0.6,0.4-0.8c0.3-0.2,0.7-0.3,1.1-0.1c0.8,0.4,2.3,0.8,2.8,0.9       c0.4,0.1,0.7,0.4,0.8,0.8c0.2,1.1,0.7,3,1.5,3.4c1.6,0.7,2.6,1.6,3.3,2.7c3.7,5.8,3,13.7,2.4,20.7c-0.3,2.9-0.5,5.6-0.4,7.8       c0.2,3.7,1.2,5.3,2.1,6.7c1,1.6,2,3.3,2,7.2c0,3.1-0.5,5.1-1,7.4c-0.7,3.1-1.7,7-1.7,15.5c0,0.5-0.3,0.9-0.8,1       C287.2,302.1,283.7,303,279,303z M263.9,296.7c8.1,5.9,19.4,4.2,22.4,3.6c0.1-8.3,1-12.1,1.7-15.2c0.5-2.2,1-4,1-6.9       c0-3.4-0.8-4.7-1.7-6.2c-1-1.6-2.1-3.4-2.3-7.7c-0.1-2.3,0.1-5.1,0.4-8.1c0.6-6.6,1.3-14.2-2.1-19.4c-0.5-0.7-1.3-1.4-2.5-1.9       c-1.6-0.8-2.3-3-2.5-4.2c-0.4-0.1-1-0.3-1.5-0.4c-0.6,1.1-2,2-4.2,2.5c-1.3,0.3-2.5,0.9-3.6,1.8c-0.3,0.2-0.3,0.2-0.1,0.8       c0.1,0.5,0.4,1.2-0.1,2c-2.2,3.3-4.2,6.8-3.5,10.8c0.1,0.5,0.5,1.5,1,2.7c1.3,3.4,3.2,8.4,3.2,12.9c0,1.5-0.5,3.2-1.3,5.6       C266.5,274.2,264,282.3,263.9,296.7z" id="svg_471"/>
				</g>
			</g>
		</g>
	</g>
	<g id="svg_472">
		<g id="svg_473">
			<g id="svg_474">
				<g id="svg_475">
					<path class="st5" d="M267.5,258.2l18.7-0.8l1.7,13.2h-21C267,270.6,270.8,264.4,267.5,258.2z" id="svg_476"/>
				</g>
			</g>
		</g>
	</g>
	<g id="svg_477">
		<g id="svg_478">
			<g id="svg_479">
				<g id="svg_480">
					<path d="M269.5,245.7c0,0-0.1,0-0.1,0c-0.5-0.1-0.9-0.6-0.9-1.1c0.4-2.7,1-5.2,2-7.3c0-0.1-0.1-0.4-0.2-0.5       c-0.3-0.8-1-2.3,0.5-3.5c3.4-2.8,5.2-2.9,7-3.1c0.4,0,0.9-0.1,1.3-0.2c0.5-0.1,1.1,0.3,1.2,0.8c0.1,0.5-0.3,1.1-0.8,1.2       c-0.5,0.1-1,0.1-1.5,0.2c-1.6,0.1-3,0.3-5.9,2.6c-0.2,0.2-0.3,0.3,0.1,1.2c0.2,0.6,0.5,1.3,0.2,2c-0.9,2-1.5,4.3-1.9,6.9       C270.5,245.3,270,245.7,269.5,245.7z" id="svg_481"/>
				</g>
			</g>
		</g>
	</g>
	<g id="svg_482">
		<g id="svg_483">
			<g id="svg_484">
				<g id="svg_485">
					<path d="M262.9,298.2c-0.6,0-1-0.4-1-1c0-14.9,2.6-23.4,4.2-28.5c0.7-2.2,1.2-3.8,1.2-5c0-4.1-1.9-9-3.1-12.2       c-0.5-1.4-0.9-2.5-1.1-3.1c-0.8-4.7,1.4-8.6,3.8-12.2c0,0-0.1-0.2-0.1-0.3c-0.2-0.6-0.5-1.8,0.7-2.9c0.4-0.4,1.1-0.3,1.4,0.1       c0.4,0.4,0.3,1.1-0.1,1.4c-0.3,0.2-0.3,0.2-0.1,0.8c0.1,0.5,0.4,1.2-0.1,2c-2.2,3.3-4.2,6.8-3.5,10.8c0.1,0.5,0.5,1.5,1,2.7       c1.3,3.4,3.2,8.4,3.2,12.9c0,1.5-0.5,3.2-1.3,5.6c-1.5,4.9-4.1,13.2-4.1,27.9C263.9,297.7,263.5,298.2,262.9,298.2z" id="svg_486"/>
				</g>
			</g>
		</g>
	</g>
	<g id="svg_487">
		<g id="svg_488">
			<g id="svg_489">
				<g id="svg_490">
					<path d="M287.3,302c-0.6,0-1-0.4-1-1c0-8.8,1-12.8,1.7-16c0.5-2.2,1-4,1-6.9c0-3.4-0.8-4.7-1.7-6.2c-1-1.6-2.1-3.4-2.3-7.7       c-0.1-2.3,0.1-5.1,0.4-8.1c0.6-6.6,1.3-14.2-2.1-19.4c-0.5-0.7-1.3-1.4-2.5-1.9c-2.1-1-2.6-4.5-2.7-4.9c-0.1-0.5,0.3-1,0.9-1.1       c0.5-0.1,1,0.3,1.1,0.9c0.2,1.1,0.7,3,1.5,3.4c1.6,0.7,2.6,1.6,3.3,2.7c3.7,5.8,3,13.7,2.4,20.7c-0.3,2.9-0.5,5.6-0.4,7.8       c0.2,3.7,1.2,5.3,2.1,6.7c1,1.6,2,3.3,2,7.2c0,3.1-0.5,5.1-1,7.4c-0.7,3.1-1.7,7-1.7,15.5C288.3,301.6,287.8,302,287.3,302z" id="svg_491"/>
				</g>
			</g>
		</g>
	</g>
	<g id="svg_492">
		<g id="svg_493">
			<g id="svg_494">
				<g id="svg_495">
					<g id="svg_496">

							<ellipse transform="matrix(0.1274,-0.9919,0.9919,0.1274,25.8723,457.1292) " class="st1" cx="272.70001220703125" cy="213.89999389648438" rx="18.200000762939453" ry="15.5" id="svg_497"/>
					</g>
				</g>
			</g>
			<g id="svg_498">
				<g id="svg_499">
					<g id="svg_500">
						<path d="M272.1,233c-0.6,0-1.2,0-1.9-0.1c-9-1.2-15.3-10.6-13.9-21.2l0,0c1.3-10.5,9.8-18.1,18.8-16.9        c4.4,0.6,8.3,3.1,10.9,7.1c2.6,4,3.7,9,3,14c-0.6,5.1-2.9,9.6-6.5,12.8C279.6,231.5,275.9,233,272.1,233z M258.3,212        c-1.2,9.4,4.3,17.9,12.2,18.9c3.8,0.5,7.6-0.8,10.8-3.6c3.2-2.9,5.2-7,5.8-11.6c0.6-4.6-0.4-9.1-2.7-12.7        c-2.3-3.5-5.7-5.8-9.5-6.2C267,195.8,259.5,202.6,258.3,212L258.3,212z" id="svg_501"/>
					</g>
				</g>
			</g>
		</g>
		<g id="svg_502">
			<g id="svg_503">
				<g id="svg_504">
					<g id="svg_505">
						<path d="M289.3,216c1.8-10.7-4.9-20.4-14.1-21.6c-5.5-0.7-11.2,1.5-14.4,6.2c-2.6,4-0.5,9.7,10.7,7.7        c6.9-1.2,10.3,14.1,1.2,16.9C272.8,225.3,287.2,228.1,289.3,216z" id="svg_506"/>
					</g>
				</g>
			</g>
			<g id="svg_507">
				<g id="svg_508">
					<g id="svg_509">
						<path d="M276.2,226.6c-2.1,0-3.5-0.3-3.7-0.3c-0.4-0.1-0.8-0.5-0.8-0.9c0-0.5,0.3-0.9,0.7-1c4.4-1.4,5.4-6.2,4.5-10        c-0.7-2.8-2.6-5.5-5.2-5c-8,1.4-11-1.1-12.1-2.7c-1.2-1.9-1.1-4.4,0.3-6.6c3.2-4.8,9.2-7.4,15.3-6.7c4.4,0.6,8.5,3,11.3,6.9        c3.3,4.4,4.6,10.2,3.6,15.9c-0.6,3.5-2.2,6.1-4.8,7.9C282.5,226.2,278.9,226.6,276.2,226.6z M276.1,224.6        c2.4,0,5.7-0.4,8.3-2.2c2.1-1.5,3.4-3.7,3.9-6.6c0.9-5.1-0.3-10.3-3.3-14.3c-2.5-3.4-6.1-5.6-10-6.1        c-5.4-0.7-10.6,1.6-13.4,5.8c-1,1.5-1.1,3.2-0.3,4.4c1.3,2.1,5,2.7,10.1,1.8c3.4-0.6,6.4,2,7.5,6.5        C279.8,217.7,279,222.1,276.1,224.6z M289.3,216L289.3,216L289.3,216z" id="svg_510"/>
					</g>
				</g>
			</g>
		</g>
		<g id="svg_511">
			<g id="svg_512">
				<g id="svg_513">
					<g id="svg_514">
						<path d="M270.7,219.9C270.7,219.9,270.7,219.9,270.7,219.9c-0.2,0-0.4-0.2-0.4-0.4c0-0.9-0.7-1.6-1.6-1.7        c-0.9,0-1.6,0.7-1.7,1.6c0,0.2-0.2,0.4-0.4,0.4c-0.2,0-0.4-0.2-0.4-0.4c0-1.3,1.2-2.3,2.4-2.3c0.6,0,1.2,0.3,1.7,0.7        c0.4,0.5,0.7,1.1,0.7,1.7C271.1,219.7,270.9,219.9,270.7,219.9z" id="svg_515"/>
					</g>
				</g>
			</g>
		</g>
		<g id="svg_516">
			<g id="svg_517">
				<g id="svg_518">
					<g id="svg_519">
						<path d="M264.3,219.4C264.3,219.4,264.3,219.4,264.3,219.4c-0.2,0-0.4-0.2-0.4-0.4c0-0.4-0.1-0.8-0.5-1.2        c-0.3-0.3-0.7-0.5-1.1-0.5c-0.4,0-0.8,0.1-1.2,0.5c-0.3,0.3-0.5,0.7-0.5,1.1c0,0.2-0.2,0.4-0.4,0.4c-0.2,0-0.4-0.2-0.4-0.4        c0-0.6,0.3-1.2,0.7-1.7s1.1-0.7,1.7-0.7c0.6,0,1.2,0.3,1.7,0.7c0.4,0.5,0.7,1.1,0.7,1.7C264.6,219.2,264.5,219.4,264.3,219.4z        " id="svg_520"/>
					</g>
				</g>
			</g>
		</g>
		<g id="svg_521">
			<g id="svg_522">
				<g id="svg_523">
					<g id="svg_524">
						<path d="M263.8,224.1c0,0.8,0.6,1.5,1.5,1.5s1.5-0.6,1.5-1.5" id="svg_525"/>
					</g>
				</g>
			</g>
		</g>
	</g>
	<g id="svg_526">
		<g id="svg_527">
			<g id="svg_528">
				<g id="svg_529">
					<path class="st1" d="M282.3,239.8c0,0,8.6,23,6.9,25.7c-1.7,2.6-9.4,12.1-14,16.8c-4.5,4.7-9-0.2-6.1-3.5       c2-2.3,11.1-12.9,11.4-16.4s-5.7-17.6-5.7-17.6s-2.7-6.5,2.6-8.3C280.8,235.3,282.3,239.8,282.3,239.8z" id="svg_530"/>
				</g>
			</g>
		</g>
		<g id="svg_531">
			<g id="svg_532">
				<g id="svg_533">
					<path d="M271.5,285.2c-1.1,0-2.1-0.4-2.9-1.1c-1.4-1.3-2-3.9-0.2-5.9c6.6-7.6,11-13.8,11.1-15.8c0.2-2.4-3.3-11.6-5.6-17.2       c-0.1-0.2-1.5-3.8-0.2-6.7c0.6-1.4,1.8-2.4,3.4-3c1.1-0.4,2.2-0.3,3.1,0.2c2,1,2.9,3.5,3,3.8c2.6,7.1,8.6,23.8,6.8,26.5       c-1.7,2.8-9.6,12.4-14.1,17C274.5,284.6,272.9,285.2,271.5,285.2z M278.5,237.2c-0.2,0-0.5,0-0.8,0.1c-1.1,0.4-1.8,1-2.2,1.9       c-1,2.1,0.2,5.1,0.2,5.1c0.6,1.5,6.1,14.4,5.8,18.1c-0.3,3.6-8.2,13.1-11.6,17c-1,1.1-0.7,2.4,0,3.2c0.9,0.8,2.6,1,4.6-1       c4.3-4.4,12.2-14,13.8-16.6c0.8-1.6-3.1-14.1-7-24.8c0,0,0,0,0,0c-0.2-0.6-0.9-2.1-2-2.7C279.1,237.3,278.8,237.2,278.5,237.2z       " id="svg_534"/>
				</g>
			</g>
		</g>
	</g>
	<g id="svg_535">
		<g id="svg_536">
			<g id="svg_537">
				<g id="svg_538">
					<path class="st1" d="M211.8,251.4c3.5-0.6,7.3-1.5,9.2-2.3c2.4,7.4,3.8,10.7,5.8,12.7c2,2,11.6,3.1,18.5,3.6       c6.4,0.5,4.5,8.5-0.5,7.9c-0.9-0.1-22.9-0.6-25.8-5.5C216.6,264,211.8,251.4,211.8,251.4z" id="svg_539"/>
				</g>
			</g>
		</g>
		<g id="svg_540">
			<g id="svg_541">
				<g id="svg_542">
					<path d="M245.3,274.4c-0.2,0-0.4,0-0.6,0c-0.1,0-0.4,0-0.8,0c-15.4-0.7-23.8-2.6-25.8-5.9c-2.3-3.9-7-16.1-7.2-16.6       c-0.1-0.3-0.1-0.6,0.1-0.9c0.1-0.3,0.4-0.4,0.7-0.5c3.3-0.5,7.1-1.5,9-2.2c0.3-0.1,0.5-0.1,0.8,0c0.2,0.1,0.4,0.3,0.5,0.6       c2.4,7.4,3.8,10.5,5.6,12.3c0.8,0.8,4.1,2.2,17.9,3.3c3,0.2,4.1,1.8,4.6,2.8c0.7,1.6,0.5,3.6-0.6,5.1       C248.4,273.6,246.9,274.4,245.3,274.4z M213.1,252.2c1.2,3.2,4.8,12.1,6.7,15.2c0.7,1.2,4.5,4.1,24.1,5c0.5,0,0.9,0,1,0.1       c1.5,0.2,2.4-0.7,2.8-1.2c0.7-0.9,0.8-2.1,0.4-3.1c-0.4-0.9-1.4-1.5-2.9-1.6c-14.8-1.1-18-2.8-19.2-3.9c-2-2-3.4-5-5.8-12.1       C218.5,251,215.8,251.7,213.1,252.2z" id="svg_543"/>
				</g>
			</g>
		</g>
	</g>
</g></g></svg>