<svg width="500" height="280" xmlns="http://www.w3.org/2000/svg">

 <style type="text/css">.st0{fill:#E6E7E8;}
	.st1{fill:#FFFFFF;}
	.st2{fill:#FFD16C;}
	.st3{fill:#FFD16D;}
	.st4{fill:#C7C8CA;}
	.st5{fill:#C7C8C9;}
	.st6{fill:#FFFFFF;stroke:#000000;stroke-width:2;stroke-linecap:round;stroke-linejoin:round;stroke-miterlimit:10;}</style>
 <g class="currentLayer">
  <title>Layer 1</title>
  <g id="svg_215">
   <g id="svg_216">
    <g id="svg_217">
     <g id="svg_218">
      <g id="svg_219">
       <rect id="svg_220" height="2" width="4.8" class="st2" y="59.600006" x="320.399994"/>
      </g>
     </g>
    </g>
   </g>
   <g id="svg_221">
    <g id="svg_222">
     <g id="svg_223">
      <g id="svg_224">
       <rect id="svg_225" height="2" width="4.8" class="st2" y="66.100006" x="313.799988"/>
      </g>
     </g>
    </g>
   </g>
   <g id="svg_226">
    <g id="svg_227">
     <g id="svg_228">
      <g id="svg_229">
       <rect id="svg_230" height="4.8" width="2" class="st2" y="64.699997" x="321.799988"/>
      </g>
     </g>
    </g>
   </g>
   <g id="svg_231">
    <g id="svg_232">
     <g id="svg_233">
      <g id="svg_234">
       <rect id="svg_235" height="4.8" width="2" class="st2" y="58.199997" x="315.200012"/>
      </g>
     </g>
    </g>
   </g>
  </g>
  <g id="svg_236">
   <g id="svg_237">
    <g id="svg_238">
     <g id="svg_239">
      <g id="svg_240">
       <rect id="svg_241" height="2" width="4.8" class="st2" y="175.799988" x="188.5"/>
      </g>
     </g>
    </g>
   </g>
   <g id="svg_242">
    <g id="svg_243">
     <g id="svg_244">
      <g id="svg_245">
       <rect id="svg_246" height="2" width="4.8" class="st2" y="182.299988" x="181.899994"/>
      </g>
     </g>
    </g>
   </g>
   <g id="svg_247">
    <g id="svg_248">
     <g id="svg_249">
      <g id="svg_250">
       <rect id="svg_251" height="4.8" width="2" class="st2" y="180.899994" x="189.899994"/>
      </g>
     </g>
    </g>
   </g>
   <g id="svg_252">
    <g id="svg_253">
     <g id="svg_254">
      <g id="svg_255">
       <rect id="svg_256" height="4.8" width="2" class="st2" y="174.399994" x="183.300003"/>
      </g>
     </g>
    </g>
   </g>
  </g>
  <g id="svg_257">
   <g id="svg_258">
    <g id="svg_259">
     <g id="svg_260">
      <line id="svg_261" y2="216.600006" x2="347.5" y1="216.600006" x1="155.600006" class="st1"/>
     </g>
    </g>
   </g>
   <g id="svg_262">
    <g id="svg_263">
     <g id="svg_264">
      <path id="svg_265" d="m347.5,217.1l-191.9,0c-0.3,0 -0.5,-0.2 -0.5,-0.5s0.2,-0.5 0.5,-0.5l191.9,0c0.3,0 0.5,0.2 0.5,0.5s-0.3,0.5 -0.5,0.5z"/>
     </g>
    </g>
   </g>
  </g>
  <g id="svg_266">
   <g id="svg_267">
    <g id="svg_268">
     <g id="svg_269">
      <circle id="svg_270" r="57.5" cy="117.100006" cx="250" class="st2"/>
     </g>
    </g>
   </g>
  </g>
  <g id="svg_271">
   <g id="svg_272">
    <g id="svg_273">
     <g id="svg_274">
      <circle id="svg_275" r="2.6" cy="102.600006" cx="160.5" class="st2"/>
     </g>
    </g>
   </g>
  </g>
  <g id="svg_276">
   <g id="svg_277">
    <g id="svg_278">
     <g id="svg_279">
      <circle id="svg_280" r="2.6" cy="40.899994" cx="245.300003" class="st2"/>
     </g>
    </g>
   </g>
  </g>
  <g id="svg_281">
   <g id="svg_282">
    <g id="svg_283">
     <g id="svg_284">
      <g id="svg_285">
       <path id="svg_286" d="m245.8,158.2c0,16.6 -0.9,28.9 -1.1,35.6c-0.2,3.7 -2.6,28 -4.2,31.2c-1.6,3.2 -5.8,2.5 -6.5,-1.9s2.1,-28.8 2.1,-28.8l-7.9,-26.3l17.6,-9.8z" class="st1"/>
      </g>
     </g>
    </g>
    <g id="svg_287">
     <g id="svg_288">
      <g id="svg_289">
       <path id="svg_290" d="m237.5,227.9c-0.2,0 -0.4,0 -0.6,0c-1.6,-0.2 -3.5,-1.6 -4,-4.7c-0.7,-4.3 1.8,-26.4 2.1,-28.9l-7.9,-26.1c-0.1,-0.5 0.1,-0.9 0.5,-1.2l17.8,-9.7c0.3,-0.2 0.7,-0.2 1,0c0.3,0.2 0.5,0.5 0.5,0.9c0,12.9 -0.5,23.4 -0.9,30.3c-0.1,2 -0.2,3.8 -0.3,5.3c-0.1,3.5 -2.6,28.1 -4.3,31.6c-0.9,1.6 -2.3,2.5 -3.9,2.5zm-8.3,-59.6l7.7,25.5c0,0.1 0.1,0.3 0,0.4c-1,8.4 -2.6,25.2 -2.1,28.6c0.3,2 1.4,2.9 2.4,3c0.9,0.1 1.8,-0.4 2.3,-1.4c1.4,-2.8 4,-26.4 4.1,-30.7c0.1,-1.5 0.2,-3.3 0.3,-5.3c0.3,-6.6 0.8,-16.4 0.9,-28.5l-15.6,8.4z"/>
      </g>
     </g>
    </g>
   </g>
   <g id="svg_291">
    <g id="svg_292">
     <g id="svg_293">
      <g id="svg_294">
       <path id="svg_295" d="m238,165.9c0,0 -0.1,19.9 -0.8,27.9c-0.7,8 -4,28.4 -4,28.4s2.8,5.1 3.4,2.8c0.7,-2.2 4.3,-32.4 4.3,-32.4l0.2,-30l-3.1,3.3z" class="st0"/>
      </g>
     </g>
    </g>
   </g>
   <g id="svg_296">
    <g id="svg_297">
     <g id="svg_298">
      <g id="svg_299">
       <path id="svg_300" d="m237.5,227.9c-0.2,0 -0.4,0 -0.6,0c-1.6,-0.2 -3.5,-1.6 -4,-4.7c-0.7,-4.3 1.8,-26.4 2.1,-28.9l-7.9,-26.1c-0.1,-0.4 0,-0.9 0.4,-1.1l17.8,-11.9c0.3,-0.2 0.7,-0.2 1,-0.1c0.3,0.2 0.5,0.5 0.5,0.9c0,13.1 -0.6,24.8 -1,32.5c-0.1,2.1 -0.2,3.9 -0.3,5.4c-0.1,3.5 -2.6,28.1 -4.3,31.6c-0.7,1.5 -2.1,2.4 -3.7,2.4zm-8.3,-59.6l7.7,25.6c0,0.1 0.1,0.3 0,0.4c-1,8.4 -2.6,25.2 -2.1,28.6c0.3,2 1.4,2.9 2.4,3c0.9,0.1 1.8,-0.4 2.3,-1.4c1.4,-2.8 4,-26.4 4.1,-30.7c0.1,-1.4 0.1,-3.3 0.3,-5.4c0.4,-7.4 0.9,-18.3 1,-30.6l-15.7,10.5z"/>
      </g>
     </g>
    </g>
   </g>
   <g id="svg_301">
    <g id="svg_302">
     <g id="svg_303">
      <g id="svg_304">
       <path id="svg_305" d="m239,160.3c-0.9,18.8 -1.5,28.8 -2,34.9c-0.6,6.6 -4.8,29.2 -6.5,32.6c-1.7,3.3 -6.1,2.6 -6.8,-2s0.3,-22.6 0.3,-30.2c0,-11.7 -4.1,-15 -3.2,-33.5c0.3,-5.7 18.2,-1.8 18.2,-1.8z" class="st1"/>
      </g>
     </g>
    </g>
    <g id="svg_306">
     <g id="svg_307">
      <g id="svg_308">
       <path id="svg_309" d="m227.5,230.7c-0.2,0 -0.4,0 -0.6,0c-1.7,-0.3 -3.7,-1.7 -4.2,-4.9c-0.5,-3.1 -0.2,-12.1 0,-20c0.1,-4 0.2,-7.8 0.2,-10.3c0,-4.8 -0.7,-8.2 -1.5,-11.8c-1.1,-5.1 -2.3,-10.9 -1.7,-21.8c0,-1 0.5,-1.9 1.3,-2.5c4,-3.1 16.7,-0.5 18.1,-0.2c0.5,0.1 0.8,0.5 0.8,1c-1,19.3 -1.5,29 -2,34.9c-0.6,6.3 -4.8,29.3 -6.6,32.9c-0.7,1.8 -2.1,2.7 -3.8,2.7zm0.3,-70.8c-2.3,0 -4.4,0.3 -5.4,1.1c-0.4,0.3 -0.5,0.6 -0.6,1c-0.5,10.7 0.7,16.3 1.7,21.3c0.8,3.7 1.5,7.2 1.5,12.2c0,2.6 -0.1,6.4 -0.2,10.4c-0.2,7.8 -0.5,16.6 0,19.6c0.3,2.1 1.5,3.1 2.5,3.2c1,0.1 1.9,-0.4 2.5,-1.5c1.6,-3.1 5.8,-25.8 6.4,-32.2c0.5,-5.8 1.1,-15.2 2,-33.9c-2.7,-0.5 -6.9,-1.2 -10.4,-1.2z"/>
      </g>
     </g>
    </g>
   </g>
   <g id="svg_310">
    <g id="svg_311">
     <g id="svg_312">
      <g id="svg_313">
       <path id="svg_314" d="m221.2,163c0,0 1.3,17 2.4,26.5c0.9,8 0.1,36.2 0.1,36.2s1.8,5.2 3.3,3.7c1.4,-1.4 3.3,-24.6 3.9,-32.4c0.1,-1.7 0.2,-3.4 0.1,-5l-1.2,-26.9l-8.6,-2.1z" class="st0"/>
      </g>
     </g>
    </g>
   </g>
   <g id="svg_315">
    <g id="svg_316">
     <g id="svg_317">
      <g id="svg_318">
       <path id="svg_319" d="m227.5,230.7c-0.2,0 -0.4,0 -0.6,0c-1.7,-0.3 -3.7,-1.7 -4.2,-4.9c-0.5,-3.1 -0.2,-12.1 0,-20c0.1,-4 0.2,-7.8 0.2,-10.3c0,-4.8 -0.7,-8.2 -1.5,-11.8c-1.1,-5.1 -2.3,-10.9 -1.7,-21.8c0,-1 0.5,-1.9 1.3,-2.5c4,-3.1 16.7,-0.5 18.1,-0.2c0.5,0.1 0.8,0.5 0.8,1c-1,19.3 -1.5,29 -2,34.9c-0.6,6.3 -4.8,29.3 -6.6,32.9c-0.7,1.8 -2.1,2.7 -3.8,2.7zm0.3,-70.8c-2.3,0 -4.4,0.3 -5.4,1.1c-0.4,0.3 -0.5,0.6 -0.6,1c-0.5,10.7 0.7,16.3 1.7,21.3c0.8,3.7 1.5,7.2 1.5,12.2c0,2.6 -0.1,6.4 -0.2,10.4c-0.2,7.8 -0.5,16.6 0,19.6c0.3,2.1 1.5,3.1 2.5,3.2c1,0.1 1.9,-0.4 2.5,-1.5c1.6,-3.1 5.8,-25.8 6.4,-32.2c0.5,-5.8 1.1,-15.2 2,-33.9c-2.7,-0.5 -6.9,-1.2 -10.4,-1.2z"/>
      </g>
     </g>
    </g>
   </g>
   <g id="svg_320">
    <g id="svg_321">
     <g id="svg_322">
      <g id="svg_323">
       <path id="svg_324" d="m235.6,122.5c0,0 21.3,11.8 24.3,11c3,-0.8 14.4,-5.3 20.2,-8.2c5.8,-2.9 2.5,-8.6 -1.5,-6.9c-2.7,1.2 -16.2,7.5 -19.7,6.7s-11.1,-6.3 -11.1,-6.3s-7.3,-3 -10.6,1.4c-2,3 -1.6,2.3 -1.6,2.3z" class="st1"/>
      </g>
     </g>
    </g>
    <g id="svg_325">
     <g id="svg_326">
      <g id="svg_327">
       <path id="svg_328" d="m259.7,134.6c-4,0 -18.7,-8 -24.1,-10.9c-0.2,0 -0.4,-0.1 -0.6,-0.2c-0.4,-0.3 -0.5,-1 -0.2,-1.4c0.1,-0.1 0.2,-0.2 0.3,-0.3c0.2,-0.2 0.6,-0.8 1.5,-2c3.7,-5 11.5,-1.9 11.8,-1.8c0.1,0 0.1,0.1 0.2,0.1c2.1,1.5 8.1,5.5 10.8,6.1c1.8,0.4 7.8,-1.6 17.8,-6.1c0.5,-0.2 1,-0.4 1.3,-0.6c2.5,-1.1 4.8,0.2 5.6,2c1,2 0.3,4.9 -3.3,6.7c-5.7,2.9 -17.3,7.5 -20.4,8.3c-0.3,0 -0.5,0.1 -0.7,0.1zm-22.6,-12.4c10,5.5 20.9,10.7 22.5,10.4c3,-0.8 14.5,-5.4 20,-8.2c2.6,-1.3 2.9,-3 2.4,-4.1c-0.4,-0.9 -1.6,-1.6 -3,-1c-0.3,0.1 -0.7,0.3 -1.2,0.5c-7.7,3.5 -16.1,6.9 -19.1,6.2c-3.4,-0.8 -10.4,-5.7 -11.4,-6.3c-0.8,-0.3 -6.7,-2.4 -9.3,1.1c-0.3,0.6 -0.6,1 -0.9,1.4z"/>
      </g>
     </g>
    </g>
   </g>
   <g id="svg_329">
    <g id="svg_330">
     <g id="svg_331">
      <g id="svg_332">
       <path id="svg_333" d="m224.9,133.1l-0.1,0.7c0.1,-0.4 0.1,-0.7 0.1,-0.7z" class="st1"/>
      </g>
     </g>
    </g>
    <g id="svg_334">
     <g id="svg_335">
      <g id="svg_336">
       <path id="svg_337" d="m224.8,134.9c0,0 -0.1,0 -0.1,0c-0.5,-0.1 -0.9,-0.6 -0.9,-1.1c0.1,-0.5 0.1,-0.8 0.1,-0.8c0.1,-0.5 0.6,-0.9 1.1,-0.9c0.5,0.1 0.9,0.6 0.9,1.1l-0.1,0.7c0,0.6 -0.5,1 -1,1z"/>
      </g>
     </g>
    </g>
   </g>
   <g id="svg_338">
    <g id="svg_339">
     <g id="svg_340">
      <g id="svg_341">
       <path id="svg_342" d="m246.9,133.4c0,1.6 -0.1,2.2 -0.4,3.7c-1.2,5.3 0.2,18.9 -1.2,23.4c-1.5,4.6 -17.9,6 -24,2.4c-2,-3.8 -2.6,-10.8 -2.6,-15.4c0,-2.9 -0.7,-5.7 -2.8,-12.2l9.2,-2.3c0,0 -5.5,4.3 -9.2,2.3c0,0 -2.6,-11 -1.5,-13.8c2.3,-5.8 10.4,-4.3 11.3,-9.7c0,0 0,0 0,0c1.9,0.5 3.9,0.6 5.9,0.3c1.5,-0.3 2.9,-0.8 4.2,-1.5l0,0c1,3.4 3,4.4 7.2,5.4c1.7,0.4 3.1,0.9 5,2.8c0.3,0.3 5.7,3.3 5.7,3.7l-2.8,7.8c0,0.1 -4.5,-4.6 -4,3.1z" class="st1"/>
      </g>
     </g>
    </g>
    <g id="svg_343">
     <g id="svg_344">
      <g id="svg_345">
       <path id="svg_346" d="m231.4,166c-4.1,0 -8.2,-0.7 -10.7,-2.1c-0.2,-0.1 -0.3,-0.2 -0.4,-0.4c-2,-3.8 -2.8,-10.7 -2.8,-15.9c0,-2.7 -0.6,-5.2 -2.8,-11.9c0,0 0,0 0,-0.1l0,0c0,0 0,0 0,0c0,0 0,0 0,0l0,0c0,0 0,0 0,0c0,0 0,0 0,0c0,0 0,0 0,0l0,0c0,0 0,0 0,0l0,0c0,0 0,0 0,0c-0.3,-1.2 -2.6,-11.4 -1.4,-14.4c1.3,-3.3 4.1,-4.5 6.7,-5.5c2.6,-1.1 4.3,-1.9 4.6,-4c0,-0.2 0.2,-0.4 0.3,-0.6c0.3,-0.2 0.6,-0.3 0.9,-0.2c1.8,0.5 3.7,0.6 5.5,0.3c1.3,-0.2 2.6,-0.7 3.9,-1.4c0.3,-0.1 0.6,-0.2 0.9,-0.1c0.3,0.1 0.5,0.4 0.6,0.6c0.9,2.9 2.4,3.8 6.5,4.7c1.7,0.4 3.4,0.9 5.5,3c0.1,0.1 0.9,0.5 1.5,0.9c4.2,2.5 4.4,2.7 4.5,3.5c0,0.1 0,0.2 -0.1,0.4l-2.8,7.8c-0.1,0.3 -0.4,0.6 -0.7,0.6c-0.3,0.1 -0.7,0 -0.9,-0.3c-0.6,-0.6 -1.6,-1.2 -1.8,-1.1c0,0 -0.6,0.4 -0.5,3.3c0,0 0,0 0,0c0,1.7 -0.1,2.4 -0.4,4c-0.6,2.4 -0.5,6.8 -0.5,11.1c0,5.1 0.1,9.9 -0.8,12.5c-0.5,1.4 -1.9,2.6 -4.3,3.5c-2.7,1.2 -6.6,1.8 -10.5,1.8zm-9.4,-3.8c4.4,2.4 14.1,2.2 19.2,0.2c1.7,-0.7 2.8,-1.5 3.1,-2.3c0.7,-2.3 0.7,-7.1 0.7,-11.8c0,-4.6 -0.1,-8.9 0.5,-11.5c0.3,-1.4 0.4,-2 0.4,-3.5c-0.1,-1.9 0,-4.5 1.7,-5.2c1,-0.4 2.1,0 2.9,0.5l2.1,-5.8c-0.8,-0.5 -2.4,-1.5 -3.3,-2.1c-1.5,-0.9 -1.8,-1.1 -1.9,-1.2c-1.8,-1.8 -3,-2.1 -4.5,-2.5c-4,-0.9 -6.3,-2 -7.5,-5c-1.1,0.5 -2.3,0.9 -3.5,1.1c-1.8,0.3 -3.6,0.3 -5.4,-0.1c-0.9,2.5 -3.3,3.5 -5.6,4.5c-2.4,1 -4.6,1.9 -5.6,4.4c-0.7,1.7 0.4,8 1.3,12.2l8.2,-2c0.5,-0.1 0.9,0.1 1.1,0.5c0.2,0.4 0.1,0.9 -0.3,1.2c-0.2,0.2 -4.4,3.4 -8.2,3c1.8,5.5 2.3,8 2.3,10.7c-0.1,4.7 0.5,11.2 2.3,14.7zm30.8,-39.1l0,0l0,0z"/>
      </g>
     </g>
    </g>
   </g>
   <g id="svg_347">
    <g id="svg_348">
     <g id="svg_349">
      <g id="svg_350">
       <path id="svg_351" d="m232.9,120.4c-6,0 -9.6,-4.9 -9.8,-5.1c-0.3,-0.4 -0.2,-1.1 0.2,-1.4c0.4,-0.3 1.1,-0.2 1.4,0.2c0.2,0.2 4.1,5.5 10.3,4c1,-0.2 1.6,-0.6 1.9,-1.2c0.5,-0.9 0,-2.2 0,-2.2c-0.2,-0.5 0,-1.1 0.5,-1.3c0.5,-0.2 1.1,0 1.3,0.5c0,0.1 0.9,2.1 0,3.9c-0.6,1.1 -1.7,1.9 -3.2,2.2c-0.9,0.4 -1.8,0.4 -2.6,0.4z"/>
      </g>
     </g>
    </g>
   </g>
   <g id="svg_352">
    <g id="svg_353">
     <g id="svg_354">
      <g id="svg_355">
       <line id="svg_356" y2="126.899994" x2="224" y1="133.100006" x1="224.899994" class="st1"/>
      </g>
     </g>
    </g>
    <g id="svg_357">
     <g id="svg_358">
      <g id="svg_359">
       <path id="svg_360" d="m224.9,134.1c-0.5,0 -0.9,-0.4 -1,-0.8l-1,-6.3c-0.1,-0.5 0.3,-1.1 0.8,-1.1c0.5,-0.1 1.1,0.3 1.1,0.8l1,6.3c0.1,0.5 -0.3,1.1 -0.8,1.1c0,0 0,0 -0.1,0z"/>
      </g>
     </g>
    </g>
   </g>
   <g id="svg_361">
    <g id="svg_362">
     <g id="svg_363">
      <g id="svg_364">
       <ellipse id="svg_365" ry="18.200001" rx="15.5" cy="95.300003" cx="230.5" class="st1"/>
      </g>
     </g>
    </g>
    <g id="svg_366">
     <g id="svg_367">
      <g id="svg_368">
       <path id="svg_369" d="m230.6,114.5c-4.3,0 -8.4,-1.9 -11.6,-5.5c-3.2,-3.6 -4.9,-8.3 -5,-13.4c-0.2,-10.6 7,-19.3 16.1,-19.5c4.5,-0.1 8.6,1.9 11.8,5.5c3.2,3.6 4.9,8.3 5,13.4c0.2,10.6 -7,19.3 -16.1,19.5c0,0 -0.1,0 -0.2,0zm-0.2,-36.4c-0.1,0 -0.2,0 -0.2,0c-8,0.2 -14.4,8 -14.2,17.5c0.1,4.6 1.7,8.9 4.5,12.1c2.8,3.2 6.5,4.9 10.3,4.8c8,-0.2 14.4,-8 14.2,-17.5c-0.1,-4.6 -1.7,-8.9 -4.5,-12.1c-2.7,-3.1 -6.3,-4.8 -10.1,-4.8z"/>
      </g>
     </g>
    </g>
   </g>
   <g id="svg_370">
    <g id="svg_371">
     <g id="svg_372">
      <g id="svg_373">
       <path id="svg_374" d="m219.8,94.2c0.2,-8.1 4.8,-14.9 11.1,-17.1c-0.1,0 -0.1,0 -0.2,0c-8.6,-0.2 -15.7,7.8 -15.9,17.9c-0.2,10.1 6.6,18.3 15.2,18.5c1.7,0 3.3,-0.3 4.8,-0.8c-8.5,-0.3 -15.2,-8.5 -15,-18.5z" class="st0"/>
      </g>
     </g>
    </g>
   </g>
   <g id="svg_375">
    <g id="svg_376">
     <g id="svg_377">
      <g id="svg_378">
       <path id="svg_379" d="m233.3,108.3c-1.8,0 -6.5,-0.4 -10.1,-4.2c-0.1,-0.2 -0.1,-0.4 0,-0.5c0.2,-0.1 0.4,-0.1 0.5,0c4.1,4.4 10.1,3.9 10.2,3.9c0.2,0 0.4,0.1 0.4,0.3s-0.1,0.4 -0.3,0.4c0,0.1 -0.3,0.1 -0.7,0.1z"/>
      </g>
     </g>
    </g>
   </g>
   <g id="svg_380">
    <g id="svg_381">
     <g id="svg_382">
      <g id="svg_383">
       <path id="svg_384" d="m229.9,100.3c-0.2,0 -0.4,-0.2 -0.4,-0.4c0,-0.6 0.2,-1.2 0.6,-1.7s1,-0.8 1.6,-0.8c0.6,0 1.2,0.2 1.7,0.6s0.8,1 0.8,1.6c0,0.2 -0.1,0.4 -0.4,0.4c-0.2,0 -0.4,-0.1 -0.4,-0.4c0,-0.4 -0.2,-0.8 -0.5,-1.1c-0.3,-0.3 -0.7,-0.4 -1.2,-0.4c-0.4,0 -0.8,0.2 -1.1,0.5c-0.3,0.3 -0.4,0.7 -0.4,1.2c0.1,0.3 -0.1,0.5 -0.3,0.5c0,0 0,0 0,0z"/>
      </g>
     </g>
    </g>
   </g>
   <g id="svg_385">
    <g id="svg_386">
     <g id="svg_387">
      <g id="svg_388">
       <path id="svg_389" d="m236.3,99.5c-0.2,0 -0.4,-0.2 -0.4,-0.4c0,-0.6 0.2,-1.2 0.6,-1.7c0.4,-0.5 1,-0.8 1.6,-0.8c0.6,0 1.2,0.2 1.7,0.6c0.5,0.4 0.8,1 0.8,1.6c0,0.2 -0.1,0.4 -0.4,0.4c-0.2,0 -0.4,-0.1 -0.4,-0.4c0,-0.4 -0.2,-0.8 -0.5,-1.1c-0.3,-0.3 -0.7,-0.4 -1.2,-0.4c-0.4,0 -0.8,0.2 -1.1,0.5c-0.3,0.3 -0.4,0.7 -0.4,1.2c0.1,0.3 -0.1,0.5 -0.3,0.5c0,0 0,0 0,0z"/>
      </g>
     </g>
    </g>
   </g>
   <g id="svg_390">
    <g id="svg_391">
     <g id="svg_392">
      <g id="svg_393">
       <path id="svg_394" d="m230.6,114.5c-4.3,0 -8.4,-1.9 -11.6,-5.5c-3.2,-3.6 -4.9,-8.3 -5,-13.4c-0.2,-10.6 7,-19.3 16.1,-19.5c4.5,-0.1 8.6,1.9 11.8,5.5c3.2,3.6 4.9,8.3 5,13.4c0.2,10.6 -7,19.3 -16.1,19.5c0,0 -0.1,0 -0.2,0zm-0.2,-36.4c-0.1,0 -0.2,0 -0.2,0c-8,0.2 -14.4,8 -14.2,17.5c0.1,4.6 1.7,8.9 4.5,12.1c2.8,3.2 6.5,4.9 10.3,4.8c8,-0.2 14.4,-8 14.2,-17.5c-0.1,-4.6 -1.7,-8.9 -4.5,-12.1c-2.7,-3.1 -6.3,-4.8 -10.1,-4.8z"/>
      </g>
     </g>
    </g>
   </g>
   <g id="svg_395">
    <g id="svg_396">
     <g id="svg_397">
      <g id="svg_398">
       <line id="svg_399" y2="125.699997" x2="246.399994" y1="133.399994" x1="246.899994" class="st1"/>
      </g>
     </g>
    </g>
    <g id="svg_400">
     <g id="svg_401">
      <g id="svg_402">
       <path id="svg_403" d="m246.9,134.4c-0.5,0 -1,-0.4 -1,-0.9l-0.4,-7.6c0,-0.6 0.4,-1 0.9,-1.1c0.6,0 1,0.4 1.1,0.9l0.4,7.6c0,0.6 -0.4,1 -1,1.1c0,0 0,0 0,0z"/>
      </g>
     </g>
    </g>
   </g>
   <g id="svg_404">
    <g id="svg_405">
     <g id="svg_406">
      <g id="svg_407">
       <line id="svg_408" y2="137.5" x2="226" y1="138.199997" x1="233.100006" class="st1"/>
      </g>
     </g>
    </g>
    <g id="svg_409">
     <g id="svg_410">
      <g id="svg_411">
       <path id="svg_412" d="m233.1,138.7c-0.1,0 -0.1,0 0,0l-7.1,-0.7c-0.3,0 -0.5,-0.3 -0.5,-0.5c0,-0.3 0.3,-0.5 0.5,-0.5l7,0.7c0.3,0 0.5,0.3 0.5,0.5c0,0.3 -0.2,0.5 -0.4,0.5z"/>
      </g>
     </g>
    </g>
   </g>
   <g id="svg_413">
    <g id="svg_414">
     <g id="svg_415">
      <g id="svg_416">
       <line id="svg_417" y2="138.199997" x2="242.899994" y1="137.100006" x1="246.5" class="st1"/>
      </g>
     </g>
    </g>
    <g id="svg_418">
     <g id="svg_419">
      <g id="svg_420">
       <path id="svg_421" d="m242.9,138.7c-0.2,0 -0.4,-0.1 -0.5,-0.4c-0.1,-0.3 0.1,-0.5 0.3,-0.6l3.6,-1.1c0.3,-0.1 0.5,0.1 0.6,0.3c0.1,0.3 -0.1,0.5 -0.3,0.6l-3.6,1.1c0,0.1 -0.1,0.1 -0.1,0.1z"/>
      </g>
     </g>
    </g>
   </g>
   <g id="svg_422">
    <g id="svg_423">
     <g id="svg_424">
      <g id="svg_425">
       <circle id="svg_426" r="3" cy="130.399994" cx="228.800003" class="st2"/>
      </g>
     </g>
    </g>
   </g>
   <g id="svg_427">
    <g id="svg_428">
     <g id="svg_429">
      <g id="svg_430">
       <path id="svg_431" d="m246.1,95c0,0 2.3,-11.2 -7.2,-19.3c-11.5,2.9 -16.9,-2.1 -22.3,7c-3.6,6 -1.2,16.2 -1.2,16.2s-0.1,-11.1 10.3,-9.3c-2.6,-6 4.2,-10.5 8.8,-5.7c1.6,-6.2 12,-1 11.6,11.1z"/>
      </g>
     </g>
    </g>
    <g id="svg_432">
     <g id="svg_433">
      <g id="svg_434">
       <path id="svg_435" d="m215.3,99.8c-0.5,0 -0.9,-0.3 -1,-0.8c-0.1,-0.4 -2.4,-10.6 1.3,-16.9c3.7,-6.3 7.8,-6.4 12.9,-6.4c2.8,0 6.1,0 10.1,-1.1c0.3,-0.1 0.6,0 0.9,0.2c9.8,8.4 7.6,19.8 7.5,20.2c-0.1,0.5 -0.6,0.9 -1.1,0.8c-0.5,-0.1 -0.9,-0.5 -0.9,-1c0.3,-7.5 -3.9,-12.2 -7,-12.6c-1.3,-0.2 -2.2,0.4 -2.6,1.8c-0.1,0.4 -0.4,0.6 -0.7,0.7c-0.4,0.1 -0.7,0 -1,-0.3c-2.1,-2.3 -4.5,-2 -5.9,-1.1c-1.4,0.9 -2.5,2.9 -1.3,5.7c0.1,0.3 0.1,0.7 -0.1,1c-0.2,0.3 -0.6,0.4 -1,0.4c-2.7,-0.5 -4.8,0 -6.3,1.2c-2.8,2.4 -2.8,7 -2.8,7.1c0,0.5 -0.4,0.9 -0.9,1c0,0.1 0,0.1 -0.1,0.1zm23.3,-23c-4,1 -7.3,1 -10,1c-5,0 -8,0 -11.2,5.4c-1.7,2.9 -1.9,6.9 -1.8,10.1c0.5,-1.1 1.2,-2.1 2.3,-3c1.7,-1.4 3.8,-2 6.3,-1.9c-0.6,-2.9 0.7,-5.4 2.6,-6.6c1.9,-1.3 4.8,-1.5 7.3,0.4c0.9,-1.4 2.4,-2.2 4.2,-1.9c1.9,0.3 3.8,1.5 5.3,3.4c-1,-2.3 -2.5,-4.7 -5,-6.9z"/>
      </g>
     </g>
    </g>
   </g>
   <g id="svg_436">
    <g id="svg_437">
     <g id="svg_438">
      <g id="svg_439">
       <path id="svg_440" d="m274.1,144c-2.2,2.2 -11.7,7.7 -18.6,11.2c-5.8,3 -8,-4 -4.1,-5.7c2.1,-0.9 10.9,-4.9 16.7,-9.2c1.9,-1.4 2.5,-11.1 3.4,-12.4" class="st1"/>
      </g>
     </g>
    </g>
    <g id="svg_441">
     <g id="svg_442">
      <g id="svg_443">
       <path id="svg_444" d="m252.9,156.9c-1.2,0 -2,-0.4 -2.5,-0.7c-1.3,-0.9 -2,-2.5 -1.9,-4.1c0.1,-1.6 1.1,-2.9 2.6,-3.6c1.1,-0.5 10.5,-4.7 16.5,-9c0.9,-0.6 1.6,-5.1 2,-7.4c0.5,-2.6 0.7,-4 1.2,-4.7c0.3,-0.5 0.9,-0.6 1.4,-0.3c0.5,0.3 0.6,0.9 0.3,1.4c-0.2,0.4 -0.6,2.4 -0.9,3.9c-0.8,4.5 -1.4,7.7 -2.8,8.7c-6,4.4 -15.1,8.5 -16.8,9.3c-1.1,0.5 -1.3,1.4 -1.4,1.9c-0.1,0.9 0.3,1.8 1,2.3c0.9,0.6 2.1,0.5 3.6,-0.2c7.3,-3.7 16.4,-9 18.4,-11c0.4,-0.4 1,-0.4 1.4,0s0.4,1 0,1.4c-2.4,2.4 -12.7,8.2 -18.9,11.4c-1.4,0.5 -2.4,0.7 -3.2,0.7z"/>
      </g>
     </g>
    </g>
   </g>
   <g id="svg_445">
    <g id="svg_446">
     <g id="svg_447">
      <g id="svg_448">
       <path id="svg_449" d="m267,176c-0.1,10.5 1.7,45 2.3,48.3c0.7,3.3 8,3 7.7,-2c-0.7,-9.5 -0.3,-30.4 -0.3,-35.7c0,-5.3 3.6,-11.4 3.6,-11.4" class="st1"/>
      </g>
     </g>
    </g>
    <g id="svg_450">
     <g id="svg_451">
      <g id="svg_452">
       <path id="svg_453" d="m272.8,227.5c-2.2,0 -4,-1.2 -4.4,-3c-0.7,-3.4 -2.5,-38.3 -2.3,-48.5c0,-0.6 0.5,-1 1,-1c0.6,0 1,0.5 1,1c-0.1,10.2 1.6,44.7 2.3,48.1c0.2,1.1 1.7,1.5 3,1.3c0.7,-0.1 2.9,-0.6 2.7,-3.1c-0.5,-7.6 -0.4,-22.8 -0.3,-30.9c0,-2.1 0,-3.8 0,-4.9c0,-5.5 3.6,-11.6 3.7,-11.9c0.3,-0.5 0.9,-0.6 1.4,-0.4c0.5,0.3 0.6,0.9 0.4,1.4c0,0.1 -3.4,5.9 -3.4,10.9c0,1.1 0,2.8 0,4.9c-0.1,8.1 -0.2,23.2 0.3,30.8c0.2,3.2 -2.1,4.9 -4.4,5.2c-0.4,0.1 -0.7,0.1 -1,0.1z"/>
      </g>
     </g>
    </g>
   </g>
   <g id="svg_454">
    <g id="svg_455">
     <g id="svg_456">
      <g id="svg_457">
       <path id="svg_458" d="m280.4,175.2c1.1,20.6 2.7,45.8 3.4,49.1c0.7,3.3 8,3 7.7,-2c-0.7,-9.5 -0.1,-37.2 -0.1,-42.4" class="st1"/>
      </g>
     </g>
    </g>
    <g id="svg_459">
     <g id="svg_460">
      <g id="svg_461">
       <path id="svg_462" d="m287.2,227.5c-2.2,0 -4,-1.2 -4.4,-3c-0.7,-3.4 -2.4,-28.7 -3.4,-49.3c0,-0.6 0.4,-1 0.9,-1.1c0.5,0 1,0.4 1.1,0.9c1.1,20.4 2.7,45.7 3.4,49c0.2,1.1 1.7,1.5 3,1.3c0.7,-0.1 2.9,-0.6 2.7,-3.1c-0.5,-7.3 -0.3,-25.1 -0.1,-35.8c0,-3.1 0.1,-5.5 0.1,-6.7c0,-0.6 0.4,-1 1,-1s1,0.4 1,1c0,1.2 0,3.6 -0.1,6.7c-0.1,10.6 -0.4,28.4 0.1,35.6c0.2,3.2 -2.1,4.9 -4.4,5.2c-0.3,0.3 -0.6,0.3 -0.9,0.3z"/>
      </g>
     </g>
    </g>
   </g>
   <g id="svg_463">
    <g id="svg_464">
     <g id="svg_465">
      <g id="svg_466">
       <path id="svg_467" d="m272.3,147.7c0,-6.1 -3.8,-13.6 -4.2,-15.5c-0.8,-4.4 1.6,-8.3 3.7,-11.5c0.6,-0.9 -0.9,-1.8 0.4,-2.9c1.1,-0.9 2.5,-1.7 4,-2c2.1,-0.5 3.7,-1.3 3.7,-2.8c0,0 0,0 0,0c1.1,0.6 3.1,1 3.1,1s0.4,3.4 2.1,4.2c1.1,0.5 2.2,1.2 2.9,2.3c5.1,8 1.4,20.6 1.9,28c0.5,8 4.1,6.6 4.1,13.9c0,7.3 -2.7,8.1 -2.7,22.9c0,0 -14.5,3.7 -24.4,-3.9c0,-21.7 5.4,-29.4 5.4,-33.7z" class="st1"/>
      </g>
     </g>
    </g>
    <g id="svg_468">
     <g id="svg_469">
      <g id="svg_470">
       <path id="svg_471" d="m283,187c-5,0 -11.4,-1 -16.7,-5c-0.2,-0.2 -0.4,-0.5 -0.4,-0.8c0,-14.9 2.6,-23.4 4.2,-28.5c0.7,-2.2 1.2,-3.8 1.2,-5c0,-4.1 -1.9,-9 -3.1,-12.2c-0.5,-1.4 -0.9,-2.5 -1.1,-3.1c-0.8,-4.7 1.4,-8.6 3.8,-12.2c0,0 -0.1,-0.2 -0.1,-0.3c-0.2,-0.6 -0.5,-1.8 0.7,-2.9c1.3,-1.1 2.8,-1.8 4.4,-2.2c1.1,-0.3 3,-0.9 2.9,-1.9c0,-0.3 0.1,-0.6 0.4,-0.8c0.3,-0.2 0.7,-0.3 1.1,-0.1c0.8,0.4 2.3,0.8 2.8,0.9c0.4,0.1 0.7,0.4 0.8,0.8c0.2,1.1 0.7,3 1.5,3.4c1.6,0.7 2.6,1.6 3.3,2.7c3.7,5.8 3,13.7 2.4,20.7c-0.3,2.9 -0.5,5.6 -0.4,7.8c0.2,3.7 1.2,5.3 2.1,6.7c1,1.6 2,3.3 2,7.2c0,3.1 -0.5,5.1 -1,7.4c-0.7,3.1 -1.7,7 -1.7,15.5c0,0.5 -0.3,0.9 -0.8,1c-0.1,0 -3.6,0.9 -8.3,0.9zm-15.1,-6.3c8.1,5.9 19.4,4.2 22.4,3.6c0.1,-8.3 1,-12.1 1.7,-15.2c0.5,-2.2 1,-4 1,-6.9c0,-3.4 -0.8,-4.7 -1.7,-6.2c-1,-1.6 -2.1,-3.4 -2.3,-7.7c-0.1,-2.3 0.1,-5.1 0.4,-8.1c0.6,-6.6 1.3,-14.2 -2.1,-19.4c-0.5,-0.7 -1.3,-1.4 -2.5,-1.9c-1.6,-0.8 -2.3,-3 -2.5,-4.2c-0.4,-0.1 -1,-0.3 -1.5,-0.4c-0.6,1.1 -2,2 -4.2,2.5c-1.3,0.3 -2.5,0.9 -3.6,1.8c-0.3,0.2 -0.3,0.2 -0.1,0.8c0.1,0.5 0.4,1.2 -0.1,2c-2.2,3.3 -4.2,6.8 -3.5,10.8c0.1,0.5 0.5,1.5 1,2.7c1.3,3.4 3.2,8.4 3.2,12.9c0,1.5 -0.5,3.2 -1.3,5.6c-1.7,4.8 -4.2,12.9 -4.3,27.3z"/>
      </g>
     </g>
    </g>
   </g>
   <g id="svg_472">
    <g id="svg_473">
     <g id="svg_474">
      <g id="svg_475">
       <path id="svg_476" d="m271.5,142.2l18.7,-0.8l1.7,13.2l-21,0c0.1,0 3.9,-6.2 0.6,-12.4z" class="st5"/>
      </g>
     </g>
    </g>
   </g>
   <g id="svg_477">
    <g id="svg_478">
     <g id="svg_479">
      <g id="svg_480">
       <path id="svg_481" d="m273.5,129.7c0,0 -0.1,0 -0.1,0c-0.5,-0.1 -0.9,-0.6 -0.9,-1.1c0.4,-2.7 1,-5.2 2,-7.3c0,-0.1 -0.1,-0.4 -0.2,-0.5c-0.3,-0.8 -1,-2.3 0.5,-3.5c3.4,-2.8 5.2,-2.9 7,-3.1c0.4,0 0.9,-0.1 1.3,-0.2c0.5,-0.1 1.1,0.3 1.2,0.8c0.1,0.5 -0.3,1.1 -0.8,1.2c-0.5,0.1 -1,0.1 -1.5,0.2c-1.6,0.1 -3,0.3 -5.9,2.6c-0.2,0.2 -0.3,0.3 0.1,1.2c0.2,0.6 0.5,1.3 0.2,2c-0.9,2 -1.5,4.3 -1.9,6.9c0,0.4 -0.5,0.8 -1,0.8z"/>
      </g>
     </g>
    </g>
   </g>
   <g id="svg_482">
    <g id="svg_483">
     <g id="svg_484">
      <g id="svg_485">
       <path id="svg_486" d="m266.9,182.2c-0.6,0 -1,-0.4 -1,-1c0,-14.9 2.6,-23.4 4.2,-28.5c0.7,-2.2 1.2,-3.8 1.2,-5c0,-4.1 -1.9,-9 -3.1,-12.2c-0.5,-1.4 -0.9,-2.5 -1.1,-3.1c-0.8,-4.7 1.4,-8.6 3.8,-12.2c0,0 -0.1,-0.2 -0.1,-0.3c-0.2,-0.6 -0.5,-1.8 0.7,-2.9c0.4,-0.4 1.1,-0.3 1.4,0.1c0.4,0.4 0.3,1.1 -0.1,1.4c-0.3,0.2 -0.3,0.2 -0.1,0.8c0.1,0.5 0.4,1.2 -0.1,2c-2.2,3.3 -4.2,6.8 -3.5,10.8c0.1,0.5 0.5,1.5 1,2.7c1.3,3.4 3.2,8.4 3.2,12.9c0,1.5 -0.5,3.2 -1.3,5.6c-1.5,4.9 -4.1,13.2 -4.1,27.9c0,0.5 -0.4,1 -1,1z"/>
      </g>
     </g>
    </g>
   </g>
   <g id="svg_487">
    <g id="svg_488">
     <g id="svg_489">
      <g id="svg_490">
       <path id="svg_491" d="m291.3,186c-0.6,0 -1,-0.4 -1,-1c0,-8.8 1,-12.8 1.7,-16c0.5,-2.2 1,-4 1,-6.9c0,-3.4 -0.8,-4.7 -1.7,-6.2c-1,-1.6 -2.1,-3.4 -2.3,-7.7c-0.1,-2.3 0.1,-5.1 0.4,-8.1c0.6,-6.6 1.3,-14.2 -2.1,-19.4c-0.5,-0.7 -1.3,-1.4 -2.5,-1.9c-2.1,-1 -2.6,-4.5 -2.7,-4.9c-0.1,-0.5 0.3,-1 0.9,-1.1c0.5,-0.1 1,0.3 1.1,0.9c0.2,1.1 0.7,3 1.5,3.4c1.6,0.7 2.6,1.6 3.3,2.7c3.7,5.8 3,13.7 2.4,20.7c-0.3,2.9 -0.5,5.6 -0.4,7.8c0.2,3.7 1.2,5.3 2.1,6.7c1,1.6 2,3.3 2,7.2c0,3.1 -0.5,5.1 -1,7.4c-0.7,3.1 -1.7,7 -1.7,15.5c0,0.5 -0.5,0.9 -1,0.9z"/>
      </g>
     </g>
    </g>
   </g>
   <g id="svg_492">
    <g id="svg_493">
     <g id="svg_494">
      <g id="svg_495">
       <g id="svg_496">
        <ellipse id="svg_497" ry="15.5" rx="18.200001" cy="97.899994" cx="276.700012" class="st1"/>
       </g>
      </g>
     </g>
     <g id="svg_498">
      <g id="svg_499">
       <g id="svg_500">
        <path id="svg_501" d="m276.1,117c-0.6,0 -1.2,0 -1.9,-0.1c-9,-1.2 -15.3,-10.6 -13.9,-21.2l0,0c1.3,-10.5 9.8,-18.1 18.8,-16.9c4.4,0.6 8.3,3.1 10.9,7.1c2.6,4 3.7,9 3,14c-0.6,5.1 -2.9,9.6 -6.5,12.8c-2.9,2.8 -6.6,4.3 -10.4,4.3zm-13.8,-21c-1.2,9.4 4.3,17.9 12.2,18.9c3.8,0.5 7.6,-0.8 10.8,-3.6c3.2,-2.9 5.2,-7 5.8,-11.6c0.6,-4.6 -0.4,-9.1 -2.7,-12.7c-2.3,-3.5 -5.7,-5.8 -9.5,-6.2c-7.9,-1 -15.4,5.8 -16.6,15.2l0,0z"/>
       </g>
      </g>
     </g>
    </g>
    <g id="svg_502">
     <g id="svg_503">
      <g id="svg_504">
       <g id="svg_505">
        <path id="svg_506" d="m293.3,100c1.8,-10.7 -4.9,-20.4 -14.1,-21.6c-5.5,-0.7 -11.2,1.5 -14.4,6.2c-2.6,4 -0.5,9.7 10.7,7.7c6.9,-1.2 10.3,14.1 1.2,16.9c0.1,0.1 14.5,2.9 16.6,-9.2z"/>
       </g>
      </g>
     </g>
     <g id="svg_507">
      <g id="svg_508">
       <g id="svg_509">
        <path id="svg_510" d="m280.2,110.6c-2.1,0 -3.5,-0.3 -3.7,-0.3c-0.4,-0.1 -0.8,-0.5 -0.8,-0.9c0,-0.5 0.3,-0.9 0.7,-1c4.4,-1.4 5.4,-6.2 4.5,-10c-0.7,-2.8 -2.6,-5.5 -5.2,-5c-8,1.4 -11,-1.1 -12.1,-2.7c-1.2,-1.9 -1.1,-4.4 0.3,-6.6c3.2,-4.8 9.2,-7.4 15.3,-6.7c4.4,0.6 8.5,3 11.3,6.9c3.3,4.4 4.6,10.2 3.6,15.9c-0.6,3.5 -2.2,6.1 -4.8,7.9c-2.8,2.1 -6.4,2.5 -9.1,2.5zm-0.1,-2c2.4,0 5.7,-0.4 8.3,-2.2c2.1,-1.5 3.4,-3.7 3.9,-6.6c0.9,-5.1 -0.3,-10.3 -3.3,-14.3c-2.5,-3.4 -6.1,-5.6 -10,-6.1c-5.4,-0.7 -10.6,1.6 -13.4,5.8c-1,1.5 -1.1,3.2 -0.3,4.4c1.3,2.1 5,2.7 10.1,1.8c3.4,-0.6 6.4,2 7.5,6.5c0.9,3.8 0.1,8.2 -2.8,10.7zm13.2,-8.6l0,0l0,0z"/>
       </g>
      </g>
     </g>
    </g>
    <g id="svg_511">
     <g id="svg_512">
      <g id="svg_513">
       <g id="svg_514">
        <path id="svg_515" d="m274.7,103.9c0,0 0,0 0,0c-0.2,0 -0.4,-0.2 -0.4,-0.4c0,-0.9 -0.7,-1.6 -1.6,-1.7c-0.9,0 -1.6,0.7 -1.7,1.6c0,0.2 -0.2,0.4 -0.4,0.4c-0.2,0 -0.4,-0.2 -0.4,-0.4c0,-1.3 1.2,-2.3 2.4,-2.3c0.6,0 1.2,0.3 1.7,0.7c0.4,0.5 0.7,1.1 0.7,1.7c0.1,0.2 -0.1,0.4 -0.3,0.4z"/>
       </g>
      </g>
     </g>
    </g>
    <g id="svg_516">
     <g id="svg_517">
      <g id="svg_518">
       <g id="svg_519">
        <path id="svg_520" d="m268.3,103.4c0,0 0,0 0,0c-0.2,0 -0.4,-0.2 -0.4,-0.4c0,-0.4 -0.1,-0.8 -0.5,-1.2c-0.3,-0.3 -0.7,-0.5 -1.1,-0.5c-0.4,0 -0.8,0.1 -1.2,0.5c-0.3,0.3 -0.5,0.7 -0.5,1.1c0,0.2 -0.2,0.4 -0.4,0.4c-0.2,0 -0.4,-0.2 -0.4,-0.4c0,-0.6 0.3,-1.2 0.7,-1.7s1.1,-0.7 1.7,-0.7c0.6,0 1.2,0.3 1.7,0.7c0.4,0.5 0.7,1.1 0.7,1.7c0,0.3 -0.1,0.5 -0.3,0.5z"/>
       </g>
      </g>
     </g>
    </g>
    <g id="svg_521">
     <g id="svg_522">
      <g id="svg_523">
       <g id="svg_524">
        <path id="svg_525" d="m267.8,108.1c0,0.8 0.6,1.5 1.5,1.5s1.5,-0.6 1.5,-1.5"/>
       </g>
      </g>
     </g>
    </g>
   </g>
   <g id="svg_526">
    <g id="svg_527">
     <g id="svg_528">
      <g id="svg_529">
       <path id="svg_530" d="m286.3,123.8c0,0 8.6,23 6.9,25.7c-1.7,2.6 -9.4,12.1 -14,16.8c-4.5,4.7 -9,-0.2 -6.1,-3.5c2,-2.3 11.1,-12.9 11.4,-16.4s-5.7,-17.6 -5.7,-17.6s-2.7,-6.5 2.6,-8.3c3.4,-1.2 4.9,3.3 4.9,3.3z" class="st1"/>
      </g>
     </g>
    </g>
    <g id="svg_531">
     <g id="svg_532">
      <g id="svg_533">
       <path id="svg_534" d="m275.5,169.2c-1.1,0 -2.1,-0.4 -2.9,-1.1c-1.4,-1.3 -2,-3.9 -0.2,-5.9c6.6,-7.6 11,-13.8 11.1,-15.8c0.2,-2.4 -3.3,-11.6 -5.6,-17.2c-0.1,-0.2 -1.5,-3.8 -0.2,-6.7c0.6,-1.4 1.8,-2.4 3.4,-3c1.1,-0.4 2.2,-0.3 3.1,0.2c2,1 2.9,3.5 3,3.8c2.6,7.1 8.6,23.8 6.8,26.5c-1.7,2.8 -9.6,12.4 -14.1,17c-1.4,1.6 -3,2.2 -4.4,2.2zm7,-48c-0.2,0 -0.5,0 -0.8,0.1c-1.1,0.4 -1.8,1 -2.2,1.9c-1,2.1 0.2,5.1 0.2,5.1c0.6,1.5 6.1,14.4 5.8,18.1c-0.3,3.6 -8.2,13.1 -11.6,17c-1,1.1 -0.7,2.4 0,3.2c0.9,0.8 2.6,1 4.6,-1c4.3,-4.4 12.2,-14 13.8,-16.6c0.8,-1.6 -3.1,-14.1 -7,-24.8c0,0 0,0 0,0c-0.2,-0.6 -0.9,-2.1 -2,-2.7c-0.2,-0.2 -0.5,-0.3 -0.8,-0.3z"/>
      </g>
     </g>
    </g>
   </g>
   <g id="svg_535">
    <g id="svg_536">
     <g id="svg_537">
      <g id="svg_538">
       <path id="svg_539" d="m215.8,135.4c3.5,-0.6 7.3,-1.5 9.2,-2.3c2.4,7.4 3.8,10.7 5.8,12.7c2,2 11.6,3.1 18.5,3.6c6.4,0.5 4.5,8.5 -0.5,7.9c-0.9,-0.1 -22.9,-0.6 -25.8,-5.5c-2.4,-3.8 -7.2,-16.4 -7.2,-16.4z" class="st1"/>
      </g>
     </g>
    </g>
    <g id="svg_540">
     <g id="svg_541">
      <g id="svg_542">
       <path id="svg_543" d="m249.3,158.4c-0.2,0 -0.4,0 -0.6,0c-0.1,0 -0.4,0 -0.8,0c-15.4,-0.7 -23.8,-2.6 -25.8,-5.9c-2.3,-3.9 -7,-16.1 -7.2,-16.6c-0.1,-0.3 -0.1,-0.6 0.1,-0.9c0.1,-0.3 0.4,-0.4 0.7,-0.5c3.3,-0.5 7.1,-1.5 9,-2.2c0.3,-0.1 0.5,-0.1 0.8,0c0.2,0.1 0.4,0.3 0.5,0.6c2.4,7.4 3.8,10.5 5.6,12.3c0.8,0.8 4.1,2.2 17.9,3.3c3,0.2 4.1,1.8 4.6,2.8c0.7,1.6 0.5,3.6 -0.6,5.1c-1.1,1.2 -2.6,2 -4.2,2zm-32.2,-22.2c1.2,3.2 4.8,12.1 6.7,15.2c0.7,1.2 4.5,4.1 24.1,5c0.5,0 0.9,0 1,0.1c1.5,0.2 2.4,-0.7 2.8,-1.2c0.7,-0.9 0.8,-2.1 0.4,-3.1c-0.4,-0.9 -1.4,-1.5 -2.9,-1.6c-14.8,-1.1 -18,-2.8 -19.2,-3.9c-2,-2 -3.4,-5 -5.8,-12.1c-1.7,0.4 -4.4,1.1 -7.1,1.6z"/>
      </g>
     </g>
    </g>
   </g>
  </g>
 </g>
 <g>
  <title>Layer 2</title>
  <rect fill="none" y="0" x="0" height="100%" width="100%" id="backgroundrect"/>
 </g>
 <g>
  <title>background</title>
  <rect fill="none" id="canvas_background" height="282" width="502" y="-1" x="-1"/>
 </g>
</svg>