<svg xmlns="http://www.w3.org/2000/svg" xmlns:xlink="http://www.w3.org/1999/xlink" version="1.1" style="enable-background:new 0 0 500 500;" xml:space="preserve" width="500" height="500"><rect id="backgroundrect" width="100%" height="100%" x="0" y="0" fill="none" stroke="none"/>
<style type="text/css">
	.st0{fill:#E6E7E8;}
	.st1{fill:#FFFFFF;}
	.st2{fill:#FFD16C;}
	.st3{fill:#FFD16D;}
	.st4{fill:#C7C8CA;}
	.st5{fill:#C7C8C9;}
	.st6{fill:#FFFFFF;stroke:#000000;stroke-width:2;stroke-linecap:round;stroke-linejoin:round;stroke-miterlimit:10;}
</style>





































<g class="currentLayer" style=""><title>Layer 1</title><g id="svg_134">
	<g id="svg_135">
		<g id="svg_136">
			<g id="svg_137">
				<path class="st2" d="M195.7,333.2h-4c-0.6,0-1-0.4-1-1s0.4-1,1-1h4c0.6,0,1,0.4,1,1S196.2,333.2,195.7,333.2z M184.7,333.2h-4      c-0.6,0-1-0.4-1-1s0.4-1,1-1h4c0.6,0,1,0.4,1,1S185.2,333.2,184.7,333.2z M173.7,333.2h-4c-0.6,0-1-0.4-1-1s0.4-1,1-1h4      c0.6,0,1,0.4,1,1S174.2,333.2,173.7,333.2z M162.7,333.2h-4c-0.6,0-1-0.4-1-1s0.4-1,1-1h4c0.6,0,1,0.4,1,1      S163.2,333.2,162.7,333.2z M201.6,332.1c-0.6,0-1-0.4-1-1v-4c0-0.6,0.4-1,1-1s1,0.4,1,1v4C202.6,331.6,202.1,332.1,201.6,332.1z       M306.1,328.2h-4c-0.6,0-1-0.4-1-1s0.4-1,1-1h4c0.6,0,1,0.4,1,1S306.7,328.2,306.1,328.2z M295.1,328.2h-4c-0.6,0-1-0.4-1-1      s0.4-1,1-1h4c0.6,0,1,0.4,1,1S295.7,328.2,295.1,328.2z M284.1,328.2h-4c-0.6,0-1-0.4-1-1s0.4-1,1-1h4c0.6,0,1,0.4,1,1      S284.7,328.2,284.1,328.2z M273.1,328.2h-4c-0.6,0-1-0.4-1-1s0.4-1,1-1h4c0.6,0,1,0.4,1,1S273.7,328.2,273.1,328.2z       M262.1,328.2H259c-0.6,0-1-0.4-1-1v-0.8c0-0.6,0.4-1,1-1c0.5,0,0.9,0.4,1,0.8h2.2c0.6,0,1,0.4,1,1S262.7,328.2,262.1,328.2z       M201.6,321.1c-0.6,0-1-0.4-1-1v-4c0-0.6,0.4-1,1-1s1,0.4,1,1v4C202.6,320.6,202.1,321.1,201.6,321.1z M259,320.4      c-0.6,0-1-0.4-1-1v-4c0-0.6,0.4-1,1-1s1,0.4,1,1v4C260,319.9,259.5,320.4,259,320.4z M201.6,310.1c-0.6,0-1-0.4-1-1v-1.1      c0-0.6,0.4-1,1-1h2.9c0.6,0,1,0.4,1,1s-0.4,1-1,1h-1.9v0.1C202.6,309.6,202.1,310.1,201.6,310.1z M259,309.4      c-0.4,0-0.7-0.2-0.8-0.5h-2.7c-0.6,0-1-0.4-1-1s0.4-1,1-1h3.5c0.6,0,1,0.4,1,1v0.5C260,308.9,259.5,309.4,259,309.4z       M248.4,308.9h-4c-0.6,0-1-0.4-1-1s0.4-1,1-1h4c0.6,0,1,0.4,1,1S249,308.9,248.4,308.9z M237.4,308.9h-4c-0.6,0-1-0.4-1-1      s0.4-1,1-1h4c0.6,0,1,0.4,1,1S238,308.9,237.4,308.9z M226.4,308.9h-4c-0.6,0-1-0.4-1-1s0.4-1,1-1h4c0.6,0,1,0.4,1,1      S227,308.9,226.4,308.9z M215.4,308.9h-4c-0.6,0-1-0.4-1-1s0.4-1,1-1h4c0.6,0,1,0.4,1,1S216,308.9,215.4,308.9z" id="svg_138"/>
			</g>
		</g>
	</g>
</g><g id="svg_139">
	<g id="svg_140">
		<g id="svg_141">
			<g id="svg_142">
				<path class="st2" d="M409.8,310.6h-4c-0.6,0-1-0.4-1-1s0.4-1,1-1h4c0.6,0,1,0.4,1,1S410.4,310.6,409.8,310.6z M398.8,310.6h-4      c-0.6,0-1-0.4-1-1s0.4-1,1-1h4c0.6,0,1,0.4,1,1S399.4,310.6,398.8,310.6z M387.8,310.6h-4c-0.6,0-1-0.4-1-1s0.4-1,1-1h4      c0.6,0,1,0.4,1,1S388.4,310.6,387.8,310.6z M376.8,310.6h-4c-0.6,0-1-0.4-1-1s0.4-1,1-1h4c0.6,0,1,0.4,1,1      S377.4,310.6,376.8,310.6z M365.8,310.6h-4c-0.6,0-1-0.4-1-1s0.4-1,1-1h4c0.6,0,1,0.4,1,1S366.4,310.6,365.8,310.6z       M354.8,310.6h-4c-0.6,0-1-0.4-1-1s0.4-1,1-1h4c0.6,0,1,0.4,1,1S355.4,310.6,354.8,310.6z M343.8,310.6h-4c-0.6,0-1-0.4-1-1      s0.4-1,1-1h4c0.6,0,1,0.4,1,1S344.4,310.6,343.8,310.6z M412.3,306.1c-0.6,0-1-0.4-1-1v-4c0-0.6,0.4-1,1-1s1,0.4,1,1v4      C413.3,305.6,412.8,306.1,412.3,306.1z M412.3,295.1c-0.6,0-1-0.4-1-1v-4c0-0.6,0.4-1,1-1s1,0.4,1,1v4      C413.3,294.6,412.8,295.1,412.3,295.1z M412.3,284.1c-0.6,0-1-0.4-1-1v-4c0-0.6,0.4-1,1-1s1,0.4,1,1v4      C413.3,283.6,412.8,284.1,412.3,284.1z M408.6,276.7h-4c-0.6,0-1-0.4-1-1s0.4-1,1-1h4c0.6,0,1,0.4,1,1S409.2,276.7,408.6,276.7z       M397.6,276.7h-4c-0.6,0-1-0.4-1-1s0.4-1,1-1h4c0.6,0,1,0.4,1,1S398.2,276.7,397.6,276.7z M386.6,276.7h-4c-0.6,0-1-0.4-1-1      s0.4-1,1-1h4c0.6,0,1,0.4,1,1S387.2,276.7,386.6,276.7z M375.6,276.7h-4c-0.6,0-1-0.4-1-1s0.4-1,1-1h4c0.6,0,1,0.4,1,1      S376.2,276.7,375.6,276.7z M364.6,276.7h-4c-0.6,0-1-0.4-1-1s0.4-1,1-1h4c0.6,0,1,0.4,1,1S365.2,276.7,364.6,276.7z       M353.6,276.7h-4c-0.6,0-1-0.4-1-1s0.4-1,1-1h4c0.6,0,1,0.4,1,1S354.2,276.7,353.6,276.7z M342.9,276.4c-0.6,0-1-0.4-1-1v-4      c0-0.6,0.4-1,1-1s1,0.4,1,1v4C343.9,276,343.5,276.4,342.9,276.4z M342.9,265.4c-0.6,0-1-0.4-1-1v-4c0-0.6,0.4-1,1-1s1,0.4,1,1      v4C343.9,265,343.5,265.4,342.9,265.4z M342.9,254.4c-0.6,0-1-0.4-1-1v-4c0-0.6,0.4-1,1-1s1,0.4,1,1v4      C343.9,254,343.5,254.4,342.9,254.4z M342.9,243.4c-0.6,0-1-0.4-1-1v-4c0-0.6,0.4-1,1-1s1,0.4,1,1v4      C343.9,243,343.5,243.4,342.9,243.4z M342.9,232.4c-0.6,0-1-0.4-1-1v-4c0-0.6,0.4-1,1-1s1,0.4,1,1v4      C343.9,232,343.5,232.4,342.9,232.4z M342.9,221.4c-0.6,0-1-0.4-1-1v-4c0-0.6,0.4-1,1-1s1,0.4,1,1v4      C343.9,221,343.5,221.4,342.9,221.4z M342.9,210.4c-0.6,0-1-0.4-1-1v-4c0-0.6,0.4-1,1-1s1,0.4,1,1v4      C343.9,210,343.5,210.4,342.9,210.4z M340.5,201.9h-4c-0.6,0-1-0.4-1-1s0.4-1,1-1h4c0.6,0,1,0.4,1,1S341,201.9,340.5,201.9z       M329.5,201.9h-4c-0.6,0-1-0.4-1-1s0.4-1,1-1h4c0.6,0,1,0.4,1,1S330,201.9,329.5,201.9z" id="svg_143"/>
			</g>
		</g>
	</g>
</g><g id="svg_144">
	<g id="svg_145">
		<g id="svg_146">
			<g id="svg_147">
				<path class="st2" d="M203.9,220.6h-2.8c-0.6,0-1-0.4-1-1s0.4-1,1-1h1.8v-0.2c0-0.6,0.4-1,1-1s1,0.4,1,1v1.2      C204.9,220.2,204.5,220.6,203.9,220.6z M194.1,220.6h-4c-0.6,0-1-0.4-1-1s0.4-1,1-1h4c0.6,0,1,0.4,1,1S194.7,220.6,194.1,220.6z       M183.1,220.6h-4c-0.6,0-1-0.4-1-1s0.4-1,1-1h4c0.6,0,1,0.4,1,1S183.7,220.6,183.1,220.6z M172.1,220.6h-4c-0.6,0-1-0.4-1-1      s0.4-1,1-1h4c0.6,0,1,0.4,1,1S172.7,220.6,172.1,220.6z M203.9,212.4c-0.6,0-1-0.4-1-1v-4c0-0.6,0.4-1,1-1s1,0.4,1,1v4      C204.9,212,204.5,212.4,203.9,212.4z M203.9,201.4c-0.6,0-1-0.4-1-1v-4c0-0.6,0.4-1,1-1s1,0.4,1,1v4      C204.9,201,204.5,201.4,203.9,201.4z M203.9,190.4c-0.6,0-1-0.4-1-1v-2.6c0-0.6,0.4-1,1-1h1.4c0.6,0,1,0.4,1,1s-0.4,1-1,1h-0.4      v1.6C204.9,190,204.5,190.4,203.9,190.4z M302.3,187.9h-2c-0.6,0-1-0.4-1-1s0.4-1,1-1h2c0.6,0,1,0.4,1,1      S302.9,187.9,302.3,187.9z M293.3,187.9h-4c-0.6,0-1-0.4-1-1s0.4-1,1-1h4c0.6,0,1,0.4,1,1S293.9,187.9,293.3,187.9z       M282.3,187.9h-4c-0.6,0-1-0.4-1-1s0.4-1,1-1h4c0.6,0,1,0.4,1,1S282.9,187.9,282.3,187.9z M271.3,187.9h-4c-0.6,0-1-0.4-1-1      s0.4-1,1-1h4c0.6,0,1,0.4,1,1S271.9,187.9,271.3,187.9z M260.3,187.9h-4c-0.6,0-1-0.4-1-1s0.4-1,1-1h4c0.6,0,1,0.4,1,1      S260.9,187.9,260.3,187.9z M249.3,187.9h-4c-0.6,0-1-0.4-1-1s0.4-1,1-1h4c0.6,0,1,0.4,1,1S249.9,187.9,249.3,187.9z       M238.3,187.9h-4c-0.6,0-1-0.4-1-1s0.4-1,1-1h4c0.6,0,1,0.4,1,1S238.9,187.9,238.3,187.9z M227.3,187.9h-4c-0.6,0-1-0.4-1-1      s0.4-1,1-1h4c0.6,0,1,0.4,1,1S227.9,187.9,227.3,187.9z M216.3,187.9h-4c-0.6,0-1-0.4-1-1s0.4-1,1-1h4c0.6,0,1,0.4,1,1      S216.9,187.9,216.3,187.9z" id="svg_148"/>
			</g>
		</g>
	</g>
</g><g id="svg_149">
	<g id="svg_150">
		<g id="svg_151">
			<g id="svg_152">
				<path class="st2" d="M157.1,267.1c-0.6,0-1-0.4-1-1v-4c0-0.6,0.4-1,1-1s1,0.4,1,1v4C158.1,266.7,157.7,267.1,157.1,267.1z       M157.1,256.1c-0.6,0-1-0.4-1-1v-4c0-0.6,0.4-1,1-1s1,0.4,1,1v4C158.1,255.7,157.7,256.1,157.1,256.1z M157.1,245.1      c-0.6,0-1-0.4-1-1v-4c0-0.6,0.4-1,1-1s1,0.4,1,1v4C158.1,244.7,157.7,245.1,157.1,245.1z M157.1,234.1c-0.6,0-1-0.4-1-1v-0.6      c0-0.6,0.4-1,1-1s1,0.4,1,1v0.6C158.1,233.7,157.7,234.1,157.1,234.1z" id="svg_153"/>
			</g>
		</g>
	</g>
</g><g id="svg_154">
	<g id="svg_155">
		<g id="svg_156">
			<g id="svg_157">
				<g id="svg_158">
					<path class="st1" d="M320.4,237.8c0.8-4.4,0.8-7.1,0.8-11c0-2.9-1.8-4.1-2-6.3l-0.7-7.5c0,0,5.1,0,8.8-2c0,0-0.6-7.3-1.8-10.1       c-2.3-5.8-10.4-4.3-11.3-9.7c0,0,0,0,0,0c-1.9,0.5-3.9,0.6-5.9,0.3c-1.5-0.3-2.9-0.8-4.2-1.5l0,0c-1,3.4-3,4.5-7.2,5.4       c-4.7,1-6.7,4.1-7.3,10.1c0,0.4-0.1,0.9-0.1,1.3l-0.2,5.9c0,0,1.8,0,2.7,0c0,1.6,0.1,2.2,0.4,3.7c1.2,5.3-0.2,16.9,1.2,21.4" id="svg_159"/>
				</g>
			</g>
		</g>
		<g id="svg_160">
			<g id="svg_161">
				<g id="svg_162">
					<path d="M320.4,238.8c-0.1,0-0.1,0-0.2,0c-0.5-0.1-0.9-0.6-0.8-1.2c0.7-4.2,0.8-6.8,0.8-10.8c0-1.4-0.5-2.3-1-3.3       c-0.4-0.8-0.9-1.7-1-2.8l-0.7-7.6c0-0.3,0.1-0.6,0.3-0.8s0.5-0.3,0.7-0.3c0,0,4.4,0,7.7-1.6c-0.2-1.8-0.8-7-1.6-9.2       c-1-2.5-3.2-3.4-5.6-4.4c-2.3-1-4.7-1.9-5.6-4.5c-1.8,0.4-3.6,0.4-5.4,0.1c-1.2-0.2-2.3-0.6-3.5-1.1c-1.3,3-3.6,4.1-7.5,5       c-4.1,0.9-6,3.5-6.6,9.2c0,0.4-0.1,0.8-0.1,1.2l-0.2,4.9c0.5,0,1.2,0,1.7,0c0.3,0,0.5,0.1,0.7,0.3c0.2,0.2,0.3,0.5,0.3,0.7       c0,1.5,0,2,0.4,3.5c0.6,2.6,0.6,6.7,0.5,10.6c0,4.2-0.1,8.5,0.7,10.7c0.2,0.5-0.1,1.1-0.6,1.3c-0.5,0.2-1.1-0.1-1.3-0.6       c-0.8-2.6-0.8-6.8-0.8-11.4c0-3.8,0.1-7.8-0.5-10.2c-0.3-1.2-0.4-1.9-0.4-2.9c-0.8,0-1.7,0-1.7,0c0,0,0,0,0,0       c-0.3,0-0.5-0.1-0.7-0.3c-0.2-0.2-0.3-0.5-0.3-0.7l0.2-5.9c0-0.4,0-0.9,0.1-1.3c0.7-6.6,3.1-9.8,8.1-11c4-0.9,5.6-1.7,6.5-4.7       c0.1-0.3,0.3-0.5,0.6-0.6c0.3-0.1,0.6-0.1,0.9,0.1c1.2,0.7,2.5,1.2,3.9,1.4c1.8,0.3,3.6,0.2,5.5-0.3c0.3-0.1,0.7,0,0.9,0.2       c0.2,0.2,0.3,0.4,0.4,0.6c0.4,2.1,2,2.9,4.6,4c2.5,1,5.4,2.2,6.7,5.5c1.2,2.9,1.8,10.1,1.8,10.4c0,0.4-0.2,0.8-0.5,1       c-2.8,1.6-6.4,2-8.2,2.1l0.6,6.5c0.1,0.7,0.4,1.4,0.8,2.1c0.6,1.1,1.2,2.3,1.2,4.3c0,4.1-0.1,6.8-0.8,11.1       C321.3,238.5,320.9,238.8,320.4,238.8z M314.1,191.2L314.1,191.2L314.1,191.2z" id="svg_163"/>
				</g>
			</g>
		</g>
	</g>
	<g id="svg_164">
		<g id="svg_165">
			<g id="svg_166">
				<g id="svg_167">
					
						<ellipse transform="matrix(0.01946735,-0.9998,0.9998,0.01946735,129.604,480.0839) " class="st1" cx="309.6000061035156" cy="174" rx="18.200000762939453" ry="15.5" id="svg_168"/>
				</g>
			</g>
		</g>
		<g id="svg_169">
			<g id="svg_170">
				<g id="svg_171">
					<path d="M309.5,193.2c-0.1,0-0.2,0-0.3,0c-4.4-0.1-8.6-2.2-11.6-5.9c-3-3.7-4.6-8.5-4.5-13.6l0,0c0.1-5.1,1.9-9.9,5-13.4       c3.2-3.6,7.4-5.5,11.8-5.5c4.4,0.1,8.6,2.2,11.6,5.9c3,3.7,4.6,8.5,4.5,13.6c-0.1,5.1-1.9,9.9-5,13.4       C317.9,191.2,313.8,193.2,309.5,193.2z M309.7,156.8c-3.8,0-7.3,1.7-10.1,4.8c-2.8,3.2-4.5,7.5-4.5,12.1l0,0       c-0.1,4.6,1.4,9,4.1,12.3c2.7,3.3,6.3,5.1,10.1,5.2c3.9,0.1,7.5-1.6,10.3-4.8c2.8-3.2,4.5-7.5,4.5-12.1s-1.4-9-4.1-12.3       c-2.7-3.3-6.3-5.1-10.1-5.2C309.8,156.8,309.7,156.8,309.7,156.8z M294,173.7L294,173.7L294,173.7z" id="svg_172"/>
				</g>
			</g>
		</g>
	</g>
	<g id="svg_173">
		<g id="svg_174">
			<g id="svg_175">
				<g id="svg_176">
					<path class="st0" d="M299,172.9c0.2-8.1,4.8-14.9,11.1-17.1c-0.1,0-0.1,0-0.2,0c-8.6-0.2-15.7,7.8-15.9,17.9       c-0.2,10.1,6.6,18.3,15.2,18.5c1.7,0,3.3-0.3,4.8-0.8C305.5,191.1,298.8,182.9,299,172.9z" id="svg_177"/>
				</g>
			</g>
		</g>
	</g>
	<g id="svg_178">
		<g id="svg_179">
			<g id="svg_180">
				<g id="svg_181">
					<path d="M306.8,187c-0.4,0-0.7,0-0.7,0c-0.2,0-0.4-0.2-0.3-0.4c0-0.2,0.2-0.4,0.4-0.3c0.1,0,6.1,0.5,10.2-3.9       c0.1-0.2,0.4-0.2,0.5,0c0.2,0.1,0.2,0.4,0,0.5C313.3,186.6,308.6,187,306.8,187z" id="svg_182"/>
				</g>
			</g>
		</g>
	</g>
	<g id="svg_183">
		<g id="svg_184">
			<g id="svg_185">
				<g id="svg_186">
					<path d="M309.5,193.2c-0.1,0-0.2,0-0.3,0c-4.4-0.1-8.6-2.2-11.6-5.9c-3-3.7-4.6-8.5-4.5-13.6l0,0c0.1-5.1,1.9-9.9,5-13.4       c3.2-3.6,7.4-5.5,11.8-5.5c4.4,0.1,8.6,2.2,11.6,5.9c3,3.7,4.6,8.5,4.5,13.6c-0.1,5.1-1.9,9.9-5,13.4       C317.9,191.2,313.8,193.2,309.5,193.2z M309.7,156.8c-3.8,0-7.3,1.7-10.1,4.8c-2.8,3.2-4.5,7.5-4.5,12.1l0,0       c-0.1,4.6,1.4,9,4.1,12.3c2.7,3.3,6.3,5.1,10.1,5.2c3.9,0.1,7.5-1.6,10.3-4.8c2.8-3.2,4.5-7.5,4.5-12.1s-1.4-9-4.1-12.3       c-2.7-3.3-6.3-5.1-10.1-5.2C309.8,156.8,309.7,156.8,309.7,156.8z M294,173.7L294,173.7L294,173.7z" id="svg_187"/>
				</g>
			</g>
		</g>
	</g>
	<g id="svg_188">
		<g id="svg_189">
			<g id="svg_190">
				<g id="svg_191">
					<path d="M294,173.7c0,0-1.3-6.3,2.1-12.9c1.1-2.2,2.1-3.8,1.5-6.9c1.7-0.2,6.4,3.4,7.7,0.2c1.5,2,6.2,1.7,5.8-1.3       c7,0.3,8.2,8.6,13,6.7c3.6,6,0.6,18.1,0.6,18.1s0.1-11.1-10.3-9.3c2.6-6-4.2-10.5-8.8-5.7C304,156.4,293.6,161.6,294,173.7z" id="svg_192"/>
				</g>
			</g>
		</g>
		<g id="svg_193">
			<g id="svg_194">
				<g id="svg_195">
					<path d="M324.8,178.5c0,0-0.1,0-0.1,0c-0.5-0.1-0.9-0.5-0.9-1c0,0,0-4.7-2.8-7.1c-1.5-1.3-3.6-1.7-6.3-1.2       c-0.4,0.1-0.7-0.1-1-0.4c-0.2-0.3-0.3-0.7-0.1-1c1.2-2.8,0-4.8-1.3-5.7c-1.4-0.9-3.7-1.2-5.9,1.1c-0.2,0.3-0.6,0.4-1,0.3       c-0.4-0.1-0.6-0.4-0.7-0.7c-0.4-1.4-1.3-2-2.6-1.8c-3.1,0.5-7.3,5.1-7,12.6c0,0.5-0.4,1-0.9,1c-0.5,0.1-1-0.3-1.1-0.8       c-0.1-0.3-1.3-6.7,2.2-13.5l0.2-0.3c1-2,1.7-3.4,1.3-6c0-0.3,0-0.5,0.2-0.8c0.2-0.2,0.4-0.4,0.7-0.4c0.8-0.1,1.8,0.3,2.9,0.7       c2.7,1.1,3.6,1.1,4,0.1c0.1-0.3,0.4-0.6,0.8-0.6c0.4,0,0.7,0.1,0.9,0.4c0.6,0.8,2.2,1.1,3.2,0.7c0.8-0.3,0.8-0.8,0.7-1.2       c0-0.3,0-0.6,0.2-0.8s0.5-0.3,0.8-0.3c3.9,0.2,6.2,2.6,8,4.5c1.9,1.9,2.9,2.9,4.6,2.2c0.5-0.2,1,0,1.2,0.4       c3.7,6.3,0.8,18.3,0.7,18.8C325.6,178.2,325.2,178.5,324.8,178.5z M316.6,167c2.2,0,4.1,0.6,5.6,1.9c1.1,1,1.9,2.1,2.4,3.3       c0.4-3.6,0.5-8.4-1-11.6c-2.5,0.6-4.3-1.2-5.9-3c-1.6-1.6-3.2-3.3-5.7-3.8c-0.2,0.9-0.9,1.7-1.9,2.1c-1.3,0.5-3.2,0.4-4.6-0.4       c-1.6,1.6-4.2,0.5-5.9-0.1c-0.3-0.1-0.6-0.2-0.9-0.3c0.1,2.5-0.7,4-1.6,5.8l-0.2,0.3c-0.2,0.4-0.4,0.7-0.5,1.1       c1.5-1.9,3.4-3.1,5.3-3.3c1.8-0.3,3.3,0.4,4.2,1.9c2.5-1.9,5.4-1.7,7.3-0.4c1.8,1.2,3.2,3.6,2.6,6.6       C316.1,167.1,316.4,167,316.6,167z" id="svg_196"/>
				</g>
			</g>
		</g>
	</g>
	<g id="svg_197">
		<g id="svg_198">
			<g id="svg_199">
				<g id="svg_200">
					<g id="svg_201">
						<circle cx="308.20001220703125" cy="178" r="0.800000011920929" id="svg_202"/>
					</g>
				</g>
			</g>
		</g>
		<g id="svg_203">
			<g id="svg_204">
				<g id="svg_205">
					<g id="svg_206">
						<circle cx="300.3999938964844" cy="176.89999389648438" r="0.800000011920929" id="svg_207"/>
					</g>
				</g>
			</g>
		</g>
	</g>
	<g id="svg_208">
		<g id="svg_209">
			<g id="svg_210">
				<g id="svg_211">
					<path d="M294.7,213.6c-0.6,0-1-0.4-1-1v-6.2c0-0.6,0.4-1,1-1s1,0.4,1,1v6.2C295.7,213.2,295.3,213.6,294.7,213.6z" id="svg_212"/>
				</g>
			</g>
		</g>
	</g>
	<g id="svg_213">
		<g id="svg_214">
			<g id="svg_215">
				<g id="svg_216">
					<line class="st1" x1="318.5" y1="213" x2="317.5" y2="205" id="svg_217"/>
				</g>
			</g>
		</g>
		<g id="svg_218">
			<g id="svg_219">
				<g id="svg_220">
					<path d="M318.4,214c-0.5,0-0.9-0.4-1-0.9l-1-8c-0.1-0.5,0.3-1,0.9-1.1c0.6-0.1,1,0.3,1.1,0.9l1,8c0.1,0.5-0.3,1-0.9,1.1       C318.5,214,318.5,214,318.4,214z" id="svg_221"/>
				</g>
			</g>
		</g>
	</g>
	<g id="svg_222">
		<g id="svg_223">
			<g id="svg_224">
				<g id="svg_225">
					<path class="st1" d="M318.5,213l8.8-2c0,0,0.5,12.8-3.6,14.5c-2.6,1.2-8.2,2-13.9,1.4c-2.8-0.3-6.2-1-7.4-2.2c0,0,5-1.6,9.4-2       c4.1-0.4,5.7-0.3,6.9-1.2C320,220.9,318.5,213,318.5,213z" id="svg_226"/>
				</g>
			</g>
		</g>
		<g id="svg_227">
			<g id="svg_228">
				<g id="svg_229">
					<path d="M313.7,228.1c-1.3,0-2.7-0.1-4.1-0.2c-2.9-0.3-6.6-1-8-2.5c-0.2-0.2-0.3-0.6-0.3-0.9c0.1-0.3,0.3-0.6,0.7-0.7       c0.2-0.1,5.2-1.6,9.6-2c0.9-0.1,1.7-0.2,2.3-0.2c2.2-0.2,3.4-0.3,4.1-0.8c0.3-0.8,0-4.2-0.6-7.5c-0.1-0.5,0.2-1,0.8-1.2l8.8-2       c0.3-0.1,0.6,0,0.8,0.2c0.2,0.2,0.4,0.5,0.4,0.8c0.1,1.4,0.4,13.5-4.2,15.5C322,227.3,318.2,228.1,313.7,228.1z M305,225       c1.2,0.4,2.9,0.7,4.8,0.9c5.5,0.6,10.8-0.2,13.3-1.3c2.3-1,3.1-7.7,3-12.4l-6.6,1.5c1.3,7.4,0.1,8.4-0.4,8.6       c-1.1,0.8-2.4,0.9-5,1.1c-0.7,0.1-1.4,0.1-2.3,0.2C309.5,223.9,306.9,224.5,305,225z" id="svg_230"/>
				</g>
			</g>
		</g>
	</g>
	<g id="svg_231">
		<g id="svg_232">
			<g id="svg_233">
				<g id="svg_234">
					<path class="st1" d="M294.7,212.6l-5.5,0c0,0-0.7,11.7,2.3,13c2.4,1.1,9.8-0.5,17-2.2c5.4-1.3,8-1,9.5-1.4       c1.8-0.5,1.1-3.6-0.5-3.6c-6.7,0-15.9-2.9-22.8,0.1C294.7,215.3,294.7,212.6,294.7,212.6z" id="svg_235"/>
				</g>
			</g>
		</g>
		<g id="svg_236">
			<g id="svg_237">
				<g id="svg_238">
					<path d="M293.9,227c-1.2,0-2.2-0.1-2.8-0.4c-3.3-1.5-3.1-11.1-2.9-14c0-0.5,0.5-0.9,1-0.9l5.5,0c0,0,0,0,0,0       c0.3,0,0.5,0.1,0.7,0.3c0.2,0.2,0.3,0.4,0.3,0.7v4.4c4.7-1.5,10.1-0.8,15-0.2c2.5,0.3,4.8,0.6,6.8,0.6c1.4,0,2.3,1.3,2.5,2.6       c0.2,1.4-0.5,2.6-1.8,3c-0.6,0.2-1.3,0.2-2.2,0.3c-1.6,0.1-3.9,0.3-7.3,1.1C301.6,226.1,296.9,227,293.9,227z M290.2,213.6       c-0.2,5.1,0.4,10.5,1.7,11.1c1.7,0.8,7.2,0,16.3-2.3c3.6-0.9,6-1.1,7.7-1.2c0.8-0.1,1.4-0.1,1.8-0.2c0.3-0.1,0.3-0.6,0.3-0.8       c-0.1-0.5-0.4-0.9-0.5-0.9c-2.2,0-4.5-0.3-7.1-0.6c-5.4-0.7-10.9-1.3-15.3,0.6c-0.3,0.1-0.7,0.1-0.9-0.1       c-0.3-0.2-0.5-0.5-0.5-0.8v-4.8L290.2,213.6z" id="svg_239"/>
				</g>
			</g>
		</g>
	</g>
	<g id="svg_240">
		<g id="svg_241">
			<g id="svg_242">
				<g id="svg_243">
					<path class="st1" d="M299.7,213.1c-1.5-1.5-3.8-1.7-5.1-0.4c-1.3,1.3-1.1,3.6,0.4,5.1c0.1,0.1,0.3,0.2,0.4,0.4       c2-0.8,4-1,5.3-1.1C301.2,215.8,300.8,214.2,299.7,213.1z" id="svg_244"/>
				</g>
			</g>
		</g>
		<g id="svg_245">
			<g id="svg_246">
				<g id="svg_247">
					<path d="M295.4,219.2c-0.2,0-0.4-0.1-0.6-0.2c-0.2-0.2-0.4-0.3-0.5-0.4c-1.9-1.9-2.1-4.8-0.4-6.5c0.8-0.8,2-1.2,3.2-1.2       c1.2,0.1,2.4,0.6,3.3,1.5c1.4,1.4,1.9,3.4,1.3,5.1c-0.1,0.4-0.5,0.6-0.9,0.7c-1.3,0.1-3.2,0.3-5,1       C295.6,219.1,295.5,219.2,295.4,219.2z M300.7,217.1L300.7,217.1L300.7,217.1z M296.8,212.8c-0.6,0-1.1,0.2-1.5,0.6       c-0.9,0.9-0.7,2.5,0.3,3.6c1.5-0.5,3.1-0.8,4.3-0.9c0.1-0.8-0.3-1.7-0.9-2.4c-0.6-0.6-1.3-0.9-2-1       C296.9,212.8,296.8,212.8,296.8,212.8z" id="svg_248"/>
				</g>
			</g>
		</g>
	</g>
	<g id="svg_249">
		<g id="svg_250">
			<g id="svg_251">
				<g id="svg_252">
					<path d="M308.7,199c-0.5,0-1,0-1.6-0.1c-2.9-0.5-5.5-2.2-6.8-4.6c-0.3-0.5-0.1-1.1,0.4-1.3c0.5-0.3,1.1-0.1,1.3,0.4       c0.9,1.8,3,3.2,5.3,3.5c2.9,0.4,5.8-0.7,8.3-3.1c0.4-0.4,1-0.4,1.4,0s0.4,1,0,1.4C314.6,197.7,311.7,199,308.7,199z" id="svg_253"/>
				</g>
			</g>
		</g>
	</g>
	<g id="svg_254">
		<g id="svg_255">
			<g id="svg_256">
				<g id="svg_257">
					<circle class="st2" cx="312.29998779296875" cy="208.3000030517578" r="3.299999952316284" id="svg_258"/>
				</g>
			</g>
		</g>
	</g>
</g><g id="svg_259">
	<g id="svg_260">
		<g id="svg_261">
			<g id="svg_262">
				<g id="svg_263">
					<path class="st1" d="M171.6,211.6c3.6,2,8.4,2,8.4,2s-1,8.8,0.4,11.4c1.4,2.6,3.3,9.4,10.2,9.9c6.4,0.5,4.5,8.5-0.5,7.9       c-0.9-0.1-14.6-6.9-17.6-11.8C170.2,227,171.6,211.6,171.6,211.6z" id="svg_264"/>
				</g>
			</g>
		</g>
		<g id="svg_265">
			<g id="svg_266">
				<g id="svg_267">
					<path d="M190.6,243.8c-0.2,0-0.4,0-0.6,0c-1.3-0.1-15.2-7.1-18.3-12.3c-2.4-4.1-1.2-18.3-1-19.9c0-0.3,0.2-0.6,0.5-0.8       c0.3-0.2,0.7-0.2,1,0c3.4,1.9,7.8,1.8,7.9,1.8c0.3,0,0.6,0.1,0.8,0.3c0.2,0.2,0.3,0.5,0.3,0.8c-0.4,3.3-0.6,9.1,0.3,10.8       c0.2,0.4,0.4,0.9,0.7,1.4c1.4,3,3.4,7.6,8.8,8c3,0.2,4.1,1.8,4.6,2.8c0.7,1.6,0.5,3.6-0.6,5.1       C193.6,243,192.2,243.8,190.6,243.8z M172.5,213.1c-0.4,5-0.7,14.6,0.9,17.3c2.6,4.4,15.6,11,16.9,11.4       c1.5,0.2,2.4-0.7,2.8-1.2c0.7-0.9,0.8-2.1,0.4-3.1c-0.4-0.9-1.4-1.5-2.9-1.6c-6.5-0.5-9.1-6.1-10.4-9.1       c-0.2-0.5-0.4-0.9-0.6-1.3c-1.2-2.3-0.8-8.3-0.6-10.9C177.4,214.4,174.9,214.1,172.5,213.1z" id="svg_268"/>
				</g>
			</g>
		</g>
	</g>
	<g id="svg_269">
		<g id="svg_270">
			<g id="svg_271">
				<g id="svg_272">
					<path class="st1" d="M154.1,242.8c-0.8-4.4-0.8-7.1-0.8-11c0-2.9,1.8-4.1,2-6.3l0.7-7.5c0,0-5.1,0-8.8-2c0,0,0.6-7.3,1.8-10.1       c2.3-5.8,10.4-4.3,11.3-9.7c0,0,0,0,0,0c1.9,0.5,3.9,0.6,5.9,0.3c1.5-0.3,2.9-0.8,4.2-1.5l0,0c1,3.4,1.5,3.5,5.7,4.4       c4.7,1,3.8,14.2,3.8,14.2s-1.8,0-2.7,0c0,1.6,0.3,4.3,0,5.8c-1.2,5.3,0.2,18.9-1.2,23.4" id="svg_273"/>
				</g>
			</g>
		</g>
		<g id="svg_274">
			<g id="svg_275">
				<g id="svg_276">
					<path d="M154.1,243.8c-0.5,0-0.9-0.3-1-0.8c-0.7-4.3-0.8-7.1-0.8-11.1c0-1.9,0.7-3.2,1.2-4.3c0.4-0.7,0.7-1.4,0.8-2.2l0.6-6.5       c-1.8-0.1-5.3-0.5-8.2-2.1c-0.3-0.2-0.5-0.6-0.5-1c0-0.3,0.7-7.5,1.8-10.4c1.3-3.3,4.1-4.5,6.7-5.5c2.6-1.1,4.3-1.9,4.6-4       c0-0.2,0.1-0.4,0.3-0.6c0.2-0.2,0.6-0.3,1-0.2c1.8,0.5,3.7,0.6,5.5,0.3c1.3-0.2,2.6-0.7,3.9-1.4c0.3-0.1,0.6-0.2,0.9-0.1       c0.3,0.1,0.5,0.4,0.6,0.6c0.8,2.8,0.8,2.8,4.6,3.6l0.3,0.1c5.3,1.2,4.7,13.8,4.6,15.3c0,0.5-0.5,0.9-1,0.9c0,0,0,0,0,0       c0,0-0.8,0-1.6,0c0,0.1,0,0.2,0,0.2c0.1,1.6,0.2,3.5-0.1,4.7c-0.6,2.4-0.5,6.8-0.5,11.1c0,5.1,0.1,9.9-0.8,12.5       c-0.2,0.5-0.7,0.8-1.3,0.6c-0.5-0.2-0.8-0.7-0.6-1.3c0.7-2.3,0.7-7.1,0.7-11.8c0-4.6-0.1-8.9,0.5-11.5c0.2-1,0.1-2.8,0.1-4.2       c0-0.5,0-0.9-0.1-1.3c0-0.3,0.1-0.5,0.3-0.7c0.2-0.2,0.4-0.3,0.7-0.3c0.5,0,1.2,0,1.7,0c0.2-4.3-0.4-11.7-3.1-12.3l-0.3-0.1       c-3.7-0.8-4.7-1.1-5.7-3.9c-1.1,0.5-2.3,0.9-3.4,1.1c-1.8,0.3-3.6,0.3-5.4-0.1c-0.9,2.5-3.3,3.5-5.6,4.5       c-2.4,1-4.6,1.9-5.6,4.4c-0.9,2.2-1.4,7.3-1.6,9.2c3.3,1.6,7.7,1.6,7.7,1.6c0.3,0,0.5,0.1,0.7,0.3s0.3,0.5,0.3,0.8l-0.7,7.5       c-0.1,1.2-0.6,2-1,2.9c-0.5,1-1,1.9-1,3.3c0,3.9,0,6.6,0.8,10.8c0.1,0.5-0.3,1.1-0.8,1.2C154.2,243.7,154.2,243.8,154.1,243.8z       " id="svg_277"/>
				</g>
			</g>
		</g>
	</g>
	<g id="svg_278">
		<g id="svg_279">
			<g id="svg_280">
				<g id="svg_281">
					
						<ellipse transform="matrix(0.9998,-0.01946735,0.01946735,0.9998,-3.4519,3.2455) " class="st1" cx="165" cy="178.89999389648438" rx="15.5" ry="18.200000762939453" id="svg_282"/>
				</g>
			</g>
		</g>
		<g id="svg_283">
			<g id="svg_284">
				<g id="svg_285">
					<path d="M165.1,198.1c-4.3,0-8.4-1.9-11.6-5.5c-3.2-3.6-4.9-8.3-5-13.4c-0.2-10.6,7-19.3,16.1-19.5c0.1,0,0.2,0,0.3,0       c9,0,16.4,8.4,16.6,18.9l0,0c0.1,5.1-1.5,9.9-4.5,13.6c-3.1,3.7-7.2,5.8-11.6,5.9C165.3,198.1,165.2,198.1,165.1,198.1z        M164.9,161.7c-0.1,0-0.2,0-0.2,0c-8,0.2-14.4,8-14.2,17.5c0.1,4.6,1.7,8.9,4.5,12.1c2.8,3.2,6.4,4.9,10.3,4.8       c3.8-0.1,7.4-1.9,10.1-5.2c2.7-3.3,4.2-7.7,4.1-12.3l0,0C179.3,169.3,172.8,161.7,164.9,161.7z" id="svg_286"/>
				</g>
			</g>
		</g>
	</g>
	<g id="svg_287">
		<g id="svg_288">
			<g id="svg_289">
				<g id="svg_290">
					<path class="st0" d="M156.8,177.8c0.2-8.1,4.8-14.9,11.1-17.1c-0.1,0-0.1,0-0.2,0c-8.6-0.2-15.7,7.8-15.9,17.9       c-0.2,10.1,6.6,18.3,15.2,18.5c1.7,0,3.3-0.3,4.8-0.8C163.3,196.1,156.6,187.8,156.8,177.8z" id="svg_291"/>
				</g>
			</g>
		</g>
	</g>
	<g id="svg_292">
		<g id="svg_293">
			<g id="svg_294">
				<g id="svg_295">
					<path d="M165.1,198.1c-4.3,0-8.4-1.9-11.6-5.5c-3.2-3.6-4.9-8.3-5-13.4c-0.2-10.6,7-19.3,16.1-19.5c0.1,0,0.2,0,0.3,0       c9,0,16.4,8.4,16.6,18.9l0,0c0.1,5.1-1.5,9.9-4.5,13.6c-3.1,3.7-7.2,5.8-11.6,5.9C165.3,198.1,165.2,198.1,165.1,198.1z        M164.9,161.7c-0.1,0-0.2,0-0.2,0c-8,0.2-14.4,8-14.2,17.5c0.1,4.6,1.7,8.9,4.5,12.1c2.8,3.2,6.4,4.9,10.3,4.8       c3.8-0.1,7.4-1.9,10.1-5.2c2.7-3.3,4.2-7.7,4.1-12.3l0,0C179.3,169.3,172.8,161.7,164.9,161.7z" id="svg_296"/>
				</g>
			</g>
		</g>
	</g>
	<g id="svg_297">
		<g id="svg_298">
			<g id="svg_299">
				<g id="svg_300">
					<line class="st1" x1="156.10000610351562" y1="218" x2="157.10000610351562" y2="210" id="svg_301"/>
				</g>
			</g>
		</g>
		<g id="svg_302">
			<g id="svg_303">
				<g id="svg_304">
					<path d="M156.1,219c0,0-0.1,0-0.1,0c-0.5-0.1-0.9-0.6-0.9-1.1l1-8c0.1-0.5,0.6-0.9,1.1-0.9c0.5,0.1,0.9,0.6,0.9,1.1l-1,8       C157,218.6,156.6,219,156.1,219z" id="svg_305"/>
				</g>
			</g>
		</g>
	</g>
	<g id="svg_306">
		<g id="svg_307">
			<g id="svg_308">
				<g id="svg_309">
					<path class="st2" d="M174.7,220.3c-0.4,6.1-3.7,9.6-7.3,8.2c-3.6-1.4-6.2-5.4-5.8-9.3c0.4-3.9,3.7-8,7.3-8.8       C172.5,209.6,175.1,214.2,174.7,220.3z" id="svg_310"/>
				</g>
			</g>
		</g>
	</g>
	<g id="svg_311">
		<g id="svg_312">
			<g id="svg_313">
				<g id="svg_314">
					<line class="st1" x1="169.39999389648438" y1="232.5" x2="168.5" y2="240.5" id="svg_315"/>
				</g>
			</g>
		</g>
		<g id="svg_316">
			<g id="svg_317">
				<g id="svg_318">
					<path d="M168.5,241.5c0,0-0.1,0-0.1,0c-0.5-0.1-0.9-0.6-0.9-1.1l0.9-8c0.1-0.5,0.5-1,1.1-0.9c0.5,0.1,0.9,0.6,0.9,1.1l-0.9,8       C169.4,241.1,169,241.5,168.5,241.5z" id="svg_319"/>
				</g>
			</g>
		</g>
	</g>
	<g id="svg_320">
		<g id="svg_321">
			<g id="svg_322">
				<g id="svg_323">
					<path class="st2" d="M149.5,179.5c0.9,13.3,10.1,20,18.7,20.6c8.6,0.5,13.4-4.3,14.8-10.6c1.4-6.3-2.6-8.5-2.6-8.5       s0.6,6.3-4,5.6c-6.6-1-7,1.1-11,2.2c-4,1.1-4.6-2.3-4.6-2.3s-6.2,0.8-8.2-6.7L149.5,179.5z" id="svg_324"/>
				</g>
			</g>
		</g>
		<g id="svg_325">
			<g id="svg_326">
				<g id="svg_327">
					<path d="M169.4,201.1c-0.4,0-0.8,0-1.2,0c-12.5-0.7-19-11.6-19.7-21.5c0-0.3,0.1-0.6,0.3-0.8c0.2-0.2,0.5-0.3,0.8-0.3l3.1,0.2       c0.4,0,0.8,0.3,0.9,0.7c1.8,6.5,6.9,6,7.1,5.9c0.5-0.1,1,0.3,1.1,0.8c0,0,0.2,0.9,1,1.4c0.6,0.4,1.4,0.4,2.4,0.1       c1.1-0.3,2-0.7,2.8-1.1c1.9-0.9,3.8-1.8,8.6-1.1c0.8,0.1,1.4,0,1.8-0.4c1-1,1.1-3.3,1-4.1c0-0.4,0.1-0.7,0.4-0.9       c0.3-0.2,0.7-0.2,1,0c0.2,0.1,4.6,2.6,3.1,9.6C182.4,196.9,177,201.1,169.4,201.1z M150.6,180.6c1,8.7,6.8,17.8,17.7,18.5       c7.3,0.4,12.3-3.2,13.7-9.8c0.6-2.9,0-4.8-0.7-5.9c-0.2,1.1-0.6,2.4-1.5,3.3c-0.6,0.6-1.7,1.2-3.5,0.9c-4.2-0.7-5.7,0-7.5,0.9       c-0.8,0.4-1.8,0.9-3.1,1.2c-1.6,0.4-2.9,0.3-4-0.4c-0.9-0.5-1.3-1.3-1.6-1.9c-1.9-0.1-6.4-0.9-8.3-6.7L150.6,180.6z" id="svg_328"/>
				</g>
			</g>
		</g>
	</g>
	<g id="svg_329">
		<g id="svg_330">
			<g id="svg_331">
				<g id="svg_332">
					<path d="M152.6,179.7c3.6-10,15.8-3.8,22.3-7.1l-1.6-2.5c0,0,5.9-0.1,6.4-3.3c-3.5-1.5-4.2-4.8-10.3-6.1       c-10-2.2-25.4,3.8-21.3,22.1C151,183.6,152.6,179.7,152.6,179.7z" id="svg_333"/>
				</g>
			</g>
		</g>
		<g id="svg_334">
			<g id="svg_335">
				<g id="svg_336">
					<path d="M148.9,184c-0.3,0-0.7,0-1-0.1c-0.4-0.1-0.6-0.4-0.7-0.7c-2.2-9.6,1-15.3,4-18.3c5.1-5.1,12.9-6.2,18.4-5       c4,0.9,5.8,2.5,7.5,4c1,0.9,1.8,1.6,3,2.1c0.4,0.2,0.7,0.6,0.6,1.1c-0.4,2.8-3.6,3.7-5.6,4l0.7,1.1c0.2,0.2,0.2,0.5,0.1,0.8       s-0.3,0.5-0.5,0.6c-2.6,1.4-6,1.3-9.3,1.2c-5.4-0.1-10.5-0.3-12.5,5.4c0,0,0,0,0,0C153,181.5,151.3,184,148.9,184z        M165.3,161.3c-4.3,0-9.2,1.4-12.7,4.9c-3.7,3.7-5,9.2-3.6,15.8c1.6-0.1,2.6-2.4,2.7-2.6c2.5-7,8.9-6.8,14.4-6.7       c2.7,0.1,5.3,0.1,7.3-0.5l-1-1.5c-0.2-0.3-0.2-0.7,0-1s0.5-0.5,0.9-0.5c1.2,0,4.2-0.4,5.2-1.8c-1.1-0.6-1.9-1.3-2.7-2.1       c-1.5-1.4-3.1-2.8-6.6-3.5C168,161.4,166.7,161.3,165.3,161.3z M152.6,179.7L152.6,179.7L152.6,179.7z" id="svg_337"/>
				</g>
			</g>
		</g>
	</g>
	<g id="svg_338">
		<g id="svg_339">
			<g id="svg_340">
				<g id="svg_341">
					<path d="M169.4,190.3c0.3,1.7,1.9,3,3.6,2.7s3-1.9,2.7-3.6L169.4,190.3z" id="svg_342"/>
				</g>
			</g>
		</g>
	</g>
	<g id="svg_343">
		<g id="svg_344">
			<g id="svg_345">
				<g id="svg_346">
					<path d="M153.1,191.4c-0.2,0-0.3-0.1-0.4-0.3c0-0.2-0.7-5.2,1.1-8.2c0.1-0.2,0.3-0.2,0.5-0.1c0.2,0.1,0.2,0.3,0.1,0.5       c-1.6,2.7-1,7.7-1,7.7C153.5,191.2,153.3,191.4,153.1,191.4C153.1,191.4,153.1,191.4,153.1,191.4z" id="svg_347"/>
				</g>
			</g>
		</g>
	</g>
	<g id="svg_348">
		<g id="svg_349">
			<g id="svg_350">
				<g id="svg_351">
					<path d="M156.1,194.9c-0.1,0-0.3-0.1-0.3-0.2c-0.1-0.2-2.3-5.4-0.5-10.1c0.1-0.2,0.3-0.3,0.5-0.2c0.2,0.1,0.3,0.3,0.2,0.5       c-1.7,4.4,0.4,9.5,0.5,9.5c0.1,0.2,0,0.4-0.2,0.5C156.2,194.9,156.2,194.9,156.1,194.9z" id="svg_352"/>
				</g>
			</g>
		</g>
	</g>
	<g id="svg_353">
		<g id="svg_354">
			<g id="svg_355">
				<g id="svg_356">
					<path d="M158.5,197.8c-0.2-0.3-3.8-7.6-1.8-12.5l1.9,0.7c-1.6,4.1,1.7,10.8,1.8,10.9L158.5,197.8z" id="svg_357"/>
				</g>
			</g>
		</g>
	</g>
	<g id="svg_358">
		<g id="svg_359">
			<g id="svg_360">
				<g id="svg_361">
					<g id="svg_362">
						<circle cx="167.3000030517578" cy="182.60000610351562" r="0.800000011920929" id="svg_363"/>
					</g>
				</g>
			</g>
		</g>
		<g id="svg_364">
			<g id="svg_365">
				<g id="svg_366">
					<g id="svg_367">
						<circle cx="175.10000610351562" cy="181.5" r="0.800000011920929" id="svg_368"/>
					</g>
				</g>
			</g>
		</g>
	</g>
	<g id="svg_369">
		<g id="svg_370">
			<g id="svg_371">
				<g id="svg_372">
					<line class="st1" x1="177.3000030517578" y1="213.5" x2="176.5" y2="207.5" id="svg_373"/>
				</g>
			</g>
		</g>
		<g id="svg_374">
			<g id="svg_375">
				<g id="svg_376">
					<path d="M177.3,214.5c-0.5,0-0.9-0.4-1-0.9l-0.7-6c-0.1-0.5,0.3-1,0.9-1.1c0.6-0.1,1,0.3,1.1,0.9l0.7,6c0.1,0.5-0.3,1-0.9,1.1       C177.4,214.5,177.3,214.5,177.3,214.5z" id="svg_377"/>
				</g>
			</g>
		</g>
	</g>
	<g id="svg_378">
		<g id="svg_379">
			<g id="svg_380">
				<g id="svg_381">
					<polygon points="150.2,216.9 150.7,213.5 153.4,214.2 152.9,217.5      " id="svg_382"/>
				</g>
			</g>
		</g>
	</g>
	<g id="svg_383">
		<g id="svg_384">
			<g id="svg_385">
				<g id="svg_386">
					<path class="st0" d="M160.3,200.9c0,0-6.4,3.6-7,5.9c-0.5,2.2-0.9,6.2-0.9,6.2l-3.9-1.2c0,0-0.6-3.1,0.4-6.1       c1-3,7.5-5.6,7.5-5.6L160.3,200.9z" id="svg_387"/>
				</g>
			</g>
		</g>
	</g>
	<g id="svg_388">
		<g id="svg_389">
			<g id="svg_390">
				<g id="svg_391">
					<path class="st1" d="M147.8,211.5c0,0,4,2,8.8,2" id="svg_392"/>
				</g>
			</g>
		</g>
		<g id="svg_393">
			<g id="svg_394">
				<g id="svg_395">
					<path d="M156.6,214.5c-4.9,0-9-2-9.2-2.1c-0.5-0.2-0.7-0.8-0.4-1.3c0.2-0.5,0.8-0.7,1.3-0.4c0,0,3.9,1.9,8.3,1.9       c0.6,0,1,0.4,1,1S157.1,214.5,156.6,214.5z" id="svg_396"/>
				</g>
			</g>
		</g>
	</g>
	<g id="svg_397">
		<g id="svg_398">
			<g id="svg_399">
				<g id="svg_400">
					<path d="M154.1,243.8c-0.5,0-0.9-0.3-1-0.8c-0.7-4.3-0.8-7.1-0.8-11.1c0-1.9,0.7-3.2,1.2-4.3c0.4-0.7,0.7-1.4,0.8-2.2l0.6-6.5       c-1.8-0.1-5.3-0.5-8.2-2.1c-0.3-0.2-0.5-0.6-0.5-1c0-0.3,0.7-7.5,1.8-10.4c1.3-3.3,4.1-4.5,6.7-5.5c1.3-0.6,2.6-1.1,3.5-1.9       c0.4-0.4,1-0.3,1.4,0.1c0.4,0.4,0.3,1-0.1,1.4c-1.1,1-2.6,1.7-4.1,2.3c-2.4,1-4.6,1.9-5.6,4.4c-0.9,2.2-1.4,7.3-1.6,9.2       c3.3,1.6,7.7,1.6,7.7,1.6c0.3,0,0.5,0.1,0.7,0.3s0.3,0.5,0.3,0.8l-0.7,7.5c-0.1,1.2-0.6,2-1,2.9c-0.5,1-1,1.9-1,3.3       c0,3.9,0,6.6,0.8,10.8c0.1,0.5-0.3,1.1-0.8,1.2C154.2,243.7,154.2,243.8,154.1,243.8z" id="svg_401"/>
				</g>
			</g>
		</g>
	</g>
	<g id="svg_402">
		<g id="svg_403">
			<g id="svg_404">
				<g id="svg_405">
					<path d="M176,243.7c-0.1,0-0.2,0-0.3,0c-0.5-0.2-0.8-0.7-0.6-1.3c0.7-2.3,0.7-7.1,0.7-11.8c0-4.6-0.1-8.9,0.5-11.5       c0.2-1,0.1-2.8,0.1-4.2c0-0.5,0-0.9-0.1-1.3c0-0.3,0.1-0.5,0.3-0.7c0.2-0.2,0.4-0.3,0.7-0.3c0.5,0,1.2,0,1.7,0       c0.2-4.3-0.4-11.7-3.1-12.3c-0.5-0.1-0.9-0.7-0.8-1.2s0.7-0.9,1.2-0.8c5.3,1.2,4.7,13.8,4.6,15.3c0,0.5-0.5,0.9-1,0.9       c0,0,0,0,0,0c0,0-0.8,0-1.6,0c0,0.1,0,0.2,0,0.2c0.1,1.6,0.2,3.5-0.1,4.7c-0.6,2.4-0.5,6.8-0.5,11.1c0,5.1,0.1,9.9-0.8,12.5       C176.8,243.5,176.4,243.7,176,243.7z" id="svg_406"/>
				</g>
			</g>
		</g>
	</g>
	<g id="svg_407">
		<g id="svg_408">
			<g id="svg_409">
				<g id="svg_410">
					<path class="st1" d="M147.3,215.9c3.6,2,8.7,2,8.7,2s0,0.3-0.1,0.7c-0.3,2.2-1.3,8,0.1,10.5c1.4,2.6,11.6,3.1,18.5,3.6       c6.4,0.5,4.5,8.5-0.5,7.9c-0.9-0.1-22.9-0.6-25.8-5.5C145.9,231.4,147.3,215.9,147.3,215.9z" id="svg_411"/>
				</g>
			</g>
		</g>
		<g id="svg_412">
			<g id="svg_413">
				<g id="svg_414">
					<path d="M174.6,241.8c-0.2,0-0.4,0-0.6,0c-0.1,0-0.4,0-0.8,0c-15.4-0.7-23.8-2.6-25.8-5.9c-2.4-4.1-1.2-18.3-1-19.9       c0-0.3,0.2-0.6,0.5-0.8c0.3-0.2,0.7-0.2,1,0c3.4,1.9,8.2,1.9,8.2,1.9c0.3,0,0.6,0.1,0.8,0.3s0.3,0.5,0.2,0.8c0,0,0,0.3-0.1,0.7       c0,0.3-0.1,0.6-0.1,1c-0.3,2.3-0.9,7,0.1,9c1,1.8,10.6,2.5,15.7,2.9l2,0.1c3,0.2,4.1,1.8,4.6,2.8c0.7,1.6,0.5,3.6-0.6,5.1       C177.6,241.1,176.2,241.8,174.6,241.8z M148.2,217.5c-0.4,5-0.7,14.6,0.9,17.3c0.7,1.2,4.5,4,24.1,5c0.5,0,0.9,0,1,0.1       c1.5,0.2,2.4-0.7,2.8-1.2c0.7-0.9,0.8-2.1,0.4-3.1c-0.4-0.9-1.4-1.5-2.9-1.6l-2-0.1c-9.3-0.7-16-1.4-17.4-4       c-1.3-2.6-0.7-7.3-0.3-10.2c0-0.2,0.1-0.4,0.1-0.6C153.4,218.8,150.7,218.5,148.2,217.5z" id="svg_415"/>
				</g>
			</g>
		</g>
	</g>
	<g id="svg_416">
		<g id="svg_417">
			<g id="svg_418">
				<g id="svg_419">
					<path d="M168.5,205.3c-2.5,0-6-1.6-10.9-5.1c-0.5-0.3-0.6-0.9-0.2-1.4c0.3-0.5,0.9-0.6,1.4-0.2c5.3,3.7,8.9,5.2,10.8,4.5       c1-0.4,1.6-1.5,2.1-3.6c0.1-0.5,0.7-0.9,1.2-0.7c0.5,0.1,0.9,0.7,0.7,1.2c-0.4,1.9-1.2,4.1-3.4,5       C169.7,205.2,169.1,205.3,168.5,205.3z" id="svg_420"/>
				</g>
			</g>
		</g>
	</g>
	<g id="svg_421">
		<g id="svg_422">
			<g id="svg_423">
				<g id="svg_424">
					<path class="st0" d="M151.8,217.5c0,0-1.2,13,0.4,15c4.4,5.3,24.2,8,24.2,8l-19.5-1.4l-8-2.6l-1.7-2.4l-0.7-11.2l0.7-6.8       L151.8,217.5z" id="svg_425"/>
				</g>
			</g>
		</g>
	</g>
	<g id="svg_426">
		<g id="svg_427">
			<g id="svg_428">
				<g id="svg_429">
					<path d="M174.6,241.8c-0.2,0-0.4,0-0.6,0c-0.1,0-0.4,0-0.8,0c-15.4-0.7-23.8-2.6-25.8-5.9c-2.4-4.1-1.2-18.3-1-19.9       c0-0.3,0.2-0.6,0.5-0.8c0.3-0.2,0.7-0.2,1,0c3.4,1.9,8.2,1.9,8.2,1.9c0.3,0,0.6,0.1,0.8,0.3s0.3,0.5,0.2,0.8c0,0,0,0.3-0.1,0.7       c0,0.3-0.1,0.6-0.1,1c-0.3,2.3-0.9,7,0.1,9c1,1.8,10.6,2.5,15.7,2.9l2,0.1c3,0.2,4.1,1.8,4.6,2.8c0.7,1.6,0.5,3.6-0.6,5.1       C177.6,241.1,176.2,241.8,174.6,241.8z M148.2,217.5c-0.4,5-0.7,14.6,0.9,17.3c0.7,1.2,4.5,4,24.1,5c0.5,0,0.9,0,1,0.1       c1.5,0.2,2.4-0.7,2.8-1.2c0.7-0.9,0.8-2.1,0.4-3.1c-0.4-0.9-1.4-1.5-2.9-1.6l-2-0.1c-9.3-0.7-16-1.4-17.4-4       c-1.3-2.6-0.7-7.3-0.3-10.2c0-0.2,0.1-0.4,0.1-0.6C153.4,218.8,150.7,218.5,148.2,217.5z" id="svg_430"/>
				</g>
			</g>
		</g>
	</g>
</g><g id="svg_431">
	<g id="svg_432">
		<g id="svg_433">
			<g id="svg_434">
				<circle class="st2" cx="123.0999984741211" cy="257.6000061035156" r="2.5999999046325684" id="svg_435"/>
			</g>
		</g>
	</g>
</g><g id="svg_436">
	<g id="svg_437">
		<g id="svg_438">
			<g id="svg_439">
				<circle class="st2" cx="112.19999694824219" cy="275.70001220703125" r="2.5999999046325684" id="svg_440"/>
			</g>
		</g>
	</g>
</g><g id="svg_441">
	<g id="svg_442">
		<g id="svg_443">
			<g id="svg_444">
				<circle class="st2" cx="271.1000061035156" cy="217.5" r="2.299999952316284" id="svg_445"/>
			</g>
		</g>
	</g>
</g><g id="svg_446">
	<g id="svg_447">
		<g id="svg_448">
			<g id="svg_449">
				<g id="svg_450">
					<path class="st1" d="M147.3,330.5c1.2,2.9,12.8,6.2,16.6,11.5c3.8,5.3,8.9,1.2,6.6-2.5c-1.6-2.5-13.8-12.5-13.8-18.9l0-7.8" id="svg_451"/>
				</g>
			</g>
		</g>
		<g id="svg_452">
			<g id="svg_453">
				<g id="svg_454">
					<path d="M167.9,345.5c-1.6,0-3.3-0.8-4.8-2.9c-1.9-2.7-6.4-5-9.9-6.9c-3.4-1.8-6-3.1-6.7-4.8c-0.2-0.5,0-1.1,0.5-1.3       c0.5-0.2,1.1,0,1.3,0.5c0.4,1,3.3,2.5,5.8,3.8c3.9,2.1,8.4,4.4,10.6,7.5c1.7,2.3,3.4,2.4,4.4,1.7c0.9-0.6,1.3-1.8,0.5-3.1       c-0.4-0.6-1.6-1.9-3.1-3.3c-4.3-4.4-10.9-11-10.9-16.1l0-7.8c0-0.6,0.4-1,1-1c0,0,0,0,0,0c0.6,0,1,0.4,1,1l0,7.8       c0,4.3,6.5,10.8,10.3,14.7c1.7,1.7,2.9,2.9,3.3,3.7c1.5,2.3,0.5,4.8-1.1,5.8C169.6,345.2,168.8,345.5,167.9,345.5z" id="svg_455"/>
				</g>
			</g>
		</g>
	</g>
	<g id="svg_456">
		<g id="svg_457">
			<g id="svg_458">
				<g id="svg_459">
					<path class="st1" d="M159.9,337.6c-3-3-4.3-12.8-1.5-17.7c3.3-5.7-1.7-8.6-5.2-12.1c-2.3-2.3-1-5.6-0.9-6.5c0,0,0,0,0,0       c-1.1,0.6-2.4,1-3.7,1.2c-2.2,0.4-4.4,0.2-6.4-0.4c0,0,0,0,0,0s0.2,2.7-1.2,5.1c-5.2,9.1,4.6,21.4,4.1,29.4       c-0.5,8-4.1,6.6-4.1,13.9" id="svg_460"/>
				</g>
			</g>
		</g>
		<g id="svg_461">
			<g id="svg_462">
				<g id="svg_463">
					<path d="M141,351.5c-0.6,0-1-0.4-1-1c0-3.9,1-5.6,2-7.2c0.9-1.5,1.8-3,2.1-6.7c0.2-2.9-1.1-6.5-2.5-10.4       c-2.3-6.3-4.9-13.5-1.4-19.5c1.2-2.2,1.1-4.5,1.1-4.5c0-0.4,0.2-0.8,0.5-1c0.2-0.1,0.5-0.1,0.8-0.1c2,0.6,4,0.7,5.9,0.4       c1.1-0.2,2.3-0.6,3.4-1.2c0.3-0.2,0.7-0.1,1,0c0.3,0.2,0.5,0.5,0.5,0.9c0,0.3-0.1,0.6-0.1,1c-0.2,1.3-0.6,3.4,0.8,4.8       c0.5,0.5,1.1,1.1,1.7,1.6c3.2,2.9,6.8,6.2,3.7,11.7c-2.6,4.5-1.4,13.8,1.3,16.5c0.4,0.4,0.4,1,0,1.4s-1,0.4-1.4,0       c-3.3-3.3-4.7-13.6-1.7-18.9c2.2-3.9,0.2-6-3.3-9.2c-0.6-0.5-1.2-1.1-1.8-1.7c-1.8-1.8-1.7-4-1.5-5.6c-0.7,0.3-1.5,0.5-2.2,0.6       c-1.9,0.3-3.7,0.3-5.6-0.1c-0.1,1.1-0.4,2.8-1.3,4.3c-3,5.2-0.7,11.6,1.6,17.8c1.5,4,2.8,7.9,2.6,11.2       c-0.3,4.2-1.4,6.1-2.3,7.7c-0.9,1.5-1.7,2.8-1.7,6.2C142,351.1,141.5,351.5,141,351.5z" id="svg_464"/>
				</g>
			</g>
		</g>
	</g>
	<g id="svg_465">
		<g id="svg_466">
			<g id="svg_467">
				<g id="svg_468">
					<path d="M159.2,315.7c-0.4,0-0.7-0.2-0.9-0.5c0-0.1-4.3-7.7-9.4-7.7c-4.5,0-6.8,0.4-8.3,3c-0.3,0.5-0.9,0.6-1.4,0.4       s-0.6-0.9-0.4-1.4c2.2-3.7,5.7-4,10-4c6.3,0,11,8.4,11.2,8.7c0.3,0.5,0.1,1.1-0.4,1.4C159.5,315.7,159.4,315.7,159.2,315.7z" id="svg_469"/>
				</g>
			</g>
		</g>
	</g>
	<g id="svg_470">
		<g id="svg_471">
			<g id="svg_472">
				<g id="svg_473">
					<path class="st1" d="M146.3,313.2c0,0,1.2,21.4,3.4,22.9c2.2,1.5,11.7,6.4,17,8.5c5.2,2.1,7.1-3.3,3.7-4.9       c-2.4-1.1-13.3-6.4-14.8-9.1c-1.5-2.7-1.6-16.1-1.6-16.1s-0.1-6.1-5-5.7C145.9,309.1,146.3,313.2,146.3,313.2z" id="svg_474"/>
				</g>
			</g>
		</g>
		<g id="svg_475">
			<g id="svg_476">
				<g id="svg_477">
					<path d="M169,346.1c-0.8,0-1.7-0.2-2.7-0.6c-5.2-2.1-14.8-7-17.2-8.6c-1-0.7-2.8-4.6-3.8-23.6c0-0.4-0.2-2.7,1.1-4.2       c0.6-0.7,1.5-1.2,2.5-1.3c1.5-0.1,2.8,0.3,3.8,1.2c2.1,1.9,2.2,5.4,2.2,5.5c0,5.1,0.5,13.8,1.5,15.6c0.8,1.5,6.6,5,14.3,8.7       c2.2,1.1,2.7,3.4,2,5C172.2,345.1,170.9,346.1,169,346.1z M149.5,309.8c-0.1,0-0.2,0-0.4,0c-0.5,0-0.9,0.2-1.2,0.6       c-0.7,0.8-0.7,2.2-0.6,2.7c0,0,0,0,0,0c0.5,9.7,1.8,21,3,22.1c2.2,1.5,11.8,6.4,16.8,8.4c2.2,0.9,3.5,0.2,3.9-0.7       c0.3-0.8,0.2-1.8-1-2.4c-4.1-1.9-13.7-6.7-15.2-9.6c-1.5-2.8-1.7-15.1-1.7-16.5c0,0-0.1-2.7-1.6-4.1       C150.9,310,150.3,309.8,149.5,309.8z" id="svg_478"/>
				</g>
			</g>
		</g>
	</g>
	<g id="svg_479">
		<g id="svg_480">
			<g id="svg_481">
				<g id="svg_482">
					
						<ellipse transform="matrix(0.9848,-0.1736,0.1736,0.9848,-47.2521,29.5495) " class="st1" cx="145.3000030517578" cy="284.79998779296875" rx="15.5" ry="18.200000762939453" id="svg_483"/>
				</g>
			</g>
		</g>
		<g id="svg_484">
			<g id="svg_485">
				<g id="svg_486">
					<path d="M146.1,304c-8.1,0-15.4-6.8-17.1-16.3c-1.8-10.4,4-20.2,12.9-21.8c9-1.6,17.8,5.6,19.6,16l0,0c0.9,5,0,10-2.4,14.1       c-2.4,4.2-6.2,6.9-10.6,7.6C147.8,303.9,146.9,304,146.1,304z M144.4,267.7c-0.7,0-1.4,0.1-2.1,0.2c-7.9,1.4-13,10.1-11.3,19.5       c1.6,9.3,9.4,15.8,17.3,14.4c3.8-0.7,7.1-3,9.2-6.7c2.2-3.7,2.9-8.2,2.1-12.8C158.1,273.8,151.5,267.7,144.4,267.7z" id="svg_487"/>
				</g>
			</g>
		</g>
	</g>
	<g id="svg_488">
		<g id="svg_489">
			<g id="svg_490">
				<g id="svg_491">
					<path d="M128.8,287.7c-2.3-10.6,4-20.6,13.1-22.2c5.4-1,11.3,0.9,14.7,5.5c2.8,3.8,0.9,9.7-10.4,8.2c-6.9-0.9-9.6,14.6-0.4,17       C145.8,296.3,131.4,299.7,128.8,287.7z" id="svg_492"/>
				</g>
			</g>
		</g>
		<g id="svg_493">
			<g id="svg_494">
				<g id="svg_495">
					<path d="M141.3,297.8c-2.5,0-5.7-0.4-8.3-2.1c-2.7-1.7-4.4-4.3-5.1-7.7l0,0c-1.2-5.6-0.2-11.4,2.9-16c2.7-4,6.6-6.6,11-7.4       c6.1-1.1,12.2,1.3,15.6,5.9c1.5,2.1,1.8,4.6,0.6,6.6c-1,1.7-3.8,4.3-11.9,3.3c-2.6-0.3-4.4,2.4-5,5.3c-0.8,3.9,0.5,8.6,5,9.8       c0.4,0.1,0.8,0.5,0.7,1s-0.3,0.9-0.8,1C145.8,297.3,143.9,297.8,141.3,297.8z M129.8,287.5c0.6,2.9,2.1,5.1,4.3,6.4       c2.7,1.7,6,1.9,8.4,1.8c-3.1-2.4-4-6.7-3.3-10.5c0.9-4.5,3.8-7.3,7.2-6.9c5.1,0.7,8.7-0.2,10-2.3c0.7-1.2,0.5-2.9-0.5-4.4       c-3-4.1-8.4-6.1-13.7-5.2c-3.9,0.7-7.3,3-9.7,6.5C129.6,277.2,128.7,282.4,129.8,287.5L129.8,287.5z" id="svg_496"/>
				</g>
			</g>
		</g>
	</g>
	<g id="svg_497">
		<g id="svg_498">
			<g id="svg_499">
				<g id="svg_500">
					<path d="M147.6,290.8c-0.2,0-0.4-0.2-0.4-0.3c-0.1-1.3,0.9-2.5,2.2-2.5c1.3-0.1,2.5,0.9,2.5,2.2c0,0.2-0.1,0.4-0.3,0.4       c-0.2,0-0.4-0.1-0.4-0.3c-0.1-0.9-0.8-1.6-1.7-1.5c-0.9,0.1-1.6,0.8-1.5,1.7C147.9,290.6,147.8,290.7,147.6,290.8       C147.6,290.8,147.6,290.8,147.6,290.8z" id="svg_501"/>
				</g>
			</g>
		</g>
	</g>
	<g id="svg_502">
		<g id="svg_503">
			<g id="svg_504">
				<g id="svg_505">
					<path d="M153.9,289.9c-0.2,0-0.4-0.2-0.4-0.3c-0.1-1.3,0.9-2.5,2.2-2.5c1.3-0.1,2.5,0.9,2.5,2.2c0,0.2-0.1,0.4-0.3,0.4       c-0.2,0-0.4-0.1-0.4-0.3c-0.1-0.9-0.8-1.6-1.7-1.5c-0.9,0.1-1.6,0.8-1.5,1.7C154.3,289.7,154.2,289.9,153.9,289.9       C154,289.9,154,289.9,153.9,289.9z" id="svg_506"/>
				</g>
			</g>
		</g>
	</g>
	<g id="svg_507">
		<g id="svg_508">
			<g id="svg_509">
				<g id="svg_510">
					<path d="M154.7,294.6c0.1,0.8-0.6,1.6-1.4,1.6c-0.8,0.1-1.6-0.6-1.6-1.4" id="svg_511"/>
				</g>
			</g>
		</g>
	</g>
</g><g id="svg_512">
	<g id="svg_513">
		<g id="svg_514">
			<g id="svg_515">
				<g id="svg_516">
					
						<rect x="360.20001220703125" y="220.6999969482422" transform="matrix(0.7071,-0.7071,0.7071,0.7071,-50.5183,321.356) " class="st2" width="4.800000190734863" height="2" id="svg_517"/>
				</g>
			</g>
		</g>
	</g>
	<g id="svg_518">
		<g id="svg_519">
			<g id="svg_520">
				<g id="svg_521">
					
						<rect x="353.70001220703125" y="227.1999969482422" transform="matrix(0.7071,-0.7071,0.7071,0.7071,-57.093,318.6331) " class="st2" width="4.800000190734863" height="2" id="svg_522"/>
				</g>
			</g>
		</g>
	</g>
	<g id="svg_523">
		<g id="svg_524">
			<g id="svg_525">
				<g id="svg_526">
					
						<rect x="361.70001220703125" y="225.8000030517578" transform="matrix(0.7071,-0.7071,0.7071,0.7071,-55.1675,323.2817) " class="st2" width="2" height="4.800000190734863" id="svg_527"/>
				</g>
			</g>
		</g>
	</g>
	<g id="svg_528">
		<g id="svg_529">
			<g id="svg_530">
				<g id="svg_531">
					
						<rect x="355.1000061035156" y="219.3000030517578" transform="matrix(0.7072,-0.7071,0.7071,0.7072,-52.4506,316.678) " class="st2" width="2" height="4.800000190734863" id="svg_532"/>
				</g>
			</g>
		</g>
	</g>
</g><g id="svg_533">
	<g id="svg_534">
		<g id="svg_535">
			<g id="svg_536">
				<path class="st1" d="M125.3,364.7c0,2.7-2.2,4.9-4.9,4.9s-4.9-2.2-4.9-4.9" id="svg_537"/>
			</g>
		</g>
	</g>
	<g id="svg_538">
		<g id="svg_539">
			<g id="svg_540">
				<path d="M120.4,370.6c-3.2,0-5.9-2.6-5.9-5.9c0-0.6,0.4-1,1-1s1,0.4,1,1c0,2.1,1.7,3.9,3.9,3.9c2.1,0,3.9-1.7,3.9-3.9      c0-0.6,0.4-1,1-1s1,0.4,1,1C126.2,368,123.6,370.6,120.4,370.6z" id="svg_541"/>
			</g>
		</g>
	</g>
</g><g id="svg_542">
	<g id="svg_543">
		<g id="svg_544">
			<g id="svg_545">
				<path class="st1" d="M262.1,131.8c0,2.7-2.2,4.9-4.9,4.9c-2.7,0-4.9-2.2-4.9-4.9" id="svg_546"/>
			</g>
		</g>
	</g>
	<g id="svg_547">
		<g id="svg_548">
			<g id="svg_549">
				<path d="M257.2,137.7c-3.2,0-5.9-2.6-5.9-5.9c0-0.6,0.4-1,1-1s1,0.4,1,1c0,2.1,1.7,3.9,3.9,3.9c2.1,0,3.9-1.7,3.9-3.9      c0-0.6,0.4-1,1-1s1,0.4,1,1C263.1,135,260.4,137.7,257.2,137.7z" id="svg_550"/>
			</g>
		</g>
	</g>
</g><g id="svg_551">
	<g id="svg_552">
		<g id="svg_553">
			<g id="svg_554">
				<g id="svg_555">
					<path class="st1" d="M301.1,308.2c-2.3-1.6-8.6,3.6-10.1,5.3c-0.5,7.5-1.6,8.3-4.2,10.6c-2.9,2.5-9,6.8-13.9,10.8       c-3.6,2.9-1.5,9.2,5.2,5.7c4.5-2.3,15.6-9.4,17.2-12.5C297.4,323.7,301.1,308.2,301.1,308.2z" id="svg_556"/>
				</g>
			</g>
		</g>
		<g id="svg_557">
			<g id="svg_558">
				<g id="svg_559">
					<path d="M274.5,342.6c-1.7,0-3-0.8-3.6-1.8c-1.3-2-0.7-4.9,1.4-6.7c2.4-2,5.2-4.1,7.7-6c2.4-1.8,4.8-3.6,6.2-4.8l0.2-0.2       c2.4-2.1,3.3-2.9,3.7-9.7c0-0.2,0.1-0.4,0.3-0.6c0.1-0.1,7.9-7.8,11.4-5.4c0.3,0.2,0.5,0.7,0.4,1.1c-0.2,0.6-3.7,15.6-5.9,20.1       c-1.7,3.5-13.4,10.7-17.6,12.9C276.9,342.2,275.6,342.6,274.5,342.6z M292,313.9c-0.5,7-1.5,8.3-4.4,10.8l-0.2,0.2       c-1.5,1.3-3.7,3-6.3,4.9c-2.5,1.8-5.2,3.9-7.6,5.9c-1.5,1.2-1.7,3-1,4c0.8,1.2,2.7,1.2,5.1,0c5-2.6,15.5-9.5,16.7-12       c1.8-3.6,4.7-15.3,5.6-18.7C298,309,294,311.9,292,313.9z" id="svg_560"/>
				</g>
			</g>
		</g>
	</g>
	<g id="svg_561">
		<g id="svg_562">
			<g id="svg_563">
				<g id="svg_564">
					<path class="st1" d="M322.5,345.3c2.3-3.3,2.6-32.7,2.6-32.7s5.6-0.5,9.3-2.4c0,0-1.9-6.7-3.4-9.3c-3.3-5.3-12.7-4.7-13.5-10.1       c0,0-9.5,0.5-10.8-0.2c0,0-0.4,1.9-0.7,2.6c-1.2,2.4-6.3,4-10,6c-4.7,2.5-5,14.3-5,14.3s4.1,0.3,7.4,1.1       c1,5.3-1.1,23.6,0.2,28.3" id="svg_565"/>
				</g>
			</g>
		</g>
		<g id="svg_566">
			<g id="svg_567">
				<g id="svg_568">
					<path d="M322.5,346.3c-0.2,0-0.4-0.1-0.6-0.2c-0.5-0.3-0.6-0.9-0.2-1.4c1.5-2.2,2.3-20.9,2.4-32.1c0-0.5,0.4-0.9,0.9-1       c0.1,0,4.7-0.4,8.2-1.9c-0.6-1.8-2-6.3-3.1-8.2c-1.4-2.2-4-3.3-6.6-4.4c-2.9-1.2-5.9-2.4-6.7-5.2c-3,0.2-7.1,0.3-9.3-0.1       c-0.2,0.7-0.4,1.4-0.6,1.8c-1,2.1-4,3.4-7.1,4.9c-1.1,0.5-2.3,1-3.3,1.6c-3.1,1.7-4.2,8.9-4.4,12.5c1.4,0.1,4.2,0.4,6.6,1       c0.4,0.1,0.7,0.4,0.7,0.8c0.5,2.6,0.3,8.1,0,13.8c-0.3,6-0.5,12.1,0.1,14.4c0.2,0.5-0.2,1.1-0.7,1.2c-0.5,0.2-1.1-0.2-1.2-0.7       c-0.7-2.6-0.5-8.6-0.2-15c0.2-4.9,0.4-10,0.1-12.7c-3-0.7-6.5-0.9-6.5-0.9c-0.5,0-0.9-0.5-0.9-1c0-1.3,0.4-12.5,5.5-15.1       c1.1-0.6,2.3-1.1,3.4-1.6c2.7-1.2,5.5-2.5,6.2-3.9c0.2-0.4,0.6-1.9,0.7-2.3c0.1-0.3,0.2-0.5,0.5-0.7c0.3-0.2,0.7-0.2,1,0       c0.8,0.4,5.9,0.3,10.2,0.1c0.5,0,1,0.3,1,0.9c0.3,2.3,2.8,3.4,5.7,4.5c2.8,1.1,5.9,2.4,7.6,5.2c1.6,2.6,3.5,9.2,3.5,9.5       c0.1,0.5-0.1,0.9-0.5,1.2c-3,1.5-7,2.2-8.8,2.4c-0.1,6.5-0.5,29.2-2.8,32.4C323.1,346.1,322.8,346.3,322.5,346.3z" id="svg_569"/>
				</g>
			</g>
		</g>
	</g>
	<g id="svg_570">
		<g id="svg_571">
			<g id="svg_572">
				<g id="svg_573">
					<path class="st1" d="M325.1,312.6c0,0-0.5-3.2-1.1-4.6" id="svg_574"/>
				</g>
			</g>
		</g>
		<g id="svg_575">
			<g id="svg_576">
				<g id="svg_577">
					<path d="M325.1,313.6c-0.5,0-0.9-0.3-1-0.8c-0.1-0.9-0.6-3.4-1-4.4c-0.2-0.5,0-1.1,0.5-1.3c0.5-0.2,1.1,0,1.3,0.5       c0.6,1.5,1.2,4.7,1.2,4.9c0.1,0.5-0.3,1.1-0.8,1.1C325.2,313.6,325.1,313.6,325.1,313.6z" id="svg_578"/>
				</g>
			</g>
		</g>
	</g>
	<g id="svg_579">
		<g id="svg_580">
			<g id="svg_581">
				<g id="svg_582">
					<line class="st1" x1="298.3999938964844" y1="314.5" x2="298.5" y2="309.8999938964844" id="svg_583"/>
				</g>
			</g>
		</g>
		<g id="svg_584">
			<g id="svg_585">
				<g id="svg_586">
					<path d="M298.4,315.5C298.4,315.5,298.4,315.5,298.4,315.5c-0.6,0-1-0.5-1-1l0.1-4.6c0-0.5,0.5-1,1-1c0,0,0,0,0,0       c0.6,0,1,0.5,1,1l-0.1,4.6C299.4,315.1,298.9,315.5,298.4,315.5z" id="svg_587"/>
				</g>
			</g>
		</g>
	</g>
	<g id="svg_588">
		<g id="svg_589">
			<g id="svg_590">
				<g id="svg_591">
					<path class="st1" d="M334.4,310.2c-2.9,2.2-6.1,2.5-9.3,2.4c-0.1,4.2,0.7,8.7-0.4,11.4c-1.3,3.3-3.6,8.6-6,14.1       c-1.7,4,0.5,6.3,2.8,6.1c0.9-0.1,1.8-0.5,2.4-1.5c2.3-3.3,9.2-15,10.1-18.1C335.3,320.3,334.4,310.2,334.4,310.2z" id="svg_592"/>
				</g>
			</g>
		</g>
		<g id="svg_593">
			<g id="svg_594">
				<g id="svg_595">
					<path d="M321.2,345.2c-1.3,0-2.5-0.6-3.2-1.7c-0.6-0.9-1.5-2.8-0.2-5.8c0.8-1.9,1.6-3.8,2.4-5.6c1.5-3.4,2.7-6.3,3.6-8.4       c0.6-1.6,0.5-4.1,0.4-6.7c-0.1-1.4-0.1-2.9-0.1-4.4c0-0.3,0.1-0.5,0.3-0.7c0.2-0.2,0.5-0.3,0.7-0.3c2.7,0.1,5.9-0.1,8.7-2.2       c0.3-0.2,0.7-0.3,1-0.1s0.6,0.5,0.6,0.8c0,0.4,0.9,10.3-0.4,14.8c-1,3.3-8,15.3-10.2,18.4c-0.8,1.1-1.9,1.8-3.2,1.9       C321.5,345.2,321.4,345.2,321.2,345.2z M326.1,313.6c0,1.1,0.1,2.2,0.1,3.2c0.1,2.9,0.3,5.6-0.5,7.6c-0.8,2.2-2.1,5.1-3.6,8.5       c-0.8,1.8-1.6,3.7-2.4,5.6c-0.7,1.6-0.7,3,0,3.9c0.4,0.6,1.1,0.9,1.8,0.8c0.5,0,1.2-0.3,1.7-1.1c2.3-3.2,9.1-14.9,9.9-17.8       c0.9-3.1,0.6-9.4,0.5-12.4C331,313.3,328.4,313.6,326.1,313.6z" id="svg_596"/>
				</g>
			</g>
		</g>
	</g>
	<g id="svg_597">
		<g id="svg_598">
			<g id="svg_599">
				<g id="svg_600">
					<path d="M311.8,300.9c-0.3,0-0.7,0-0.9-0.1c-3.3-0.4-6.2-3.1-6.8-6.3c-0.1-0.5,0.3-1.1,0.8-1.2c0.5-0.1,1.1,0.3,1.2,0.8       c0.4,2.4,2.6,4.4,5,4.7c2.9,0.4,5.6-1.6,7.3-5.4c0.2-0.5,0.8-0.7,1.3-0.5c0.5,0.2,0.7,0.8,0.5,1.3       C317.6,300,313.9,300.9,311.8,300.9z" id="svg_601"/>
				</g>
			</g>
		</g>
	</g>
	<g id="svg_602">
		<g id="svg_603">
			<g id="svg_604">
				<g id="svg_605">
					
						<ellipse transform="matrix(0.03449126,-0.9994,0.9994,0.03449126,-4.9554,619.4254) " class="st2" cx="318.1000061035156" cy="312.29998779296875" rx="3.0999999046325684" ry="3.0999999046325684" id="svg_606"/>
				</g>
			</g>
		</g>
	</g>
	<g id="svg_607">
		<g id="svg_608">
			<g id="svg_609">
				<g id="svg_610">
					
						<ellipse transform="matrix(0.1736,-0.9848,0.9848,0.1736,-12.8816,535.0822) " class="st1" cx="312.3999938964844" cy="275.20001220703125" rx="18.200000762939453" ry="15.5" id="svg_611"/>
				</g>
			</g>
		</g>
		<g id="svg_612">
			<g id="svg_613">
				<g id="svg_614">
					<path d="M311.6,294.3c-0.8,0-1.7-0.1-2.5-0.2c-4.4-0.8-8.1-3.5-10.6-7.6c-2.4-4.1-3.2-9.1-2.4-14.1c1.8-10.4,10.6-17.6,19.6-16       c9,1.6,14.8,11.4,12.9,21.8C327,287.5,319.6,294.3,311.6,294.3z M313.2,258.1c-7.1,0-13.6,6.1-15.1,14.6       c-0.8,4.6,0,9.1,2.1,12.8c2.1,3.6,5.4,6,9.2,6.7c7.9,1.4,15.6-5.1,17.3-14.4c1.6-9.3-3.4-18.1-11.3-19.5       C314.7,258.1,314,258.1,313.2,258.1z" id="svg_615"/>
				</g>
			</g>
		</g>
	</g>
	<g id="svg_616">
		<g id="svg_617">
			<g id="svg_618">
				<g id="svg_619">
					<path class="st0" d="M302.1,272.5c1.4-8,7-13.9,13.6-15.2c-0.1,0-0.1,0-0.2,0c-8.4-1.5-16.7,5.3-18.4,15.2       c-1.7,9.9,3.7,19.1,12.1,20.6c1.6,0.3,3.3,0.3,4.8,0C305.8,291.5,300.4,282.4,302.1,272.5z" id="svg_620"/>
				</g>
			</g>
		</g>
	</g>
	<g id="svg_621">
		<g id="svg_622">
			<g id="svg_623">
				<g id="svg_624">
					<path d="M309.8,287.8c-1.7,0-2.9-0.3-2.9-0.3c-0.2-0.1-0.3-0.3-0.3-0.5c0-0.2,0.3-0.3,0.5-0.3c0.4,0.1,10.4,2.5,14.9-8       c0.1-0.2,0.3-0.3,0.5-0.2s0.3,0.3,0.2,0.5C319.5,286.6,313.4,287.8,309.8,287.8z" id="svg_625"/>
				</g>
			</g>
		</g>
	</g>
	<g id="svg_626">
		<g id="svg_627">
			<g id="svg_628">
				<g id="svg_629">
					<path d="M312.3,280.3C312.3,280.3,312.3,280.3,312.3,280.3c-0.3-0.1-0.4-0.3-0.4-0.5c0.2-0.9-0.4-1.8-1.2-1.9       c-0.9-0.2-1.8,0.4-1.9,1.2c0,0.2-0.2,0.3-0.4,0.3c-0.2,0-0.3-0.2-0.3-0.4c0.3-1.3,1.6-2.1,2.8-1.8c1.3,0.3,2.1,1.6,1.8,2.8       C312.6,280.1,312.5,280.3,312.3,280.3z" id="svg_630"/>
				</g>
			</g>
		</g>
	</g>
	<g id="svg_631">
		<g id="svg_632">
			<g id="svg_633">
				<g id="svg_634">
					<path d="M306.1,278.5C306.1,278.5,306,278.5,306.1,278.5c-0.3-0.1-0.4-0.3-0.4-0.5c0.1-0.4,0-0.9-0.2-1.2       c-0.2-0.4-0.6-0.6-1-0.7c-0.9-0.2-1.8,0.4-1.9,1.2c0,0.2-0.2,0.3-0.4,0.3c-0.2,0-0.3-0.2-0.3-0.4c0.3-1.3,1.6-2.1,2.8-1.8       c0.6,0.1,1.2,0.5,1.5,1c0.3,0.5,0.5,1.2,0.3,1.8C306.4,278.4,306.3,278.5,306.1,278.5z" id="svg_635"/>
				</g>
			</g>
		</g>
	</g>
	<g id="svg_636">
		<g id="svg_637">
			<g id="svg_638">
				<g id="svg_639">
					<path d="M311.6,294.3c-0.8,0-1.7-0.1-2.5-0.2c-4.4-0.8-8.1-3.5-10.6-7.6c-2.4-4.1-3.2-9.1-2.4-14.1c1.8-10.4,10.6-17.6,19.6-16       c9,1.6,14.8,11.4,12.9,21.8C327,287.5,319.6,294.3,311.6,294.3z M313.2,258.1c-7.1,0-13.6,6.1-15.1,14.6       c-0.8,4.6,0,9.1,2.1,12.8c2.1,3.6,5.4,6,9.2,6.7c7.9,1.4,15.6-5.1,17.3-14.4c1.6-9.3-3.4-18.1-11.3-19.5       C314.7,258.1,314,258.1,313.2,258.1z" id="svg_640"/>
				</g>
			</g>
		</g>
	</g>
	<g id="svg_641">
		<g id="svg_642">
			<g id="svg_643">
				<g id="svg_644">
					<path class="st3" d="M317.3,269.8C317.4,269.8,317.4,269.8,317.3,269.8c-1.2-4.7-6.4-6.7-10.6-7.3c-6.3-0.9-11.1,2-12.7,5.7       c-0.5,1.2,1.1,2.3,1.9,1.4c1.4-1.7,3.1-4.2,8.1-3.9c1.8,0.1,4.5,0.7,6.7,3c1.6,1.7,4.1,2.2,6.3,1.2       C317.1,269.9,317.2,269.9,317.3,269.8z" id="svg_645"/>
				</g>
			</g>
		</g>
		<g id="svg_646">
			<g id="svg_647">
				<g id="svg_648">
					<path d="M314.7,271.5c-1.7,0-3.4-0.7-4.7-2c-2.1-2.2-4.7-2.6-6-2.7c-4.2-0.2-5.8,1.7-7.1,3.3l-0.2,0.3c-0.6,0.8-1.7,1-2.6,0.4       c-0.9-0.5-1.5-1.6-1-2.8c1.6-3.8,6.6-7.4,13.8-6.3c2.9,0.4,9.9,2,11.5,8c0.1,0.5-0.2,1.1-0.7,1.3c0,0,0,0,0,0       c-0.1,0-0.2,0.1-0.3,0.1C316.5,271.3,315.6,271.5,314.7,271.5z M317.3,269.8L317.3,269.8L317.3,269.8z M317.3,269.8       L317.3,269.8L317.3,269.8z M303.2,264.7c0.3,0,0.5,0,0.8,0c1.7,0.1,4.8,0.6,7.4,3.3c1.2,1.3,3,1.7,4.7,1.2       c-1.7-4.1-7.2-5.4-9.6-5.7c-6.1-0.9-10.3,2.1-11.6,5.1c0,0,0,0.1,0,0.2c0.1,0.1,0.2,0.2,0.2,0.2l0.1-0.2       C296.6,267.1,298.5,264.7,303.2,264.7z" id="svg_649"/>
				</g>
			</g>
		</g>
	</g>
	<g id="svg_650">
		<g id="svg_651">
			<g id="svg_652">
				<g id="svg_653">
					<path class="st1" d="M317.4,269.4c0,0,9.7,0,10.4,6.1" id="svg_654"/>
				</g>
			</g>
		</g>
		<g id="svg_655">
			<g id="svg_656">
				<g id="svg_657">
					<path d="M327.9,276.6c-0.5,0-0.9-0.4-1-0.9c-0.7-5.2-9.4-5.3-9.5-5.3c-0.6,0-1-0.5-1-1c0-0.6,0.4-1,1-1c0,0,0,0,0,0       c0.4,0,10.6,0.1,11.4,7c0.1,0.5-0.3,1-0.9,1.1C328,276.5,327.9,276.6,327.9,276.6z" id="svg_658"/>
				</g>
			</g>
		</g>
	</g>
</g><g id="svg_659">
	<g id="svg_660">
		<g id="svg_661">
			<g id="svg_662">
				<path class="st1" d="M396.1,254.3c0-2.4,1.9-4.4,4.4-4.4s4.4,1.9,4.4,4.4" id="svg_663"/>
			</g>
		</g>
	</g>
	<g id="svg_664">
		<g id="svg_665">
			<g id="svg_666">
				<path d="M404.8,254.8c-0.3,0-0.5-0.2-0.5-0.5c0-2.1-1.7-3.9-3.9-3.9s-3.9,1.7-3.9,3.9c0,0.3-0.2,0.5-0.5,0.5s-0.5-0.2-0.5-0.5      c0-2.7,2.2-4.9,4.9-4.9s4.9,2.2,4.9,4.9C405.3,254.6,405,254.8,404.8,254.8z" id="svg_667"/>
			</g>
		</g>
	</g>
</g><g id="svg_668">
	<g id="svg_669">
		<g id="svg_670">
			<g id="svg_671">
				<circle cx="214.60000610351562" cy="328.6000061035156" r="0.699999988079071" id="svg_672"/>
			</g>
		</g>
	</g>
</g><g id="svg_673">
	<g id="svg_674">
		<g id="svg_675">
			<g id="svg_676">
				<circle cx="180" cy="131.10000610351562" r="0.699999988079071" id="svg_677"/>
			</g>
		</g>
	</g>
</g><g id="svg_678">
	<g id="svg_679">
		<g id="svg_680">
			<g id="svg_681">
				<circle cx="333.70001220703125" cy="242.8000030517578" r="0.699999988079071" id="svg_682"/>
			</g>
		</g>
	</g>
</g><g id="svg_683">
	<g id="svg_684">
		<g id="svg_685">
			<g id="svg_686">
				<circle cx="188.1999969482422" cy="267.5" r="0.699999988079071" id="svg_687"/>
			</g>
		</g>
	</g>
</g><g id="svg_688">
	<g id="svg_689">
		<g id="svg_690">
			<g id="svg_691">
				<circle cx="373.20001220703125" cy="205.3000030517578" r="0.699999988079071" id="svg_692"/>
			</g>
		</g>
	</g>
</g><g id="svg_693">
	<g id="svg_694">
		<g id="svg_695">
			<g id="svg_696">
				<circle cx="194" cy="138.6999969482422" r="0.699999988079071" id="svg_697"/>
			</g>
		</g>
	</g>
</g><g id="svg_698">
	<g id="svg_699">
		<g id="svg_700">
			<g id="svg_701">
				<g id="svg_702">
					<path class="st2" d="M243,284.7c-0.2,0-0.3,0-0.4-0.1l-28.4-14.2c-0.3-0.2-0.6-0.5-0.6-0.9v-28.4c0-0.3,0.2-0.7,0.5-0.9       c0.3-0.2,0.7-0.2,1,0l28.4,14.2c0.3,0.2,0.6,0.5,0.6,0.9v28.4c0,0.3-0.2,0.7-0.5,0.9C243.4,284.6,243.2,284.7,243,284.7z        M215.6,268.9l26.4,13.2v-26.2l-26.4-13.2V268.9z" id="svg_703"/>
				</g>
			</g>
		</g>
	</g>
	<g id="svg_704">
		<g id="svg_705">
			<g id="svg_706">
				<g id="svg_707">
					<path class="st2" d="M271.4,270.4c-0.2,0-0.3,0-0.4-0.1l-28.4-14.2c-0.3-0.2-0.6-0.5-0.6-0.9v-28.4c0-0.3,0.2-0.7,0.5-0.9       s0.7-0.2,1,0l28.4,14.2c0.3,0.2,0.6,0.5,0.6,0.9v28.4c0,0.3-0.2,0.7-0.5,0.9C271.8,270.4,271.6,270.4,271.4,270.4z M244,254.6       l26.4,13.2v-26.2L244,228.4V254.6z" id="svg_708"/>
				</g>
			</g>
		</g>
	</g>
	<g id="svg_709">
		<g id="svg_710">
			<g id="svg_711">
				<g id="svg_712">
					<path class="st2" d="M214.6,270.4c-0.2,0-0.4-0.1-0.5-0.1c-0.3-0.2-0.5-0.5-0.5-0.9V241c0-0.4,0.2-0.7,0.6-0.9l28.4-14.2       c0.3-0.2,0.7-0.1,1,0c0.3,0.2,0.5,0.5,0.5,0.9v28.4c0,0.4-0.2,0.7-0.6,0.9L215,270.3C214.9,270.4,214.7,270.4,214.6,270.4z        M215.6,241.6v26.2l26.4-13.2v-26.2L215.6,241.6z" id="svg_713"/>
				</g>
			</g>
		</g>
	</g>
	<g id="svg_714">
		<g id="svg_715">
			<g id="svg_716">
				<g id="svg_717">
					<path class="st2" d="M243,284.7c-0.2,0-0.4-0.1-0.5-0.1c-0.3-0.2-0.5-0.5-0.5-0.9v-28.4c0-0.4,0.2-0.7,0.6-0.9l28.4-14.2       c0.3-0.2,0.7-0.1,1,0c0.3,0.2,0.5,0.5,0.5,0.9v28.4c0,0.4-0.2,0.7-0.6,0.9l-28.4,14.2C243.3,284.7,243.1,284.7,243,284.7z        M244,255.9v26.2l26.4-13.2v-26.2L244,255.9z" id="svg_718"/>
				</g>
			</g>
		</g>
	</g>
</g><g id="svg_719">
	<g id="svg_720">
		<g id="svg_721">
			<g id="svg_722">
				<polygon class="st1" points="263.9,265.7 243,255.2 243,234.3 263.9,244.8     " id="svg_723"/>
			</g>
		</g>
	</g>
	<g id="svg_724">
		<g id="svg_725">
			<g id="svg_726">
				<path d="M263.9,266.7c-0.2,0-0.3,0-0.4-0.1l-20.9-10.4c-0.3-0.2-0.6-0.5-0.6-0.9v-20.9c0-0.3,0.2-0.7,0.5-0.9      c0.3-0.2,0.7-0.2,1,0l20.9,10.4c0.3,0.2,0.6,0.5,0.6,0.9v20.9c0,0.3-0.2,0.7-0.5,0.9C264.2,266.6,264.1,266.7,263.9,266.7z       M244,254.6l18.9,9.4v-18.6L244,236V254.6z" id="svg_727"/>
			</g>
		</g>
	</g>
</g><g id="svg_728">
	<g id="svg_729">
		<g id="svg_730">
			<g id="svg_731">
				<polygon class="st1" points="222.1,265.7 243,255.2 243,234.3 222.1,244.8     " id="svg_732"/>
			</g>
		</g>
	</g>
	<g id="svg_733">
		<g id="svg_734">
			<g id="svg_735">
				<path d="M222.1,266.7c-0.2,0-0.4-0.1-0.5-0.1c-0.3-0.2-0.5-0.5-0.5-0.9v-20.9c0-0.4,0.2-0.7,0.6-0.9l20.9-10.4      c0.3-0.2,0.7-0.1,1,0c0.3,0.2,0.5,0.5,0.5,0.9v20.9c0,0.4-0.2,0.7-0.6,0.9l-20.9,10.4C222.4,266.6,222.3,266.7,222.1,266.7z       M223.1,245.4V264l18.9-9.4V236L223.1,245.4z" id="svg_736"/>
			</g>
		</g>
	</g>
</g><g id="svg_737">
	<g id="svg_738">
		<g id="svg_739">
			<g id="svg_740">
				<g id="svg_741">
					<path class="st2" d="M254.2,255.9c-0.2,0-0.3,0-0.4-0.1l-11.2-5.6c-0.3-0.2-0.6-0.5-0.6-0.9v-11.2c0-0.3,0.2-0.7,0.5-0.9       s0.7-0.2,1,0l11.2,5.6c0.3,0.2,0.6,0.5,0.6,0.9v11.2c0,0.3-0.2,0.7-0.5,0.9C254.6,255.8,254.4,255.9,254.2,255.9z M244,248.7       l9.2,4.6v-9l-9.2-4.6V248.7z" id="svg_742"/>
				</g>
			</g>
		</g>
	</g>
	<g id="svg_743">
		<g id="svg_744">
			<g id="svg_745">
				<g id="svg_746">
					<path class="st2" d="M231.8,255.9c-0.2,0-0.4-0.1-0.5-0.1c-0.3-0.2-0.5-0.5-0.5-0.9v-11.2c0-0.4,0.2-0.7,0.6-0.9l11.2-5.6       c0.3-0.2,0.7-0.1,1,0c0.3,0.2,0.5,0.5,0.5,0.9v11.2c0,0.4-0.2,0.7-0.6,0.9l-11.2,5.6C232.1,255.8,231.9,255.9,231.8,255.9z        M232.8,244.3v9l9.2-4.6v-9L232.8,244.3z" id="svg_747"/>
				</g>
			</g>
		</g>
	</g>
	<g id="svg_748">
		<g id="svg_749">
			<g id="svg_750">
				<g id="svg_751">
					<path class="st2" d="M243,261.5c-0.2,0-0.4-0.1-0.5-0.1c-0.3-0.2-0.5-0.5-0.5-0.9v-11.2c0-0.4,0.2-0.7,0.6-0.9l11.2-5.6       c0.3-0.2,0.7-0.1,1,0c0.3,0.2,0.5,0.5,0.5,0.9v11.2c0,0.4-0.2,0.7-0.6,0.9l-11.2,5.6C243.3,261.5,243.1,261.5,243,261.5z        M244,249.9v9l9.2-4.6v-9L244,249.9z" id="svg_752"/>
				</g>
			</g>
		</g>
	</g>
	<g id="svg_753">
		<g id="svg_754">
			<g id="svg_755">
				<g id="svg_756">
					<path class="st2" d="M243,261.5c-0.2,0-0.3,0-0.4-0.1l-11.2-5.6c-0.3-0.2-0.6-0.5-0.6-0.9v-11.2c0-0.3,0.2-0.7,0.5-0.9       c0.3-0.2,0.7-0.2,1,0l11.2,5.6c0.3,0.2,0.6,0.5,0.6,0.9v11.2c0,0.3-0.2,0.7-0.5,0.9C243.4,261.5,243.2,261.5,243,261.5z        M232.8,254.3l9.2,4.6v-9l-9.2-4.6V254.3z" id="svg_757"/>
				</g>
			</g>
		</g>
	</g>
</g><g id="svg_758">
	<g id="svg_759">
		<g id="svg_760">
			<g id="svg_761">
				<g id="svg_762">
					<polygon class="st1" points="248.6,239 243,236.2 243,230.6 248.6,233.4      " id="svg_763"/>
				</g>
			</g>
		</g>
		<g id="svg_764">
			<g id="svg_765">
				<g id="svg_766">
					<path d="M248.6,240c-0.2,0-0.3,0-0.4-0.1l-5.6-2.8c-0.3-0.2-0.6-0.5-0.6-0.9v-5.6c0-0.3,0.2-0.7,0.5-0.9c0.3-0.2,0.7-0.2,1,0       l5.6,2.8c0.3,0.2,0.6,0.5,0.6,0.9v5.6c0,0.3-0.2,0.7-0.5,0.9C249,239.9,248.8,240,248.6,240z M244,235.6l3.6,1.8V234l-3.6-1.8       V235.6z" id="svg_767"/>
				</g>
			</g>
		</g>
	</g>
	<g id="svg_768">
		<g id="svg_769">
			<g id="svg_770">
				<g id="svg_771">
					<polygon class="st1" points="237.4,239 243,236.2 243,230.6 237.4,233.4      " id="svg_772"/>
				</g>
			</g>
		</g>
		<g id="svg_773">
			<g id="svg_774">
				<g id="svg_775">
					<path d="M237.4,240c-0.2,0-0.4-0.1-0.5-0.1c-0.3-0.2-0.5-0.5-0.5-0.9v-5.6c0-0.4,0.2-0.7,0.6-0.9l5.6-2.8c0.3-0.2,0.7-0.1,1,0       c0.3,0.2,0.5,0.5,0.5,0.9v5.6c0,0.4-0.2,0.7-0.6,0.9l-5.6,2.8C237.7,240,237.5,240,237.4,240z M238.4,234v3.4l3.6-1.8v-3.4       L238.4,234z" id="svg_776"/>
				</g>
			</g>
		</g>
	</g>
	<g id="svg_777">
		<g id="svg_778">
			<g id="svg_779">
				<g id="svg_780">
					<polygon class="st1" points="243,241.8 248.6,239 248.6,233.4 243,236.2      " id="svg_781"/>
				</g>
			</g>
		</g>
		<g id="svg_782">
			<g id="svg_783">
				<g id="svg_784">
					<path d="M243,242.8c-0.2,0-0.4-0.1-0.5-0.1c-0.3-0.2-0.5-0.5-0.5-0.9v-5.6c0-0.4,0.2-0.7,0.6-0.9l5.6-2.8c0.3-0.2,0.7-0.1,1,0       c0.3,0.2,0.5,0.5,0.5,0.9v5.6c0,0.4-0.2,0.7-0.6,0.9l-5.6,2.8C243.3,242.8,243.1,242.8,243,242.8z M244,236.8v3.4l3.6-1.8V235       L244,236.8z" id="svg_785"/>
				</g>
			</g>
		</g>
	</g>
	<g id="svg_786">
		<g id="svg_787">
			<g id="svg_788">
				<g id="svg_789">
					<polygon class="st1" points="243,241.8 237.4,239 237.4,233.4 243,236.2      " id="svg_790"/>
				</g>
			</g>
		</g>
		<g id="svg_791">
			<g id="svg_792">
				<g id="svg_793">
					<path d="M243,242.8c-0.2,0-0.3,0-0.4-0.1l-5.6-2.8c-0.3-0.2-0.6-0.5-0.6-0.9v-5.6c0-0.3,0.2-0.7,0.5-0.9c0.3-0.2,0.7-0.2,1,0       l5.6,2.8c0.3,0.2,0.6,0.5,0.6,0.9v5.6c0,0.3-0.2,0.7-0.5,0.9C243.4,242.8,243.2,242.8,243,242.8z M238.4,238.4l3.6,1.8v-3.4       l-3.6-1.8V238.4z" id="svg_794"/>
				</g>
			</g>
		</g>
	</g>
</g><g id="svg_795">
	<g id="svg_796">
		<g id="svg_797">
			<g id="svg_798">
				<polygon class="st1" points="243,276.2 263.9,265.7 263.9,244.8 243,255.3     " id="svg_799"/>
			</g>
		</g>
	</g>
	<g id="svg_800">
		<g id="svg_801">
			<g id="svg_802">
				<path d="M243,277.2c-0.2,0-0.4-0.1-0.5-0.1c-0.3-0.2-0.5-0.5-0.5-0.9v-20.9c0-0.4,0.2-0.7,0.6-0.9l20.9-10.4      c0.3-0.2,0.7-0.1,1,0c0.3,0.2,0.5,0.5,0.5,0.9v20.9c0,0.4-0.2,0.7-0.6,0.9l-20.9,10.4C243.3,277.1,243.1,277.2,243,277.2z       M244,255.9v18.6l18.9-9.4v-18.6L244,255.9z" id="svg_803"/>
			</g>
		</g>
	</g>
</g><g id="svg_804">
	<g id="svg_805">
		<g id="svg_806">
			<g id="svg_807">
				<polygon class="st1" points="243,276.2 222.1,265.7 222.1,244.8 243,255.3     " id="svg_808"/>
			</g>
		</g>
	</g>
	<g id="svg_809">
		<g id="svg_810">
			<g id="svg_811">
				<path d="M243,277.2c-0.2,0-0.3,0-0.4-0.1l-20.9-10.4c-0.3-0.2-0.6-0.5-0.6-0.9v-20.9c0-0.3,0.2-0.7,0.5-0.9c0.3-0.2,0.7-0.2,1,0      l20.9,10.4c0.3,0.2,0.6,0.5,0.6,0.9v20.9c0,0.3-0.2,0.7-0.5,0.9C243.4,277.1,243.2,277.2,243,277.2z M223.1,265.1l18.9,9.4      v-18.6l-18.9-9.4V265.1z" id="svg_812"/>
			</g>
		</g>
	</g>
</g><g id="svg_813">
	<g id="svg_814">
		<g id="svg_815">
			<g id="svg_816">
				<g id="svg_817">
					<rect x="47.70000076293945" y="179.5" class="st0" width="91.19999694824219" height="19.700000762939453" id="svg_818"/>
				</g>
			</g>
		</g>
	</g>
</g><g id="svg_819">
	<g id="svg_820">
		<g id="svg_821">
			<g id="svg_822">
				<g id="svg_823">
					<g id="svg_824">
						<rect x="85.5999984741211" y="300.79998779296875" class="st0" width="43.400001525878906" height="19.700000762939453" id="svg_825"/>
					</g>
				</g>
			</g>
		</g>
	</g>
	<g id="svg_826">
		<g id="svg_827">
			<g id="svg_828">
				<g id="svg_829">
					<circle class="st3" cx="98.5" cy="310.6000061035156" r="5.5" id="svg_830"/>
				</g>
			</g>
		</g>
		<g id="svg_831">
			<g id="svg_832">
				<g id="svg_833">
					<path d="M98.5,316.7c-3.3,0-6-2.7-6-6s2.7-6,6-6s6,2.7,6,6S101.8,316.7,98.5,316.7z M98.5,305.6c-2.8,0-5,2.3-5,5s2.3,5,5,5       s5-2.3,5-5S101.3,305.6,98.5,305.6z" id="svg_834"/>
				</g>
			</g>
		</g>
	</g>
	<g id="svg_835">
		<g id="svg_836">
			<g id="svg_837">
				<g id="svg_838">
					<circle class="st3" cx="114.80000305175781" cy="310.6000061035156" r="5.5" id="svg_839"/>
				</g>
			</g>
		</g>
		<g id="svg_840">
			<g id="svg_841">
				<g id="svg_842">
					<path d="M114.8,316.7c-3.3,0-6-2.7-6-6s2.7-6,6-6s6,2.7,6,6S118.2,316.7,114.8,316.7z M114.8,305.6c-2.8,0-5,2.3-5,5s2.3,5,5,5       c2.8,0,5-2.3,5-5S117.6,305.6,114.8,305.6z" id="svg_843"/>
				</g>
			</g>
		</g>
	</g>
	<g id="svg_844">
		<g id="svg_845">
			<g id="svg_846">
				<g id="svg_847">
					<g id="svg_848">
						<line class="st3" x1="100.0999984741211" y1="309" x2="96.80000305175781" y2="312.29998779296875" id="svg_849"/>
					</g>
				</g>
			</g>
			<g id="svg_850">
				<g id="svg_851">
					<g id="svg_852">
						<path d="M96.8,312.8c-0.1,0-0.3,0-0.4-0.1c-0.2-0.2-0.2-0.5,0-0.7l3.3-3.3c0.2-0.2,0.5-0.2,0.7,0s0.2,0.5,0,0.7l-3.3,3.3        C97.1,312.7,97,312.8,96.8,312.8z" id="svg_853"/>
					</g>
				</g>
			</g>
		</g>
		<g id="svg_854">
			<g id="svg_855">
				<g id="svg_856">
					<g id="svg_857">
						<line class="st3" x1="96.80000305175781" y1="309" x2="100.0999984741211" y2="312.29998779296875" id="svg_858"/>
					</g>
				</g>
			</g>
			<g id="svg_859">
				<g id="svg_860">
					<g id="svg_861">
						<path d="M100.1,312.8c-0.1,0-0.3,0-0.4-0.1l-3.3-3.3c-0.2-0.2-0.2-0.5,0-0.7s0.5-0.2,0.7,0l3.3,3.3c0.2,0.2,0.2,0.5,0,0.7        C100.4,312.7,100.2,312.8,100.1,312.8z" id="svg_862"/>
					</g>
				</g>
			</g>
		</g>
	</g>
	<g id="svg_863">
		<g id="svg_864">
			<g id="svg_865">
				<g id="svg_866">
					<path d="M113.9,312.7c-0.1,0-0.3,0-0.4-0.1l-1.3-1.3c-0.2-0.2-0.2-0.5,0-0.7s0.5-0.2,0.7,0l1,1l2.8-2.8c0.2-0.2,0.5-0.2,0.7,0       s0.2,0.5,0,0.7l-3.1,3.1C114.2,312.7,114,312.7,113.9,312.7z" id="svg_867"/>
				</g>
			</g>
		</g>
	</g>
</g><g id="svg_868">
	<g id="svg_869">
		<g id="svg_870">
			<g id="svg_871">
				<g id="svg_872">
					<g id="svg_873">
						<rect x="336.1000061035156" y="166.1999969482422" class="st0" width="43.400001525878906" height="19.700000762939453" id="svg_874"/>
					</g>
				</g>
			</g>
		</g>
	</g>
	<g id="svg_875">
		<g id="svg_876">
			<g id="svg_877">
				<g id="svg_878">
					<g id="svg_879">
						<path class="st3" d="M350.7,181.9h-4.8v-7.6h7.6c0.9,0,1.6,0.8,1.5,1.7l-0.3,2.4C354.4,180.4,352.7,181.9,350.7,181.9z" id="svg_880"/>
					</g>
				</g>
			</g>
			<g id="svg_881">
				<g id="svg_882">
					<g id="svg_883">
						<path d="M350.7,182.4h-4.8c-0.3,0-0.5-0.2-0.5-0.5v-7.6c0-0.3,0.2-0.5,0.5-0.5h7.6c0.6,0,1.1,0.2,1.5,0.7        c0.4,0.4,0.6,1,0.5,1.6l-0.3,2.4C354.9,180.7,352.9,182.4,350.7,182.4z M346.3,181.4h4.3c1.8,0,3.3-1.3,3.5-3.1l0.3-2.4        c0-0.3-0.1-0.6-0.3-0.8c-0.2-0.2-0.5-0.3-0.8-0.3h-7.1V181.4z" id="svg_884"/>
					</g>
				</g>
			</g>
		</g>
		<g id="svg_885">
			<g id="svg_886">
				<g id="svg_887">
					<g id="svg_888">
						<path class="st3" d="M345.8,174.3l2-3.5c0.2-0.4,0.6-0.6,1-0.6l0,0c0.6,0,1.2,0.5,1.2,1.2v2.9H345.8z" id="svg_889"/>
					</g>
				</g>
			</g>
			<g id="svg_890">
				<g id="svg_891">
					<g id="svg_892">
						<path d="M350,174.8h-4.1c-0.2,0-0.3-0.1-0.4-0.2c-0.1-0.2-0.1-0.3,0-0.5l2-3.5c0.3-0.5,0.8-0.8,1.4-0.8c0.9,0,1.7,0.7,1.7,1.7        v2.9C350.5,174.6,350.2,174.8,350,174.8z M346.7,173.8h2.8v-2.4c0-0.4-0.3-0.7-0.7-0.7c-0.2,0-0.5,0.1-0.6,0.3L346.7,173.8z" id="svg_893"/>
					</g>
				</g>
			</g>
		</g>
		<g id="svg_894">
			<g id="svg_895">
				<g id="svg_896">
					<g id="svg_897">
						<rect x="343" y="175.10000610351562" class="st3" width="2.799999952316284" height="5.900000095367432" id="svg_898"/>
					</g>
				</g>
			</g>
			<g id="svg_899">
				<g id="svg_900">
					<g id="svg_901">
						<path d="M345.8,181.6H343c-0.3,0-0.5-0.2-0.5-0.5v-5.9c0-0.3,0.2-0.5,0.5-0.5h2.8c0.3,0,0.5,0.2,0.5,0.5v5.9        C346.3,181.3,346.1,181.6,345.8,181.6z M343.5,180.6h1.8v-4.9h-1.8V180.6z" id="svg_902"/>
					</g>
				</g>
			</g>
		</g>
	</g>
	<g id="svg_903">
		<g id="svg_904">
			<g id="svg_905">
				<g id="svg_906">
					<g id="svg_907">
						<path class="st3" d="M363.6,170.2h4.8v7.6h-7.6c-0.9,0-1.6-0.8-1.5-1.7l0.3-2.4C359.9,171.8,361.6,170.2,363.6,170.2z" id="svg_908"/>
					</g>
				</g>
			</g>
			<g id="svg_909">
				<g id="svg_910">
					<g id="svg_911">
						<path d="M368.4,178.4h-7.6c-0.6,0-1.1-0.2-1.5-0.7c-0.4-0.4-0.6-1-0.5-1.6l0.3-2.4c0.3-2.3,2.2-4,4.5-4h4.8        c0.3,0,0.5,0.2,0.5,0.5v7.6C368.9,178.1,368.7,178.4,368.4,178.4z M363.6,170.7c-1.8,0-3.3,1.3-3.5,3.1l-0.3,2.4        c0,0.3,0.1,0.6,0.3,0.8c0.2,0.2,0.5,0.3,0.8,0.3h7.1v-6.6H363.6z" id="svg_912"/>
					</g>
				</g>
			</g>
		</g>
		<g id="svg_913">
			<g id="svg_914">
				<g id="svg_915">
					<g id="svg_916">
						<path class="st3" d="M368.4,177.9l-2,3.5c-0.2,0.4-0.6,0.6-1,0.6l0,0c-0.6,0-1.2-0.5-1.2-1.2v-2.9H368.4z" id="svg_917"/>
					</g>
				</g>
			</g>
			<g id="svg_918">
				<g id="svg_919">
					<g id="svg_920">
						<path d="M365.5,182.4c-0.9,0-1.7-0.7-1.7-1.7v-2.9c0-0.3,0.2-0.5,0.5-0.5h4.1c0.2,0,0.3,0.1,0.4,0.2c0.1,0.2,0.1,0.3,0,0.5        l-2,3.5C366.6,182.1,366.1,182.4,365.5,182.4z M364.8,178.4v2.4c0,0.4,0.3,0.7,0.7,0.7c0.2,0,0.5-0.1,0.6-0.3l1.5-2.7H364.8z" id="svg_921"/>
					</g>
				</g>
			</g>
		</g>
		<g id="svg_922">
			<g id="svg_923">
				<g id="svg_924">
					<g id="svg_925">
						
							<rect x="368.3999938964844" y="171.10000610351562" transform="matrix(-1,4.538402e-11,-4.538402e-11,-1,739.6876,348.1052) " class="st3" width="2.799999952316284" height="5.900000095367432" id="svg_926"/>
					</g>
				</g>
			</g>
			<g id="svg_927">
				<g id="svg_928">
					<g id="svg_929">
						<path d="M371.2,177.5h-2.8c-0.3,0-0.5-0.2-0.5-0.5v-5.9c0-0.3,0.2-0.5,0.5-0.5h2.8c0.3,0,0.5,0.2,0.5,0.5v5.9        C371.7,177.3,371.5,177.5,371.2,177.5z M368.9,176.5h1.8v-4.9h-1.8V176.5z" id="svg_930"/>
					</g>
				</g>
			</g>
		</g>
	</g>
</g><g id="svg_931">
	<g id="svg_932">
		<g id="svg_933">
			<g id="svg_934">
				<g id="svg_935">
					<g id="svg_936">
						<rect x="339.20001220703125" y="330.8999938964844" class="st0" width="61.20000076293945" height="19.700000762939453" id="svg_937"/>
					</g>
				</g>
			</g>
		</g>
	</g>
	<g id="svg_938">
		<g id="svg_939">
			<g id="svg_940">
				<g id="svg_941">
					<g id="svg_942">
						<g id="svg_943">
							<g id="svg_944">
								<circle class="st3" cx="369.79998779296875" cy="338.70001220703125" r="5.5" id="svg_945"/>
							</g>
						</g>
					</g>
					<g id="svg_946">
						<g id="svg_947">
							<g id="svg_948">
								<path d="M369.8,344.8c-3.3,0-6-2.7-6-6c0-3.3,2.7-6,6-6s6,2.7,6,6C375.9,342.1,373.1,344.8,369.8,344.8z M369.8,333.7          c-2.8,0-5,2.3-5,5c0,2.8,2.3,5,5,5s5-2.3,5-5C374.9,335.9,372.6,333.7,369.8,333.7z" id="svg_949"/>
							</g>
						</g>
					</g>
				</g>
				<g id="svg_950">
					<g id="svg_951">
						<g id="svg_952">
							<g id="svg_953">
								<g id="svg_954">
									<path d="M369.8,339.2c-0.9,0-1.7-0.7-1.7-1.7s0.7-1.7,1.7-1.7s1.7,0.7,1.7,1.7c0,0.3-0.2,0.5-0.5,0.5s-0.5-0.2-0.5-0.5           c0-0.4-0.3-0.7-0.7-0.7s-0.7,0.3-0.7,0.7s0.3,0.7,0.7,0.7c0.3,0,0.5,0.2,0.5,0.5S370.1,339.2,369.8,339.2z" id="svg_955"/>
								</g>
							</g>
						</g>
					</g>
					<g id="svg_956">
						<g id="svg_957">
							<g id="svg_958">
								<g id="svg_959">
									<path d="M369.8,341.5c-0.9,0-1.7-0.7-1.7-1.7c0-0.3,0.2-0.5,0.5-0.5s0.5,0.2,0.5,0.5c0,0.4,0.3,0.7,0.7,0.7           s0.7-0.3,0.7-0.7s-0.3-0.7-0.7-0.7c-0.3,0-0.5-0.2-0.5-0.5s0.2-0.5,0.5-0.5c0.9,0,1.7,0.7,1.7,1.7S370.7,341.5,369.8,341.5           z" id="svg_960"/>
								</g>
							</g>
						</g>
					</g>
				</g>
			</g>
			<g id="svg_961">
				<g id="svg_962">
					<g id="svg_963">
						<g id="svg_964">
							<g id="svg_965">
								<path d="M369.8,333.7c-0.3,0-0.5-0.2-0.5-0.5v-8.6c0-0.3,0.2-0.5,0.5-0.5s0.5,0.2,0.5,0.5v8.6          C370.3,333.5,370.1,333.7,369.8,333.7z" id="svg_966"/>
							</g>
						</g>
					</g>
				</g>
				<g id="svg_967">
					<g id="svg_968">
						<g id="svg_969">
							<g id="svg_970">
								<path d="M369.8,357.4c-0.3,0-0.5-0.2-0.5-0.5v-12.6c0-0.3,0.2-0.5,0.5-0.5s0.5,0.2,0.5,0.5v12.6          C370.3,357.1,370.1,357.4,369.8,357.4z" id="svg_971"/>
							</g>
						</g>
					</g>
				</g>
			</g>
		</g>
		<g id="svg_972">
			<g id="svg_973">
				<g id="svg_974">
					<g id="svg_975">
						<g id="svg_976">
							<g id="svg_977">
								<circle class="st3" cx="353.5" cy="342.70001220703125" r="5.5" id="svg_978"/>
							</g>
						</g>
					</g>
					<g id="svg_979">
						<g id="svg_980">
							<g id="svg_981">
								<path d="M353.5,348.8c-3.3,0-6-2.7-6-6c0-3.3,2.7-6,6-6s6,2.7,6,6C359.5,346.1,356.8,348.8,353.5,348.8z M353.5,337.7          c-2.8,0-5,2.3-5,5c0,2.8,2.3,5,5,5c2.8,0,5-2.3,5-5C358.5,339.9,356.2,337.7,353.5,337.7z" id="svg_982"/>
							</g>
						</g>
					</g>
				</g>
				<g id="svg_983">
					<g id="svg_984">
						<g id="svg_985">
							<g id="svg_986">
								<g id="svg_987">
									<path d="M353.5,343.2c-0.9,0-1.7-0.7-1.7-1.7s0.7-1.7,1.7-1.7s1.7,0.7,1.7,1.7c0,0.3-0.2,0.5-0.5,0.5s-0.5-0.2-0.5-0.5           c0-0.4-0.3-0.7-0.7-0.7s-0.7,0.3-0.7,0.7s0.3,0.7,0.7,0.7c0.3,0,0.5,0.2,0.5,0.5S353.7,343.2,353.5,343.2z" id="svg_988"/>
								</g>
							</g>
						</g>
					</g>
					<g id="svg_989">
						<g id="svg_990">
							<g id="svg_991">
								<g id="svg_992">
									<path d="M353.5,345.5c-0.9,0-1.7-0.7-1.7-1.7c0-0.3,0.2-0.5,0.5-0.5s0.5,0.2,0.5,0.5c0,0.4,0.3,0.7,0.7,0.7           s0.7-0.3,0.7-0.7s-0.3-0.7-0.7-0.7c-0.3,0-0.5-0.2-0.5-0.5s0.2-0.5,0.5-0.5c0.9,0,1.7,0.7,1.7,1.7S354.4,345.5,353.5,345.5           z" id="svg_993"/>
								</g>
							</g>
						</g>
					</g>
				</g>
			</g>
			<g id="svg_994">
				<g id="svg_995">
					<g id="svg_996">
						<g id="svg_997">
							<g id="svg_998">
								<path d="M353.5,337.7c-0.3,0-0.5-0.2-0.5-0.5v-12.6c0-0.3,0.2-0.5,0.5-0.5s0.5,0.2,0.5,0.5v12.6          C354,337.5,353.7,337.7,353.5,337.7z" id="svg_999"/>
							</g>
						</g>
					</g>
				</g>
				<g id="svg_1000">
					<g id="svg_1001">
						<g id="svg_1002">
							<g id="svg_1003">
								<path d="M353.5,357.4c-0.3,0-0.5-0.2-0.5-0.5v-8.6c0-0.3,0.2-0.5,0.5-0.5s0.5,0.2,0.5,0.5v8.6          C354,357.1,353.7,357.4,353.5,357.4z" id="svg_1004"/>
							</g>
						</g>
					</g>
				</g>
			</g>
		</g>
		<g id="svg_1005">
			<g id="svg_1006">
				<g id="svg_1007">
					<g id="svg_1008">
						<g id="svg_1009">
							<g id="svg_1010">
								<circle class="st3" cx="386.20001220703125" cy="348.70001220703125" r="5.5" id="svg_1011"/>
							</g>
						</g>
					</g>
					<g id="svg_1012">
						<g id="svg_1013">
							<g id="svg_1014">
								<path d="M386.2,354.8c-3.3,0-6-2.7-6-6c0-3.3,2.7-6,6-6s6,2.7,6,6C392.2,352.1,389.5,354.8,386.2,354.8z M386.2,343.7          c-2.8,0-5,2.3-5,5c0,2.8,2.3,5,5,5c2.8,0,5-2.3,5-5C391.2,345.9,389,343.7,386.2,343.7z" id="svg_1015"/>
							</g>
						</g>
					</g>
				</g>
				<g id="svg_1016">
					<g id="svg_1017">
						<g id="svg_1018">
							<g id="svg_1019">
								<g id="svg_1020">
									<path d="M386.2,349.2c-0.9,0-1.7-0.7-1.7-1.7s0.7-1.7,1.7-1.7s1.7,0.7,1.7,1.7c0,0.3-0.2,0.5-0.5,0.5s-0.5-0.2-0.5-0.5           c0-0.4-0.3-0.7-0.7-0.7s-0.7,0.3-0.7,0.7s0.3,0.7,0.7,0.7c0.3,0,0.5,0.2,0.5,0.5S386.5,349.2,386.2,349.2z" id="svg_1021"/>
								</g>
							</g>
						</g>
					</g>
					<g id="svg_1022">
						<g id="svg_1023">
							<g id="svg_1024">
								<g id="svg_1025">
									<path d="M386.2,351.5c-0.9,0-1.7-0.7-1.7-1.7c0-0.3,0.2-0.5,0.5-0.5s0.5,0.2,0.5,0.5c0,0.4,0.3,0.7,0.7,0.7           s0.7-0.3,0.7-0.7s-0.3-0.7-0.7-0.7c-0.3,0-0.5-0.2-0.5-0.5s0.2-0.5,0.5-0.5c0.9,0,1.7,0.7,1.7,1.7           C387.8,350.8,387.1,351.5,386.2,351.5z" id="svg_1026"/>
								</g>
							</g>
						</g>
					</g>
				</g>
			</g>
			<g id="svg_1027">
				<g id="svg_1028">
					<g id="svg_1029">
						<g id="svg_1030">
							<g id="svg_1031">
								<path d="M386.2,343.7c-0.3,0-0.5-0.2-0.5-0.5v-18.6c0-0.3,0.2-0.5,0.5-0.5s0.5,0.2,0.5,0.5v18.6          C386.7,343.5,386.5,343.7,386.2,343.7z" id="svg_1032"/>
							</g>
						</g>
					</g>
				</g>
				<g id="svg_1033">
					<g id="svg_1034">
						<g id="svg_1035">
							<g id="svg_1036">
								<path d="M386.2,357.4c-0.3,0-0.5-0.2-0.5-0.5v-2.6c0-0.3,0.2-0.5,0.5-0.5s0.5,0.2,0.5,0.5v2.6          C386.7,357.1,386.5,357.4,386.2,357.4z" id="svg_1037"/>
							</g>
						</g>
					</g>
				</g>
			</g>
		</g>
	</g>
</g><g id="svg_1038">
	<g id="svg_1039">
		<g id="svg_1040">
			<g id="svg_1041">
				<circle class="st1" cx="93.9000015258789" cy="241.89999389648438" r="2.9000000953674316" id="svg_1042"/>
			</g>
		</g>
	</g>
	<g id="svg_1043">
		<g id="svg_1044">
			<g id="svg_1045">
				<path d="M93.9,245.4c-1.9,0-3.4-1.5-3.4-3.4s1.5-3.4,3.4-3.4s3.4,1.5,3.4,3.4S95.8,245.4,93.9,245.4z M93.9,239.5      c-1.3,0-2.4,1.1-2.4,2.4s1.1,2.4,2.4,2.4s2.4-1.1,2.4-2.4S95.2,239.5,93.9,239.5z" id="svg_1046"/>
			</g>
		</g>
	</g>
</g><g id="svg_1047">
	<g id="svg_1048">
		<g id="svg_1049">
			<g id="svg_1050">
				<circle class="st1" cx="225.1999969482422" cy="177.6999969482422" r="1.2999999523162842" id="svg_1051"/>
			</g>
		</g>
	</g>
	<g id="svg_1052">
		<g id="svg_1053">
			<g id="svg_1054">
				<path d="M225.2,179.4c-1,0-1.8-0.8-1.8-1.8s0.8-1.8,1.8-1.8s1.8,0.8,1.8,1.8S226.1,179.4,225.2,179.4z M225.2,176.9      c-0.4,0-0.8,0.3-0.8,0.8s0.3,0.8,0.8,0.8c0.4,0,0.8-0.3,0.8-0.8S225.6,176.9,225.2,176.9z" id="svg_1055"/>
			</g>
		</g>
	</g>
</g><g id="svg_1056">
	<g id="svg_1057">
		<g id="svg_1058">
			<g id="svg_1059">
				<circle class="st1" cx="242.5" cy="331.6000061035156" r="2.299999952316284" id="svg_1060"/>
			</g>
		</g>
	</g>
	<g id="svg_1061">
		<g id="svg_1062">
			<g id="svg_1063">
				<path d="M242.5,334.4c-1.5,0-2.8-1.3-2.8-2.8s1.3-2.8,2.8-2.8s2.8,1.3,2.8,2.8S244,334.4,242.5,334.4z M242.5,329.8      c-1,0-1.8,0.8-1.8,1.8s0.8,1.8,1.8,1.8s1.8-0.8,1.8-1.8S243.5,329.8,242.5,329.8z" id="svg_1064"/>
			</g>
		</g>
	</g>
</g><g id="svg_1065">
	<g id="svg_1066">
		<g id="svg_1067">
			<g id="svg_1068">
				<g id="svg_1069">
					<path class="st3" d="M61,183.8l1.3,2.6c0.1,0.3,0.4,0.4,0.7,0.5l2.8,0.4c0.7,0.1,1,1,0.5,1.5l-2,2c-0.2,0.2-0.3,0.5-0.3,0.8       l0.5,2.8c0.1,0.7-0.6,1.3-1.3,0.9l-2.5-1.3c-0.3-0.1-0.6-0.1-0.8,0l-2.5,1.3c-0.6,0.3-1.4-0.2-1.3-0.9l0.5-2.8       c0-0.3,0-0.6-0.3-0.8l-2-2c-0.5-0.5-0.2-1.4,0.5-1.5l2.8-0.4c0.3,0,0.5-0.2,0.7-0.5l1.3-2.6C59.8,183.1,60.7,183.1,61,183.8z" id="svg_1070"/>
				</g>
			</g>
		</g>
		<g id="svg_1071">
			<g id="svg_1072">
				<g id="svg_1073">
					<path d="M56.9,195.9c-0.3,0-0.6-0.1-0.8-0.3c-0.4-0.3-0.6-0.8-0.6-1.4l0.5-2.8c0-0.1,0-0.3-0.1-0.3l-2-2       c-0.4-0.4-0.5-0.9-0.4-1.4c0.2-0.5,0.6-0.9,1.1-0.9l2.8-0.4c0.1,0,0.2-0.1,0.3-0.2l1.3-2.6c0.2-0.5,0.7-0.8,1.2-0.8       s1,0.3,1.2,0.8l1.3,2.6c0.1,0.1,0.2,0.2,0.3,0.2l2.8,0.4c0.5,0.1,1,0.4,1.1,0.9c0.2,0.5,0,1-0.3,1.4l-2,2       c-0.1,0.1-0.1,0.2-0.1,0.3l0.5,2.8c0.1,0.5-0.1,1-0.6,1.4c-0.4,0.3-1,0.4-1.5,0.1l-2.5-1.3c-0.1-0.1-0.2-0.1-0.4,0l-2.5,1.3       C57.3,195.8,57.1,195.9,56.9,195.9z M60.2,183.8c-0.1,0-0.2,0-0.3,0.2l-1.3,2.6c-0.2,0.4-0.6,0.7-1,0.8l-2.8,0.4       c-0.2,0-0.3,0.2-0.3,0.3c0,0.1-0.1,0.2,0.1,0.4l2,2c0.3,0.3,0.5,0.8,0.4,1.2l-0.5,2.8c0,0.2,0.1,0.3,0.2,0.4       c0.1,0,0.2,0.1,0.4,0l2.5-1.3c0.4-0.2,0.9-0.2,1.3,0l2.5,1.3c0.2,0.1,0.3,0,0.4,0c0.1,0,0.2-0.2,0.2-0.4l-0.5-2.8       c-0.1-0.4,0.1-0.9,0.4-1.2l2-2c0.2-0.2,0.1-0.3,0.1-0.4s-0.1-0.2-0.3-0.3l-2.8-0.4c-0.5-0.1-0.8-0.3-1-0.8l-1.3-2.6l0,0       C60.5,183.8,60.3,183.8,60.2,183.8z" id="svg_1074"/>
				</g>
			</g>
		</g>
	</g>
	<g id="svg_1075">
		<g id="svg_1076">
			<g id="svg_1077">
				<g id="svg_1078">
					<path class="st3" d="M77.6,183.8l1.3,2.6c0.1,0.3,0.4,0.4,0.7,0.5l2.8,0.4c0.7,0.1,1,1,0.5,1.5l-2,2c-0.2,0.2-0.3,0.5-0.3,0.8       l0.5,2.8c0.1,0.7-0.6,1.3-1.3,0.9l-2.5-1.3c-0.3-0.1-0.6-0.1-0.8,0l-2.5,1.3c-0.6,0.3-1.4-0.2-1.3-0.9l0.5-2.8       c0-0.3,0-0.6-0.3-0.8l-2-2c-0.5-0.5-0.2-1.4,0.5-1.5l2.8-0.4c0.3,0,0.5-0.2,0.7-0.5l1.3-2.6C76.3,183.1,77.3,183.1,77.6,183.8z       " id="svg_1079"/>
				</g>
			</g>
		</g>
		<g id="svg_1080">
			<g id="svg_1081">
				<g id="svg_1082">
					<path d="M80.1,195.9c-0.2,0-0.4-0.1-0.6-0.2l-2.5-1.3c-0.1-0.1-0.2-0.1-0.4,0l-2.5,1.3c-0.5,0.2-1,0.2-1.5-0.1       c-0.4-0.3-0.6-0.8-0.6-1.4l0.5-2.8c0-0.1,0-0.3-0.1-0.3l-2-2c-0.4-0.4-0.5-0.9-0.4-1.4c0.2-0.5,0.6-0.9,1.1-0.9l2.8-0.4       c0.1,0,0.2-0.1,0.3-0.2l1.3-2.6c0.2-0.5,0.7-0.8,1.2-0.8s1,0.3,1.2,0.8l1.3,2.6c0.1,0.1,0.2,0.2,0.3,0.2l2.8,0.4       c0.5,0.1,1,0.4,1.1,0.9c0.2,0.5,0,1-0.4,1.4l-2,2c-0.1,0.1-0.1,0.2-0.1,0.3l0.5,2.8c0.1,0.5-0.1,1-0.6,1.4       C80.7,195.8,80.4,195.9,80.1,195.9z M76.8,193.4c0.2,0,0.4,0.1,0.6,0.2l2.5,1.3c0.2,0.1,0.3,0,0.4,0c0.1,0,0.2-0.2,0.2-0.4       l-0.5-2.8c-0.1-0.5,0.1-0.9,0.4-1.2l2-2c0.2-0.2,0.1-0.3,0.1-0.4c0-0.1-0.1-0.2-0.3-0.3l-2.8-0.4c-0.5-0.1-0.8-0.3-1-0.8       l-1.3-2.6l0,0c-0.1-0.2-0.3-0.2-0.3-0.2s-0.2,0-0.3,0.2l-1.3,2.6c-0.2,0.4-0.6,0.7-1,0.8l-2.8,0.4c-0.2,0-0.3,0.2-0.3,0.3       c0,0.1-0.1,0.2,0.1,0.4l2,2c0.3,0.3,0.5,0.8,0.4,1.2l-0.5,2.8c0,0.2,0.1,0.3,0.2,0.4c0.1,0,0.2,0.1,0.4,0l2.5-1.3       C76.3,193.4,76.6,193.4,76.8,193.4z" id="svg_1083"/>
				</g>
			</g>
		</g>
	</g>
	<g id="svg_1084">
		<g id="svg_1085">
			<g id="svg_1086">
				<g id="svg_1087">
					<path class="st3" d="M94.1,183.8l1.3,2.6c0.1,0.3,0.4,0.4,0.7,0.5l2.8,0.4c0.7,0.1,1,1,0.5,1.5l-2,2c-0.2,0.2-0.3,0.5-0.3,0.8       l0.5,2.8c0.1,0.7-0.6,1.3-1.3,0.9l-2.5-1.3c-0.3-0.1-0.6-0.1-0.8,0l-2.5,1.3c-0.6,0.3-1.4-0.2-1.3-0.9l0.5-2.8       c0-0.3,0-0.6-0.3-0.8l-2-2c-0.5-0.5-0.2-1.4,0.5-1.5l2.8-0.4c0.3,0,0.5-0.2,0.7-0.5l1.3-2.6C92.9,183.1,93.8,183.1,94.1,183.8z       " id="svg_1088"/>
				</g>
			</g>
		</g>
		<g id="svg_1089">
			<g id="svg_1090">
				<g id="svg_1091">
					<path d="M90,195.9c-0.3,0-0.6-0.1-0.8-0.3c-0.4-0.3-0.6-0.8-0.6-1.4l0.5-2.8c0-0.1,0-0.3-0.1-0.3l-2-2       c-0.4-0.4-0.5-0.9-0.4-1.4c0.2-0.5,0.6-0.9,1.1-0.9l2.8-0.4c0.1,0,0.2-0.1,0.3-0.2l1.3-2.6c0.2-0.5,0.7-0.8,1.2-0.8       s1,0.3,1.2,0.8l1.3,2.6c0.1,0.1,0.2,0.2,0.3,0.2l2.8,0.4c0.5,0.1,1,0.4,1.1,0.9c0.2,0.5,0,1-0.4,1.4l-2,2       c-0.1,0.1-0.1,0.2-0.1,0.3l0.5,2.8c0.1,0.5-0.1,1-0.6,1.4c-0.4,0.3-1,0.4-1.5,0.1l-2.5-1.3c-0.1-0.1-0.2-0.1-0.4,0l-2.5,1.3       C90.4,195.8,90.2,195.9,90,195.9z M93.3,183.8c-0.1,0-0.2,0-0.3,0.2l-1.3,2.6c-0.2,0.4-0.6,0.7-1,0.8l-2.8,0.4       c-0.2,0-0.3,0.2-0.3,0.3s-0.1,0.2,0.1,0.4l2,2c0.3,0.3,0.5,0.8,0.4,1.2l-0.5,2.8c0,0.2,0.1,0.3,0.2,0.4c0.1,0,0.2,0.1,0.4,0       l2.5-1.3c0.4-0.2,0.9-0.2,1.3,0l2.5,1.3c0.2,0.1,0.3,0,0.4,0c0.1,0,0.2-0.2,0.2-0.4l-0.5-2.8c-0.1-0.4,0.1-0.9,0.4-1.2l2-2       c0.2-0.2,0.1-0.3,0.1-0.4c0-0.1-0.1-0.2-0.3-0.3l-2.8-0.4c-0.5-0.1-0.8-0.3-1-0.8l-1.3-2.6l0,0       C93.6,183.8,93.4,183.8,93.3,183.8z" id="svg_1092"/>
				</g>
			</g>
		</g>
	</g>
	<g id="svg_1093">
		<g id="svg_1094">
			<g id="svg_1095">
				<g id="svg_1096">
					<path class="st3" d="M110.7,183.8l1.3,2.6c0.1,0.3,0.4,0.4,0.7,0.5l2.8,0.4c0.7,0.1,1,1,0.5,1.5l-2,2c-0.2,0.2-0.3,0.5-0.3,0.8       l0.5,2.8c0.1,0.7-0.6,1.3-1.3,0.9l-2.5-1.3c-0.3-0.1-0.6-0.1-0.8,0l-2.5,1.3c-0.6,0.3-1.4-0.2-1.3-0.9l0.5-2.8       c0-0.3,0-0.6-0.3-0.8l-2-2c-0.5-0.5-0.2-1.4,0.5-1.5l2.8-0.4c0.3,0,0.5-0.2,0.7-0.5l1.3-2.6       C109.4,183.1,110.4,183.1,110.7,183.8z" id="svg_1097"/>
				</g>
			</g>
		</g>
		<g id="svg_1098">
			<g id="svg_1099">
				<g id="svg_1100">
					<path d="M106.5,195.9c-0.3,0-0.6-0.1-0.8-0.3c-0.4-0.3-0.6-0.8-0.6-1.4l0.5-2.8c0-0.1,0-0.3-0.1-0.3l-2-2       c-0.4-0.4-0.5-0.9-0.4-1.4c0.2-0.5,0.6-0.9,1.1-0.9l2.8-0.4c0.1,0,0.2-0.1,0.3-0.2l1.3-2.6c0.2-0.5,0.7-0.8,1.2-0.8       c0,0,0,0,0,0c0.5,0,1,0.3,1.2,0.8v0l1.3,2.6c0.1,0.1,0.2,0.2,0.3,0.2l2.8,0.4c0.5,0.1,1,0.4,1.1,0.9c0.2,0.5,0,1-0.3,1.4l-2,2       c-0.1,0.1-0.1,0.2-0.1,0.3l0.5,2.8c0.1,0.5-0.1,1-0.6,1.4s-1,0.4-1.5,0.1l-2.5-1.3c-0.1-0.1-0.2-0.1-0.4,0l-2.5,1.3       C107,195.8,106.8,195.9,106.5,195.9z M109.9,183.8L109.9,183.8c-0.1,0-0.2,0-0.3,0.2l-1.3,2.6c-0.2,0.4-0.6,0.7-1,0.8l-2.8,0.4       c-0.2,0-0.3,0.2-0.3,0.3s-0.1,0.2,0.1,0.4l2,2c0.3,0.3,0.5,0.8,0.4,1.2l-0.5,2.8c0,0.2,0.1,0.3,0.2,0.4c0.1,0,0.2,0.1,0.4,0       l2.5-1.3c0.4-0.2,0.9-0.2,1.3,0l2.5,1.3c0.2,0.1,0.3,0,0.4,0c0.1,0,0.2-0.2,0.2-0.4l-0.5-2.8c-0.1-0.4,0.1-0.9,0.4-1.2l2-2       c0.2-0.2,0.1-0.3,0.1-0.4s-0.1-0.2-0.3-0.3l-2.8-0.4c-0.5-0.1-0.8-0.3-1-0.8l-1.3-2.6C110.1,183.8,110,183.8,109.9,183.8z" id="svg_1101"/>
				</g>
			</g>
		</g>
	</g>
	<g id="svg_1102">
		<g id="svg_1103">
			<g id="svg_1104">
				<g id="svg_1105">
					<path class="st3" d="M127.2,183.8l1.3,2.6c0.1,0.3,0.4,0.4,0.7,0.5l2.8,0.4c0.7,0.1,1,1,0.5,1.5l-2,2c-0.2,0.2-0.3,0.5-0.3,0.8       l0.5,2.8c0.1,0.7-0.6,1.3-1.3,0.9l-2.5-1.3c-0.3-0.1-0.6-0.1-0.8,0l-2.5,1.3c-0.6,0.3-1.4-0.2-1.3-0.9l0.5-2.8       c0-0.3,0-0.6-0.3-0.8l-2-2c-0.5-0.5-0.2-1.4,0.5-1.5l2.8-0.4c0.3,0,0.5-0.2,0.7-0.5l1.3-2.6C126,183.1,126.9,183.1,127.2,183.8       z" id="svg_1106"/>
				</g>
			</g>
		</g>
		<g id="svg_1107">
			<g id="svg_1108">
				<g id="svg_1109">
					<path d="M129.8,195.9c-0.2,0-0.4-0.1-0.6-0.2l-2.5-1.3c-0.1-0.1-0.2-0.1-0.4,0l-2.5,1.3c-0.5,0.2-1,0.2-1.5-0.1       c-0.4-0.3-0.6-0.8-0.6-1.4l0.5-2.8c0-0.1,0-0.3-0.1-0.3l-2-2c-0.4-0.4-0.5-0.9-0.4-1.4c0.2-0.5,0.6-0.9,1.1-0.9l2.8-0.4       c0.1,0,0.2-0.1,0.3-0.2l1.3-2.6c0.2-0.5,0.7-0.8,1.2-0.8s1,0.3,1.2,0.8l1.3,2.6c0.1,0.1,0.2,0.2,0.3,0.2l2.8,0.4       c0.5,0.1,1,0.4,1.1,0.9c0.2,0.5,0,1-0.3,1.4l-2,2c-0.1,0.1-0.1,0.2-0.1,0.3l0.5,2.8c0.1,0.5-0.1,1-0.6,1.4       C130.4,195.8,130.1,195.9,129.8,195.9z M126.4,193.4c0.2,0,0.4,0.1,0.6,0.2l2.5,1.3c0.2,0.1,0.3,0,0.4,0c0.1,0,0.2-0.2,0.2-0.4       l-0.5-2.8c-0.1-0.5,0.1-0.9,0.4-1.2l2-2c0.2-0.2,0.1-0.3,0.1-0.4c0-0.1-0.1-0.2-0.3-0.3l-2.8-0.4c-0.5-0.1-0.8-0.3-1-0.8       l-1.3-2.6l0,0c-0.1-0.2-0.3-0.2-0.3-0.2s-0.2,0-0.3,0.2l-1.3,2.6c-0.2,0.4-0.6,0.7-1,0.8l-2.8,0.4c-0.2,0-0.3,0.2-0.3,0.3       c0,0.1-0.1,0.2,0.1,0.4l2,2c0.3,0.3,0.5,0.8,0.4,1.2l-0.5,2.8c0,0.2,0.1,0.3,0.2,0.4s0.2,0.1,0.4,0l2.5-1.3       C126,193.4,126.2,193.4,126.4,193.4z" id="svg_1110"/>
				</g>
			</g>
		</g>
	</g>
</g></g></svg>